<?xml version="1.0" encoding="utf-8"?>
<!-- Generator: Adobe Illustrator 25.0.1, SVG Export Plug-In . SVG Version: 6.00 Build 0)  -->
<svg version="1.1" xmlns="http://www.w3.org/2000/svg" xmlns:xlink="http://www.w3.org/1999/xlink" x="0px" y="0px"
	 viewBox="0 0 584.6 165.5" style="enable-background:new 0 0 584.6 165.5;" xml:space="preserve">
<style type="text/css">
	.st0{fill:#FFFFFF;}
	.st1{fill-rule:evenodd;clip-rule:evenodd;fill:#FFFFFF;}
</style>
<g id="Layer_1">
</g>
<g id="Layer_2">
	<g>
		<g>
			<path class="st0" d="M250.4,95.2h5.8v22.7h-5.8V95.2z"/>
			<path class="st0" d="M282,95.2v22.9h-6.1l-9.5-14.9v14.7h-5.4V95.2h6.2l9.4,14.8V95.2H282z"/>
			<path class="st0" d="M298.1,117.9h-5.8V100h-7.2v-4.8h20.2v4.8h-7.2V117.9z"/>
			<path class="st0" d="M308.5,95.2H325v4.7h-10.9v4.4h8.8v4.6h-8.8v4.4H325v4.7h-16.6V95.2z"/>
			<path class="st0" d="M328.9,117.9V95.2c0,0,9.3,0,9.1,0c6,0,9.2,2.8,9.2,7.2c0,3.1-1.6,5.4-4.6,6.5l5.8,9h-6.5l-4.5-7.6l-2.6,0.2
				v7.4H328.9z M341.3,102.8c0-2-1.4-3-4.3-3c-0.1,0-2.4,0-2.4,0v6.4l2.9-0.1C339.9,106,341.3,104.9,341.3,102.8z"/>
			<path class="st0" d="M372.3,95.2v22.9h-6.1l-9.5-14.9v14.7h-5.4V95.2h6.2l9.4,14.8V95.2H372.3z"/>
			<path class="st0" d="M392.2,117.9l-1.7-4.8h-8.4l-1.6,4.8h-5.7l8-22.7h7.2l7.9,22.7H392.2z M383.3,108.6h5.9l-2.9-8.9
				L383.3,108.6z"/>
			<path class="st0" d="M409.6,117.9h-5.8V100h-7.2v-4.8h20.2v4.8h-7.2V117.9z"/>
			<path class="st0" d="M420.1,95.2h5.8v22.7h-5.8V95.2z"/>
			<path class="st0" d="M441.5,118.5c-6.7,0-11.8-4.2-11.8-11.8c0-7.2,5.1-12,11.9-12c6.7,0,11.8,4.1,11.8,11.8
				C453.4,113.7,448.2,118.5,441.5,118.5z M441.5,99.3c-3.8,0-6,2.9-6,7.2c0,4.4,2.2,7.3,6.1,7.3c3.8,0,6-2.9,6-7.2
				C447.6,102.3,445.3,99.3,441.5,99.3z"/>
			<path class="st0" d="M478.2,95.2v22.9h-6.1l-9.5-14.9v14.7h-5.4V95.2h6.2l9.4,14.8V95.2H478.2z"/>
			<path class="st0" d="M498,117.9l-1.7-4.8H488l-1.6,4.8h-5.7l8-22.7h7.2l7.9,22.7H498z M489.2,108.6h5.9l-2.9-8.9L489.2,108.6z"/>
			<path class="st0" d="M506.2,95.2h5.8v17.9h9.5v4.8h-15.3V95.2z"/>
		</g>
		<g>
			<path class="st0" d="M208.4,66.2h-12v11.9h-7.6V48h7.6v11.7h12V48h7.6v30.1h-7.6V66.2z"/>
			<path class="st0" d="M234.9,78.8c-7.8,0-13.2-3.8-13.2-12.3V48h7.6v17.5c0,4.5,1.8,6.9,5.8,6.9c3.6,0,5.5-1.9,5.5-6.6
				c0,0.1,0-17.8,0-17.8h7.6c0,0,0,17.7,0,17.8C248.2,74.5,243,78.8,234.9,78.8z"/>
			<path class="st0" d="M274.9,77.6h-8.2l-6.6-22.7L260,78.1h-7.1L254,48h10.8l6.2,22.6l6.2-22.6h10.7l1,30.1h-7.2l-0.1-23.2
				L274.9,77.6z"/>
			<path class="st0" d="M314.5,78.1l-2.2-6.4h-11.1l-2.2,6.4h-7.6L302.1,48h9.5l10.5,30.1H314.5z M302.8,65.7h7.8l-3.8-11.8
				L302.8,65.7z"/>
			<path class="st0" d="M352.5,48v30.4h-8.1l-12.6-19.8v19.5h-7.1V48h8.3l12.5,19.5V48H352.5z"/>
			<path class="st0" d="M358.5,48h21.9v6.2H366v5.8h11.6v6.1H366v5.9h14.4v6.2h-21.9V48z"/>
			<path class="st0" d="M411.1,69.7c0-2-2.2-2.7-6.1-3.8c-4.4-1.2-9.6-3.2-9.6-9.2c0-5.6,4.1-9.3,11.5-9.3c4.7,0,8.3,1.1,11.2,2.6
				l-1.5,6.3c-3-1.6-6.7-2.6-9.7-2.6c-2.6,0-3.9,0.9-3.9,2.6c0,2,2.7,2.7,6.3,3.8c4.6,1.3,9.4,3.4,9.4,9.1c0,5.7-4.4,9.8-12.3,9.8
				c-4.5,0-8.8-1.2-11.6-2.7l1.4-6.4c3,1.6,6.6,2.8,10.3,2.8C409.2,72.5,411.1,71.5,411.1,69.7z"/>
			<path class="st0" d="M437,78.8c-8.9,0-15.6-5.5-15.6-15.7c0-9.5,6.8-15.8,15.7-15.8c8.9,0,15.7,5.5,15.7,15.6
				C452.8,72.5,446,78.8,437,78.8z M437,53.4c-5.1,0-8,3.9-8,9.5c0,5.8,3,9.7,8.1,9.7c5,0,8-3.9,8-9.5
				C445.1,57.3,442.1,53.4,437,53.4z"/>
			<path class="st0" d="M472.3,53.8c-5.2,0-8.5,3.5-8.5,9.2c0,5.7,3.2,9.3,8.6,9.3c2.9,0,5.7-1,7.9-2.5l1.6,6.8
				c-2.4,1.3-6.3,2.2-9.8,2.2c-9.6,0-15.9-5.5-15.9-15.6c0-9.7,6.3-15.9,16.2-15.9c3.6,0,7.2,0.9,9.9,2.3l-2.3,6.4
				C477.6,54.6,475,53.8,472.3,53.8z"/>
			<path class="st0" d="M486.8,48h7.6v30.1h-7.6V48z"/>
			<path class="st0" d="M500.8,48h21.9v6.2h-14.4v5.8h11.6v6.1h-11.6v5.9h14.4v6.2h-21.9V48z"/>
			<path class="st0" d="M544.1,78.1h-7.6V54.4h-9.5V48h26.7v6.4h-9.5V78.1z"/>
			<path class="st0" d="M574.2,78.1h-7.5V66.6L556.2,48h8.1l6.2,11.9l6-11.9h8.1l-10.4,18.7V78.1z"/>
		</g>
		<g>
			<path class="st0" d="M333.1,146.9h13.2v3.7h-8.7v3.5h7v3.7h-7v3.5h8.7v3.7h-13.2V146.9z"/>
			<path class="st0" d="M357.2,165.5c-4.7,0-7.9-2.3-7.9-7.4v-11.1h4.6v10.5c0,2.7,1.1,4.1,3.5,4.1c2.2,0,3.3-1.2,3.3-4
				c0,0.1,0-10.7,0-10.7h4.6c0,0,0,10.6,0,10.7C365.2,162.9,362.1,165.5,357.2,165.5z"/>
			<path class="st0" d="M368.8,165v-18.1c0,0,7.4,0,7.3,0c4.8,0,7.3,2.2,7.3,5.7c0,2.4-1.3,4.3-3.7,5.2l4.6,7.2h-5.2l-3.6-6.1
				l-2.1,0.2v5.9H368.8z M378.7,153c0-1.6-1.1-2.4-3.4-2.4c-0.1,0-1.9,0-1.9,0v5.1l2.3-0.1C377.6,155.5,378.7,154.7,378.7,153z"/>
			<path class="st0" d="M395.3,165.5c-5.3,0-9.4-3.3-9.4-9.5c0-5.7,4.1-9.5,9.5-9.5c5.4,0,9.5,3.3,9.5,9.4
				C404.8,161.7,400.7,165.5,395.3,165.5z M395.3,150.2c-3.1,0-4.8,2.3-4.8,5.7c0,3.5,1.8,5.9,4.9,5.9c3,0,4.8-2.3,4.8-5.7
				C400.2,152.5,398.4,150.2,395.3,150.2z"/>
			<path class="st0" d="M414.2,159.8l-1.8,0v5.2h-4.6v-18.1c0,0,6.6,0,6.7,0c5.1,0,7.7,2.6,7.7,6.3
				C422.2,157.4,419.4,159.8,414.2,159.8z M414.2,150.6c-0.4,0-1.8,0-1.8,0v5.7l1.8,0c2.4,0,3.5-1,3.5-2.9
				C417.7,151.5,416.5,150.6,414.2,150.6z"/>
			<path class="st0" d="M425,146.9h13.2v3.7h-8.7v3.5h7v3.7h-7v3.5h8.7v3.7H425V146.9z"/>
		</g>
		<rect x="250.4" y="131.6" class="st0" width="271.1" height="1.5"/>
		<g>
			<g>
				<path class="st0" d="M80.6,26.4L80.6,26.4l-0.2,0l-0.1,0l-0.1,0l-0.1,0l-0.1,0l-0.1,0l-0.1,0l-0.1,0l-0.1,0l-0.1,0l-0.1,0
					l-0.1,0l-0.1,0l-0.1,0l-0.1,0l-0.1,0L78.9,26l-0.1,0l-0.1-0.1l-0.1-0.1l-0.1-0.1l-0.1-0.1l-0.1-0.1l-0.1-0.1l-0.1-0.1l-0.1-0.1
					L78,25.4l-0.1-0.1l-0.1-0.1l-0.1-0.1l-0.1-0.1L77.3,25l-3.1-0.1l-0.4-0.1c0,0-0.5-0.1-0.7-0.2c-0.1-0.1-0.2-0.5-0.2-0.6
					c0-0.1,0.1-0.3,0.2-0.4c0.1-0.1,0.4-0.3,0.7-0.4c0.3-0.1,1-0.1,1.2-0.3c0.2-0.1,0.1-0.3,0.1-0.3l0-0.3l0-0.3l0-0.3l-0.1-0.3
					L74.8,21l-0.1-0.3l-0.1-0.3L74.5,20l-0.1-0.3l-0.1-0.3L74.1,19L74,18.6l-0.2-0.3L73.7,18l-0.2-0.3l-0.2-0.3L73.2,17L73,16.6
					l-0.2-0.3L72.7,16l-0.1-0.3l-0.1-0.3l-0.1-0.3l-0.1-0.3l-0.1-0.3L72,13.9l-0.1-0.3l-0.1-0.3l-0.1-0.3l0-0.3l0-0.3l0-0.3
					c0,0,0-0.4-0.2-0.5c-0.2-0.1-0.7-0.3-0.5-0.2c0.3,0.1-0.5-0.1-0.6-0.2c-0.1-0.1-0.8-0.6-0.8-0.6s-0.3-0.2-0.5-0.3
					C68.9,10,67.9,9,67.8,8.9c-0.1-0.2-0.2-0.2-0.4-0.2c-0.1-0.1-0.1-0.1-0.3-0.2c-0.2-0.1-3.4-0.9-3.4-0.9l-2.6-0.8l-0.3-0.2
					l-1.4-0.2l-0.3-0.1L58.9,6c0,0-1.3-1.2-1.3-2c0-0.4,1.3-0.7,1.3-0.7l0.1,0l0.1,0l0.1,0l0.1,0l0.1,0L59.7,3L59.8,3L60,2.9
					l0.1-0.1l0.1-0.1l0.1-0.1l0.1-0.1l0.1-0.1l0.1-0.1l0.1-0.1l0.1-0.1l0.1-0.1l0.1-0.1l0.1-0.1l0.1-0.1l0.1-0.1L61.9,2l0.1-0.1
					l0.1-0.1l0.1-0.1l0.1-0.1l0.1-0.1l0.2-0.1l0.1-0.1l0.1-0.1l0.1-0.1l0.2-0.1l0.2,0l0.2,0l0.2,0l0.2,0l0.2,0l0.2,0l0.2,0l0.2,0
					l0.2,0l0.2,0l0.2,0l0.2,0l0.2,0l0.2,0l0.2,0l0.2,0l0.2,0l0.2,0H68h0.2l0.2,0l0.2,0l0.2,0l0.2,0l0.2,0l0.2,0l0.2,0l0.2,0.1
					l0.2,0.1L70.7,1l0.2,0.1l0.2,0.1h0.4l2.1,0.3h0.7l0.2,0l0.2,0h0.2h0.2l0.2,0l0.2,0l0.2,0l0.2,0l0.2,0l0.2,0l0.2,0l0.2,0l0.2,0
					l0.2,0l0.2,0l0.2,0l0.2,0l0.2,0l0.2,0h0.2h0.2l0.2,0l0.2,0l0.2,0l0.2,0l0.2,0l0.2,0l0.2,0l0.2,0.1L80,1.5l0.2,0.1l0.2,0.1
					l0.3,0.1l0.3,0.1l0.3,0l0.4,0l0.3,0h0.3l0.3,0l0.4,0l0.3,0l0.3,0l0.4-0.1l0.3-0.1l0.3-0.1l0.4-0.1l0.3-0.1L86,1.3l0.3-0.1
					l0.3-0.1L87,1l0.4-0.1l0.3-0.1l0.4-0.1l0.3-0.1l0.4-0.1l0.3-0.1l0.3-0.1l0.4-0.1l0.3-0.1l0.3,0c0,0,1.2-0.1,0.9-0.1
					C91.2,0.1,92,0,92.7,0c0.7,0,3.4,1.4,3.9,1.6c0.5,0.2,0.6,0.2,0.9,0.4c0.3,0.2,0.4,0.3,0.7,0.5c0.2,0.2,0.8,1.1,1.1,1.7
					c0.3,0.6,0.3,1,0.4,1.3c0.1,0.3,0.4,1.1,0.5,1.7c0.1,0.6,0.5,1.9,0.4,2.8c-0.1,0.9-0.3,1.8-0.4,2c-0.1,0.3-0.3,0.9-0.3,0.9
					l-0.1,0.4l-0.1,0.4l-0.1,0.4l-0.1,0.4l-0.1,0.4l-0.1,0.4l-0.1,0.4l-0.1,0.4l-0.1,0.4l-0.1,0.4l-0.1,0.4l-0.1,0.4l-0.1,0.4
					l-0.2,0.4l-0.1,0.4L98,19l-0.1,0.1l-0.1,0.1l-0.1,0.1l-0.1,0.1l-0.1,0.1l-0.1,0.1l-0.1,0.1L97.3,20l0,0.1l0,0.1l0,0.1l0,0.1
					l0,0.1l0,0.1l0,0.1l0,0.1c0,0-1.2,3.1-1.3,3.3c-0.1,0.2-0.5,0.4-0.7,0.4c-0.2,0-1,0-1.2,0.1c-0.3,0.1-1,0.4-1.2,0.5
					c-0.2,0.1-3.8-0.1-3.8-0.1l-0.1,0l-0.1,0l-0.1,0l-0.1,0l-0.1,0l-0.1,0l-0.1,0l-0.1,0l-0.1,0L88,25L87.9,25l-0.1-0.1l-0.1-0.1
					l-0.1-0.1l-0.1-0.1l-0.1-0.1c0,0-1.6-0.4-1.7-0.4c-0.2,0-0.1,0.8-0.2,1.1c-0.1,0.3-0.5,0.6-0.6,0.7c-0.2,0-4,0.4-4,0.4
					 M79.7,24.4c0.3,0,0.8-0.3,1-0.6C81,23.5,81,23.4,81,23c0.1-0.4,0-1.5-0.3-2.1c-0.3-0.6-0.9-1.7-1.2-1.7
					c-0.3,0.1-0.8,3.7-0.7,4.1c0.1,0.4,0,1,0.3,1.1 M86.1,22c0.3,0.1,2.6-0.8,2.7-1.1c0.1-0.3-0.1-1-0.1-1.5c0-0.5,0.4-1.8,0.3-1.6
					C88.9,18.3,89,17.3,89,17c0-0.3,0.3-0.5,0.1-0.7c-0.2-0.2-3.2-0.2-3.4,0c-0.2,0.2,0,0.6,0,0.6l0,0.2l0.1,0.4l0.1,0.4l0.1,0.4
					l0.1,0.4l0,0.4l0,0.4l0,0.4L85.9,20l-0.2,0.6c0,0-0.3,0.2-0.3,0.4C85.4,21,85.7,21.9,86.1,22z"/>
				<g>
					<g>
						<path class="st0" d="M130.1,31.7c0.3-1,0.8-4.8,0.8-7.2c0-1.2-0.3-2.4-0.3-3.6c0-1.4-0.6-3.2,1-4.1c0.8-0.4,1.8-0.5,2.6-0.3
							c0.4-0.2,0.2-0.5,0.1-0.8c-1.7-1.7-4.3-2.6-6.7-2.8c-1.9-0.4-3-2.8-4.9-3.6c-2-1.6-4.1-3.1-6.5-3.8c-3-1.1-5.9-1.5-8.7,0
							c-0.5,0-1.1,0.2-1.6,0.2c-0.5,0-0.7,0-0.7,0s-0.2-0.1-0.3,0c-0.2,0-0.3,0-0.4,0.1c-0.1,0-0.3,0.1-0.4,0.3
							C104,6.2,104,6.4,104,6.5c0.1,0.1,0.3,0.4,0.5,0.5c0.1,0,0.4,0.2,0.4,0.2l0.9,0.3c0,0,0.1,0.1,0.1,0.1
							c2.4,1.1,4.5,3.1,6.9,4.4c0,1.9,0.6,4.1,2.2,5.5c0.8,0.6,1.3,1.9,2.4,1.4c0.2-0.4-0.4-0.7-0.5-1.1c-0.3-0.6-0.7-1.5-0.6-2.3
							c2.2,2.2,4.1,4.7,6.3,6.9c0.6,1,1.7,2.6,1.8,2.9c0.1,0.4,0.3,0.7,0.3,1.1c0.9,2.3,0.2,5,0.3,7.1c0,0,0,1.6-0.1,2.6
							c-1.1,0.2-2,2.3-1.9,2.8c0,0.6,0.2,1,0.7,1.5c0.5,0.5,1.2,0.3,1.6,0.8c0.6,0.7,0.1,3.8,0.4,3.8c0.2,0,0.2,0.1,0.4-0.2
							c0.1-0.2,0.8-1.6,1-3.9c0.1-0.5-0.1-2.8-0.1-3.1c0-0.3,0.1-0.3,0.3-0.5c0.2-0.2,0.5-0.6,0.6-0.9c0.9-1.4,1.4-2.3,1.9-3.7
							L130.1,31.7z"/>
					</g>
				</g>
				<g>
					<g>
						<path class="st0" d="M1.3,74.7c-0.7,0.7-0.7,1.8-1.2,2.7c-0.3,1.4-0.3,3.4,0.6,4.7c0.4,0.6,1.4,2,2.1,2.4
							c1.9,1.5,4.3,3.3,4.7,5.8c-0.1,0.1,0,0.3,0,0.4c-1,1-2.1,2.1-1.9,3.8c0.2,0.7,0.3,1.3,0.3,2c0,0.3-0.3,0.6-0.1,0.8
							c0.1,0.5,0.6,0.8,0.4,1.3C6,99,6,99.3,5.6,100c0.1,0.9-0.3,1.9,0.1,2.7c0.4,0.6-0.1,1.3-0.4,1.9c-0.1,0.7-0.4,1.5-0.3,2.2
							c0,0-0.1,0,0.2,0.2c0.3,0.2,0.3,0.1,0.4,0.4l0.1,0.1l0.2,0.1c0.1,0.1-0.1,0.1,0.5,0.3c0.4-1,0.4-1,0.7-0.5
							c0.1,0,0.1,0,0.2-0.1c0-0.8-0.2-1.5-0.3-2.3l0.2-0.4c0.1,0.4,0.4,0.8,0.7,1.2c0.2,0.1,0.3,0,0.4-0.2c-0.2-0.6-0.9-1.1-0.9-1.8
							c0-0.1,0-0.4,0.1-0.6c0.1-0.3,0.1-0.5,0.3-0.8c0-0.8,0.1-1.4-0.1-2.2c-0.1-0.5,0.4-0.7,0.6-1.1c0.5-0.9,0.4-2.1,1.2-2.8
							c0.4-0.1,0.8,0.2,1,0.5c-0.2,0.9,0,1.8-0.2,2.7c-0.1,0.3,0.2,0.6,0.2,0.9c0.3,0.6,0,1.3,0.4,1.8c-0.1,0.8,0.2,1.5,0.4,2.2
							c0.2,0,0.2-0.3,0.4-0.4c0-0.4-0.1-0.8-0.2-1.2c0.3-0.1,0.4,0.2,0.6,0.4c0.3,0.6,0.6,1.3,1.2,1.7c0.1-0.2,0-0.4,0-0.6
							c-0.3-0.2-0.3-0.5-0.5-0.8c0.2,0,0.4,0.3,0.5,0.5c0.4,0.9,1.7,1.2,1.6,2.4c0,0.6-0.5,1.3,0,1.9l0.1,0.1
							c0.2,0.5,0.3,0.6,0.6,0.9c0.1,0.1,0.1,0,0.2-0.1c0.1-0.5,0.2,0.1,0.9,0.2c0.1-0.1,0.1-0.3,0.1-0.4c-0.1-0.3-0.1-0.7,0.1-0.6
							c0.2,0.2,0.5,0.3,0.5,0.6c0.1,0,0.2,0,0.2-0.1c0-0.8-1.1-1.1-0.9-2c0-0.1-0.2-0.3-0.1-0.5c0.3,0.4,0.6,0.9,1.2,0.8l0.1-0.1
							c-0.3-0.4-0.8-0.5-1-1c-0.3-0.4-1.1-0.6-0.9-1.2c-0.1-0.8,0.2-1.6,0-2.5l0.2-0.9c0.4,0.1,0.8,0.1,1.2,0.1
							c0.3,0,0.2,0.4,0.3,0.6c0.3,0.5,1,0.8,1,1.5c-0.3,0.5-0.8,0.7-0.8,1.3c0.3,0.4,0.5-0.3,0.8-0.3c-0.3,0.3-0.3,1.1-0.9,0.9
							c-0.3-0.1-0.7-0.3-0.9,0c-0.2,0.4,0.6,0.7,0.7,0.8c0.5,0.3,1,0.5,1.5,0.3c0.4-0.3,0.4-0.8,0.6-1.2c0.2-0.6,0.1-1.2,0.3-1.8
							c-0.2-0.9,0.4-1.7-0.1-2.6c-0.3-0.8,0.3-1.4,0.5-2.2c0.3-0.2,0.1-0.5,0.5-0.6c0.3-0.1,0.6,0.1,0.8,0.3c0.2,0,0.5,0.1,0.7,0.1
							c0.4-0.3,1.1-0.6,1.3-1c0.1-0.3-0.3-0.2-0.4-0.5l0,0c-0.2-0.6,0.2-1.2-0.4-1.7c-0.1-0.4-0.4-0.7-0.6-0.9
							c-0.1-0.4-0.4-0.8-0.8-0.9c-0.3,0-0.2,0.4-0.4,0.4c-0.5-0.2-1.1-0.6-1.6-0.2c-0.5-0.3-1-0.6-1.5-0.7c-0.5,0-1,0.1-1.4,0.2
							c0-0.2-0.2-0.1-0.3-0.2c-0.7-0.8-1.5-1.5-2.2-2.4c-1-0.9-2.4-1.1-3.7-1.1c-0.2,0.2-0.6,0-0.8,0.2l-0.1,0
							c-0.2-2.8-2.2-5.3-4.4-7c-1.3-1.4-1.7-3.2-1.5-5.1c0.1-0.2,0-0.6,0.2-0.8c0.2-1,1.1-1.8,2-2c1.1,0,2.1,0.7,2.6,1.7
							C8.9,78,9,79.4,8.1,80.3c-0.2,0.2-0.1,0.4-0.3,0.6c0.1,0.4,0.4,0.8,0.7,1c0.4,0.2,1.1,0.4,1.5,0c0.6-0.3,0.9-0.9,1.4-1.4
							c0.4-0.8,0.5-1.6,0.4-2.5c-0.1-0.2-0.1-0.5-0.2-0.8c-0.7-1.8-1.8-3.7-3.6-4.8C7.6,72.4,7.3,72,6.8,72c-1-0.4-2.2,0-3.2,0.4
							C2.7,73,1.8,73.7,1.3,74.7"/>
					</g>
				</g>
				<g>
					<g>
						<path class="st0" d="M27.8,71c-0.2,0.9-0.5,3.8-1.2,4.5c-0.3,0.7-0.3,1.6-1.2,2C24.9,78.2,23.8,79,24,80
							c-0.5,1-0.5,2.2-1.2,3.1c-0.1,0.3-0.2,0.6-0.3,0.7c-0.1,0.1,0,0.2-0.1,0.2c-0.4,0.5-1,0.6-0.7,1.4c-0.2,0.6,0.2,1.2,0.3,1.4
							c0.2,0.4,0.1,1,0.7,1.1c0.6-0.1,1.3-0.1,2-0.1c0.4-0.3,0.4-0.9,0.9-1.2c0.2-0.2,0.3-0.1,0.5-0.2c0.7-0.6,1.8-0.1,2.5-0.6
							c0.7,1.3,0.9,2.8,1,4.4c-0.3,0.9-0.3,1.7,0.1,2.4c0.6,1.2,0.2,2.7,1.3,3.7c0,1.7,1.1,3,1.5,4.6c1.5,1.4,0.1,3.6,1.2,5.1
							c0.1,1-0.1,2.2-0.5,3.2c-0.8,0.6,0,1.8-1,2.3c-0.2,0.5-0.5,0.9-0.6,1.4c0.5,0.2,0.9,0.3,1.4,0.2c0.1,0.1-0.1,0.5,0.1,0.5
							c0.2,0,1.2,0.4,2.3,0.2c0.6-0.1-0.1-2.2-0.1-2.2c-0.3-0.1,0-0.7-0.1-1c0.1-0.2,0.4,0,0.6-0.3c0.1-1,0.4-2.1,0.1-3.1
							c0-1.1,0.4-2.1,0.8-3c0.2-0.7-0.1-1.1-0.1-1.7c0.6-1.6,0.8-3.4,1.5-5c0-0.3-0.1-0.6-0.2-1c1.7,1.3,4.5,0.7,6.5,0.1
							c-0.2,1.5,1.2,2.4,2.2,3.2c0.9,0.7,0.1,1.7,0.7,2.5c0.1,0.7-0.5,1.2-0.5,1.9c-0.1,1-0.8,1.8-1.4,2.6c-0.5,0.6-0.3,1.8-1.3,1.9
							c-0.2,0.7-0.5,1.3-0.7,1.9c0.7,0.3,1.7,0.4,2.5,0.1c0.4-0.5,0.7-1,0.6-1.8c0-0.2-0.1-0.2-0.3-0.3c0.2-0.3,0.2-0.7,0.6-0.9
							c0,0,0.2,0,0.6-0.1c0.5-0.1,0.7-1.8,0.5-3.1c0-0.2,0.3-1,0.9-2.1c0.4-0.7,1.4-1.2,1-2.1c-0.4-1-1.6-1.7-1.4-3
							c-0.1-1.1,0.2-2.3,0.3-3.4c0.2-0.1,0.4-0.3,0.6-0.3c0.2,1,0.7,2,1.3,2.8c0.1,1.1,0.3,2.3,0.8,3.3c-0.6,1.1,0.2,1.8,0.2,2.8
							c0.3,0.9,0.7,2.1,0.7,2.8c0,0.7-0.3,1.4-0.4,2.1c0.1,0.6-0.3,1.5,0.6,1.5c0.2,0.7-0.5,1.4-0.4,2.1c-0.3,1.1,2.5,0.5,2.4,0.3
							c-0.2-0.7,0.1-1.6-0.6-1.9c-0.2-0.1-0.3-0.2-0.4-0.2c0.2-0.8,0.6-1.6,0.2-2.4c-0.2-0.4-0.4-2.3-0.5-3.8c0-1,0.1-1.7,0.1-2
							c-0.1-0.4-0.1-2.2-0.6-3.2c0.2-1.6,1-3.4,0.4-4.9c0.2-2,0.7-4.2,0-6l0.1-0.1c0.4,1.3,1,3.3,1.1,3.7c0.2,0.5,0.8,1.6,1,2.5
							c0.3,1.1,0.2,2.5,0.1,3.7c0,0.4,0.1,0.5,0,0.8c-0.1,1.1,0,2.1-0.3,3.2c0,0-0.1,0.2,0.1,0.2c0.1,0,0.2-0.4,0.3-0.6
							c0.5,0.1,0.3-0.7,0.7-1c0,0.6-0.3,1.2-0.5,1.8c0,0.1,0,0.3,0.1,0.2c1.1-1.8,1.6-4.1,1.4-6.2c-0.4-1.9-1.8-3.5-2.6-5.3
							c-0.5-1.8-0.6-3.8-2-5.1c-0.7-1.1-1.9-1.5-2.9-2.1c-1.6-0.8-3.6-1.7-5.5-0.6c-1.6,0.6-3.5,1.7-5.3,0.8
							c-0.5-0.6-1.7-0.8-1.6-1.9c-0.8-0.9-1.1-2.4-2.5-2.6c-1.3-0.5-1.9-2.1-3.1-2.6c0-0.4,1.8-2.9,2-3.3c0.1-0.8,0-1.8,0.3-2.6
							l0-0.4c-0.8,0.2-1,1.1-1.7,1.5c-0.9,0.4-2.8,4.2-3.8,3.4c0.3-1,0.2-3.9,0-4.7c-0.1-0.1-0.2-0.2-0.4-0.1
							C28,70.2,28,70.6,27.8,71"/>
					</g>
				</g>
				<g>
					<g>
						<path class="st1" d="M18.1,129.8l0.1-0.2c0,0-0.2-0.6-0.3-0.6c-0.1-0.1-0.2-0.4-0.3-0.5c-0.3-0.6-0.2-0.3-0.4-1.2
							c-0.2-0.8-0.3-1.4-0.3-2c0.1-0.4,0.1-0.9,0-1.2c0-0.3-0.1-0.7-0.1-1c0-0.1,0-0.3,0-0.4c0-0.1,0-0.2,0-0.3c0-0.1,0-0.2,0-0.3
							c0-0.2,0.1-0.5,0.1-0.7c0-0.2,0-0.4,0-0.5c-0.1-0.3,0-0.6-0.1-0.9c-0.1-0.1-0.1-0.3-0.1-0.5c0-0.2-0.2-0.4-0.2-0.5
							c0-0.2-0.1-0.3-0.2-0.4c-0.1-0.1-0.2-0.3-0.2-0.4c-0.1-0.2-0.1-0.4-0.2-0.5c0-0.1,0-0.3,0-0.5c0-0.1,0-0.3,0-0.4
							c0-0.1-0.1-0.2-0.2-0.4c-0.1-0.1-0.1-0.3-0.1-0.4c0-0.2,0-0.2,0-0.4c-0.2,0-0.4,0-0.5,0c-0.2,0-0.4,0-0.6,0
							c-0.2,0-0.3,0-0.5,0c-0.2,0-0.4,0-0.5-0.1c-0.1-0.4,0.2-0.3,0.5-0.3c0.4,0,0.8,0,1.1,0c0.1,0,0.3,0,0.4,0c0,0,0.1,0,0.1,0
							c0,0,0.1-0.1,0.1-0.1c0-0.2-0.1-0.1-0.2-0.2c-0.1,0-0.2-0.1-0.3-0.1c-0.2-0.1-0.5-0.1-0.6-0.1c-0.3,0-0.4-0.1-0.6-0.1
							c-0.3-0.1-0.5-0.1-0.4-0.3c0-0.1,0.1-0.1,0.3-0.1c0.3,0,0.6,0.1,1,0.2c0.2,0.1,0.4,0.1,0.6,0.2c0.1,0,0.2,0,0.3,0.1
							c0.1,0,0.2,0,0.3-0.1c0-0.1-0.2-0.1-0.2-0.2c-0.1-0.1-0.2-0.1-0.3-0.1c-0.2-0.1-0.4-0.2-0.6-0.3c-0.2-0.1-0.4-0.2-0.6-0.3
							c-0.1-0.1-0.2-0.1-0.3-0.1c-0.1-0.1-0.2-0.1-0.2-0.2c0-0.1,0-0.1,0.1-0.2c0,0,0.1,0,0.1,0c0.1,0,0,0,0.2,0.1
							c0.2,0.1,0.4,0.2,0.5,0.2c0.2,0.1,0.3,0.2,0.5,0.3c0.4,0.1,1,0.5,1.1,0.4c0.1-0.1,0.3-0.1,0.4-0.2c0.1,0,0.2-0.2,0.4-0.2
							c0,0,0.1,0,0.1,0c0.5,0.1,0.7,0.4,1,0.7c0.2,0.1,0.3,0.3,0.5,0.4c0.2,0.1,0.4,0.2,0.5,0.3c0.1,0,0.2,0,0.3,0.1
							c0,0,0.1,0,0.1,0c0,0,0.1,0,0.2,0c0.2,0,0.3,0.1,0.5,0.2c0.2,0,0.3,0.1,0.5,0.2c0.2,0.1,0.3,0.1,0.5,0.2
							c0.1,0.1,0.3,0.2,0.4,0.3c0.1,0.1,0.3,0.2,0.4,0.3c0.1,0.1,0.3,0.2,0.4,0.4c0.1,0.1,0.2,0.2,0.3,0.4c0.1,0.2,0.2,0.3,0.2,0.5
							c0.1,0.2,0.1,0.4,0.2,0.5c0.1,0.4,0.2,0.8,0.4,1.1c0.2,0.6,0.4,1.1,0.6,1.6c0,0.1,0.1,0.1,0.1,0.2c0.1,0.1,0.1,0.2,0.2,0.2
							c0.1,0.2,0.2,0.3,0.3,0.4c0.2,0.3,0.5,0.5,0.8,0.7c0,0,0.1,0.1,0.1,0.1c0,0,0,0,0,0c0.1,0.1,0.3,0.3,0.5,0.4
							c0.2,0.1,0.3,0.3,0.5,0.4c0.2,0.2,0.4,0.3,0.6,0.5c0.1,0.1,0.1,0.1,0.2,0.2c0.2,0.2,0.5,0.5,0.8,0.7c0.2,0.2,0.5,0.5,0.7,0.7
							c0.2,0.3,0.5,0.4,0.7,0.7c0.2,0.3,0.4,0.5,0.6,0.8c0.2,0.2,0.5,0.5,0.7,0.8c0.2,0.3,0.4,0.6,0.6,0.8c0.2,0.2,0.4,0.6,0.6,0.9
							c0.2,0.3,0.4,0.6,0.5,0.9c0.2,0.3,0.4,0.6,0.6,0.9c0.2,0.3,0.3,0.6,0.5,1c0.1,0.4,0.3,0.6,0.5,1c0.2,0.3,0.3,0.7,0.5,1
							c0,0.1,0.1,0.2,0.2,0.4c0.1,0.2,0.2,0.4,0.3,0.6c0.1,0.2,0.1,0.4,0.2,0.6c0.1,0.2,0.1,0.3,0.2,0.5c0.1,0.1,0.2,0.4,0.3,0.6
							c0.1,0.2,0.1,0.3,0.2,0.5c0.1,0.2,0.1,0.3,0.2,0.5c0,0.1,0.1,0.2,0.1,0.2c0.1,0.1,0.1,0.3,0.2,0.5c0,0,0,0.1,0,0.1
							c0,0.1,0.1,0.2,0.2,0.3c0.1,0.1,0.1,0.2,0.1,0.3c0.1,0.2,0.2,0.4,0.3,0.6c0.1,0.2,0.2,0.3,0.3,0.4c0.1,0.1,0.2,0.3,0.3,0.4
							c0.1,0.2,0.2,0.3,0.3,0.4c0.1,0.1,0.2,0.3,0.3,0.4c0.1,0.1,0.2,0.2,0.3,0.4c0.1,0,0.1,0.1,0.2,0.1c0.1,0,0.1,0.1,0.2,0.2
							c0.1,0.1,0.1,0.1,0.2,0.2c0.1,0.1,0.3,0.3,0.6,0.4c0.2,0.2,0.4,0.3,0.6,0.5c0.2,0.1,0.4,0.3,0.6,0.4c0.2,0.1,0.5,0.2,0.7,0.4
							c0,0.1,0.1,0.1,0.2,0.1c0.1,0.1,0.1,0.1,0.2,0.1c0.1,0.1,0.2,0.1,0.3,0.2c0.1,0.1,0.2,0.1,0.3,0.2c0.1,0,0.2,0.2,0.3,0.2
							c0.2,0.1,0.4,0.3,0.6,0.4c0.1,0.1,0.2,0.1,0.3,0.2c0.1,0.1,0.2,0.2,0.3,0.2c0.1,0.1,0.2,0.2,0.3,0.2c0.3,0.3,0.6,0.6,0.9,0.9
							c0,0,0,0,0,0c0,0,0.1,0.1,0.1,0.1c0.1,0.1,0.1,0.1,0.2,0.3c0.2,0.2,0.3,0.4,0.5,0.6c0.2,0.2,0.3,0.5,0.5,0.7
							c0.1,0.2,0.2,0.3,0.3,0.5c0.1,0.2,0.2,0.4,0.3,0.5c0,0.1,0,0.1,0.1,0.1c0,0,0.1,0.1,0.1,0.1c0.1,0.2,0.1,0.4,0.1,0.6
							c0,0.2,0,0.4-0.1,0.5c-0.3,0.1-0.4-0.1-0.6-0.2c-0.2-0.1-0.3-0.2-0.5-0.3c-0.2-0.1-0.2-0.1-0.5-0.2c-0.1,0-0.2-0.1-0.4,0
							c-0.1,0-0.2,0-0.5-0.1c-0.1-0.1-0.2-0.2-0.4-0.3c-0.1,0-0.2-0.1-0.3-0.1c0,0-0.1,0-0.2-0.1c-0.1-0.1-0.3-0.2-0.4-0.2
							c-0.3-0.1-0.5-0.3-0.7-0.6c-0.1-0.1-0.2-0.3-0.3-0.3c-0.1-0.1-0.1-0.1-0.2-0.2c0-0.1-0.1-0.1-0.1-0.2
							c-0.1-0.1-0.2-0.2-0.3-0.3c-0.1-0.1-0.1-0.1-0.2-0.1c-0.1-0.1-0.2-0.1-0.2,0c0,0,0,0.1-0.1,0.1c0,0.1,0,0.2,0.1,0.3
							c0.1,0.1,0.1,0.2,0.2,0.3c0.1,0.2,0.2,0.4,0.3,0.6c0,0.2,0.1,0.3,0.2,0.5c0.1,0.1,0.1,0.3,0.2,0.5c0,0.2,0,0.2,0,0.3
							c-0.1,0.1,0,0.2-0.1,0.3c-0.1,0.2-0.2,0.2-0.2,0.4c0,0,0,0.1,0,0.2c0,0.2,0.1,0.4,0.1,0.5c0,0.3,0,0.4-0.2,0.5
							c-0.1,0-0.2,0-0.3-0.1c-0.1-0.1-0.2-0.1-0.2-0.2c-0.1-0.1-0.3-0.3-0.4-0.4c-0.1-0.1-0.2-0.2-0.3-0.4c-0.1-0.1-0.2-0.3-0.3-0.4
							c-0.1-0.1-0.3-0.3-0.4-0.5c-0.1-0.2-0.2-0.3-0.3-0.5c-0.2-0.3-0.7-1.2-0.7-1.2c0-0.1-0.1-0.2-0.1-0.3
							c-0.1-0.2-0.2-0.4-0.3-0.5c-0.2-0.5-0.3-0.7-0.5-1.1c-0.1-0.1-0.1-0.2-0.2-0.3c0,0,0,0,0-0.1c0,0-0.1-0.2-0.1-0.2
							c-0.1-0.1-0.2-0.3-0.3-0.4c-0.2-0.3-0.6-0.4-0.9-0.6c-0.1-0.1-0.1-0.1-0.2-0.2c0,0-0.1,0-0.1-0.1c0,0-0.2-0.2-0.2-0.2
							c0,0,0-0.1-0.1-0.1c0-0.1-0.1-0.1-0.2-0.2c-0.2-0.2-0.4-0.3-0.6-0.5c-0.4-0.1-0.7-0.3-1.2-0.4c-0.4-0.1-0.8-0.3-1.2-0.4
							c-0.4-0.1-0.7-0.3-1.1-0.5c-0.2,0-0.4-0.2-0.6-0.2c-0.1-0.1-0.4-0.2-0.5-0.3c-0.2-0.1-0.4-0.2-0.5-0.3
							c-0.2-0.1-0.4-0.2-0.5-0.3c-0.2-0.1-0.3-0.2-0.5-0.3c-0.2-0.1-0.3-0.2-0.5-0.3c-0.1-0.1-0.2-0.2-0.4-0.2c0,0,0,0,0,0
							c0,0-0.1,0-0.1,0c-0.2-0.1-0.3-0.2-0.5-0.3c-0.4-0.3-1-0.6-1.5-0.9c-0.2-0.1-0.3-0.2-0.5-0.3c-0.3-0.3-0.6-0.4-0.9-0.7
							c-0.3-0.2-0.5-0.5-0.9-0.8c-0.1,0-0.2-0.1-0.2-0.2c0,0-0.1,0-0.1-0.1c0,0-0.1-0.1-0.1-0.1c-0.1,0-0.1-0.1-0.2-0.2
							c0-0.1-0.2-0.1-0.2-0.2c0,0-0.1-0.1-0.1-0.1c0,0-0.1-0.1-0.1-0.1c0-0.1-0.1-0.1-0.2-0.2c0,0,0,0,0,0c0,0,0,0-0.1-0.1
							c-0.1,0-0.2-0.1-0.2-0.2c-0.1-0.1-0.2-0.2-0.3-0.3c0-0.1-0.1-0.2-0.2-0.3c-0.1-0.1-0.1-0.1-0.1-0.2c-0.1-0.1-0.1-0.2-0.2-0.2
							c-0.1-0.2-0.3-0.3-0.4-0.5c-0.1-0.1-0.2-0.3-0.3-0.5c-0.1-0.2-0.2-0.3-0.4-0.4c-0.1-0.2-0.2-0.3-0.4-0.4c-0.1,0-0.2,0-0.3,0.1
							c-0.2,0.2-0.2,0.5-0.2,0.9c0,0.4,0.2,0.9,0.2,1.4c0,0.1,0,0.2,0,0.2c0,0.1-0.1,0.1-0.1,0.1c-0.3,0-0.4-0.2-0.6-0.3
							c-0.1-0.1-0.2-0.2-0.3-0.3c0,0-0.1-0.1-0.1-0.1c0,0,0-0.1,0-0.1c0-0.1-0.1-0.1-0.2-0.2c0,0-0.1-0.1-0.1-0.1
							c0,0-0.1-0.1-0.1-0.2c-0.1-0.1-0.1-0.2-0.1-0.3c-0.1-0.1-0.1-0.2-0.1-0.3c-0.1-0.2-0.2-0.5-0.2-0.8c0-0.1-0.1-0.3-0.1-0.5
							c0-0.4-0.1-0.4-0.1-0.8c0,0.1,0-0.6,0.1-1.1c0-0.2,0.2-0.5,0.2-0.7"/>
					</g>
				</g>
				<g>
					<g>
						<path class="st0" d="M26.1,42c-0.3,0.3-1.8,0.2-2,0.2c-0.1,0-0.1-0.1-0.2-0.1c0,0-0.3-0.2-0.5-0.3c-0.2-0.1-0.2-0.2,0-0.2
							c0.2,0,0.3,0,0.5-0.1c0.2-0.1,0.6-0.3,0.8-0.2c-0.4,0-1-0.3-1.1-0.5c-0.1-0.1-0.1-0.1,0.1-0.1c0.2,0,0.3,0,0.6,0
							c0.1,0,0.1,0,0.1,0c0.4,0.1,0.9,0,1.1-0.3c0.2-0.3,0.2-0.3,0.3-0.7c0.2-1.9,1.1-4.7,1.2-5.9c0.1-0.8,0.3-1.1,0.7-1.2
							c1.8-0.7,3.8-2.6,4.7-3.6c0.9-1,1.4-1.8,1.6-2.5c0.1-0.4-0.4-1.4-0.8-1.8c-0.6-0.5-1.2-0.7-1.6-0.9c-0.4-0.2-0.7-0.4-1.1,0
							c-3.3,2.7-2.1,6.3-5.4,10.7c-3.5,4.7-8.7,4.6-10.3,0.5c-0.2-0.5,0.2-0.7,0.5-0.3c2,2.8,6.5,2.8,8.9-3.2
							c1.7-4.2,1.8-7.5,4.2-10.9c1.8-2.5,3.8-3.7,5.8-4.9c1.6-0.9,2.6-1.7,6.5-2.1c3.4-0.4,3.3,0.3,7.4,0.1c0.3,0,1.1-0.2,1.3-0.2
							c0.6-0.2,0.5-0.1,0.8-0.3c0.1-0.1,0.4-0.2,0.5-0.4c0.4-0.8,0.6-0.9,0.8-1.5c0-0.2,0-1.8,0.1-1.9c0-0.1-0.1-0.3-0.4-0.5
							c-0.5-0.3-0.8-0.4-1.1-0.9c-0.4-0.9-0.4-1.6,0.1-1.6c0.5,0,1.3,0.2,2.2,1.1c0.3,0.3,0.5,1.1,1.5,1.4c1.3,0.4,2,0.8,2.6,1.4
							c0.4,0.4,1.1,0.8,1.5,1.1c0.5,0.3,0.6,0.6,0.5,1.1c0,0.2-0.1,0.3-0.2,0.5c-0.4,0.6-1.4,0.6-2,0.5c-0.8-0.2-1.1-0.2-1.8-0.3
							c-0.5-0.1-0.3,0.7-0.5,1.4c-0.3,1,0.2,0.1-0.8,2.2c-0.5,1.1-2.1,2-3.1,2.8c-0.1,0.1,1.3,2.2,1.7,2.8c0.4,0.7,0.4,1.1,0.4,1.3
							c0,0.6-0.1,0.8-0.6,1.1c-0.3,0.2-0.6,0.3-0.9,0.4c-1.3,0.5-2.1-0.1-2.2-0.2c-0.5-0.4-0.2-0.9,0-1.1c0,0,0.3-0.3,0.5-0.3
							c0,0,0.3,0,0.3,0.1c0-0.1,0.1,0.3,0.3,0.3c0.8-0.1,0.6-0.4,0.7-0.3c-0.5-2.1-1.7-2.4-2-2.9c-1.9,1.2-5,1.9-7.8,2
							c0,1.2-0.1,2.1-0.4,2.8c-0.5,1.4-1.2,2.2-2.1,2.8c-1.8,1.4-1.4,0.2-5.9,4.3c-3,2.7-3.7,3.3-4.1,6.4C27.8,41,26.9,41.8,26.1,42
							"/>
					</g>
				</g>
				<g>
					<g>
						<path class="st0" d="M160.5,62.3c0.1,0.3,0.3,1.1,0.5,1.4c0.3,0.3,1,1.7,1.4,2.5c0.5,1.2,0.9,2.5,0.1,3.7
							c-0.2,0.3-0.2,0.7-0.7,1c-0.5,0.2-1,0.3-1.5,0.4c-3.1,0.1-6.2,0.6-9.2-0.2c-0.9-0.1-1.7-0.2-2.4-0.5c-1.2-0.4-3.2-0.2-3.4-1.8
							c0.1-0.2,0.4-0.4,0.1-0.6c-1.2-0.6-1.6-2.1-1.7-2.4c-0.1-0.2-0.5-1-1-1.3c-0.5-0.3-1.1-0.4-1.4-0.5c-0.3-0.1-1.1-0.1-1.8-0.1
							c-0.5,0-0.8,0.2-1.2,0.4c-0.1,0.1-0.3,0.2-0.4,0.3c-0.1,0.1-0.2,0.1-0.3,0.2c-0.4,0.3-1.1,0.2-0.8,1c-0.4,0.7-1.3,0.7-2,0.8
							c-0.2,0-0.5,0-0.7,0c-0.3,0.2-0.1,0.8,0,1.2c-0.1,0.3-0.2,0.3-0.1,0.9c0.3,0.7,0.8,1.4,1.6,1.6c1,0.2,2.2,0.9,2.6,0.7
							c0.3-0.2,0.5-0.1,0.7-0.1c0.3,0,0.4,0.8,0.7,1.5c0.2,0.6,0.7,1.1,0.7,1.2c0.2,0.4,0,2.7,0.7,3.8c-0.2,1.2,1.1,1.8,0.8,2.9
							c0.1,1,0.2,2,0.4,3.1c0,0.4,0.1,1.1,0,1.6c-0.2,0.5,0.1,1.5-0.8,1.7c-0.5,0.2-1.1,0.9-1.1,1.1c0,0.2,0,0.7,0.4,0.8
							c0.7,0.1,1.7,0.3,2.2-0.3c1-0.5,0.2-1.6,1.1-2.3c0.1-0.2,0.1-0.5,0-0.8c-0.2-1.4,0-2.7,0.3-3.9c0.6,0.3,0.5,1,0.7,1.5
							c0.3,1.8-0.1,3.2-0.2,4.9c-0.1,0.2-0.2,0.4-0.4,0.6c-0.2,0.1-0.4,0.2-0.5,0.3c-0.2,0.2-1.2,0.8-0.9,1.5
							c0.5,0.6,2.2,0.4,2.2,0.4c0.1,0,0.2-0.1,0.2-0.1c0.4-0.3,0.2-0.8,0.7-1c0.1-0.6,0.5-1,0.8-1.6c0.2-0.1,0-0.4,0-0.6
							c0-0.1,0.1-0.8,0-1.3c0.1-0.8-0.1-1.7,0.1-2.6c0.3-0.5,0.3-1.2,0.4-1.8c0-0.2,0.2-0.5,0.2-0.8c0-0.3,0.2-0.4,0.4-0.3
							c0.2,0,2.6,0,4.3-0.3c0.4-0.1,0.7-0.2,1.1-0.2c1.1-0.2,2.1-0.7,3.4-0.3c0.3,0.1,0.5,0.2,0.7,0.4c0.5,0.1,0.6,0.3,1,0.3
							c0.6,0.1,0.4,0.9,0.8,1.3c0.1,0.8,0.3,1.8-0.1,2.7c-0.4,0.4-0.7,1.4-1.6,1.4c-0.5,0.3-1.4,0.7-1,1.4c0.8,0.3,2.5,0.3,2.7,0
							c0.2-0.3,0.3-0.5,0.6-0.6c0.7-1,1-2.2,2-2.8c0.3-0.4-0.1-1,0.4-1.4c0.4,0,0.5,0.5,0.9,0.5c0.9,0.6,1,1.7,1.7,2.4
							c0.1,1.2,1.1,2.5,0.2,3.6c-0.5,0.3-0.7,0.8-0.9,1.2c0.3,0.5,1.3,0.4,1.5,0.4c0.2,0.1,1.2,0,1.2-0.1c0-0.1,0.8-1,0.5-1.6
							c0.2-1.2-0.3-2.5,0-3.8c-0.1-0.4-0.4-0.5-0.6-0.8c-0.1-0.7-0.7-1.4-0.8-2.1c-0.1-0.5,0.3-0.9,0.3-1.2c0.1-0.6,0-1.4-0.1-2.3
							c0,0-0.7-3-0.8-3.3c-0.1-0.3-0.3-0.5-0.4-0.8c0-0.2-0.5-1.3-0.4-2.1c0-0.3,0.4-0.9,0.6-1.4c0.3-0.6,0.5-1.1,0.5-1.5
							c0.2-1.2-0.4-2.9-0.6-3.2c-0.2-0.4-1.4-2-1.6-2.1c-0.2-0.1-0.5-0.6-0.9-1c-0.4-0.5-0.8-1.8-0.9-2.1c-0.1-0.3-0.1-0.5-0.1-0.8
							C160.7,60.5,160.3,61.4,160.5,62.3"/>
					</g>
				</g>
				<path class="st0" d="M118.2,146.8c-0.2-1.3-1.8-0.7-2.8-1c0.5-0.2,1.4-0.4,0.8-0.9c-1.1-0.9-2.6-0.6-3.9-0.5
					c-0.6,0-1.2,0.1-1.9,0.1c-2,0-3.9,0.2-5.8-0.2c-2-0.3-3.8-1.2-5.9-1.6c-2.8-0.6-5.4,0.5-8.2,0.3c-5.4-0.3-10.6,1.3-16,1.2
					c-1.5,0-2.9,0-4.5-0.4c-2.8-0.7-5.3-1.3-7.9-2.4c-2.6-1.2-4.6-3.2-5.9-5.7c-0.7-1.3-1.4-2.6-2.1-3.9c1.4-2,3.1-3.8,3.7-6.3
					c0.2-0.8,0.3-2.5-0.4-2c-2.3,1.6-4.9,1.8-7.4,2.7c-0.1,0.1-0.3,0.1-0.5,0.2c-0.2-0.3-0.4-0.6-0.7-0.9c-2.8-2.3-6.1-3.7-8.1-7
					c-0.2-0.3-0.5-0.5-0.8-0.3c-0.2,0.1,0,0.5,0,0.6c1.1,4.3,3.4,8,6.3,11.3c0.5,0.6,1,1.2,1.5,1.8c0,6.7,3.1,12.9,6.8,18.5
					c2.3,3.5,4.9,6.4,8.5,8.6c4,2.4,8.3,3.5,12.7,4.1c0,0-0.1,0.1-0.1,0.1c-0.5,0.5-1.6,2-0.6,2.2c2.3,0.3,4.3-0.5,6.1-1.7
					c0,0,0,0,0,0c12.2,2.2,23.4-3.3,27-5.2c3.8-1.9,6.3-5.2,8.3-8.8C117.8,149.1,118.4,147.8,118.2,146.8z"/>
				<g>
					<g>
						<path class="st0" d="M63.6,127.4c0.2-0.1,0.5-0.1,0.5-0.4c0-0.1-0.1,0-0.1-0.1c-0.1,0-0.1-0.1-0.2-0.1
							c-0.1-0.1-0.1-0.1-0.2-0.2c-0.1-0.2-0.2-0.2-0.2-0.4c-0.1-0.2,0-0.4,0-0.6c0.1-0.3,0.3-0.5,0.4-0.7c0.1-0.1,0.2-0.1,0.4-0.2
							c0.5-0.1,0.8,0.1,1.1,0.3c0.1,0.1,0.1,0.2,0.2,0.3c0.1,0.1,0.1,0.3,0.2,0.3c0.1,0,0.1-0.2,0.2-0.3c0-0.1,0.1-0.2,0.2-0.3
							c0.1-0.1,0.1-0.1,0.1-0.2c0,0,0.3-0.3,0.6-0.6c0.4-0.3,0.7-0.6,1.1-0.9c0.3-0.1,0.5-0.2,0.8-0.4c0.3-0.2,0.4-0.2,0.8-0.4
							c0.3-0.1,0.5-0.2,0.9-0.3c0.1,0,0.2-0.1,0.4-0.2c0.3-0.1,0.6-0.1,0.9-0.2c0.3,0,0.4,0,0.8-0.1c0.5-0.1,1.1-0.1,1.6,0
							c0.8,0.1,1.4,0.1,2,0.3c0.3,0.1,0.5,0.1,0.9,0.3c0.6,0.2,1.1,0.4,1.8,0.5c0.7,0.1,1.3,0.3,2.1,0.2c0.3,0,0.7,0,1,0
							c0.6,0.1,1.8,0.2,2,0.2c0.8,0.2,1.8,0.3,2.6,0.5c0.5,0.1,1,0.3,1.4,0.4c0.3,0.1,0.6,0.1,1,0.3c0.2,0.1,0.4,0.1,0.6,0.2
							c0.1,0,0.2,0.1,0.3,0.1c0.4,0.2,1.2,0.4,1.7,0.8c0.3,0.2,0.5,0.3,0.7,0.5c0.3,0.1,0.5,0.3,0.7,0.5c0.4,0.3,0.5,0.5,0.7,0.8
							c0.2,0.3,0.4,0.6,0.7,0.8c0.1,0.1,0.3,0.2,0.5,0.3c0.1,0,0.1,0,0.3,0.1c0.4,0.1,0.7,0.2,1.2,0.2c0.4,0.1,0.9,0.1,1.3,0.2
							c0.3,0.1,0.4,0.2,0.6,0.3c0.1,0.1,0.2,0.1,0.3,0.1c0,0,0,0,0,0c0.1,0.1,0.1,0.2,0.1,0.3c-0.1,0.1-0.2,0.1-0.4,0.1
							c-0.4,0-0.9,0.1-1.2,0.2c-0.1,0.1-0.2,0.2-0.4,0.2c-0.2,0.1-0.3,0.1-0.5,0.2c-0.2,0.1-0.3,0.2-0.3,0.3c0,0.4,0.2,0.6,0.4,0.8
							c0.1,0.2,0.1,0.2,0.2,0.4c0.1,0.1,0.1,0.3,0.2,0.4c0.1,0.1,0.1,0.1,0.2,0.2c0.4,0.2,0.8,0.3,1.2,0.4c0.1,0,0.1,0.1,0.1,0.2
							c0.1,0.2,0,0.6-0.1,0.8c-0.1,0.2-0.2,0.2-0.2,0.4c-0.1,0.2-0.2,0.4-0.3,0.6c-0.1,0.1-0.1,0.2-0.3,0.2c-0.3,0.1-0.5,0.1-0.8,0
							c-0.2,0-0.3,0-0.5,0c-0.2,0-0.3-0.1-0.4-0.1c-0.2,0-0.3,0-0.5,0c-0.3,0.1-0.5,0.3-0.8,0.4c-0.2,0.1-0.3,0.1-0.4,0.2
							c-0.1,0-0.3,0.1-0.4,0.2c-0.2,0-0.3,0-0.5,0c-0.5,0-1,0-1.5-0.1c-0.2,0-0.4-0.1-0.6-0.2c-0.2-0.1-0.4-0.1-0.5-0.2
							c-0.2-0.1-0.4-0.2-0.5-0.2c-0.2-0.1-0.4-0.2-0.6-0.1c0.1,0.3,0.3,0.4,0.5,0.6c0.1,0.1,0.2,0.1,0.3,0.2
							c0.1,0.1,0.2,0.2,0.3,0.3c0.2,0.1,0.4,0.3,0.7,0.4c0.2,0.1,0.4,0.3,0.6,0.4c0,0,0.1,0.1,0.1,0.2c0.1,0.2,0.2,0.3,0.3,0.6
							c0,0.1,0,0.1,0,0.2c0.1,0.2,0.2,0.4,0.2,0.7c0,0.2,0.1,0.4,0.1,0.6c-0.3,0.1-0.6,0-0.8-0.1c-0.2-0.1-0.4-0.2-0.5-0.4
							c-0.2-0.1-0.3-0.3-0.5-0.4c-0.2,0-0.3,0.1-0.4,0c0,0,0,0-0.1-0.1c-0.2-0.2-0.2-0.5-0.2-0.7c-0.1-0.2-0.3-0.3-0.5-0.4
							c-0.2-0.1-0.5-0.1-0.8-0.1c-0.1,0-0.2-0.1-0.3-0.1c-0.2-0.1-0.4-0.2-0.6-0.3c-0.2-0.1-0.4-0.1-0.7-0.3
							c-0.2-0.1-0.4-0.2-0.7-0.3c-0.3-0.2-0.5-0.4-0.8-0.5c-0.1-0.1-0.3-0.1-0.4-0.2c-0.2-0.2-0.4-0.3-0.7-0.5
							c-0.2-0.1-0.5-0.4-0.8-0.3c-0.1,0-0.1,0.1-0.1,0.1c0,0.1-0.1,0.1-0.1,0.1c-0.1,0.2-0.1,0.4-0.1,0.7c-0.2,0.5-0.4,1-0.6,1.4
							c-0.2,0.2-0.3,0.4-0.6,0.5c0,0.1-0.2,0.1-0.3,0.2c-0.1,0-0.2,0.2-0.2,0.3c0,0.2,0.1,0.4,0.2,0.5c0.1,0.1,0.2,0.2,0.3,0.3
							c0.1,0.1,0.2,0.2,0.3,0.3c0.2,0.2,0.4,0.4,0.3,0.7c-0.5,0-0.8,0.1-1.2,0.1c0,0,0,0-0.1,0c-0.2,0-0.4,0-0.6,0c0,0,0,0,0,0
							c-0.1,0-0.2-0.1-0.3-0.1c-0.1-0.1-0.1-0.3-0.1-0.4c-0.1-0.1-0.1-0.2-0.2-0.2c-0.1-0.1-0.2-0.1-0.3-0.2
							c-0.2-0.1-0.4-0.3-0.5-0.5c0-0.3,0.2-0.4,0.2-0.6c0-0.6-0.2-1-0.3-1.6c0-0.3,0-0.5,0-0.7c0-0.2,0-0.5-0.1-0.6
							c-0.4,0-0.6,0.1-0.8,0.2c-0.4,0.1-1,0.1-1.4,0.1c0,0-0.1,0-0.1,0c-0.4,0-0.8-0.1-1.1-0.1c-0.2-0.1-0.4-0.1-0.6-0.1
							c-0.2,0-0.4-0.1-0.6-0.1c-0.3,0-0.7-0.2-1-0.3c-0.4,0-0.7-0.2-1.1-0.1c-0.1,0.1-0.2,0.2-0.3,0.3c0,0.1-0.1,0.3-0.1,0.4
							c-0.1,0.2-0.3,0.4-0.4,0.6c0,0.1,0,0.1-0.1,0.2c0,0.1,0,0.1-0.1,0.2c0,0.1-0.1,0.1-0.1,0.2c-0.1,0.1-0.2,0.2-0.3,0.3
							c0,0,0,0,0,0c-0.1,0.1-0.1,0.1-0.2,0.2c-0.1,0.6,0.2,0.9,0.2,1.5c0.2,0.2,0.3,0.5,0.5,0.7c0.1,0.3,0.5,0.3,0.5,0.7
							c-0.2,0.2-0.8,0.1-1.1,0.1c-0.2,0-0.3,0-0.5,0c-0.2,0-0.3,0-0.5,0c-0.1-0.2-0.2-0.4-0.3-0.6c-0.2-0.1-0.3-0.3-0.4-0.4
							c-0.1-0.2-0.2-0.5-0.2-0.8c-0.1-0.1-0.1-0.2-0.2-0.4c-0.2-0.4-0.4-0.8-0.6-1.2c0-0.1-0.1-0.2,0-0.3c0,0,0.1-0.1,0.1-0.1
							c0,0,0.1,0,0.2-0.1l0.1-0.1c0.1-0.1,0,0,0.1-0.1l0.1-0.1l0.1-0.1l0-0.1l0.1-0.1c0,0,0,0,0-0.1c0-0.1-0.3-0.2-0.4-0.1
							c-0.1,0.1-0.1,0.1-0.1,0.1l-0.1,0.1l-0.1,0.1l-0.1,0.1l-0.1,0.1l-0.1,0c-0.1,0-0.1,0-0.2,0l-0.1,0.1c0,0-0.1,0-0.2,0.1
							c-0.1,0-0.2,0-0.2,0.1c-0.2,0.1-0.4,0.1-0.5,0.2c-0.1,0.1-0.1,0.3-0.2,0.5c0,0.2-0.1,0.3-0.1,0.6c-0.1,0.1-0.1,0.3-0.2,0.5
							c0,0.2-0.1,0.3-0.2,0.5c-0.1,0.1-0.2,0.2-0.3,0.3c-0.1,0.1-0.2,0.2-0.3,0.3c-0.1,0.1-0.2,0.2-0.3,0.3
							c-0.2,0.1-0.2,0.2-0.4,0.2c-0.2-0.1-0.3-0.3-0.3-0.6c0-0.3,0-0.4,0-0.7c0-0.2,0.1-0.3,0.1-0.5c0-0.2,0.1-0.3,0.1-0.5
							c-0.1-0.2-0.2-0.4-0.2-0.6c0.2-0.4,0.4-0.7,0.5-1c0.1-0.2,0-0.6,0.1-0.9c0-0.3,0-0.7,0.1-0.9c0.1-0.1,0.2-0.1,0.4-0.2
							c0.1,0,0.3-0.1,0.4-0.1c0.2-0.2,0.5-0.4,0.4-0.8c-0.1-0.1-0.2-0.2-0.3-0.3c-0.1-0.1-0.2-0.2-0.3-0.3c0-0.1-0.1-0.1-0.1-0.1
							c0,0-0.1-0.1-0.1-0.1c-0.1-0.1-0.2-0.2-0.3-0.3c-0.1-0.2-0.2-0.3-0.3-0.5c-0.1-0.2-0.2-0.3-0.3-0.5c-0.1-0.5-0.3-0.8-0.3-1.4
							c0-0.1-0.1-0.3-0.1-0.4c0-0.2,0-0.5,0.1-0.8c0-0.2,0.1-0.5-0.1-0.6c-0.1,0-0.1,0.1-0.2,0.1c-0.1,0-0.1,0.1-0.2,0.1
							c-0.1,0-0.1,0.1-0.2,0.1c-0.2,0-0.5,0-0.7-0.1c-0.1-0.1-0.3-0.3-0.2-0.5C63.2,127.3,63.4,127.4,63.6,127.4 M64.3,126
							c0,0,0.1,0.2,0.2,0.2c0.1,0,0.2,0.1,0.2,0.1l0.1-0.3l-0.1-0.3c0,0-0.1-0.1-0.1-0.1c-0.1,0-0.2,0-0.2,0l-0.1,0l-0.1,0.2
							L64.3,126z"/>
					</g>
				</g>
				<g>
					<g>
						<path class="st0" d="M98.5,37.9l-0.8-0.4l-0.2-0.1l-0.4-0.2l-0.2-0.1l-0.2,0l-0.1-0.2v-0.3l0.1-0.2l0.3-0.4l0.3-0.4l0.3-0.8
							l0-0.5l-0.2-0.7l-0.5-0.9l-0.5-0.4l-1.3-0.8l-0.8-0.5l-0.4-0.3l-0.5-0.8l-0.4-1.2l-0.1-0.2l-0.1,0v0.1l0,0.1l0.1,0.1l0.1,1.2
							l0.1,0.2l0.3,0.6l0.8,0.9l0.4,0.3l0.4,0.4h0.1l0.6,0.6l0.2,0.4l0,0.7l-0.4,0.8l-0.5,0.6l-0.2,0.3h-0.1l-0.3,0.5l-0.1,0.4
							L94,37v0.5l0.1,0.3l0.1,0.3l0.4,0.4l0.4,0.3l0.7,0.3l0.1,0.1l0.2,0l0.3,0.1l0.6,0.2l0.3,0l0.6,0.3l0.4,0.3l0.2,0.3l0.3,0.2
							l0.5,0.7l0.3,0.7v0.4l-0.1,0.1l-0.1,0L99,42.5l-0.1-0.1l-0.3-0.2l0,0l-0.1-0.1L98.3,42l-0.1-0.1L97.8,41l-0.1-0.2l-0.1-0.1
							l-0.2-0.3l-0.2-0.2L96.6,40h-0.5l-0.6,0.1l-0.2,0.1l-0.6-0.1l-0.3,0.3l0,0.2l0.1,0.1v0.1l0,0.1v0.3l0.2,0.3v0.3l0.1,0.2
							l0.3,0.2l0,0l-0.1,0.1l0,0.2l0.3,0.3l0.5,0.3l0,0l0.4,0.2l0.2,0.1l0.3,0l0.1,0.1l0.8,0.2l0.1,0.1l0.3,0.1l0.3,0.1l0.1,0.3
							l0.1,0.4l-0.1,0.7l0.1,0.6l0.1,0.2v0.1l0.1,0.1v0.5l0.1,0.6L99,48v2l0,1l0.1,0.9v0.6l0.2,0.8l0.3,0.7l0,0.2l-0.1,0.9l0.2,0.7
							h0.1l0-0.8L100,55l0,0l0.1,0.9l0.4,0.9l0.2,0.3l0.1-0.1V57l0,0l-0.1-0.5l0.1-0.2l0,0v0.1l0.1,0.5l0.3,0.7l0,0h0l0-0.2
							l-0.1-0.3l0.1-0.6l0.1,0.1l0.1,0.6l0.2,0.5l0.3,0.5l0.1,0l0-0.1l-0.1-0.1v-0.3l0.1-0.1l0,0l0.1,0.4l0.3,0.5h0.1l0-0.1
							l-0.1-0.2l0.1-0.1l0.1,0.1v0l0.5,0.7h0.1v-0.1l0-0.1l-0.1-0.1v-0.1l0,0l0.5,0.6l0.1-0.1v-0.1l-0.1-0.1v-0.2l0.8,0.9v0.1h0.1v0
							l0,0l0-0.4l0,0v0l0.2,0.2l0.1-0.1h0l0.2-0.4l0.2,0.2l0.1,0l0.1-0.1v-0.2l0.1,0l0.2,0.2l0,0v-0.1l0,0c0,0,0-0.1,0-0.1l0.1,0.2
							l0.1,0.7l0.2,1.1v0.1l0.1,0.1l0.1,1l0.1,0.5l0.2,1.2l-0.1,0.7l0.1,0.7l0.1,0.5v0.1l0.2,0.3l0.2,0.6l0.1,0.5l0.1,0.6l-0.1,0.8
							l-0.1,1.4l-0.2,0.9l-0.3,0.8l-0.5,0.6l-0.6,1.2l-0.1,0.5l0.3,0.1l0.9,0.1l0.2-0.1l0.3,0l0.2-0.1v-0.1l0.1-0.1l0-0.6l0.1-0.3
							l0.1-0.2h0.1l0.2,0l0.3-0.3l0.1-0.2l0-0.3l0-0.3l0.1-0.4l0.1-0.8l0.1-0.3v-0.3l0.1-0.2v-1.5l-0.1-0.8l0-0.3l0.1-0.8l0.1-0.2
							v-0.2l0.1-0.1l0.1-0.5l0-0.5l0.1-0.3l0.1,0.3l0.3,1l0,0.3l0.1,0.5l0,1.1l0.1,0.9l0.1,0.7l0,0.7l-0.1,0.2l0,0.3l-0.2,0.5
							l-0.1,0.7l-0.1,0.3l-0.1,0.2V72l-0.4,0.5l-0.1,0.5l0.1,0.2l0.1,0l0.2,0h0.2l0.1,0.1h0.8l0.2-0.1l0.2-0.6v-0.4l0.1-0.4l0.4-0.5
							l0.1-0.4l-0.1-0.3l-0.2-1l0-0.2l-0.1-1.1l-0.1-0.9l-0.1-0.8l0-1.2l0-0.5l-0.2-0.7l0.1-0.4l0.1-0.7l-0.1-0.7l0.1-0.9v-1.1
							l0.2-1.1l-0.1-0.2l0.1-0.1l0.8-0.1l0.2-0.1h0.7l0.3,0.1l1.3,0.1l0.3,0.1l1.2-0.1l0.6-0.1l0,0h0.1l0.2,0l0.4-0.1l0.3-0.1
							l0.3-0.2l0.5-0.2l0.5-0.2h0.1l0.4-0.1l0.7,0l0.3,0.1l0.7,0.1l0.3,0.2l0.2,0.4l0.8,1.3l0.2,0.8l0.4,0.9l0.3,0.5l0.3,0.7
							l0.3,0.5l0.3,0.7l0.1,0.5l-0.1,0.1l0.1,0.8l-0.1,0.8l-0.2,0.8l-0.1,0.4l0,0.3l-0.1,0.3l-0.1,0.5l-0.2,0.9l-0.3,1.2l-0.5,1.2
							l-0.3,0.5h-0.1v0.1l-0.4,0.8v0.2l0.2,0.1h0.4l0.3,0l0.3-0.1h0.5l0.2,0l0.1-0.2l0.1-0.4l-0.1-0.1l0-0.7l0.4-0.4l0.2-0.4
							l0.1-0.3l0.1-0.5l0.2-0.8l0.1-0.6l0.1-0.3l0.5-1.6l0.3-0.8l0.3-1.1l0.2-0.3v-0.5h0l0.1,0.2l0.2,0.8l0.3,0.8l0.2,0.7l0.2,1.2
							l0.2,1.5l-0.1,1l0.1,0.1v0.7l-0.1,0.1v0.3l-0.1,0.1l-0.1,0.4l-0.2,0.5l-0.3,0.4l-0.3,0.7l0.2,0.1h0.5l0.3,0.1l0.2-0.1l0.2,0
							l0.1,0.1l0.4-0.1l0.1-0.2l0.1-0.1l0-0.8l0.1-0.6l0.2-0.3l0.3-0.3l0.1-0.2l0-0.2l-0.1-0.6v-0.1l-0.2-1.3l-0.1-0.5v-0.5
							l-0.1-0.1l-0.1-0.9l-0.1-1.8l0.1-0.3l0-1l0.1-0.9l0.1-1.1l-0.1-0.2l-0.7-0.5l-0.4-0.5l-0.8-1.1l-0.3-0.8v-0.2l0.1,0.2l0.1,0
							l0.1-0.1l0.2,0.3h0.1l0.1-0.1l0.1,0.1v0.1h0.2l0.5,0.5l0,0l0.2-0.1l-0.3-0.7l-0.3-1l-0.1-0.6l0.1-0.4v-0.5l0.1-0.5l0.1-0.2
							h0.1l0.1-0.6l0.1-0.1l0.1-0.9l0.2,0l0.1-0.5l0.1-0.1l0,0l0.1-0.1h0l-0.2-1l0.2-0.1l0,0l-0.1-0.4l0.2-0.1v-0.1l-0.3-0.5
							l-0.1-0.2l0.1-0.1l-0.5-0.6l-0.2-0.4l-0.3-0.3l-0.5-0.3l-0.8-0.5l-1-0.5l-0.9-0.4l-0.3-0.1l-0.1-0.1h-0.2l-1.2-0.3l-0.6-0.1
							l-0.6-0.1l-1-0.2l-0.8-0.1h-0.4l-1,0.1l-0.7,0.1l-0.8,0l-0.1,0v0l0,0l-0.3-0.1v0h-0.5l-0.2-0.1l-0.1-0.2l-0.6-0.2v-0.1
							l0.1-0.1l0-0.1l-0.3-0.1l-0.2-0.1l0,0l0.2-0.1v-0.1l-0.1-0.1h-0.9v0l0.2-0.1l0-0.1l-0.2-0.1l-0.8-0.1v0l0,0h0.1l0.2-0.2l0,0
							l-0.2-0.1h-0.4l-0.1-0.1l0.1-0.1l-0.1-0.1h-0.3l-0.4-0.1l0,0h0l0.1-0.1h-1.1v0l0.1-0.1h0v-0.1l-0.2-0.1v0l0,0l0.1-0.1v-0.1
							h-0.1l-0.6,0.2l-0.2,0.1l-0.6,0.3h-0.1l0.1-0.1l0.1-0.3h-0.1l-0.8,0.5l0,0l0.3-0.3v-0.1h-0.1l-0.3,0.2l0,0l-0.2,0.2l-0.6,0.4
							l0,0l0.1-0.1v-0.2h-0.1l-0.3,0.2l-0.7,0.8l0,0v-0.1l0.3-0.3l0-0.2h-0.1l-0.4,0.3l-0.5,0.6l-0.1-0.2l-0.1,0.1l-0.1,0.2l0,0v0
							l-0.1-0.3h-0.1l0,0.4l-0.1,0.1l0,0l-0.2-0.6h-0.1l0,0.2l-0.1,0.3l-0.2-0.1l-0.1-0.3l-0.1-0.2l0,0l-0.1,0.1l0,0l-0.3-0.5
							l-0.1-0.2l-0.1-0.2l0.1-0.5l0.3-0.5l0.2-0.2l0.2,0l0.5-0.3l0.1-0.1l0.2,0l0.6-0.2l0.2-0.1l0.8-0.8l0.4-0.7l0.1-0.5l0-0.7
							l-0.1-0.2h-0.2l-0.1-0.1l-0.6,0l-0.6,0.2l-0.1,0.1l-0.3,0.1l0,0l-0.4,0.3l-0.7,0.6l-0.1,0.2l-0.5,0.6l-0.4,0.3h-0.1l-0.1-0.1
							V42l0,0h0l0.4-0.6l0.1-0.2l0.5-0.6l0,0l0.5-0.6l0.5-0.5l0.6-0.4l0.6-0.3l0.3,0l0.1-0.1l0.6-0.1l0.5,0l0.9-0.3l0.4-0.3l0.3-0.4
							l0.1-0.7l-0.1-0.4l-0.3-0.5l-0.5-0.9l-0.3-0.4l-0.1-0.4l-0.2-0.5l0-1.8l0.1-0.5l0.3-0.6l2.1-2.3l0.2-0.3l0-0.1l-0.1,0
							l-0.3,0.1l-0.7,0.4l-0.1,0l-1.5,1.3l-0.6,0.7l-0.3,0.5l-0.2,0.2l0,0.2l-0.4,0.6l-0.2,0.6l-0.2,0.8l-0.1,0.5l0.1,1.2l0.2,0.4
							l0.1,0.3l0.2,0.3l0.3,0.3v0.2h-0.4l-0.8,0.2l-0.7,0.3l-0.8,0.4l-1,0.8l-0.2,0.2l-0.8,0.9l0,0l0,0l-0.1,0.2l0,0v0.1l0,0h0
							l-0.6,1.4l-0.3-0.9l-0.6-1l-0.6-0.5L98.5,37.9z"/>
						<path class="st0" d="M105.2,46.2C105.2,46.2,105.2,46.2,105.2,46.2L105.2,46.2z"/>
					</g>
				</g>
				<g>
					<g>
						<path class="st0" d="M116.4,110.6c-0.1-0.6-1.5-0.9-1.5-2.1c0-0.4,0.2-0.6,0.7-0.6c0.4,0,0.5,0.1,0.7,0.4
							c0.1-0.1,0.1-0.3,0.1-0.5c0-0.6-0.5-0.8-1-0.9c-0.2-0.7,0.6-1.2,0.6-1.2c-0.2-0.1-0.6-0.3-0.8,0c0-0.4-0.2-0.5-0.2-0.9
							c-0.4,0-0.6,0.2-0.7,0.2c-0.2,0-0.8-1.2-1.1-0.5c-0.4-0.3-0.8-0.5-1.4-0.7c0.1,0.3,0.1,0.5,0.2,0.8c-1-0.5-1.9-0.4-1.9-0.4
							s0,0.3,0.2,0.6c-0.4,0-0.6,0-0.9-0.1c0.5,1.2,0.9,2.1,2.8,1.8c-0.8,0.7-1.4,1.4-1.9,2.4c-0.3,0.7-0.6,2-0.6,2.2
							c0,0.3,0,0.8,0,1c0,0.3-0.1,0.9-0.2,1.4c-0.1,0.5-0.3,0.8-0.5,1.2c-0.3,0.7-1,0.8-1.5,1.1c-0.6,0.4-1.1,1.1-1.7,1.5
							c-0.3,0.2-0.6,0.1-1.1,0.2c0-0.3-0.3-0.4-0.4-0.7c-0.6-1.4-1.3-2.3-2.5-3.1c-0.9-0.3-1.2-0.7-2-1.1c-0.5-0.2-0.7-0.4-1-0.4
							c-0.3,0-2.3,0-2.7,0.1c-0.4,0.1-0.4,0.4-0.6,0.5c-0.9,0.8-1.7,2.7-2,3.8c-0.3,1.3-0.2,2.1-1.2,2.7c0.1,0,0.1,0.1,0.2,0.1
							c0.4,0,1.8-0.3,2-0.7c0.7-1.2,0.5-2.9,1.6-4c0,0.5-0.2,0.9-0.1,1.4c0.1,0,0.6,0,0.7,0c0.5-0.2,0.5-1.1,1.4-1.1
							c0.3,0,0.4,0.1,0.6,0.2c-0.4,0.1-0.9,0.3-1,0.8c0.4,0.1,0.8,0,1.1,0.3c-0.7,0.6-1.3,1.2-1.3,2.4c0,0.6,0.2,1,0.5,1.4
							c0.1-0.2,0.3-0.5,0.5-0.5c0.2,0,0.3,0.6,0.4,0.8c0.4,0.6,1.1,1.9,1.7,1.9c-0.1,0,0.4,0.1-0.2,0.9c-0.3,0.3-0.3,0.8-0.8,0.8
							h0.4c0.8,0,1-0.2,1.3-0.6c0.2,0.4,0.2,1,0.3,1.5c0,1.4,0,0.9,0,1.4c0.4-0.2,0.8-0.6,1-0.9c0.2-0.4,0.2-0.8,0.4-1.1
							c0.2,0.3,0.3,1,0.4,1.4c0.3-0.1,0.5-0.7,0.6-1c0.2,0.3,0.5,0.8,0.8,1l0.9,0l0.3,0.1c0.2,0.4,0.1,1.1,0.5,1.1
							c0.2,0,0.4-0.2,0.4-0.2c0.1,0.5-0.5,0.5-0.5,0.8c0,0.2,0,1,0,1.5c-0.1-0.1-0.5-0.4-0.7-0.4c-0.1,0,0,0.5,0,0.6
							c0.1,0.4,0.6,0.1,0.6,0.8c0,0.8-1,1.4-1.4,1.7l0.2,0.2c0.1,0,0.4-0.1,0.5-0.1c0.4,0,0.5-0.2,0.8-0.2c0.2,0,0.4,0.3,0.4,0.3
							c0.3,0,0.8,0.1,1.1,0.6c0.7-0.2,1.2,0.4,1.4,0c-0.2-0.5-0.6-0.5-1-0.8c0.2-0.1,0.3,0,0.4,0c0.3,0,0.6,0.1,1,0.1
							c-0.3-0.7-1.1-1-2.3-0.7c-0.2,0.1-0.2-1.7-0.2-2.3c0-0.1,0.2-0.4,0.2-0.5c0.1,0.3,0.3,1-0.3,1.2l0,0.2c0.7,0,1,0.5,1.1,0.5
							c0.4-0.1,1.1,0.2,1.3,0.4c0.4,0,0.4,0.1,0.8,0.1c0.4,0,0.5,0.1,0.9,0.2c0-0.2-0.4-0.6-1-1c0.5,0,0.8,0.1,1,0.4
							c-0.1-0.9-0.4-0.7-1.1-1c-0.1-0.1-0.3-0.3-0.5-0.3c-0.3,0-0.7,0.1-0.9,0.1c-0.5,0-0.5,0-0.5-0.6c0-0.4,0.3-0.6,0.3-0.9
							c0-0.4-0.2-0.8-0.2-1.1c0.5-0.4,0.9-0.6,1.2-1.1c0.1-0.1,0.1-0.6,0.3-0.6c1.2,0,1-1.7,1.6-1.7c0.7,0,1.6-0.9,1.9-1.6
							c0.1-0.2,0-0.5,0.1-0.7c0.4-0.7,1.2-0.8,1.6-1.4c0.4-0.6,0.6-0.7,0.8-1.5c0,0,0.5-2.1,0.1-3.4c-0.3-0.8-0.6-1.3-1.1-1.7
							c-0.5-0.5-0.7-1.3-0.7-1.8c0.2,0.4,0.6,0.9,1.1,0.9c0.9,0,0.6-0.2,0.8-0.7C116.3,111.5,116.5,111.2,116.4,110.6z"/>
					</g>
				</g>
				<g>
					<g>
						<path class="st1" d="M124.9,152.1l0.1,0l0.1,0l0.1-0.1l0.1-0.1l0.1-0.1l0.1-0.1l0.1-0.1l0.1-0.1l0.1-0.1l0.1-0.1l0.1-0.1
							l0.1-0.1l0.1-0.1l0.1-0.1l0.1-0.1l0.1-0.1l0.1-0.1l0.1-0.1l0.1-0.1l0.1-0.1l0.2-0.2l0.2-0.2l0.2-0.2l0.2-0.2l0.2-0.2l0.4-0.3
							l0.2-0.1l0.2-0.1l0.3-0.1l0.3-0.1l0.3-0.1l0.3-0.1l0.3-0.1l0.1-0.1l0.1-0.1l0.1-0.1l0.1-0.1l0.1-0.1l0.1-0.1l0.1-0.1l0.1,0
							l0.1,0l0.1,0l0.1,0l0.1,0l0.1,0c0,0,0.2-0.1,0.2,0c0,0,0.1,0.1,0.2,0.3c0.1,0.2,0.1,0.7,0.3,0.7c0.4-0.1,0.4-0.3,0.5-0.6
							c0-0.1,0.2-0.4,0.2-0.4c0,0,0.2-0.2,0.2-0.2s0.6-0.3,1.2-0.6c0.6-0.3,1.2-0.8,1.3-0.9c0.2-0.1,0.4-0.3,0.6-0.4
							c0.2-0.1,0.7-0.6,0.9-0.8c0.1-0.1,0.2-0.2,0.2-0.2l0.2-0.2l0.2-0.2l0.2-0.2l0.2-0.2l0.2-0.2l0.2-0.2l0.2-0.2l0.1-0.2l0.1-0.2
							l0.1-0.2l0.1-0.2l0.1-0.2l0.1-0.2l0.1-0.3l0.1-0.3l0.1-0.3l0.1-0.3l0.1-0.3l0.1-0.3l0.1-0.3l0.1-0.3l0.1-0.3l0.1-0.3l0.2-0.5
							l0.2-0.6l0.2-0.6l0.2-0.6l0,0l0,0l0,0l0,0l0,0l0,0l0,0l0,0l0,0l0,0l0,0l0,0l0,0l0,0l0,0l0,0l0.1,0l0.1,0l0.1,0l0.1,0l0.1,0
							l0.1,0l0.2,0.1l0.2,0.1l0.2,0.1l0.2,0.1l0.4,0.1l0.4,0.1l0.2,0.1l0.2,0.1l0.2,0.1l0.2,0l0.2,0l0.2,0l0.2,0l0.2,0l0.2,0l0.2,0
							l0.2,0l0.2,0l0.2,0l0.2,0l0.2,0l0.2-0.1l0.2-0.1l0.2-0.1l0.1-0.1l0.1-0.1l0.1-0.1l0.1-0.1l0.1-0.2l0.1-0.2l0-0.1v-0.1l0-0.1
							l0-0.1l0-0.1l0-0.1l0-0.1l0-0.1l0-0.1l0-0.1l0-0.1l0-0.1l0-0.1l0-0.1l0-0.1l0-0.1l0-0.1l0-0.1l0-0.1l0-0.1l-0.1-0.1l-0.1-0.1
							l-0.1-0.1l-0.1-0.1l-0.1-0.1l-0.1-0.1l-0.2-0.2l-0.2-0.2l-0.2-0.2l-0.2-0.2l-0.2-0.2l-0.2-0.2l-0.2-0.2l-0.2-0.2l-0.2-0.2
							l-0.2-0.2l-0.2-0.2l-0.2-0.2l-0.4-0.3l-0.4-0.3l-0.2-0.2l-0.2-0.2l-0.2-0.2l-0.2-0.2l-0.2-0.2l-0.2-0.2l-0.2-0.2l-0.2-0.2
							l-0.2-0.2l-0.2-0.2l-0.2-0.2l-0.2-0.2l-0.2-0.2l-0.2-0.2l-0.2-0.2l-0.2-0.2l-0.1-0.2l-0.1-0.2l-0.1-0.2l-0.1-0.2l-0.1-0.2
							l-0.1-0.2l-0.1-0.2l-0.1-0.2l-0.1-0.2L139,126l-0.1-0.2l-0.1-0.2l-0.1-0.2l-0.1-0.2l-0.1-0.2l-0.1-0.2l-0.2-0.3l-0.2-0.3
							l-0.2-0.3l-0.2-0.3l-0.2-0.3l-0.2-0.3l-0.2-0.2l-0.2-0.2l-0.2-0.2l-0.2-0.2l-0.2-0.2l-0.2-0.2l-0.2-0.2l-0.2-0.2l-0.2-0.2
							l-0.2-0.2l-0.2-0.2l-0.2-0.2l-0.2-0.2l-0.2-0.2l-0.2-0.2l-0.2-0.2l-0.2-0.2l-0.2-0.2l-0.2-0.2l-0.2-0.2l-0.2-0.2l-0.2-0.2
							l-0.3-0.2l-0.3-0.2l-0.3-0.2l-0.3-0.2l0-0.2l0-0.1l0-0.2l0-0.2l0-0.1l0-0.2l0-0.2l0-0.1l-0.1-0.1l-0.1-0.1l-0.1-0.1l-0.1-0.1
							l-0.1-0.2l-0.1-0.2l-0.1-0.2l-0.1-0.2l-0.1-0.2l-0.1-0.1l-0.1-0.2l-0.1-0.1l-0.1-0.1l-0.1-0.1l-0.1-0.1l-0.1-0.1l-0.1-0.1
							l-0.1-0.1l-0.1-0.1l-0.1-0.1l-0.1-0.1l-0.1-0.1l-0.2-0.1l-0.2-0.1l-0.2-0.1l-0.2,0l-0.2,0l-0.2,0h-0.2l-0.2,0l-0.2,0l-0.2,0
							l-0.1,0.1l-0.1,0.1l-0.1,0.1l-0.1,0.1l-0.1,0.1l-0.1,0.1l-0.1,0.1l-0.1,0.1l-0.1,0.1l-0.1,0.1l-0.1,0.1l-0.1,0.1l-0.1,0.1
							l-0.1,0.1l-0.1,0l-0.1,0l-0.1,0l-0.1,0l-0.1,0l-0.1,0l-0.1,0l-0.1,0l-0.1,0l-0.1,0l-0.1,0l-0.1,0l-0.1,0l-0.1,0l-0.1,0l-0.1,0
							l-0.1,0l-0.2,0l-0.1,0l-0.1,0l-0.1,0l-0.1,0l-0.1,0l-0.1,0l-0.1,0l-0.1,0l-0.1,0l-0.1,0l-0.1,0l-0.1,0l-0.1,0.1l-0.1,0.1
							l-0.1,0.1l-0.1,0.1l-0.1,0l-0.1,0l-0.1,0l-0.1,0l-0.1,0l-0.1,0l-0.1,0l-0.1,0l-0.1,0l-0.1,0l-0.1,0l-0.1,0l-0.3,0l-0.3,0
							l-0.2,0H122l-0.1,0l-0.1,0l-0.1,0l-0.1,0l-0.1,0l-0.1,0l-0.1,0l-0.1,0l-0.1,0l-0.1,0l-0.1,0.1l-0.1,0.1l-0.1,0.1l-0.1,0.1
							l-0.1,0.1l0,0.1l0,0.1l0,0.1l0,0.1l0,0.1l0,0.2l0,0.2l0,0.2l0.1,0.2l0.1,0.2l0.1,0.2l0.1,0.2l0.1,0.2l0.1,0.2l0.1,0.2l0.1,0.1
							l0.1,0.1l0.1,0.1l0.1,0.1l0,0.1l0.1,0.1l0.1,0.1l0.1,0l0.1,0l0.1,0l0.1,0l0.1,0l0.1,0l0.1,0l0.1,0l0.1,0l0.1,0l0.1,0l0.1,0
							l0.1,0l0.1,0l0.1,0l0.1,0l0.1,0l0.2,0l0.1,0l0.1,0l0.1,0l0.1,0l0.1,0l0.1,0h0.1l0.1,0l0.1,0l0.2,0l0.3,0l0.1,0.2l0.1,0.2
							l0.1,0.2l0.1,0.2l0.1,0.2l0.1,0.2l0.1,0.2l0.1,0.2l0.1,0.2l0.1,0.2l0.1,0.2l0.1,0.2l0.1,0.2l0.1,0.2l0.1,0.2l0.1,0.2l0.1,0.2
							l0.1,0.2l0.1,0.2l0.1,0.2l0.1,0.2l0.1,0.2l0.1,0.2l0.1,0.2l0.2,0.4l0.2,0.4l0.2,0.4l0.3,0.4l0.1,0l0.1,0l0.1,0l0.1,0.1
							l0.1,0.1l0.1,0.1l0.1,0.1l0,0.1l0,0.1l0,0.1l0,0.1l0,0.1l0,0.1l0,0.1l0,0.1l0,0.1l0,0l0,0l0,0l0,0l0,0l0,0l0.1,0.1l0.1,0.1
							l0.1,0.1l0.1,0.1l0.1,0.1l0.1,0.1l0.1,0.1l0.1,0.1l0.1,0.1l0.1,0.1l0.1,0.2l0.1,0.2l0.1,0.2l0.1,0.2l0,0.1l0,0.1l0,0.1l0,0.1
							l0,0.1l0,0.1l0,0.1l0,0l-0.2,0.2l-0.3,0.3l-0.3,0.3l-0.4,0.3l-0.2,0.2l-0.2,0.2l-0.2,0.2l-0.2,0.2l-0.2,0.2l-0.2,0.2l-0.2,0.2
							l-0.2,0.2l-0.2,0.2l-0.2,0.2l-0.2,0.2l-0.2,0.2l-0.2,0.2l-0.2,0.2l-0.1,0.2l-0.1,0.2l-0.1,0.2l-0.1,0.2l-0.1,0.2l0,0.2l0,0.2
							l0,0.2l0,0.2l0.1,0.2l0.1,0.1l0.1,0.1l0.1,0.1l0.1,0.1l0.1,0.1l0.1,0.1l0.1,0l0.1,0l0.1,0l0.1,0l0.1,0l0.1,0l0.1,0l0.1,0
							l0.1,0l0.1,0l0.1,0l0.1,0l0.1,0l0.1,0l0.1,0l0.1,0l0.1-0.1l0.1,0l0.1-0.1l0.1-0.1l0.1-0.1l0.1-0.1l0.3-0.1l0.2-0.1l0.2,0
							l0.2,0l0.2,0l0.2,0l0.2,0l0.2,0l0.1,0l0.1,0l0.1,0l0.1,0l0.1,0l0.1,0h0.1l0.1,0l0.1,0l0.1,0l0.1,0l0.1,0l0.1,0l0.1,0l0.1,0
							l0.1,0l0.1,0l0.1,0.1l0.1,0.1l0.1,0.1l0.2,0.3l0.1,0.3l0.1,0.3l0.1,0.3l0.1,0.3l0.1,0.3l0.1,0.3l0.1,0.3l0.1,0.3l0.1,0.3
							l0,0.3l0,0.3l0,0.3l0,0.3l0,0.3l0,0.3l0,0.3l0,0.3l0,0.3l-0.1,0.3l-0.1,0.3l-0.1,0.3l-0.1,0.3l-0.1,0.3l-0.1,0.3l-0.1,0.3
							l-0.1,0.3l-0.2,0.3l-0.2,0.3l-0.2,0.3l-0.2,0.3c0,0-0.1,0.2-0.2,0.3c-0.1,0.1-0.2,0.2-0.2,0.2l-0.1,0l-0.1,0l-0.1,0l-0.1,0
							l-0.1,0l0,0l0,0l0,0l-0.1,0l0,0l0,0l0,0l0,0l-0.1,0l-0.1,0l-0.1,0l-0.1,0l-0.1,0l-0.2,0.1c0,0-0.2,0.1-0.3,0.1
							c-0.1,0-0.3-0.2-0.4-0.3c-0.1-0.1-0.2-0.3-0.2-0.3l-0.2-0.3l-0.2-0.3l-0.2-0.3l-0.2-0.3l-0.2-0.3l-0.2-0.3l-0.2-0.3l-0.2-0.2
							l-0.2-0.2l-0.2-0.2l-0.2-0.2l-0.2-0.2l-0.2-0.2l-0.2-0.2l-0.2-0.2l-0.2-0.2l-0.2-0.2l-0.2-0.2l-0.2-0.1l-0.2-0.1l-0.2-0.1
							l-0.3-0.1l-0.3-0.1l-0.3-0.1l-0.3-0.1l-0.3-0.1l-0.3,0l-0.3,0h-0.3l-0.4,0l-0.4,0l-0.2,0.1l-0.1,0.1l-0.1,0.1l-0.1,0.1l0,0.1
							l0,0.1l0,0.1l0,0.1l0.1,0.1l0.1,0.1l0.1,0.1l0.1,0.1l0.1,0.1l0.1,0.1l0.1,0.1l0.1,0.1l0.2,0.1l0.2,0.1l0.2,0.1l0.2,0.1
							l0.2,0.1l0.2,0.1l0.2,0.1l0.2,0.1l0.3,0.2l0.3,0.2l0.2,0.2l0.2,0.1l0.1,0.1l0.1,0.1l0.1,0.1l0.1,0.1l0.1,0.1l0.1,0.1l0.1,0.1
							l0.1,0.1l0.1,0.2l0,0.2l0,0.2l0,0.2l0,0.2l0,0.2l0,0.2l0,0.2l0,0.2l0,0.2l-0.1,0.2l-0.1,0.2l-0.1,0.2l-0.1,0.2l-0.1,0.2
							l-0.1,0.2l-0.1,0.2l-0.1,0.2l-0.1,0.2l-0.1,0.2l-0.1,0.2l-0.1,0.2l-0.1,0.2l-0.1,0.2l-0.2,0.4l-0.2,0.4l-0.2,0.4
							c0,0-0.1,0.2-0.2,0.4c-0.1,0.2-0.1,0.3-0.1,0.4c0,0-0.1,0.6,0.2,0.9c0.1,0.1,0.2,0.2,0.5,0.2
							C124.7,152.2,124.9,152.1,124.9,152.1z"/>
					</g>
				</g>
				<path class="st0" d="M164,98c0.1,0.2,0.4,0,0.3-0.1c-0.5-0.6-1.3-1-2.1-1.3c-0.8-0.3-1.6-0.3-2.2-0.2c-1.1,0.1-1.8,1.1-2.3,1.9
					c-0.2,0-0.3,0-0.4,0.1c-0.5-0.4-0.5-0.6-0.3-1.3c0,0,0,0-0.1,0c0.1-0.1,0.4-0.4,0.4-1.3c0.6-0.8,1.3-1.6,0.9-2.7
					c-0.2-0.5-0.3-1-0.6-1.5c-0.3-0.4-1-0.6-1.1-0.4c-1,1.2-3,2.2-3.5,3.9c0,0,0,0,0,0c-0.7,0.8-0.3,2-0.8,2.8
					c-0.7,1.2-1.7,2.1-2.1,3.5c-0.2,0.5-0.9,0.6-1.3,0.5c-3.8-1.2-6.7,0.6-8.6,2.4c-0.5,0.4-1,1.1-1.6,1.4c-0.8,0.5-1,1.4-1.4,2.2
					c-0.3,0.5,0.2,1.2,1,1.4c0.2,0,0.5,0.1,0.6-0.1c1.2-2,4.2-2.1,6.4-2.8c0.5-0.2,0.9-0.5,1.3-0.8c0.3,0.3,0.2,0.6,0.2,0.8
					c0,0.7-0.1,1.4,0,2.2c-0.5,2-0.5,4.3-0.4,6.6c0.1,1,0.1,2,0.4,3c-0.4,1.7-0.1,3.7-0.4,5.5c-0.2,1.2,0.6,4,1.3,3.9
					c0.7-0.1,1.6-1.5,1.9-2.1c0.3-0.5,1.1-2.3,1.2-2.6c0.3,0.1,0.6,0.1,1,0.1c0.5-0.1,0.9-0.3,1.2-0.5c0.6,0.8,1.5,1.8,2.2,1.5
					c1.5-0.7,1.4-2.6,1.2-4.3c0-0.2-0.2-0.5-0.2-0.8c0.4-0.8,0.9-1.8,1.5-2.9c2-4.3,4.7-8.7,2.9-14.3c-0.1-0.3-0.2-0.6-0.3-0.8
					c0.2,0.1,0.3,0.2,0.5,0.2c1.4,0.5,2.3-1.1,3.6,0.2C165.4,100.7,165.6,98.9,164,98z"/>
				<path class="st0" d="M137.1,91.6c0.1-0.2-0.2-0.1-0.2-0.2c0-0.1,0.5-0.5,0-0.4c0-0.1,0-0.1,0-0.2c-1.5-0.3-2.9-0.6-4.3-0.9
					c0.1-0.1,0.3,0,0.4,0c0.1-0.3-1.8-0.5-1.9-0.9c-0.4-0.3-1-0.4-1.2-0.9c-0.3-0.2-0.5-0.5-0.8-0.8c0,0,0.1-0.1,0-0.2
					c-0.8-0.5-1.1-1.3-1.8-2c-0.1-0.1,0.1-0.2,0.1-0.3c-0.4-0.6-0.7-1.2-1.2-1.8c0-0.1,0.1-0.1,0.1-0.1c0.3,0-0.5-0.7-0.5-0.7
					c0,0,0.1,0,0.1,0c0.2-0.2-0.4-0.2-0.2-0.5c-0.2-0.3-0.6-0.3-0.8-0.5c0.1-0.1,0.2,0.1,0.3-0.1c-0.3-0.2-0.7-0.3-1-0.4
					c0.4-0.5-0.2-0.2-0.6-0.2c0.1-0.1,0.1-0.2,0.2-0.2c-0.4,0.2-0.9,0.2-1.4,0.1c0,0-0.4,0-0.4-0.1c-0.9-0.3-2-0.1-2.9,0.2
					c-0.4,0-0.8,0.3-1.2,0.3c0.2-0.2-0.1,0-0.2,0c-0.7,0.3-2.2,1.1-3,0.9c0,0,0,0,0-0.1c-0.3,0.1-0.6,0.1-0.9,0
					c-0.2-0.2-0.6,0-0.6-0.1c0.3-0.3-0.5-0.1-0.7-0.2c0,0,0.1-0.1,0.1-0.1c-0.3-0.3-1.4,0-2-0.3c0,0,0.1,0,0.1,0
					c0.5-0.4-1.6-0.4-1.7-0.4c0.1,0,0.1-0.1,0.1-0.1c-0.4,0-0.7-0.1-1,0c0.5-0.6,0.6-1.5,0.5-2.3c-0.1-0.3,0.1-1.6-0.6-1.4
					c-0.9,0.8-1.9,1-2.7,1.9c-0.1,0.1-1.1,0.1-1.3,0l-0.3-0.6c-0.3-0.5-0.9-0.9-1.1-1.5c-0.2-0.3-0.5-0.8-0.9-0.8
					c-0.6,0.6-0.6,1.7-0.4,2.4c0.1,0.5-0.2,1-0.1,1.5c0.1,0.2,0.3,0.6,0,0.7c-0.3,0.4-0.2,0.9-0.1,1.4c-0.2,0.4,0.1,1.2,0.1,1.2
					c-0.6,0.5-0.9,0.8-1.4,1.3c-0.1,0.2,0.2,1.2,0.7,0.9c0.4,0.2,2.1,0.1,2.3-0.2c0.3-0.1,1.1,0.6,1.2,1c-0.1,0.5,0.5,0.6,0.5,1.1
					c0.1,0.1,0.4,0.1,0.5,0.3c0,0.1-0.1-0.1-0.2,0c0,0.1,0.4,0.4,0.5,0.6c0.3,1.1,1.4,1.6,2.3,2c0.3,0.1,0.2,0.5,0.3,0.7
					c0.7,1.8-0.2,4.1-0.3,6c-0.2,0.6-0.2,1.5-0.9,1.8c-0.3,0.2-0.7-0.3-1-0.1c-0.3,0.2-0.4,0.5-0.3,0.8c0.3,0.4,0.9,0.5,1.4,0.5
					c0.1,0,0.1-0.1,0.1-0.1c0.6,0.3,0.6-0.2,1.1-0.2c0.1,0.3,0.7-0.9,0.7-1c0.5-0.5,0.5-1.3,0.6-1.9c0.3-1.1,0.4-2.2,0.8-3.3
					c0.4-0.8,0-1.7,0.4-2.5c2.6,0.7,1.4,4.3,1.8,6.1c0.1,0.4,0.2,0.9-0.1,1.3c0,0,0,0,0-0.1c-0.2,0-0.7,0.2-0.7,0.5
					c-0.1,0.2,0.1,1,0.4,0.7c0.2,0.3,1.4,0.3,1.6,0.1c0-0.3,0.2-0.5,0.4-0.7c0.1-0.6,0.1-1.1,0.1-1.7c-0.5-1.6,0.1-4.5,0.5-6
					c0.2-0.1,0.4-0.3,0.6-0.3c-0.1,0.1-0.1,0.1,0,0.2c0.2,0,0.4-0.2,0.7-0.2c0,0.3,0.3-0.2,0.3,0.1c0.1,0,0.2-0.1,0.3-0.2l0.6-0.2
					c0.1,0,0.2-0.1,0.3-0.1c0,0.1-0.1,0.1-0.1,0.1c0.2-0.2,0.1,0.5,0.1,0.6c-0.1,0.4,0.2,0.7,0.2,1c0.1,0,0.2,0.3,0.2,0.4
					c0.1,0.6,0.6,0.8,1,1.2c1,1-0.2,2.8-0.3,3.9l-0.1,0.1c-0.3,0-0.8-0.2-1,0.4c0.1,0.3-0.2,0.5-0.1,0.8c0,0.2,1,0.2,1.2,0.2
					c0.6-0.2,0.9-0.3,1.3-0.8c0.2-0.8,0.3-1.7,0.5-2.5c0.1-0.5,0.5-1.5,0.4-1.9c-0.6-0.5-0.4-2.4,0-3.1c0.2,0.2,0.4,0.4,0.6,0.6
					c0,0.2,0.6,1.2,0.9,1.1c1,1.7,0.4,3.5-0.8,4.9c0.2,0.1-0.6,0.5-0.6,0.5c0,0,0,0,0,0c-1.4,1.1,0.2,2.2,1,1c0,0,0-0.4,0.3-0.1
					c0.4,0.1,0.7-0.8,0.9-1c0.4-0.8,0.6-1.7,1-2.5c0.3-0.7,0.7-1.3,0.9-2.1c-0.1-0.6-0.7-0.9-0.7-1.5c0-0.7,0-1.5,0.4-2
					c0.1-0.3,0.3-0.2,0.2-0.5c0.4,0.1,0.1-0.3,0.4-0.4c0.1,0,0.2,0,0.2-0.1c0,0-0.1,0-0.1-0.1c0.1-0.1,0.3-0.2,0.4-0.3
					c-0.1,0-0.2,0-0.2-0.1c0.1-0.1,0.3-0.2,0.3-0.3c-0.3-0.2-0.2-0.3,0.2-0.4c0,0.2,0,0.6,0,0.8c0.1,0,0.2-0.2,0.2-0.2
					c0.1,0.4,0.2,1.7,0.5,2l0-0.3c0.1,0.5,0.3,1,0.5,1.5c0.1-0.1,0-0.3,0.1-0.4c0.1,0.2,0.6,1.5,0.9,1.1c0.2,0.3,0.4,0.5,0.6,0.7
					c0.1-0.1,0-0.1,0-0.2c0.2,0.3,0.5,0.5,0.8,0.7c0-0.1-0.1-0.4,0-0.3c0.3,0.4,0.6,0.8,1,1.1c0.2,0.1,0.1-0.3,0.1-0.3
					c0.3,0,0.5,0.3,0.8,0.4c0-0.1-0.1-0.3-0.1-0.4c0.4,0.2,0.9,0.4,1.3,0.5c0-0.1,0-0.1-0.1-0.1c0.2,0,0.5,0.1,0.7,0.1
					c0.1-0.1-0.1-0.2-0.1-0.3c0.5,0,2,0.2,2.4-0.2c0-0.1-0.1-0.1-0.2-0.1c0.2-0.2,0.6-0.2,0.8-0.4c0.1-0.4,0.5-0.1,0.8-0.6
					c0.1-0.1-0.1-0.1-0.1-0.2C136.8,91.9,137,91.8,137.1,91.6z"/>
				<path class="st0" d="M159,48.3L159,48.3c0,0-0.8-3-1-3.5c-0.2-0.5-1.7-3.5-1.9-4.1c-0.3-0.6-0.2-1.1-1.4-2.6
					c-0.1-0.1-0.2-0.2-0.3-0.3c-1.1-2-3.8-5.2-5.9-5.8c0,0,0,0,0,0s-0.3-0.1-0.7-0.2c-0.3-0.1-0.7-0.1-1-0.2c-2.5-2-6.3-3.6-8.5-3.7
					c-2.1-0.1-3.4,1.3-4.1,2.3c-0.1,0.1-0.3,0.3-0.4,0.6c-0.1,0.2-0.2,0.4-0.3,0.6c-0.1,0.1-0.1,0.2-0.2,0.3
					c-0.1,0.1-0.1,0.4-0.1,0.4c0,0,0,0.1,0,0.2c0,1.5,1.1,2.6,1.4,2.9c0.3,0.3,0.7,0.2,0.5-0.1c-0.9-1.6,0.4-2.3,0.7-2.5
					c0,0,0.1-0.1,0.1-0.1l0.2-0.1l0.2,0l0.1,0.2c-0.2,0.1-0.9,0.8-1.1,1c-0.2,0.1-0.2,0.9,0.6,0.9c0.8,0,1.5-0.1,1.8-0.3
					c0.1,0,0.3-0.1,0.4-0.1c0,0,0,0,0,0c0.4,0.1,0.8,0.4,0.9,0.7c0,0,0.5,0.1,0.6,0.5c0,0.1,0,0.2,0,0.3c-0.1,1.5,1.2,3.7,2.9,4.4
					c0,0,0,0,0,0c0.3,0.1,0.5,0.3,0.7,0.5c0.2,0.2,0.1,0.3,0.1,0.7c0,0,0,0,0,0c0.1,0.7,0.3,2.4,0.8,3.4c-0.1,0-0.2,0-0.3,0
					c-0.2-0.1-0.6-0.1-0.6-0.1l0,0c-0.9-0.2-1.8-0.1-2.2,0.5c-0.4,0.6,0,1.5,0.5,1.7c0.5,0.1,0.7-0.1,0.4-0.3
					c-0.7-0.8,0-1.1,0.7-1.2c-0.1,0.1,0,0.1-0.2,0.3c-0.2,0.3-0.3,1.1,0.4,1.5c0.2,0.1,0.4-0.2,0.2-0.3c-0.3-0.1-0.1-0.9,0.2-1.1
					c0.2-0.1,0.3-0.2,0.3-0.3c0,0,0.1,0,0.2,0c0.2,0,0.2,0,0.4,0c0.1,0,0.2-0.1,0.3-0.1c0,0,0.1,0.1,0.1,0.1
					c0.3,0.2,1.1,0.5,1.1-0.6c0.5-0.1,0.9-0.9,0.8-1.5c0.1,0.1,0.3,0.2,0.6,0.3c0,0.3,0,1,0.2,1.4c-0.4,0-0.8,0.4-1,0.6
					c-0.2,0.2-0.1,0.5,0.2,0.4c0.3-0.1,1.3-0.1,1.3,1.3c0,0.3,0.4,0.4,0.5,0.1c0.1-0.3,0.3-0.6,0.1-1c0.2,0.1,0.5,0,0.4-0.4
					c0.2-0.1,0.7-0.5,0.7-1.2c0,0,0.2-0.5,0.2-0.7c0.2,0.1,0.4,0.1,0.6,0.2c-0.2,2.8-0.1,8.6,0.4,11.1c0.1,0.7,0.6,0.5,0.4-0.2
					c-0.1-0.5,0.2-3.2,0.4-4.2c0-0.1,0-0.3,0.1-0.6c0,5.1,0.6,11.9,3.8,15.1c0.5,0.4,0.7,0.1,0.4-0.4c-0.9-1.4-1.7-6.4-1.2-10.1
					c0.2,4.6,1,9.5,3.4,11.2c0.3,0.2,0.4-0.2,0.1-0.5c-3.4-6-2.8-15.5-2.5-18.7c1.7,1,3.1,2.1,3.7,3C159.2,49.2,159.1,48.7,159,48.3
					z"/>
				<path class="st1" d="M76,65c0.7,0.1,1.3,0.4,2,0.5c3.2,0.1,7.3-1.5,10.3-0.2c1.4,0.7,3.2,2.9,4.4,4.4c0.9,1.1,3.6,3.6,3.6,5.2
					c0.1,2.3-3.2,3.9-3.8,5.6c0.8,3.2,0.1,9.1-1.1,11.7c-0.2,0.5-0.8,1-1.1,1.5c-0.5,1.2-0.8,2.6-1.4,4.1c-0.4,1.1-1.6,3.3-1.4,4.2
					c0.2,0.8,1.2,0.8,1.8,1.5c0.8,0.9,1.1,2.2,0.6,3.6c0.6,0.9,1.7,2.9,1.4,3c-0.4,0.1-2.3-1.9-3.1-3.2c-0.7-1.2-1.2-2.8-1.5-4.3
					c-0.9,2.9-0.4,6.4-1.4,8.9c0.7,0.5,1.2,1.9,0.8,3c-1.5,0.6-4.6,0.6-5.2-0.5c-0.3-0.6,0.5-2,1.1-3.7c0.4-1.1,0.8-3.1,0.6-3.3
					c-0.9-0.9-1.2-2.4-1.7-3.6c-0.4,1.9-1.2,4.9-1,7.3c0.2,3.4,1.3,6.2,1.1,6.6c-0.3,0.7-2.9,1.1-4.7,0.9c-1.7-0.2-3.2-0.8-3.3-1
					c-0.3-0.4,0.4-1,0.2-1.8c-4,0.4-7.2-2.7-5.6-6c-0.2-0.5-0.2-0.8-0.5-1.4c0.9-7.4-0.5-14.1,0.6-19.5c-0.7-1.1-2.8-1.1-3.8-1.2
					c-1-0.1-2.9-1.4-3.9-2.4c-0.3-0.3-0.3-0.8-0.6-1.2c-0.1-0.2-0.6-0.3-0.9-0.6c-0.9-0.8-1.9-1.5-2.7-2.3c-1.2-1.1-3.4-4-3-5.9
					c0.2-0.8,2.2-2.8,2.9-3.5c3.1-3.4,6.6-6.3,12.1-5.9c0.5,0.1,0.7-0.1,1.4-0.2C71.7,65.3,72.9,64.7,76,65 M74.3,100.6
					c-0.4-0.1-0.5,0.2-0.8,0.2c-0.2,3.6-1.5,7.4,1,9.7C75.7,107.4,76.5,103.3,74.3,100.6 M89.2,104.6c-0.4,0.6,0.4,1.4,0.6,2
					C90.2,105.9,89.3,105.2,89.2,104.6"/>
				<path class="st0" d="M34.5,40.6c0.2-0.3,0.5-0.6,0.9-0.7c0.2,0,0.4,0.2,0.4,0.5c-0.2,0.5,0.2,0.6,0.5,0.7c1.8,0.3,3,3.5,3.4,3.7
					c0.1,0.1,0.4,0.7,0.1,1.1c-0.6,0.5-0.8,0.9-0.8,1.1c-0.1,0.2-0.3,0.5-0.5,0.6c0.2-0.1-0.6,0.5-0.7,0.6c-0.1,0.1-0.3,0.2-0.4,0.3
					c-0.1,0.1-0.2,0.1-0.4,0.1c-0.4,0.1-0.6-0.1-0.9-0.3c-0.3-0.2-0.1-0.4-0.2-0.6c-0.1-0.5-0.6-0.4-0.8-0.8
					c-0.9,0.1-0.8,1.2-1.1,1.8c-0.4,1.8-0.3,3.7-0.9,5.5c0,0-0.1,0.1-0.1,0.2c0,0.2-0.4,1.1-0.5,1.2c-0.1,0.1-0.3,0.4-0.3,0.7
					c-0.4,1.7-1.1,3.4-0.8,5.1c0.3,0.5,0.2,1,0.5,1.5c0.5,0.3,1.3,0.4,1.4,1.1c0.1,0.4-0.2,0.9-0.3,1.1c-0.2,0.3-2.1,0.2-2.4,0.2
					c-0.3-0.1-0.5-0.5-0.9-0.4c-0.4-0.1-0.7-0.5-0.8-0.8c0-1-0.1-2-0.8-2.7c-0.1-1-0.2-2-0.7-2.8c-0.3-0.1-1.1,0.3-1.1,0.5
					c0.2,1.3-0.9,2.3-0.3,3.5c0.4,0.1,0.9,0.1,1.2,0.4c0.3,0.3,0.2,0.7,0.1,1.1c-0.2,0.6-0.7,0.4-1.1,0.5c-0.2,0-0.6,0.2-0.9,0.2
					c-0.3,0-1.4-0.3-2-0.4c-1.3-1.1-0.1-3.1-0.8-4.4c-0.3-0.8,0-1.8,0-2.7c-0.1-0.4-0.4-0.3-0.6-0.3c-0.6,0.1-0.7,0.8-1,1.2
					c-1.5,1.8-3.6,3.6-2.9,6.3c0.2,0.6,0.1,1.6,0.9,1.7c0.4-0.1,0.7,0,1,0.2c0.3,0.3,0.6,0.6,0.6,1c-0.2,0.6-0.7,1.1-1.1,1.2
					c-0.4,0.1-2.4,0.2-3-0.7c-0.2-0.2-0.1-0.5-0.4-0.5c-0.6-1-1-2.2-1.9-3c-0.1-0.3-0.1-0.7,0-1.1l0.2-0.4c0.4-1.4,1.1-3.3,0.1-4.6
					c-0.6,0.5-0.7,1.3-1.2,2c-1.2,1.6-2.9,2.2-4,3.9l-1,1.9C8,66.8,8.7,66.4,9,66.6c0.5,0.3,0.8,0.8,0.5,1.3
					c-0.3,0.1-0.4,0.6-0.8,0.4c-0.9,0.6-2,0.1-2.9-0.1c-0.5-0.2-0.5-0.8-0.5-1.3l0.1-0.1l-0.1-0.1c0.1-0.3,0.1-0.6,0.2-0.9
					c-1-0.1-1.9-0.4-2.4-1.3c-0.4-0.9-0.5-2.4,0.3-3.2c0.5-0.5,1-1.2,1.8-0.8c0.8,0.5,0.1,1.7,0.2,2.3c0.2,0.1,0.3,0.3,0.6,0.2
					c1.1-0.7,0.6-2.3,1-3.4c0.1-1.5,0.2-2.5,0.4-3.9c0.1-1.3,0.7-2.4,1.3-3.5c2.6-3.7,7-4.5,10.8-6.4c0.6-0.3,2-0.3,2.2-0.2
					c0.2,0.1,0.5,0,0.7,0c0.8,0.1,1.8,0.1,2.5-0.2c1.1-1.3,3-1.4,4-2.9c1-0.9,2.3-1.7,3.6-2c0.2-0.4,0.7-0.7,1.1-0.8
					C34.3,39.8,34.3,40.3,34.5,40.6L34.5,40.6z"/>
				<path class="st0" d="M68.1,58.3c-0.6-0.2-0.3-1-0.4-1.7c-0.4-0.2-0.3-0.9-0.2-1.4h0.2C68.1,56,68.6,57.4,68.1,58.3 M45.3,38.3
					c0.1-0.7,0.3-1.3,0.7-1.7c-0.2,0.8-0.2,1.7-0.1,2.7c0,0.5,0.2,0.9,0.2,1.4c0,0.4-0.1,0.8-0.2,1.2C45.2,40.7,45.1,39.3,45.3,38.3
					 M88.2,42.1c-0.2-0.1-0.2-0.4-0.4-0.6c-0.3-0.3-0.6-0.4-0.8-0.6c-0.3-0.3-0.4-0.9-0.6-1.3c-0.4-0.8-0.9-1.6,0.1-1.8
					c0.7-0.2,1-0.6,0.5-0.7c-0.7-0.2-1.2-0.5-1.6-0.7c0.8-0.2,1.7-0.7,2.5-1.2c1.3-1,1.6-2.8,1.5-2.8c-0.3,0-0.8,0.8-2.4,1.7
					c-1.6,0.9-3.1,0.3-3.1,0.3s0.2-0.2,0.8-0.8c0.3-0.4,0.4-1.2,0.2-1c-1.5,1.4-2.7,1.4-2.7,1.4c-0.3,0-0.4,0.1-0.6,0.2
					c-0.2,0-0.3,0.1-0.4,0.2c-0.7-0.4-1.7-0.4-2.3,0.2c-0.2-0.1-0.8-0.4-2.2-0.4c-0.3-0.3-0.4-0.6-0.9-0.7c-0.5,0.5-0.3,0.1-1,0.1
					c-0.5,0,0,0-0.9,0c-0.4,0-0.1,0.2-0.6,0.1c-0.8-0.2-0.4,0.4-0.9,0c-0.4-0.3-1.1,0-1.6-0.3c-0.8-0.6-1.3-1-2.5-0.5
					c-0.5,0.2-2.3,0.1-2.7,0.3c-0.3,0.1-3.3,0.5-2.8,0.4c-2.2,0.5-4,0.5-6.7,0.5c-1.2,0-2.3-0.4-3.4-0.6c-0.7-0.1-1.4-0.4-1.9-0.4
					c-1-0.1-1.5,0.5-2,1c-0.2,0-3.7,0.7-4.3,3.6c-0.3,1.4,0.3,4.1,1,6.5c0,0.1,0,0.2,0,0.2c0,1,0.4,1.9,0.4,2.9
					c0.1,0.1,0.4,0.1,0.6,0.2c0,0.1,0,0.1,0.1,0.2c-0.1,0.2-0.4,0.4-0.4,0.7c0,0.4,0.2,0.6,0.2,0.7c0,0.2-0.1,0.4,0,0.6
					c0.2,0.6,0.9,1.4,1,2.5c0,0.2,0,0.5,0,0.7c0.1,0.8,0.3,1.4,0.2,2.3c0,1.1,0,2,0.2,2.9c0.1,0.4,0,0.8,0.2,1
					c0.4,0.5,1.1,0.3,1.7,0.4c0.1-0.3,0.1-0.4,0.1-0.8c0.2,0.1,0.1,0.5,0.4,0.6c1.9,0.2,0.6-1.6,0-2.3c0.2-0.9-0.8-1.4-1-2.1
					c-0.2-0.8-0.2-1.9-0.3-2.8c-0.1-0.9-0.2-1.8,0-2.8c0.3-0.1,0.6-0.1,0.9-0.1c0.3,0.3,0.4,0.7,0.6,1.2c0.2,0.4,0.4,0.8,0.5,1.2
					c0,0.2,0,0.4,0,0.7c0,0.2,0.2,0.4,0.2,0.6c0.2,0.8-0.2,1.9,0.2,2.7c0.1,0.1,0.4,0.1,0.6,0.2c0.2,0.3-0.2,0.6-0.2,0.8
					c0.1,1,1.4,0.9,2.5,0.9c0.2-0.3-0.1-0.5-0.1-0.7c0.4,0.1,0.6,0.6,1.1,0.3c-0.4-0.9-1-1.4-1.6-2c-0.5-1.7-1.6-3.8-1.3-6
					c0,0,2.8-0.4,4,0c0.7,0.2,2.7,0.5,3,0.5c2,0.4,3.7,1.1,5.8,1.3c0.4,0.5,0,1.2,0.1,1.8c0.1,1.2,0.9,2.6,0.9,3.9
					c0,0.8-0.3,1.7-0.4,2.3c0,0.3,0.4,0.6,0.4,1c0.1,0.3-0.1,0.6-0.1,0.9c0.2,0.9,1.4,1.1,2.5,1.1c0.2-0.2,0.1-0.6,0.2-0.9
					c0.3,0,0.8,0.5,1.2,0.2c0-0.6-0.3-0.9-0.5-1.3c0.6,0.2,1.3,0.8,2,0.4c0.2-0.2,0.1-0.4,0-0.6c0.2-0.1,0.7,0.3,0.9,0
					c-0.2-0.7-1.1-1-1.6-1.5c-0.4-0.4-0.6-1-0.7-1.7c-0.2-0.1-0.2-0.4-0.5-0.5c-0.4-1.1-0.4-2.2-0.3-3.2c0.1-0.1,0.3-0.2,0.6-0.2
					c0.5-0.4,1.1-0.4,1.5-0.8c0.2-0.2,0.4-0.4,0.6-0.5c0.1-0.2,0.4-0.3,0.6-0.4c0.1-0.2,0.1-0.4,0.2-0.6c0.3-0.5,1.8-1.6,1.2-1.5
					c0.7-0.1,1-0.1,1.5-0.6c0.7-0.6,1.7-0.3,2.3-0.8c0.2-0.2,0.2,0.1,0.4-0.1c0.5-0.5,1.2-0.8,1.3-1.4c0.7,0.1,1.2,0.3,1.8,0.2
					c0.7,0,1.3-0.5,1.8-0.6c0.5,0,0.8,0.4,1.2,0.6c1.2-0.4,1.6,1,2.8,0.4c0.2-0.1,0.3-0.5,0.6-0.6c0.2-0.2,0.5-0.1,0.8-0.4
					c-0.1-1.2,1.5-1.9,0.4-3C88.6,42.2,88.4,42.2,88.2,42.1"/>
				<path class="st0" d="M150.1,143.4c0,2.2-1.8,3.9-4.1,3.9c-2.3,0-4.2-1.8-4.2-4c0-2.2,1.9-3.9,4.2-3.9
					C148.3,139.5,150.1,141.3,150.1,143.4 M142.5,143.4c0,1.8,1.6,3.3,3.5,3.3c1.9,0,3.5-1.5,3.5-3.4c0-1.8-1.6-3.3-3.5-3.3
					C144.1,140.1,142.5,141.6,142.5,143.4 M144.5,141.1h1.2c1.1,0,1.9,0.2,1.9,1.1c0,0.6-0.4,1-1.2,1v0c0.5,0.1,0.7,0.4,0.9,0.8
					l0.7,1.3h-0.8l-0.6-1.3c-0.2-0.4-0.4-0.6-1-0.6h-0.2v1.9h-0.7V141.1z M145.2,143h0.3c0.8,0,1.2-0.2,1.2-0.6
					c0-0.6-0.4-0.6-1.2-0.6h-0.3V143z"/>
			</g>
		</g>
	</g>
</g>
</svg>
