<?xml version="1.0" encoding="UTF-8"?><svg id="Layer_1" xmlns="http://www.w3.org/2000/svg" viewBox="0 0 671.72 236.16"><path d="M340.92,113.19c18.64-29.19,9.29-33.68,8.34-33.14-18.13,10.21-31.94,40.96-30.78,51.21,1.6,14.1,12.54-2.57,22.44-18.06m70.61-26.79c-3.38,6.03-5.56,12.65-6.42,19.5-.48,3.42-1.03,18.3-.91,20.32,.19,3.28,.61,6.55,1.25,9.77,.44,1.61,3.21,7.4-5.66,8.62-5.22,.72-5.12-12.34-5.22-14.48-.2-4.55,.55-20.55,1.04-22.93,.51-2.43-.51,.14-1.47,1.73-2.21,3.7-4.78,8.71-7.86,13.64-4.05,6.48-13.07,21.92-25.38,21-4.61-.35-9.29-.94-11.96-13.77-1.03-4.92-.63-11.39-.52-15.27-.13-.8-.02-1.72-.69-1.34-4.36,10.17-18.52,40.15-34.52,33.41-7.41-3.11-11.06-12.68-2.88-31.36,7.97-18.21,28.07-40.78,36.08-42.3,7.14-1.35,7.88,2.24,7.88,2.24,.65-1.33,5.1-1.17,6.07,.73,1.3,2.55,2.17,2.99,1.3,9.7-.49,3.87-4.09,28.09-3.47,36.41,.29,3.9,.95,13.51,4.92,13.97,6.92,.83,15.32-13.9,16.27-15.44,1.86-3.01,16.8-28.06,18.64-31.71,1.98-3.94,3.23-6.82,4.51-9.33s5.13-2.79,8.48-.5,1.68,5.43,.53,7.38h0Zm-316.14,12.27c-8.78,.95-24.8,22.18-28.1,29.72-3.37,7.7-4.59,15.12-.59,18.22,8.29,6.43,16.86-4.47,19.38-7.01,1.56-1.56,12.46-13.45,15.2-25.53,1.81-7.97,2.65-16.32-5.89-15.41Zm4.58,94.25c-.61,1.08-1.23,2.16-1.87,3.22-6.47,10.74-14.96,20.33-25.49,27.24-14.26,9.36-27.65,12.95-42.61,12.77-8.7-.1-17.09-1.51-24.24-6.06-5.86-3.73-6.7-9.56-4.92-13.41,2.47-5.36,10.18-4.84,13.46-1.76,8.19,7.68,13.07,10.65,23.6,10.14,8.68-.5,17.13-2.98,24.69-7.26,43.54-25.43,43.14-71.14,44.91-98.68,.19-1.67-.72-.46-1.03,.45-2.1,5.86-4.7,11.53-7.77,16.94-4.46,8.06-10.78,14.95-18.42,20.1-5.51,3.64-14.47,5.4-20.77,1.29-2.29-1.5-15.65-9.33-4.32-32.64,7.12-14.67,22.12-24.84,25.5-27,8.27-5.28,14.18-7.79,20.38-7.32,3.16,.23,3.61,1.47,5.96,1.41,1.34-1.57,2.07-2.72,4.27-3.33,2.95-.47,6.45,2,7.8,6.68s-2.16,12.21-3.05,15.82c0,0,3.12,46.92-16.05,81.37Zm49.61-105.73c-5.34,.1-4.9,3.95-6.02,7.32-1.08,3.36-10.28,33.58-11.45,38.99s-1.97,10.28-.28,17.72c1.72,7.6,10.43,5.38,11.35,4.05,4.26-5.96,.49-7.72,.35-11.88-.11-4.35,1.08-8.92,1.98-14.81,.32-2.1,.96-11.65,1.28-12.95,.35-1.4,3.36-12.03,7.69-18.5,1.85-2.77,3.48-10.09-4.9-9.94h0Zm14.53-35.34c-.73-1.5-4.7-6.23-9.88-2.56-7.71,5.46,1.18,13,2.61,16.7s9.13,6.8,8.01-.5c-.16-1.05,1.39-9.3-.73-13.64Zm85.11,35.59c-2.51,.56-7.52,1.57-10.67,2.1-4.77,.8-7.37,3.8-7.19,6.83,.18,3.05,1.23,4.49,5.48,3.68,3.85-.73,7.13-4,10.5-4.01,0,0-6.95,29.32-7.41,33.25s-2.51,14.68,1.71,20.78c9.4,13.58,28.2-1.98,29.96-3.68,1.29-1.25,13.17-11.67,17.19-20.02,2.04-4.24-1.43-5.17-3.78-6.04s-7.32,.63-8.01,3.73c-1.51,6.73-17.96,24.9-26.1,21.26-9.59-4.3,7.71-52.48,7.71-52.48,2.06-.93,12.52-3.62,22.41-6.17,11.42-2.92,46.31-9.82,38.44-20.24-3.85-5.1-13.82,2.67-17.19,4.29-12.1,5.8-41.7,14.32-41.7,14.32,0,0,3.84-17.32,5.09-20.73,1.43-3.9,6.7-6.46,7.47-13.41,.9-8.09-8.83-11.77-13.48-2.91-.96,1.82-2.29,6.83-2.42,6.96-1.25,1.2-12,5.49-22.57,10.53-3.33,1.59-22.26,8.47-22.29,8.42,.03-.14,5.75-18.28,12.37-33.41,4.41-10.06,10.62-24.07,21.63-26.91,10.31-2.66,5.45,8.08,10.09,10.87,5.88,3.54,9.49-.92,10.39-5.19,.71-3.34,.52-20.88-17.31-19.13-16.96,1.67-30.48,27.57-47.2,75.96-.18,.19-13.46,8.77-24.46,10.97-5.44,1.09-7.85,1.56-8.57,3.5-1.21,3.18-.43,6.78,2,9.17,3.14,3.74,27.65-12.48,27.62-12.37-.5,.66-20.61,77.28-20.77,78.18-1.16,6.38-7.64,23.21-7.29,30.84,.19,3.93,1.73,12.11,7.39,11.74,11.85,.78,9.56-15.86,8.77-18.92-1.66-6.31,6.85-48.05,14.49-78.8,1.56-6.27,4.76-16.57,5.31-19.01,.65-3.58,2.96-6.63,6.22-8.23,0,0,42.58-20.07,42.98-19.96,0,.04-6.8,24.24-6.8,24.24Zm291.75,38.3c8.24,7.8,16.45,2.85,20.67-.55,12.95-10.41,39.64-57.85,39.64-57.85,.15,1.59-11.12,56,3.95,62.03,9.66,3.86,32.16-15.33,34.73-17.11,14.85-10.25,5.75-14,2.89-14-7.66-.02-6.28,5.52-8.37,8.01-3.46,4.11-17.34,18.4-24.14,14.61-3.66-2.05-2.76-14.14-2.39-16.93,2.14-28.8,2.71-34,4.39-40.62,.94-3.68,5.43-3.59,8.17-4.09,37.08-6.85,43.73-4.09,48.35-6.34,3.67-1.8,4.33-9.57-.88-11.25-2.38-.75-5.4,1.06-10.86,3.1-5.43,2.01-32.79,8.06-36.82,8.65-3.71,.54-4.5,.01-5.4-1.15-.89-1.15,.82-14.66,6.14-25.87,2.31-4.85,2.37-12.27-5.18-12.84-3.11-.22-5.74,.66-6.92,3.31-1.17,2.63-3.44,26.63-3.97,28.23-.53,1.58-3.4,2.81-4.03,5.55s-.19,4.45-2.03,5.06c-1.86,.63-6.97,1.12-9.06,1.63-2.21,.54-3.52,4.76-3.6,7.21s3.86,.99,5.76,.71c2.17-.32,7.48-2.97,3.7,1.58-1.43,1.74-27.17,41.97-37.22,50.26-11.57,9.52-10.74-9.2-10.45-12.39,1.75-19.09,10.1-31.9,11.3-34.94,1.18-3.05,1.68-12.11-8.18-10.11-2.34,.59-4.2,2.34-4.94,4.64-.02,.07-.03,.13-.03,.2-.99,8.92-18.11,49.03-5.2,61.25h0Zm15.03-93.42c3.04,5.92,8.23,3.83,9.11,2.3,.89-1.52,1.59-1.83,4.11-2.85,4.62-1.85-3.36-10.14-10.95-7.8-.99,.43-1.66,1.38-1.74,2.47,.21,1.74-1.57,3.9-.54,5.88h0Zm-93.08,46.55s4.98-4.29,7.09-4.18c.98,.05-.73,2.76,2.69,4.43,1.82,.9-1.99,13.01-9.51,24.63-17.28,26.68-25.47,25.48-26.18,17.37-1.46-16.91,20.9-38.81,25.91-42.25Zm8.77,21.88s-.06,5.75,.38,10.66c.4,4.41,1.91,13.64,3.46,16.63,2.41,4.6,7.51,4.6,11.45,2.35,5.15-2.96,2.71-8.49,.75-10.33-1.71-1.62-5.87-3.7-7.13-10.64-.74-4.11-.14-22.64,1.08-29.12,1.26-5.95,3.15-11.75,5.62-17.3,2.05-4.04,14.4-27.21,14.58-34.98,.08-3.39-3.42-6.21-9.13-5.62s-7.13,5.16-7.14,8.16c-.01,2.98-6.06,23.97-6.37,24.93-.5,1.43-1.49,10.03-4.44,10.05-6.57-.11-12.98,2.03-18.16,6.08-2.85,2.16-12.51,9.67-18.09,17.52-2.53,3.55-14.04,18.34-12.74,36,1.18,16.06,12.42,13.21,15.64,12.7,14.66-2.36,24.97-26.47,26.46-29.43,2.64-5.25,1.75-3.84,3.76-7.65h0Zm-57.76-58.66c-1.07,1.32-.81,5.51,1.53,7.68,1.76,1.63,2.01,1.93,2.06,3.25,.1,2.43,1.65,2.57,4.05,2.54,2.93-.04,5.32-2.07,5.62-6.21s-3.71-7.67-6.93-8.46-4.94-.52-6.33,1.21Z"/></svg>