<?xml version="1.0" encoding="utf-8"?>
<!-- Generator: Adobe Illustrator 25.0.1, SVG Export Plug-In . SVG Version: 6.00 Build 0)  -->
<svg version="1.1" id="Livello_1" xmlns="http://www.w3.org/2000/svg" xmlns:xlink="http://www.w3.org/1999/xlink" x="0px" y="0px"
	 viewBox="0 0 1400 166" style="enable-background:new 0 0 1400 166;" xml:space="preserve">
<style type="text/css">
	.st0{fill:#D8B289;}
	.st1{fill:#E6D0BC;}
	.st2{fill:#BF986B;}
	.st3{fill:#D6291C;}
	.st4{fill:#969595;}
	.st5{fill:#B12827;}
	.st6{fill:#054631;}
</style>
<g>
	<path class="st0" d="M1236.3,165.7l4.6,0.9l0.3,2.6h1.3l-0.4-3.2c0-0.3-0.2-0.5-0.4-0.5c0,0,0,0-0.1,0l-3.7-0.7l3-2.2
		c0.2-0.2,0.3-0.5,0.2-0.7l-1.2-3.5l3.4,1.5c0.3,0.1,0.6,0,0.7-0.2l2.5-2.8l0.4,3.7c0,0.3,0.2,0.5,0.5,0.6l3.7,0.7l-3,2.2
		c-0.2,0.2-0.3,0.5-0.2,0.7l1.2,3.5l-3.4-1.5c-0.3-0.1-0.6,0-0.7,0.2l-2,2.3h1.7l1-1.1l2.6,1.1h2.6c0,0,0,0,0,0l-1.6-4.5l3.8-2.8
		c0.2-0.2,0.3-0.4,0.2-0.7c-0.1-0.2-0.3-0.4-0.5-0.5l-4.6-0.9l-0.6-4.7c0-0.3-0.2-0.5-0.4-0.5c-0.2-0.1-0.5,0-0.7,0.2l-3.1,3.6
		l-4.3-1.9c-0.2-0.1-0.5-0.1-0.7,0.1c-0.2,0.2-0.3,0.4-0.2,0.7l1.6,4.5l-3.8,2.8c-0.2,0.2-0.3,0.4-0.2,0.7
		C1235.9,165.5,1236.1,165.6,1236.3,165.7z"/>
	<path class="st1" d="M1313.5,168.7l1.4,0.5h5.5l2.5-3.4c0.3-0.4,0.2-0.9-0.2-1.2c-0.4-0.3-0.9-0.2-1.2,0.2l-2.2,3l-0.8-2.6
		c0.4-0.4,0.6-1.1,0.4-1.7c-0.3-0.9-1.3-1.4-2.2-1.2c-0.9,0.3-1.4,1.3-1.2,2.2c0.2,0.6,0.7,1,1.3,1.2l0.8,2.6l-3.5-1.2
		c-0.5-0.2-0.9,0.1-1.1,0.5C1312.8,168,1313.1,168.5,1313.5,168.7z"/>
	<path class="st0" d="M1310.9,87.9l3.8,4.2l-5,0.6c-0.7,0.1-1.1,0.7-1,1.3c0.1,0.7,0.6,1.1,1.3,1.1l6.7-0.8l3.4,3.7l-8.7,1
		c-0.7,0.1-1.1,0.7-1,1.3c0.1,0.7,0.6,1.1,1.3,1.1l10.4-1.2l6.3,6.8c-0.2,0.4-0.4,0.8-0.6,1.2c-0.2,0.5-0.2,1-0.2,1.5l-9,2l-7.9-6.9
		c-0.5-0.4-1.2-0.4-1.7,0.1c-0.4,0.5-0.4,1.2,0.1,1.7l6.6,5.8l-4.9,1.1l-5.1-4.5c-0.5-0.4-1.2-0.4-1.7,0.1c-0.4,0.5-0.4,1.2,0.1,1.7
		l3.8,3.3l-5.5,1.2c-0.6,0.1-1,0.8-0.9,1.4c0.1,0.6,0.8,1,1.4,0.9l5.5-1.2l-2,4.6c-0.3,0.6,0,1.3,0.6,1.5c0.6,0.3,1.3,0,1.6-0.6
		l2.7-6.2l4.9-1.1l-3.5,8c-0.3,0.6,0,1.3,0.6,1.5c0.6,0.3,1.3,0,1.6-0.6l4.2-9.6l8.9-2.1c0.4,0.8,1.8,1.7,1.7,1.9l-2.8,8.9l-9.8,3.4
		c-0.6,0.2-0.8,0.9-0.6,1.5c0.2,0.6,0.7,0.9,1.4,0.7l8.2-2.9l-1.5,4.8l-6.2,2.2c-0.6,0.2-0.8,0.9-0.6,1.5s0.7,0.9,1.4,0.7l4.7-1.7
		l-1.7,5.4c-0.2,0.6,0.1,1.3,0.8,1.5c0.6,0.2,1.3-0.2,1.5-0.8l1.7-5.4l3.2,4.1c0.4,0.5,1.2,0.7,1.8,0.3c0.5-0.4,0.5-1.2,0.1-1.7
		l-4.2-5.5l1.5-4.8l5.4,7.1c0.4,0.5,1.2,0.7,1.8,0.3c0.5-0.4,0.5-1.2,0.1-1.7l-6.4-8.5l2.8-9c1.2,0.1,2-0.1,2.7-0.5l6.5,6.9l-2,10.3
		c-0.1,0.6,0.3,1.3,1,1.4c0.6,0.1,1.3-0.3,1.4-0.9l1.7-8.6l1.1,1.2l2.3,2.5l-1.3,6.7c-0.1,0.6,0.3,1.2,1,1.4
		c0.6,0.1,1.3-0.3,1.4-0.9l1-5l3.8,4.2c0.4,0.5,1.2,0.5,1.7,0.1c0.5-0.4,0.5-1.2,0.1-1.7l-3.8-4.2l5.1-0.6c0.7-0.1,1.1-0.7,1-1.3
		c-0.1-0.7-0.7-1.1-1.3-1l-6.8,0.8l-3.4-3.7l8.7-1c0.7-0.1,1.1-0.7,1-1.3c-0.1-0.7-0.7-1.1-1.3-1l-10.4,1.2l-6.4-6.9
		c0.3-0.4,0.5-0.8,0.6-1.3c0.1-0.4,0.2-0.9,0.2-1.3l9.1-2.1l7.9,6.9c0.5,0.4,1.2,0.3,1.7-0.1c0.4-0.5,0.4-1.2-0.1-1.7l-6.6-5.8
		l4.9-1.1l5.1,4.5c0.5,0.4,1.2,0.3,1.7-0.1c0.4-0.5,0.4-1.2-0.1-1.7l-3.8-3.3l5.5-1.2c0.6-0.1,1-0.8,0.9-1.4c-0.1-0.6-0.8-1-1.4-0.9
		l-5.5,1.2l2-4.7c0.3-0.6,0-1.3-0.6-1.6c-0.6-0.3-1.3,0-1.6,0.6l-2.7,6.3l-4.9,1.1l3.5-8.1c0.3-0.6,0-1.3-0.6-1.6
		c-0.6-0.3-1.3,0-1.6,0.6l-4.2,9.7l-9.3,2c-0.4-0.8-1-1.5-2-2.1l2.8-8.9l10.2-3.3c0.6-0.2,1-0.9,0.8-1.5c-0.2-0.6-1-1-1.7-0.8
		l-8.4,2.8l1.5-4.8l6.6-2.1c0.6-0.2,1-0.9,0.8-1.5c-0.2-0.6-1-1-1.7-0.8l-4.9,1.6l1.7-5.4c0.2-0.6-0.1-1.3-0.8-1.5
		c-0.6-0.2-1.3,0.2-1.5,0.8l-1.7,5.4l-2.8-4c-0.4-0.5-1-0.6-1.6-0.2c-0.5,0.4-0.8,1.1-0.4,1.6l3.9,5.4l-1.5,4.8l-5.1-7
		c-0.4-0.5-1-0.6-1.6-0.2c-0.5,0.4-0.8,1.1-0.4,1.6l6.1,8.4l-2.8,8.8c-0.1,0.2-1.8,0.2-2.6,0.7l-6.2-6.8l2.1-10.3
		c0.1-0.6-0.3-1.3-0.9-1.4c-0.6-0.1-1.2,0.3-1.4,0.9l-1.7,8.6l-0.4-0.4l-3-3.2l1.3-6.7c0.1-0.6-0.3-1.3-0.9-1.4
		c-0.6-0.1-1.3,0.3-1.4,0.9l-1,5l-3.8-4.2c-0.4-0.5-1.2-0.5-1.7-0.1C1310.5,86.7,1310.5,87.4,1310.9,87.9z"/>
	<polygon class="st2" points="350.5,97.2 352.3,83.7 361.9,93.3 375.3,90.9 369.1,103 375.6,115 362.1,112.8 352.7,122.7 
		350.6,109.2 338.3,103.3 	"/>
	<path class="st2" d="M805.2,158.1l10.9,5l0.9,4.5l-7.7-3.5c-0.5-0.2-1.1-0.1-1.5,0.2c-0.4,0.4-0.6,0.9-0.4,1.4l1.1,3.4h2.9
		l-0.4-1.3l2.9,1.3h7.5l3.8-4.2l0.4,4.2h2.7l-0.7-7.5c0-0.5-0.4-1-0.9-1.2c-0.5-0.2-1.1,0-1.4,0.4l-5.5,6.1l-0.9-4.3l8.1-8.9
		c0.5-0.6,0.5-1.4-0.1-1.9c-0.6-0.5-1.4-0.5-1.9,0.1l-6.8,7.4l-1.1-5.6l5.3-5.7c0.5-0.6,0.5-1.4-0.1-1.9c-0.6-0.5-1.4-0.5-1.9,0.1
		l-3.9,4.3l-1.3-6.4c-0.1-0.7-0.9-1.2-1.7-1.1c-0.7,0.1-1.3,0.9-1.1,1.6l1.3,6.4l-5.2-2.4c-0.7-0.3-1.4,0-1.8,0.7
		c-0.3,0.7-0.1,1.5,0.6,1.8l7,3.3l1.1,5.6l-9.1-4.2c-0.7-0.3-1.4,0-1.8,0.7C804.2,157,804.5,157.8,805.2,158.1z"/>
	<path class="st2" d="M829.5,169.2h4.1l0.2-0.2l0.8,0.2h12.1c-0.1-0.1-0.3-0.2-0.5-0.2l-9.8-2.2l0.5-0.5l3.8-3.3l7.6,1.7
		c0.7,0.2,1.4-0.3,1.6-1c0.2-0.7-0.3-1.5-1-1.6l-5.7-1.3l4.9-4.3c0.6-0.5,0.6-1.4,0.1-1.9c-0.5-0.6-1.4-0.6-1.9-0.1l-4.9,4.3
		l-0.5-5.8c-0.1-0.7-0.7-1.3-1.5-1.2c-0.7,0.1-1.3,0.7-1.2,1.5l0.7,7.7l-4.3,3.8l-0.9-10c-0.1-0.7-0.7-1.3-1.5-1.2s-1.3,0.7-1.2,1.5
		l1.1,12L829.5,169.2z"/>
	<path class="st2" d="M802,169.2h2.9l-2.7-8.4c-0.2-0.7-1-1.1-1.7-0.9c-0.7,0.2-1.1,1-0.9,1.7L802,169.2z"/>
	<path class="st2" d="M787,168.8l1.2,0.4h9l-2.3-7.2c-0.2-0.7-1-1.1-1.7-0.9c-0.7,0.2-1.1,1-0.9,1.7l1.8,5.5l-6.2-2.1
		c-0.7-0.2-1.5,0.1-1.7,0.9C785.9,167.7,786.3,168.5,787,168.8z"/>
	<path class="st2" d="M1323.3,65.6c-0.4-0.5-1-0.7-1.5-0.6l-1.6-2l3.6-0.2c0.5,0,0.8-0.4,0.8-0.9c0-0.5-0.4-0.8-0.9-0.8l-4.8,0.2
		L1317,59l5.1-0.2c0.3,0,0.6-0.2,0.7-0.5c0.1-0.3,0-0.7-0.2-0.9l-3.6-3.6l1.5-0.2l1.5-0.2l3.4,3.4c0.3,0.3,0.9,0.3,1.2,0
		c0.3-0.3,0.3-0.8,0-1.2L1324,53l2.6-0.4c0.4,0.5,0.9,0.7,1.6,0.6c0.9-0.1,1.5-1,1.4-1.9c-0.1-0.9-1-1.5-1.9-1.4
		c-0.6,0.1-1.1,0.5-1.3,1l-2.6,0.4l1.6-3.2c0.2-0.4,0.1-0.9-0.4-1.1c-0.4-0.2-0.9-0.1-1.1,0.4l-2.2,4.2l-2.5,0.4l-0.5,0.1l2.4-4.6
		c0.2-0.3,0.1-0.6-0.1-0.9c-0.2-0.3-0.5-0.4-0.9-0.3l-4.7,1.3l1-2.6l4.6-1.2c0.4-0.1,0.7-0.6,0.5-1c-0.1-0.4-0.5-0.7-1-0.6l-3.4,0.9
		l1-2.5c0.5-0.1,1-0.5,1.2-1c0.3-0.9-0.1-1.8-1-2.2c-0.9-0.3-1.8,0.1-2.2,1c-0.2,0.6-0.1,1.2,0.3,1.7l-0.9,2.4l-1.9-3
		c-0.2-0.4-0.8-0.5-1.2-0.3c-0.4,0.2-0.5,0.8-0.2,1.2l2.6,4l-1.1,2.8l-2.9-4.5c-0.2-0.3-0.5-0.4-0.8-0.4c-0.3,0.1-0.6,0.3-0.7,0.6
		l-1.3,4.9l-1.7-2.1l1.2-4.6c0.1-0.4-0.2-0.9-0.6-1c-0.4-0.1-0.9,0.1-1,0.6l-0.9,3.4l-1.6-2c0.2-0.5,0.1-1.2-0.2-1.6
		c-0.6-0.7-1.6-0.8-2.3-0.3s-0.8,1.6-0.3,2.3c0.4,0.5,1,0.7,1.5,0.6l1.6,2l-3.6,0.2c-0.5,0-0.8,0.4-0.8,0.9c0,0.5,0.4,0.8,0.9,0.8
		l4.8-0.2l1.8,2.2l-5.2,0.2c-0.3,0-0.6,0.2-0.7,0.5c-0.1,0.3,0,0.7,0.2,0.9l3.7,3.7l-2.8,0.4l-3.4-3.4c-0.3-0.3-0.9-0.3-1.2,0
		c-0.3,0.3-0.3,0.8,0,1.2l2.5,2.5l-2.6,0.4c-0.4-0.4-0.9-0.7-1.5-0.6c-0.9,0.1-1.5,1-1.4,1.9c0.1,0.9,1,1.5,1.9,1.4
		c0.6-0.1,1.1-0.5,1.3-1l2.6-0.4l-1.6,3.2c-0.2,0.4,0,0.9,0.4,1.1c0.4,0.2,0.9,0.1,1.1-0.4l2.2-4.3l2.7-0.4l-2.3,4.5
		c-0.2,0.3-0.1,0.6,0.1,0.9c0.2,0.3,0.5,0.4,0.9,0.3l5.2-1.4l-1.1,2.8l-4.6,1.2c-0.4,0.1-0.7,0.6-0.6,1c0.1,0.4,0.6,0.7,1,0.6
		l3.5-0.9l-0.9,2.4c-0.6,0.1-1.1,0.5-1.4,1c-0.3,0.9,0.1,1.8,1,2.2s1.8-0.1,2.2-1c0.2-0.5,0.1-1.1-0.2-1.5l1-2.5l1.9,3
		c0.2,0.4,0.7,0.5,1.1,0.2c0.4-0.2,0.5-0.7,0.3-1.1l-2.5-4l1-2.6l2.6,4.1c0.2,0.3,0.5,0.4,0.8,0.4c0.3-0.1,0.6-0.3,0.7-0.6l1.4-5.1
		l1.9,2.4l-1.3,4.6c-0.1,0.4,0.1,0.9,0.6,1c0.4,0.1,0.9-0.1,1-0.6l0.9-3.4l1.6,2c-0.2,0.5-0.1,1.2,0.2,1.7c0.6,0.7,1.6,0.8,2.3,0.3
		C1323.8,67.4,1323.9,66.3,1323.3,65.6z M1320.1,57.2l-4.4,0.2l-2.2-2.8l3.5-0.5L1320.1,57.2z M1316.6,52.5l-3.3,0.5l1.1-2.7
		l0.3-0.8l4-1.1L1316.6,52.5z M1312.9,49.2l-0.2,0.5l-1.1,2.8l-1.9-2.3l-0.5-0.6l1.1-4.2L1312.9,49.2z M1308,50.6l2.3,2.9l-2.9,0.5
		l-0.7,0.1l-3.2-3.2L1308,50.6z M1306.9,55.7l0.8-0.1l3-0.5l-1.1,2.8l-0.2,0.5l-4.5,1.2L1306.9,55.7z M1310.9,59.3l0.3-0.8l1.1-2.7
		l1.8,2.2l0.3,0.4l-1.2,4.4L1310.9,59.3z"/>
	<path class="st1" d="M950,119.4l5.7,0.8l-2.7,2.1c-0.5,0.4-0.6,1.2-0.2,1.7c0.4,0.5,1.2,0.7,1.7,0.2l4.7-3.5l6.3,0.9l-3.9,5l-6,0.8
		c-0.7,0.1-1.1,0.7-1,1.4c0.1,0.7,0.7,1.1,1.4,1.1l3.6-0.5l-3.5,4.5c-0.4,0.5-0.3,1.3,0.2,1.7c0.5,0.4,1.3,0.3,1.7-0.2l3.5-4.5
		l0.4,3.4c0.1,0.7,0.7,1.1,1.4,1c0.7-0.1,1.1-0.7,1.1-1.4l-0.6-5.9l4-5.1l2.4,5.8l-2.5,5.6c-0.3,0.6,0,1.4,0.6,1.6
		c0.6,0.3,1.4-0.1,1.7-0.7l1.5-3.3l2.1,5.3c0.3,0.6,0.9,0.9,1.5,0.7c0.6-0.3,0.8-0.9,0.6-1.5l-2.1-5.3l3.1,1.3
		c0.6,0.3,1.3,0,1.6-0.7c0.3-0.6,0-1.3-0.6-1.6l-5.4-2.3l-2.4-5.8l6.2,0.9l3.6,4.8c0.4,0.5,1.2,0.6,1.7,0.2c0.5-0.4,0.6-1.1,0.2-1.6
		l-2.2-2.8l5.6,0.8c0.7,0.1,1.3-0.4,1.4-1c0.1-0.7-0.4-1.3-1-1.4l-5.7-0.8l2.7-2.1c0.5-0.4,0.6-1.2,0.2-1.7
		c-0.4-0.5-1.2-0.6-1.7-0.2l-4.7,3.6l-6.2-0.9l3.9-5l5.9-0.8c0.7-0.1,1.1-0.7,1-1.4c-0.1-0.7-0.6-1.1-1.3-1l-3.5,0.5l3.5-4.5
		c0.4-0.5,0.3-1.3-0.2-1.7c-0.5-0.4-1.3-0.3-1.7,0.2l-3.5,4.5l-0.5-3.4c-0.1-0.7-0.7-1.1-1.4-1.1c-0.7,0.1-1.1,0.7-1,1.4l0.8,5.8
		l-3.8,5l-2.4-5.9l2.3-5.5c0.3-0.6-0.1-1.3-0.7-1.6c-0.6-0.3-1.3,0-1.5,0.6l-1.3,3.3l-2.1-5.3c-0.3-0.6-0.9-0.9-1.5-0.7
		c-0.6,0.3-0.8,0.9-0.6,1.5l2.1,5.3l-3.3-1.2c-0.6-0.3-1.4,0.1-1.7,0.7c-0.3,0.6,0.2,1.3,0.8,1.5l5.5,2.2l2.4,5.9l-6.5-0.8l-3.7-4.8
		c-0.4-0.5-1.2-0.6-1.7-0.2c-0.5,0.4-0.7,1.2-0.3,1.7l2.1,2.9l-5.6-0.8c-0.7-0.1-1.3,0.4-1.4,1C948.9,118.7,949.3,119.3,950,119.4z"
		/>
	<polygon class="st0" points="530.6,113.7 540.4,105.5 540.9,118.3 551.8,125.2 539.7,129.6 536.6,142 528.6,132 515.8,132.8 
		523,122.1 518.2,110.2 	"/>
	<path class="st3" d="M761.6,115.6c0.6,0.3,0.9,0.9,0.9,1.5l-0.5,12l11.3,4.1c0.6,0.2,1,0.8,1.1,1.4c0,0.6-0.3,1.3-0.9,1.5
		l-10.7,5.6l2.1,11.9c0.1,0.6-0.2,1.3-0.7,1.6c-0.5,0.4-1.2,0.4-1.8,0l-10.2-6.4l-9.2,7.8c-0.5,0.4-1.2,0.5-1.8,0.2
		c-0.6-0.3-0.9-0.9-0.9-1.5l0.5-12l-11.3-4.1c-0.6-0.2-1-0.8-1.1-1.4c0-0.6,0.3-1.3,0.9-1.5l10.7-5.6l-2.1-11.9
		c-0.1-0.6,0.2-1.3,0.7-1.6c0.5-0.4,1.2-0.4,1.8,0l10.2,6.4l9.2-7.8C760.4,115.4,761.1,115.4,761.6,115.6z M759.7,131.8
		c-0.6-0.3-0.9-0.9-0.9-1.5l0.4-9.5l-7.3,6.2c-0.5,0.5-1.3,0.5-1.9,0.1l-8.1-5.1l1.7,9.4c0.1,0.7-0.2,1.4-0.8,1.7l-8.5,4.4l9,3.3
		c0.7,0.2,1.1,0.9,1.1,1.6l-0.4,9.5l7.3-6.2c0.5-0.5,1.3-0.5,1.9-0.1l8.1,5.1l-1.7-9.4c-0.1-0.7,0.2-1.4,0.8-1.7l8.5-4.4l-9-3.3
		C759.8,131.8,759.7,131.8,759.7,131.8z"/>
	<path class="st3" d="M956.9,49.6c0.4-0.1,0.9,0,1.2,0.4l5.3,6.5l7.8-3.1c0.4-0.2,0.9-0.1,1.2,0.2c0.3,0.3,0.4,0.8,0.3,1.2l-3,7.8
		l6.6,5.2c0.4,0.3,0.5,0.7,0.4,1.2c-0.1,0.4-0.5,0.8-0.9,0.8l-8.3,1.3l-1.2,8.3c-0.1,0.4-0.4,0.8-0.8,0.9c-0.4,0.1-0.9,0-1.2-0.4
		l-5.3-6.5l-7.8,3.1c-0.4,0.2-0.9,0.1-1.2-0.2c-0.3-0.3-0.4-0.8-0.3-1.2l3-7.8l-6.6-5.2c-0.4-0.3-0.5-0.7-0.4-1.2
		c0.1-0.4,0.5-0.8,0.9-0.8l8.3-1.3l1.2-8.3C956.1,50.1,956.4,49.7,956.9,49.6z M963.3,58.9c-0.4,0.1-0.9,0-1.2-0.4l-4.2-5.1l-1,6.6
		c-0.1,0.5-0.5,0.9-0.9,0.9l-6.6,1l5.2,4.1c0.4,0.3,0.5,0.8,0.4,1.3l-2.4,6.2l6.2-2.4c0.5-0.2,1,0,1.3,0.3l4.2,5.1l1-6.6
		c0.1-0.5,0.5-0.9,0.9-0.9l6.6-1l-5.2-4.1c-0.4-0.3-0.5-0.8-0.4-1.3l2.4-6.2l-6.2,2.4C963.4,58.9,963.3,58.9,963.3,58.9z"/>
	<path class="st1" d="M1090.9,139.3c-0.1-2.1,1.4-3.9,3.5-4c2.1-0.1,3.9,1.4,4,3.5c0.1,2.1-1.4,3.9-3.5,4
		C1092.8,143,1091,141.4,1090.9,139.3z"/>
	<path class="st2" d="M935.5,94.3c-0.1-2.1,1.4-3.9,3.5-4c2.1-0.1,3.9,1.4,4,3.5c0.1,2.1-1.4,3.9-3.5,4
		C937.5,98,935.7,96.4,935.5,94.3z"/>
	<path class="st4" d="M517.6,161.7c-0.1-2.1,1.4-3.9,3.5-4c2.1-0.1,3.9,1.4,4,3.5c0.1,2.1-1.4,3.9-3.5,4
		C519.5,165.3,517.7,163.8,517.6,161.7z"/>
	<path class="st4" d="M386.7,129.3c-0.1-2.1,1.4-3.9,3.5-4c2.1-0.1,3.9,1.4,4,3.5c0.1,2.1-1.4,3.9-3.5,4
		C388.6,132.9,386.8,131.3,386.7,129.3z"/>
	<path class="st1" d="M1199.4,69.7c-0.2-2.1,1.3-3.9,3.4-4.2c2.1-0.2,3.9,1.3,4.2,3.4c0.2,2.1-1.3,3.9-3.4,4.2
		C1201.5,73.3,1199.7,71.8,1199.4,69.7z"/>
	<path class="st1" d="M1199.1,162.6c-0.2-2.1,1.4-3.9,3.5-4.1c2.1-0.2,3.9,1.4,4.1,3.5s-1.4,3.9-3.5,4.1
		C1201.1,166.2,1199.3,164.7,1199.1,162.6z"/>
	<path class="st0" d="M1073.7,77.3c0.5-0.3,1-0.2,1.4,0.1l7.8,6l8.1-5.7c0.4-0.3,1-0.3,1.5,0c0.5,0.3,0.7,0.8,0.6,1.3l-1.3,9.8
		l8.9,4.2c0.5,0.2,0.8,0.7,0.8,1.2c0,0.5-0.3,1-0.8,1.2l-9.1,3.8l0.9,9.8c0,0.5-0.2,1-0.7,1.3c-0.5,0.3-1,0.2-1.4-0.1l-7.8-6
		l-8.1,5.7c-0.4,0.3-1,0.3-1.5,0c-0.5-0.3-0.7-0.8-0.6-1.3l1.3-9.8l-8.9-4.2c-0.5-0.2-0.8-0.7-0.8-1.2c0-0.5,0.3-1,0.8-1.2l9.1-3.8
		l-0.9-9.8C1073,78.1,1073.2,77.6,1073.7,77.3z M1083.6,86.2c-0.5,0.3-1,0.2-1.4-0.1l-6.2-4.7l0.7,7.8c0.1,0.6-0.3,1.1-0.8,1.3
		l-7.2,3l7.1,3.3c0.5,0.2,0.8,0.8,0.8,1.4l-1,7.8l6.4-4.5c0.5-0.3,1.1-0.3,1.6,0l6.2,4.7l-0.7-7.8c-0.1-0.6,0.3-1.1,0.8-1.3l7.2-3
		l-7.1-3.3c-0.5-0.2-0.8-0.8-0.8-1.4l1-7.8l-6.4,4.5C1083.7,86.2,1083.7,86.2,1083.6,86.2z"/>
	<path class="st1" d="M667.1,72.9c-0.1-2.1,1.4-3.9,3.5-4c2.1-0.1,3.9,1.4,4,3.5c0.1,2.1-1.4,3.9-3.5,4
		C669,76.6,667.2,75,667.1,72.9z"/>
	<path class="st4" d="M1168.3,169.2h7.5c0.1-0.4,0.1-0.7,0-1.1c-0.3-2.1-2.2-3.5-4.3-3.2C1169.4,165.1,1168,167,1168.3,169.2
		C1168.3,169.1,1168.3,169.1,1168.3,169.2z"/>
	<path class="st5" d="M1267.7,165.5c0.4-0.2,0.7-0.6,0.8-1l1.8-0.7l-0.6,2.6c-0.1,0.3,0.1,0.7,0.5,0.8c0.3,0.1,0.7-0.1,0.8-0.5
		l0.9-3.5l1.9-0.8l-0.9,3.7c-0.1,0.2,0,0.5,0.2,0.6c0.2,0.2,0.5,0.2,0.7,0.1l3.5-1.9l-0.3,2.3l-3.2,1.7c-0.1,0.1-0.2,0.2-0.2,0.3
		h2.4l0.8-0.4l-0.1,0.4h1.3l0-0.3l0.3,0.3h1.8l-1.8-1.8l0.3-2l2.6,2.5c0.2,0.2,0.4,0.2,0.7,0.1c0.2-0.1,0.4-0.3,0.4-0.6l0.1-3.9
		l1.8,1.4l-0.1,3.6c0,0.3,0.3,0.6,0.6,0.6c0.3,0,0.6-0.3,0.6-0.6l0.1-2.7l1.5,1.2c-0.1,0.4,0.1,0.9,0.5,1.2c0.5,0.4,1.3,0.3,1.8-0.2
		s0.3-1.3-0.2-1.8c-0.4-0.3-0.8-0.3-1.2-0.2l-1.6-1.2l2.6-0.7c0.3-0.1,0.5-0.4,0.4-0.8c-0.1-0.3-0.4-0.5-0.8-0.4l-3.4,1l-1.8-1.4
		l3.6-1c0.2-0.1,0.4-0.3,0.4-0.5c0-0.2-0.1-0.5-0.3-0.6l-3.2-2l1-0.4l1-0.4l3,1.9c0.3,0.2,0.7,0.1,0.9-0.2c0.2-0.3,0.1-0.7-0.2-0.9
		l-2.3-1.4l1.8-0.7c0.3,0.3,0.8,0.4,1.2,0.2c0.6-0.3,0.9-1,0.7-1.6c-0.3-0.6-1-0.9-1.6-0.7c-0.4,0.2-0.7,0.6-0.8,1l-1.8,0.7l0.6-2.6
		c0.1-0.3-0.1-0.7-0.5-0.8c-0.3-0.1-0.7,0.1-0.8,0.5l-0.9,3.5l-1.8,0.7l-0.4,0.2l1-3.8c0.1-0.2,0-0.5-0.2-0.6
		c-0.2-0.2-0.5-0.2-0.7-0.1l-3.2,1.7l0.3-2l3.1-1.7c0.3-0.2,0.4-0.5,0.2-0.9c-0.2-0.3-0.5-0.4-0.8-0.3l-2.3,1.3l0.3-2
		c0.4-0.2,0.6-0.5,0.7-0.9c0.1-0.7-0.4-1.3-1.1-1.4c-0.7-0.1-1.3,0.4-1.4,1.1c-0.1,0.5,0.1,0.9,0.5,1.2l-0.3,1.9l-1.9-1.9
		c-0.2-0.2-0.6-0.2-0.9,0c-0.2,0.2-0.2,0.6,0,0.9l2.6,2.5l-0.3,2.3l-2.9-2.8c-0.2-0.2-0.4-0.2-0.7-0.1c-0.2,0.1-0.4,0.3-0.4,0.6
		l-0.1,3.8l-1.6-1.3l0.1-3.6c0-0.3-0.3-0.6-0.6-0.6c-0.3,0-0.6,0.3-0.6,0.6l-0.1,2.7l-1.5-1.2c0.1-0.4-0.1-0.9-0.5-1.2
		c-0.5-0.4-1.3-0.3-1.8,0.2c-0.4,0.5-0.3,1.3,0.2,1.8c0.4,0.3,0.8,0.3,1.2,0.2l1.5,1.2l-2.6,0.7c-0.3,0.1-0.5,0.4-0.4,0.8
		c0.1,0.3,0.4,0.5,0.8,0.4l3.4-1l1.7,1.3l-3.8,1.1c-0.2,0.1-0.4,0.3-0.4,0.5c0,0.2,0.1,0.5,0.3,0.6l3.3,2.1l-2,0.8l-3-1.9
		c-0.3-0.2-0.7-0.1-0.9,0.2c-0.2,0.3-0.1,0.7,0.2,0.9l2.3,1.4l-1.8,0.7c-0.3-0.3-0.8-0.3-1.2-0.2c-0.6,0.3-0.9,1-0.7,1.6
		C1266.3,165.5,1267,165.8,1267.7,165.5z M1284.9,160.7l-3.2,0.9l-2.1-1.6l2.5-1L1284.9,160.7z M1279.6,156.6l0.1-0.6l2.8-1.5
		l-0.8,3.3l-2.3,0.9L1279.6,156.6z M1278.7,163.2l0.3-2.2l1.7,1.3l0.3,0.2l-0.1,3.4l-2.2-2.2L1278.7,163.2z M1277.4,163l-0.1,0.4
		l-3.1,1.7l0.8-3.2l0.6-0.2l2.1-0.9L1277.4,163z M1275.8,153.6l2.5,2.4l-0.1,0.4l-0.3,2.2l-1.8-1.4l-0.5-0.4L1275.8,153.6z
		 M1271.7,158.9l3.3-0.9l2.2,1.7l-2.1,0.8l-0.5,0.2L1271.7,158.9z"/>
	<g>
		<g>
			<path class="st3" d="M487.8,169.2h2.7l-10.3-28.7c-0.7-2,0.3-4.2,2.3-4.9c2-0.7,4.2,0.3,4.9,2.3l11.2,31.3h2.7L490,137
				c-1.2-3.3-4.9-5.1-8.2-3.9c-3.3,1.2-5.1,4.9-3.9,8.2L487.8,169.2z"/>
		</g>
		<polygon class="st3" points="496.2,166 494.3,160.5 488.6,160 490.6,165.5 		"/>
		<polygon class="st3" points="492.7,156.1 490.8,150.7 485.1,150.2 487.1,155.6 		"/>
		<polygon class="st3" points="489.3,146.7 487.4,141.2 481.7,140.7 483.7,146.2 		"/>
	</g>
	<g>
		<polygon class="st3" points="1235.4,80.5 1235.1,81.1 1235.1,81.2 1234.8,81.6 1234.8,81.8 1226.6,97.5 1242.9,106 1244.1,106.6 
			1253,89.7 		"/>
		<polygon class="st3" points="1272.9,101.4 1272.9,101.4 1273.2,100.9 1273.2,100.8 1273.5,100.3 1256.2,91.4 1247.4,108.3 
			1248.1,108.7 1248.1,108.7 1248.7,109 1264.7,117.3 1272.8,101.6 		"/>
		<path class="st3" d="M1243.1,65.8l-5.2,10l-0.3,0.6l-0.5,0.9l17.6,9.1l7-13.4c0.5-0.9,1.6-1.3,2.5-0.8l0,0
			c0.9,0.5,1.3,1.6,0.8,2.5l-7,13.4l17.3,9l0.5-1l0.3-0.6l5.6-10.8l0,0l0.2-0.3l1.3,0.7l2.7-5.2l-1.3-0.7l-14.8-7.7c0,0,0,0,0,0
			c6.5,1.1,15.7,7.2,16.6-1c0.2-1.8-1-4.7-4.1-6.3c-1.8-0.9-4.3-1.5-7.6-1.1c-4,0.5-6.6,3-8.3,5.3c1.4-3.4,2.9-8,0.3-13.2
			c-1.4-2.8-3.3-4.7-5.4-5.8c-4.7-2.4-10.3-0.9-12.5,2.2c-5.7,8.1,8.8,9,12.8,15.6c0,0-0.1,0-0.1,0.1l-15.1-7.8l-1.3-0.7l-2.7,5.2
			l1.3,0.7L1243.1,65.8z M1273.7,66.4c3.2-0.4,5-0.1,6.1,0.5c1.1,0.6,1.5,1.4,1.8,2.1c0,0.1,0.1,0.1,0.1,0.2c0,4.4-8.2-0.9-13.9,0.1
			c-0.1-0.1-0.1-0.1-0.2-0.1C1269.2,67.9,1270.9,66.8,1273.7,66.4z M1254.4,53.8c0.1,0,3-1.9,5.9-0.4c1.3,0.7,2.6,2,3.6,4.6
			c1.6,3.9,1.4,7.1,0.8,9.8c0,0,0,0,0,0c-0.1-0.1-0.2-0.1-0.3-0.2C1262.8,59.9,1249.1,58.8,1254.4,53.8z"/>
	</g>
	<g>
		<path class="st3" d="M889.2,167.4l20.1-1.1c0.3,0,0.5,0.1,0.7,0.3l2,2.6h4l-3.5-4.6c-0.8-1-2-1.6-3.4-1.5l-15.3,0.9l8.6-12.7
			c0.7-1.1,0.9-2.4,0.4-3.7l-5.5-14.3l14.7,4.3c0.6,0.2,1.3,0.2,1.9,0.1c0.6-0.1,1.2-0.4,1.7-0.8l11.9-9.7l0.5,15.3
			c0,1.3,0.7,2.5,1.8,3.2l12.9,8.3l-14.4,5.2c-1.2,0.4-2.2,1.5-2.5,2.7l-1.9,7.2h3.3l1.7-6.4c0.1-0.3,0.3-0.5,0.5-0.5l19-6.8
			c0.6-0.2,0.7-1.1,0.2-1.4L931.6,143c-0.2-0.1-0.4-0.4-0.4-0.6l-0.6-20.2c0-0.7-0.8-1-1.3-0.6l-15.6,12.7c-0.2,0.2-0.5,0.2-0.7,0.1
			l-19.4-5.7c-0.6-0.2-1.2,0.4-1,1l7.3,18.8c0.1,0.2,0.1,0.5-0.1,0.7l-11.4,16.7C888.1,166.7,888.5,167.4,889.2,167.4z"/>
		<path class="st3" d="M900.1,160.4l8.9-0.5c2.3-0.1,4.6,0.9,6,2.8l5,6.5h0.6l2.1-8.1c0.6-2.3,2.3-4.1,4.5-4.9l8.4-3l-7.5-4.8
			c-2-1.3-3.2-3.4-3.3-5.8l-0.3-8.9l-6.9,5.6c-0.9,0.7-2,1.2-3.1,1.5s-2.3,0.2-3.4-0.1l-8.6-2.5l3.2,8.3c0.8,2.2,0.6,4.7-0.8,6.6
			L900.1,160.4z"/>
	</g>
	<g>
		<path class="st2" d="M619.4,155.2c0,0,2.6,0.7,5.9,1.8c0-0.1,0-0.1,0.1-0.2c0.9-3.3-1-6.7-4.3-7.6c-3.3-0.9-6.7,1-7.6,4.3
			c0,0.1,0,0.1,0,0.2C616.8,154.4,619.4,155.2,619.4,155.2z"/>
		<path class="st2" d="M599.6,169.2h40c0.2-3.8-21.4-9.8-21.4-9.8s-26.6-7.5-23.1-1.3C597.5,162.3,598.8,165.9,599.6,169.2z"/>
	</g>
	<g>
		<path class="st2" d="M1175.7,104.1c-1.3-1-2.7-2.6-4.2-4.3c1.9,0.3,3.7-0.9,0.9-3.2c-1.3-1.1-2.9-3-4.5-5c1.3,0.2,2.4-0.8,0.5-2.6
			c-3.1-2.9-8-11.4-8-11.4c-0.7-1.4-2.4-1-2.7,0.3c0,0-2.9,9.9-4.9,12.9c-1.2,1.7-0.1,2.6,1,2.5c-1.1,2.4-2.2,4.6-3.1,5.9
			c-1.8,2.4,0.2,3.4,2,2.9c-1,2.1-2.1,4-3,5.1c-3.5,4.3,4.4,4.7,4.9,0.8c-0.6,4.2,4.1,3.3,4.5-0.9c-0.6,5.5,4.4,3.9,3.8-0.9
			c0.6,4.8,5.7,4.9,4.1-0.3c1.3,4.4,6.2,4.1,4.6-0.3C1173,109.3,1180.7,108.2,1175.7,104.1z"/>
		<path class="st2" d="M1163,107.4c0.3,2.6-0.9,4.2-2.1,4.4c0,1.8,0.2,3.5,0.8,3.5c0.7,0.1,2.3,0,3.7-0.4c0.9-0.3,0.8-2.1,0.4-3.9
			C1164.7,111,1163.3,109.8,1163,107.4z"/>
	</g>
	<path class="st2" d="M1065.1,169.2c0.4-1.8,0.8-3,0.8-3c0.5-2.7-1.4-5.4-4.1-5.8s-5.4,1.4-5.8,4.1l-1.1,4.8H1065.1z"/>
	<path class="st2" d="M1044.6,169.2l-1.6-2.3c-1.4-2.4-4.5-3.1-6.9-1.7c-1.5,0.9-2.3,2.4-2.4,4.1H1044.6z"/>
	<g>
		<path class="st2" d="M1381.7,169.2c0.4-3.5,0.5-6.5,0.2-8c-0.7-4.4-14.7-2.8-16.8-2.5l0,0c0,0-0.1,0-0.1,0c-0.1,0-0.1,0-0.1,0l0,0
			c-2.1,0.4-16,2.9-15.3,7.3c0.1,0.8,0.4,1.9,0.9,3.2H1381.7z"/>
	</g>
	<g>
		<path class="st6" d="M1023.8,114.3c0,0-2.7,0.6-6,1.1c0,0.1,0,0.1,0,0.2c0.7,3.3,4,5.4,7.3,4.7c3.3-0.7,5.4-4,4.7-7.3
			c0-0.1,0-0.1,0-0.2C1026.5,113.7,1023.8,114.3,1023.8,114.3z"/>
		<path class="st6" d="M1043.9,100.3c-18-11.6-14.5-23-18.3-27.7c-2.3-2.9-5.9-3.3-8.5-3.2l-0.5-2.4c-0.3-1.6-1.9-2.6-3.5-2.2
			c-1.6,0.3-2.6,1.9-2.2,3.5l0.5,2.4c-2.4,1-5.5,2.9-6.4,6.4c-1.5,5.8,6.3,14.8-5.4,32.8c-3.9,6,23.2,0.2,23.2,0.2
			S1049.9,104.2,1043.9,100.3z"/>
	</g>
	<g>
		<g>
			<path class="st6" d="M1372.7,53.3c-1.5-2.9-1.7-6-0.6-8.8c2.2-5.6,8.8-8.2,9.6-8.4c1.8-0.7,3.9,0.1,4.8,1.9
				c0.1,0.1,0.1,0.3,0.2,0.4c0.7,2-0.1,4.1-2.1,4.8c-1.3,0.5-4.4,2.2-5.1,4c-0.2,0.5-0.3,1.2,0.3,2.4c0.5,1,1.4,2.3,2.5,2.6
				c1,0.3,2-0.1,2.2-0.2l0.1-0.1l0,0l33.4-17.1c1.9-1,4.2-0.2,5.2,1.7c1,1.9,0.2,4.2-1.7,5.2L1388,59c-0.7,0.4-4.1,2-8,0.8
				C1377.9,59.2,1374.9,57.6,1372.7,53.3 M1370.5,54.5c2.6,5.1,6.2,7.1,8.8,7.8c4.8,1.4,8.8-0.4,10-1l33.6-17.2
				c3.2-1.6,4.4-5.5,2.8-8.7c-1.6-3.2-5.5-4.4-8.7-2.8l-33.2,17c-0.1,0-0.2,0.1-0.3,0.2c-0.1,0-0.2,0.1-0.3,0.1
				c-0.2-0.1-0.5-0.5-1-1.4c-0.1-0.2-0.1-0.3-0.2-0.4c0.4-0.7,2.1-1.9,3.5-2.5c1.6-0.6,2.9-1.8,3.5-3.4c0.6-1.5,0.6-3.2,0-4.8
				c-0.1-0.2-0.2-0.5-0.3-0.7c-1.5-2.9-4.9-4.2-7.9-3.1c-1.4,0.5-8.6,3.4-11.1,9.9C1368.3,47.1,1368.6,50.9,1370.5,54.5L1370.5,54.5
				z"/>
		</g>
		<path class="st6" d="M1380.6,44c1.2-0.9,2.6-1.6,3.3-1.9l-4.2-3.7c-1.1,0.6-2.5,1.5-3.7,2.6L1380.6,44z"/>
		<path class="st6" d="M1373.2,45.1c-0.5,1.2-0.7,2.5-0.6,3.8l5.4-0.3c-0.1-0.6,0-1.2,0.2-1.7c0.3-0.7,0.7-1.3,1.3-1.9l-6-0.5
			C1373.4,44.6,1373.3,44.9,1373.2,45.1z"/>
		<path class="st6" d="M1378.7,50.6l-3.6,4.3c1.1,1.5,2.4,2.5,3.5,3.1l2.8-4.6C1380.4,53,1379.5,52,1378.7,50.6z"/>
		<path class="st6" d="M1385.1,53.3C1385.1,53.3,1385,53.3,1385.1,53.3l0.2,5.4c1-0.3,1.8-0.6,2-0.8l3.2-1.6l-0.2-5.7L1385.1,53.3
			C1385.1,53.3,1385.1,53.3,1385.1,53.3z"/>
		<polygon class="st6" points="1394.9,54 1400,51.4 1399.8,45.7 1394.6,48.4 		"/>
	</g>
	<g>
		<g>
			<path class="st6" d="M427.5,99.9c-1.5-2.9-1.7-6-0.6-8.8c2.2-5.6,8.8-8.2,9.6-8.4c1.8-0.7,3.9,0.1,4.8,1.9
				c0.1,0.1,0.1,0.3,0.2,0.4c0.7,2-0.1,4.1-2.1,4.8c-1.3,0.5-4.4,2.2-5.1,4c-0.2,0.5-0.3,1.2,0.3,2.4c0.5,1,1.4,2.3,2.5,2.6
				c1,0.3,2-0.1,2.2-0.2l0.1-0.1l0,0l33.4-17.1c1.9-1,4.2-0.2,5.2,1.7c1,1.9,0.2,4.2-1.7,5.2l-33.6,17.2c-0.7,0.4-4.1,2-8,0.8
				C432.6,105.8,429.7,104.1,427.5,99.9 M425.2,101c2.6,5.1,6.2,7.1,8.8,7.8c4.8,1.4,8.8-0.4,10-1l33.6-17.2
				c3.2-1.6,4.4-5.5,2.8-8.7c-1.6-3.2-5.5-4.4-8.7-2.8l-33.2,17c-0.1,0-0.2,0.1-0.3,0.2c-0.1,0-0.2,0.1-0.3,0.1
				c-0.2-0.1-0.5-0.5-1-1.4c-0.1-0.2-0.1-0.3-0.2-0.4c0.4-0.7,2.1-1.9,3.5-2.5c1.6-0.6,2.9-1.8,3.5-3.4c0.6-1.5,0.6-3.2,0-4.8
				c-0.1-0.2-0.2-0.5-0.3-0.7c-1.5-2.9-4.9-4.2-7.9-3.1c-1.4,0.5-8.6,3.4-11.1,9.9C423.1,93.7,423.4,97.4,425.2,101L425.2,101z"/>
		</g>
		<path class="st6" d="M435.4,90.5c1.2-0.9,2.6-1.6,3.3-1.9l-4.2-3.7c-1.1,0.6-2.5,1.5-3.7,2.6L435.4,90.5z"/>
		<path class="st6" d="M428,91.6c-0.5,1.2-0.7,2.5-0.6,3.8l5.4-0.3c-0.1-0.6,0-1.2,0.2-1.7c0.3-0.7,0.7-1.3,1.3-1.9l-6-0.5
			C428.2,91.2,428,91.4,428,91.6z"/>
		<path class="st6" d="M433.5,97.2l-3.6,4.3c1.1,1.5,2.4,2.5,3.5,3.1l2.8-4.6C435.1,99.5,434.3,98.6,433.5,97.2z"/>
		<path class="st6" d="M439.8,99.8C439.8,99.8,439.8,99.8,439.8,99.8l0.2,5.4c1-0.3,1.8-0.6,2-0.8l3.2-1.6l-0.2-5.7L439.8,99.8
			C439.9,99.8,439.9,99.8,439.8,99.8z"/>
		<polygon class="st6" points="449.6,100.6 454.8,97.9 454.6,92.3 449.4,94.9 		"/>
		<polygon class="st6" points="459,95.8 464.1,93.2 463.9,87.5 458.7,90.1 		"/>
		<polygon class="st6" points="467.9,91.2 473,88.6 472.8,82.9 467.6,85.6 		"/>
	</g>
	<path class="st1" d="M864.8,98c-2,0-3.9,0.4-4.4,0.1c-0.4-0.4,0-1.3,0-1.3c1.3-3,1.1-10.9-2.7-15.7c-3.7-4.7-4.1-5.5-4.1-6.5
		c0-1,1.9-1.2,3.1-1.6c1.2-0.3,1.5-1.8,1.5-2.1c0-0.3,0.2-0.5,0.6-1.2c0.4-0.7-1.5-0.9-2.5-0.9c-1,0-1.9-0.2-2.7-0.7
		c-0.8-0.5-2.7-1.3-3.7-1.4c-1-0.1-1.8-0.7-2.5-1.5c-0.7-0.9,0.4-2.2,1-3c0.5-0.8,1.3-1.3,2-1.4c0.7-0.1,1.8-0.6,0.4-2
		c-1.3-1.4-3,0-3.5,0.6c-0.5,0.7-1.4,2.8-1.9,3.4c-0.5,0.6-0.3-0.8-0.1-1.7c0.1-0.9,0.5-1.5,1-2.2c0.5-0.7,1.3-2.6-0.4-3
		c-1.7-0.4-1.9,2.7-1.9,3.7c0,1-0.2,1.7-0.6,1.2c-0.4-0.5-1.8-3.4-1.8-3.4c-0.3-1.3-0.2-3.4-0.2-3.4c0.2-0.9,0.2-2.5,1.1-2.3
		c1,0.2,1.2-1,1.3-1.9c0.1-0.9-1.3-1.7-2.9,0.1c-1.6,1.8-1.7,5.1-1.5,6.5c0.3,1.5-0.5,1.1-1.1,0.3c-0.6-0.8-1-3.1-1-4.4
		c-0.1-1.3,0.5-2.4,0.5-2.4c0.5-1,0.4-1.4-0.2-1.9c-0.3-0.2-1.4-0.6-2,1.2c-0.6,1.8,0.1,5.5,0.3,7.3c0.2,1.8-1,0.6-2.2-0.7
		c-1.2-1.3-1.1-1.6-1.1-2.3c0-0.7-0.5-3.6-0.6-4.4c-0.1-0.8,0.4-1,0.6-2.2c0.2-1.2-1.8-1.7-2.4,0c-0.6,1.7,0.1,4.7,0.7,6.7
		c0.6,2,0.1,1.4-0.8,0.8c-0.9-0.6-2.4-3.2-2.6-4.6c-0.3-1.4,0-3.4,0.1-4.7c0.1-1.3-1.2-1.5-1.9-0.4c-0.7,1.1-0.3,3.8,0.6,6.7
		c0.9,2.9,1.7,3.7,4.2,5.8c2.4,2,1,1.7-1.2,1.8c-2.2,0.1-2.6-0.9-3.1-1.7c-0.5-0.8-2.4-0.1-2.1,1.6c0.4,1.7,3.2,1.9,4.2,2
		c1,0.1,0.4,1.1,0.6,2c0.2,0.9,1.3,2.1,3.1,3.4c1.8,1.3,2,2.2,0.3,2.8c-1.7,0.6-3.2-0.3-4.3-0.9c-1.1-0.7-0.8-1.2-0.7-2.3
		c0.2-1.1-1-2.6-2.4-1.5c-1.4,1.1-0.4,2.9,0.7,3.7c1.1,0.8,2.3,2.3,1.1,2.8c-1.2,0.4-2.4-0.1-3.7-0.8c-1.3-0.7-1.2-1.3-1.2-2.1
		c0-0.8-0.4-1.4-1.4-1.5c-0.9,0-1.9,1-1.6,2c0.3,1,1.7,3.2,4.7,4.4c3,1.3,5.1,0.7,6.1-0.2c1.1-0.9,2.4-1.1,2.8-0.6
		c0.4,0.6-0.2,1.3-1.9,1.3c-1.7,0-1.4,3.2,0.7,3.2c2.1,0,5.2-5.2,5.7-6.3c0.4-1.1,1.7-2.4,3.8-3c2.1-0.6,2.8,0.8,2.8,0.8
		c1.1,1.8-1.8,1.4-1.7,2.4c0.1,0.9,1.4,0.7,1.7,1.5c0.3,0.8-1,1.7-0.4,2.3c0.6,0.6,1.7-0.2,2-0.7c0.3-0.5,1-0.5,1.3,0.1
		c0.3,0.6,1.4,5,2.2,8.2c0.8,3.2,0.3,8.2-1.7,9.1c-2,0.8-4.4,0.3-7.4-2.1c-3-2.4-7.9-3.9-7.9-3.9c-1-3.2-4.1-3.8-4.3-1.2
		c-0.2,2.7,1.1,4.2,1.1,4.2s-0.5,1.9-2.2,3.8c-1.8,1.9-4.9,2.2-6.5,2.2c-1.6,0-4.6,1.5-6.7,2.8c-2.1,1.3-6,2.7-9.1,4
		c-3.2,1.2-3.4,3.7-2.6,4.2c0.8,0.5,1.8,0.4,2.7-0.3c0.9-0.6,2.7-1.4,3.5-1.8c0.8-0.5,4.5-2.3,6.2-3.2c1.6-0.9,2.1-1,2.5-0.6
		c0.4,0.4-0.5,1.2-3.7,3.1c-3.2,2-4,2.2-4.7,1.8c-0.7-0.4-3.1,2.5-3.1,4c0.1,1.5,1.6,1.2,3.7,0.2c2.1-1,7.9-5.5,11-7.5
		c3.1-2,2.9-1.5,6.7-0.8c3.8,0.7,5-0.1,6.7-0.9c1.6-0.8,5.1,1.6,7.2,3.5c2.1,1.9,4.3,2,5.9,1.6c1.6-0.4,3.3,0.2,6.4,1.6
		c3,1.4,6.6-0.9,7.5-1.3c0.9-0.4,0.4,0.7-0.8,1.6c-1.2,0.9-2.2,0.1-3.5,1c-1.3,0.9-1.6,3.9-0.4,4.2c1.2,0.3,3.9-2.5,4.7-3.1
		c0.8-0.6-0.2,0.8-1.2,2.4c-1,1.6-1.1,2.7-0.4,3.1c0.7,0.4,1.8-0.8,2.8-2.1c1-1.3,5.3-6.7,6.9-9.5C869.7,99.1,866.8,98,864.8,98z
		 M835.8,66.2c-2.1-0.5-2.7-1.5-3.3-2.5c-0.7-1-1.4-2.3-0.1-2.2c0,0,0.9-0.1,1.6-0.5c0.7-0.5,1.7-0.4,1.5,0.5
		c-0.1,0.9-0.1,1.8,1,2.3c1.1,0.5,1.8,0.9,1.8,1.6S838,66.6,835.8,66.2z M842.4,64.8c-1.2-0.3-2.7-1.1-2.7-1.1s-1.9-0.9-1.4-2.3
		c0.5-1.4,0.9-1.5,2.2-0.2c1.3,1.2,1.6,1.3,2.5,2.1C843.8,64.1,844.2,65.3,842.4,64.8z"/>
	<path class="st6" d="M615.1,68.5l0.4-3.5c0.1-0.7-0.6-1.3-1.6-1.5l0-0.4c0.1-0.5-0.3-1-0.9-1.1l-0.5-0.1c0.2-2,0.3-5.7-0.9-7.2
		c-0.7-0.9-1.8-1-2.7-0.3c-1.5,1.2-2.2,4.8-2.5,6.8l-0.5-0.1c-0.5-0.1-1,0.3-1.1,0.9l0,0.4c-1,0-1.8,0.4-1.9,1.1l-0.4,3.5
		c-10,1.6-18.2,9.7-19.4,20.3c-1.5,12.8,7.7,24.3,20.5,25.8c12.8,1.5,24.3-7.7,25.8-20.5C630.6,82.1,624.5,72.4,615.1,68.5z
		 M609.6,55.2c0.4-0.4,0.9-0.3,1.3,0.1c0.9,1.2,0.8,4.4,0.7,6.5l-4.1-0.5C607.8,59.2,608.5,56.1,609.6,55.2z M600.5,99.1l-4.8-4.1
		l-6.1,1.6l2.4-5.9l-3.4-5.3l6.3,0.5l4-4.9l1.5,6.2l5.9,2.3l-5.4,3.3L600.5,99.1z M607.6,78.6l-2.3,1.2l0.5-2.6l-1.9-1.8l2.6-0.4
		l1.2-2.3l1.1,2.4l2.6,0.4l-1.9,1.8l0.4,2.6L607.6,78.6z M612.6,105.1l-0.7,2.9l-1.8-2.3l-3,0.2l1.7-2.5l-1.1-2.8l2.9,0.8l2.3-1.9
		l0.1,3l2.5,1.6L612.6,105.1z M620.7,94.4l-3.9-2.6l-4.4,1.7l1.3-4.5l-3-3.6l4.7-0.2l2.5-3.9l1.6,4.4l4.5,1.2l-3.7,2.9L620.7,94.4z"
		/>
	<path class="st4" d="M350.9,158.9c1.3,1.7,3.1,3.9,4.5,4.5c1.3,0.6,3.7,1.8,4.6,3.9c0.3,0.7,0.4,1.3,0.5,1.9h35.8
		c-0.6-2.6-1.5-5.5-1.7-6.4c-0.4-1.4-0.8-2.7-1.5-2.6c-0.7,0.1-1,1-0.7,2.7c0.3,1.6,0.7,3.1,0.2,2.3c-0.5-0.8-1.7-3.9-2.8-4.1
		c-1.1-0.2-1.8,2.4-1,3.6c0.8,1.1,1.8,0.8,2.5,1.9c0.7,1.1,0.7,2.2,0.1,1.5c-0.6-0.6-2.7-3.6-5.6-3.5c-2.9,0.1-4.5,0-5.7-0.8
		c-1.2-0.8-3-1.4-5.3-0.6c-2.3,0.8-5.9,1.6-7,0.4c-1.1-1.2-1.8-2.3-5.1-2.9c-3.3-0.7-3.3-0.2-5.1-2.8c-1.9-2.6-5.1-8.2-6.5-9.7
		c-1.4-1.5-2.5-2.2-3.1-1c-0.6,1.2,0.5,4.3,1.2,4.2c0.7-0.1,1.2,0.3,3.2,3c1.9,2.6,2.4,3.6,2,3.7s-0.8-0.1-1.9-1.3
		c-1-1.2-3.5-4-3.9-4.6c-0.5-0.6-1.7-1.8-2.2-2.6c-0.6-0.8-1.3-1.3-2.1-1.1c-0.8,0.2-1.4,2.2,0.8,4.3
		C347,154.7,349.6,157.1,350.9,158.9z"/>
	<path class="st2" d="M418.7,161.8l3.7,0.4l-2.2,2.4c-0.3,0.3-0.3,0.8,0.1,1.1c0.3,0.3,0.8,0.3,1.1-0.1l3-3.3l3.2,0.4l-3.8,4.2
		c-0.3,0.3-0.3,0.8,0.1,1.1c0.3,0.3,0.8,0.3,1.1-0.1l4.6-5.1l6,0.7c0,0.3,0.1,0.6,0.2,0.9c0.1,0.3,0.3,0.5,0.4,0.7l-2.9,4h1.9
		l2.3-3.1c0.5,0.2,1.1,0.3,1.9,0.2l1.3,2.9h1.6l-1.5-3.5c-0.1-0.1,0.8-0.9,1-1.4l5.9,0.7l2.4,4.3h1.7l-2.3-4l0.4,0l2.8,0.3l2.1,3.7
		h1.4c0.1-0.2,0.1-0.4,0-0.6l-1.6-2.9l3.7,0.4c0.4,0,0.8-0.3,0.8-0.7c0-0.4-0.3-0.8-0.7-0.8l-3.7-0.4l2.2-2.4
		c0.3-0.3,0.3-0.8-0.1-1.1c-0.3-0.3-0.8-0.3-1.1,0l-3,3.3l-3.2-0.4l3.8-4.2c0.3-0.3,0.3-0.8-0.1-1.1c-0.3-0.3-0.8-0.3-1.1,0l-4.6,5
		l-6-0.6c0-0.3-0.1-0.6-0.2-0.8c-0.1-0.3-0.3-0.6-0.5-0.8l3.5-4.9l6.8,0c0.4,0,0.8-0.3,0.8-0.8c0-0.4-0.3-0.8-0.8-0.8l-5.7,0
		l1.9-2.6l4.4,0c0.4,0,0.8-0.3,0.8-0.8c0-0.4-0.3-0.8-0.8-0.8l-3.3,0l2.2-3c0.3-0.3,0.2-0.8-0.2-1.1c-0.3-0.3-0.8-0.2-1.1,0.2
		l-2.2,3l-1-3.1c-0.1-0.4-0.6-0.6-1-0.5c-0.4,0.1-0.6,0.6-0.5,1l1.3,4.2l-1.9,2.6l-1.7-5.4c-0.1-0.4-0.6-0.6-1-0.5
		c-0.4,0.1-0.6,0.6-0.5,1l2.1,6.5l-3.4,4.8c-0.6-0.2-1.6-0.1-1.7-0.2l-2.4-5.5l3.3-5.8c0.2-0.4,0-0.8-0.3-1c-0.4-0.2-0.7-0.1-1,0.2
		l-2.8,4.9l-1.3-3l2.1-3.8c0.2-0.4,0-0.8-0.3-1c-0.4-0.2-0.7-0.1-1,0.2l-1.6,2.8l-1.5-3.4c-0.2-0.4-0.6-0.6-1-0.4
		c-0.4,0.2-0.5,0.6-0.4,1l1.5,3.4l-3.3-0.6c-0.4-0.1-0.9,0.2-1,0.6c-0.1,0.4,0.3,0.8,0.7,0.9l4.4,0.9l1.3,3l-5.7-1.2
		c-0.4-0.1-0.9,0.2-1,0.6c-0.1,0.4,0.3,0.8,0.7,0.9l6.8,1.4l2.5,5.6c-0.6,0.4-0.9,0.9-1.1,1.4l-6.1-0.6l-3.4-5.9
		c-0.2-0.4-0.7-0.5-1.1-0.3c-0.4,0.2-0.5,0.7-0.3,1l2.8,4.9l-1.1-0.1l-2.2-0.2l-2.2-3.8c-0.2-0.4-0.7-0.5-1.1-0.3
		c-0.4,0.2-0.5,0.7-0.3,1l1.6,2.8l-3.7-0.4c-0.4,0-0.8,0.3-0.8,0.7C418,161.4,418.3,161.7,418.7,161.8z"/>
	<polygon class="st2" points="674.2,169.2 689.5,169.2 689.8,167.3 698,163.5 690,159.3 688.9,150.4 682.4,156.7 673.6,155 
		677.6,163.1 	"/>
	<path class="st1" d="M1341,57.7c-0.2-1.3,0.7-2.6,2-2.8s2.6,0.7,2.8,2c0.2,1.3-0.7,2.6-2,2.8C1342.5,60,1341.3,59.1,1341,57.7z"/>
	<path class="st2" d="M742.9,80.7l1.9,1.2l-1.8,0.7c-0.2,0.1-0.3,0.4-0.3,0.6c0.1,0.2,0.4,0.4,0.6,0.3l2.5-1l0.8,0.5l0.9,0.5
		l-3.2,1.3c-0.2,0.1-0.3,0.4-0.3,0.6c0.1,0.2,0.4,0.4,0.6,0.3l3.8-1.6l1.3,0.8l-2.6,1.1c-0.2,0.1-0.3,0.2-0.3,0.4
		c0,0.2,0.1,0.4,0.3,0.4l2.6,1.2l-1.4,0.8l-3.7-1.8c-0.2-0.1-0.5,0-0.6,0.2c-0.1,0.2,0,0.5,0.2,0.6l3.1,1.5l-0.2,0.1l-1.5,0.8
		l-2.4-1.2c-0.2-0.1-0.5,0-0.6,0.2c-0.1,0.2,0,0.5,0.2,0.6l1.8,0.9l-2,1.1c-0.2,0.1-0.3,0.4-0.2,0.6c0.1,0.2,0.4,0.3,0.6,0.2l2-1.1
		l-0.3,2c0,0.3,0.1,0.5,0.4,0.5c0.3,0,0.5-0.1,0.5-0.4l0.4-2.6l1.7-0.9l-0.5,3.4c0,0.3,0.1,0.5,0.4,0.5c0.3,0,0.5-0.1,0.5-0.4
		l0.6-4.1l1.4-0.8l-0.4,2.9c0,0.2,0.1,0.4,0.2,0.5c0.2,0.1,0.4,0.1,0.5,0l2.3-1.6l0,1.5l-3.4,2.3c-0.2,0.1-0.3,0.4-0.1,0.6
		c0.1,0.2,0.4,0.3,0.6,0.1l2.8-1.9l-0.1,2l-2.2,1.5c-0.2,0.1-0.3,0.4-0.1,0.6c0.1,0.2,0.4,0.3,0.6,0.1l1.6-1.1l-0.1,2.2
		c0,0.3,0.2,0.5,0.5,0.5c0.3,0,0.5-0.2,0.5-0.5l0.1-2.2l1.5,1.2c0.2,0.2,0.5,0.1,0.6-0.1c0.2-0.2,0.1-0.5-0.1-0.7l-2.1-1.6l0.1-2
		l2.7,2.1c0.2,0.2,0.5,0.1,0.6-0.1c0.2-0.2,0.1-0.5-0.1-0.7l-3.2-2.5l0-1.6l2.3,1.8c0.1,0.1,0.3,0.1,0.5,0c0.2-0.1,0.3-0.3,0.2-0.4
		l-0.2-2.8l1.2,0.8l0.3,4.1c0,0.3,0.2,0.4,0.5,0.4c0.3,0,0.4-0.2,0.4-0.5l-0.3-3.4l0.6,0.3l1.1,0.7l0.2,2.6c0,0.3,0.2,0.4,0.5,0.4
		c0.3,0,0.4-0.2,0.4-0.5l-0.2-2l1.9,1.2c0.2,0.1,0.5,0.1,0.6-0.2c0.1-0.2,0.1-0.5-0.2-0.6l-1.9-1.2l1.8-0.8c0.2-0.1,0.4-0.4,0.3-0.6
		c-0.1-0.2-0.4-0.4-0.6-0.3l-2.5,1l-1.7-1l3.2-1.3c0.2-0.1,0.4-0.4,0.3-0.6c-0.1-0.2-0.4-0.4-0.6-0.3l-3.8,1.6l-1.3-0.8l2.7-1.1
		c0.2-0.1,0.3-0.2,0.3-0.4c0-0.2-0.1-0.4-0.3-0.4l-2.6-1.3l1.3-0.7l3.7,1.8c0.2,0.1,0.5,0,0.6-0.2c0.1-0.2,0-0.5-0.2-0.6l-3.1-1.5
		l0.2-0.1l1.5-0.8l2.4,1.1c0.2,0.1,0.5,0,0.6-0.2c0.1-0.2,0-0.5-0.2-0.6l-1.8-0.8l2-1.1c0.2-0.1,0.3-0.4,0.2-0.6
		c-0.1-0.2-0.4-0.3-0.6-0.2l-2,1.1l0.3-2c0-0.3-0.1-0.5-0.4-0.5c-0.3,0-0.5,0.1-0.5,0.4l-0.4,2.6L759,83l0.5-3.4
		c0-0.3-0.1-0.5-0.4-0.5c-0.3,0-0.5,0.1-0.5,0.4l-0.6,4.1l-1.3,0.7l0.4-2.8c0-0.2-0.1-0.4-0.2-0.5c-0.2-0.1-0.4-0.1-0.5,0l-2.4,1.6
		l0-1.6l3.4-2.3c0.2-0.1,0.2-0.4,0.1-0.6c-0.1-0.2-0.4-0.3-0.6-0.1l-2.8,1.9l0.1-2l2.2-1.5c0.2-0.1,0.2-0.4,0.1-0.6
		c-0.1-0.2-0.4-0.3-0.6-0.1l-1.6,1.1l0.1-2.2c0-0.3-0.2-0.5-0.5-0.5c-0.3,0-0.5,0.2-0.5,0.5l-0.1,2.2l-1.6-1.2
		c-0.2-0.2-0.5-0.1-0.7,0.1c-0.2,0.2-0.1,0.5,0.1,0.7l2.1,1.6l-0.1,2l-2.7-2.1c-0.2-0.2-0.5-0.1-0.7,0.1c-0.2,0.2-0.1,0.5,0.1,0.7
		L753,81l0,1.5l-2.2-1.7c-0.1-0.1-0.3-0.1-0.5,0c-0.2,0.1-0.3,0.3-0.2,0.4l0.2,2.9l-1.4-0.9l-0.3-4.1c0-0.3-0.2-0.4-0.5-0.4
		c-0.3,0-0.4,0.2-0.4,0.5l0.3,3.4l-1.7-1L746,79c0-0.3-0.2-0.4-0.5-0.4s-0.4,0.2-0.4,0.5l0.2,2l-1.9-1.2c-0.2-0.1-0.5-0.1-0.6,0.2
		C742.6,80.2,742.6,80.5,742.9,80.7z M748.4,86.4l2.3-0.9l1.4,0.9l0,0l0.3,0.2l-0.3,0.2l0,0l-1.4,0.8L748.4,86.4z M750.8,90.8
		l0.3-2.5l1.4-0.7h0l0.3-0.2l0,0.4l-0.1,1.7L750.8,90.8z M755.7,90.9l-2-1.5l0-1.6l0-0.3l1.7,1.1L755.7,90.9z M758.3,86.7l-2.4,1
		l-1.4-0.9l0,0l-0.3-0.2l1.8-1L758.3,86.7z M756,82.3l-0.3,2.4l-1.8,1l0-0.3l0-1.6L756,82.3z M751,82.2l1.9,1.5l-0.1,1.7l0,0.4
		l-1.7-1L751,82.2z"/>
	<path class="st3" d="M1070.8,140.3c-0.4-0.3-0.8-0.3-1.2-0.2l-1.5-1.2l2.6-0.7c0.3-0.1,0.5-0.4,0.4-0.8c-0.1-0.3-0.4-0.5-0.8-0.4
		l-3.4,1l-1.8-1.4l3.6-1c0.2-0.1,0.4-0.3,0.4-0.5c0-0.2-0.1-0.5-0.3-0.6l-3.2-2l1-0.4l1-0.4l3,1.9c0.3,0.2,0.7,0.1,0.9-0.2
		c0.2-0.3,0.1-0.7-0.2-0.9l-2.3-1.4l1.8-0.7c0.3,0.3,0.8,0.4,1.2,0.2c0.6-0.3,0.9-1,0.7-1.6c-0.3-0.6-1-0.9-1.6-0.7
		c-0.4,0.2-0.7,0.6-0.8,1l-1.8,0.7l0.6-2.6c0.1-0.3-0.1-0.7-0.5-0.8c-0.3-0.1-0.7,0.1-0.8,0.5l-0.9,3.5l-1.8,0.7l-0.4,0.2l1-3.8
		c0.1-0.2,0-0.5-0.2-0.6c-0.2-0.2-0.5-0.2-0.7-0.1l-3.2,1.7l0.3-2l3.1-1.7c0.3-0.2,0.4-0.5,0.2-0.9c-0.2-0.3-0.5-0.4-0.8-0.3
		l-2.3,1.3l0.3-2c0.4-0.2,0.6-0.5,0.7-0.9c0.1-0.7-0.4-1.3-1.1-1.4c-0.7-0.1-1.3,0.4-1.4,1.1c-0.1,0.5,0.1,0.9,0.5,1.2l-0.3,1.9
		l-1.9-1.9c-0.2-0.2-0.6-0.2-0.9,0c-0.2,0.2-0.2,0.6,0,0.9l2.6,2.5l-0.3,2.3l-2.9-2.8c-0.2-0.2-0.4-0.2-0.7-0.1
		c-0.2,0.1-0.4,0.3-0.4,0.6l-0.1,3.8l-1.6-1.3l0.1-3.6c0-0.3-0.3-0.6-0.6-0.6c-0.3,0-0.6,0.3-0.6,0.6l-0.1,2.7l-1.5-1.2
		c0.1-0.4-0.1-0.9-0.5-1.2c-0.5-0.4-1.3-0.3-1.8,0.2c-0.4,0.5-0.3,1.3,0.2,1.8c0.4,0.3,0.8,0.3,1.2,0.2l1.5,1.2l-2.6,0.7
		c-0.3,0.1-0.5,0.4-0.4,0.8c0.1,0.3,0.4,0.5,0.8,0.4l3.4-1l1.7,1.3l-3.8,1.1c-0.2,0.1-0.4,0.3-0.4,0.5c0,0.2,0.1,0.5,0.3,0.6
		l3.3,2.1l-2,0.8l-3-1.9c-0.3-0.2-0.7-0.1-0.9,0.2c-0.2,0.3-0.1,0.7,0.2,0.9l2.3,1.4l-1.8,0.7c-0.3-0.3-0.8-0.3-1.2-0.2
		c-0.6,0.3-0.9,1-0.7,1.6c0.3,0.6,1,0.9,1.6,0.7c0.4-0.2,0.7-0.6,0.8-1l1.8-0.7l-0.6,2.6c-0.1,0.3,0.1,0.7,0.5,0.8
		c0.3,0.1,0.7-0.1,0.8-0.5l0.9-3.5l1.9-0.8l-0.9,3.7c-0.1,0.2,0,0.5,0.2,0.6c0.2,0.2,0.5,0.2,0.7,0.1l3.5-1.9l-0.3,2.3l-3.2,1.7
		c-0.3,0.2-0.4,0.5-0.3,0.8c0.2,0.3,0.5,0.4,0.8,0.3l2.4-1.3l-0.3,1.9c-0.4,0.2-0.7,0.5-0.8,1c-0.1,0.7,0.4,1.3,1.1,1.4
		c0.7,0.1,1.3-0.4,1.4-1.1c0.1-0.4-0.1-0.8-0.4-1.1l0.3-2l1.9,1.8c0.2,0.2,0.6,0.2,0.9,0c0.2-0.2,0.3-0.6,0-0.9l-2.5-2.5l0.3-2
		l2.6,2.5c0.2,0.2,0.4,0.2,0.7,0.1c0.2-0.1,0.4-0.3,0.4-0.6l0.1-3.9l1.8,1.4l-0.1,3.6c0,0.3,0.3,0.6,0.6,0.6c0.3,0,0.6-0.3,0.6-0.6
		l0.1-2.7l1.5,1.2c-0.1,0.4,0.1,0.9,0.5,1.2c0.5,0.4,1.3,0.3,1.8-0.2C1071.5,141.5,1071.4,140.7,1070.8,140.3z M1067,134.7l-3.2,0.9
		l-2.1-1.6l2.5-1L1067,134.7z M1063.7,131.9l-2.3,0.9l0.3-2.2l0.1-0.6l2.8-1.5L1063.7,131.9z M1060.4,130.1l-0.1,0.4l-0.3,2.2
		l-1.8-1.4l-0.5-0.4l0.1-3.3L1060.4,130.1z M1057.1,132l2.2,1.7l-2.1,0.8l-0.5,0.2l-2.9-1.8L1057.1,132z M1057.1,135.9l0.6-0.2
		l2.1-0.9l-0.3,2.2l-0.1,0.4l-3.1,1.7L1057.1,135.9z M1060.7,137.8l0.1-0.6l0.3-2.2l1.7,1.3l0.3,0.2l-0.1,3.4L1060.7,137.8z"/>
	<path class="st1" d="M1010.9,164c-0.1-2.1,1.4-3.9,3.5-4c2.1-0.1,3.9,1.4,4,3.5c0.1,2.1-1.4,3.9-3.5,4
		C1012.8,167.7,1011,166.1,1010.9,164z"/>
	<polygon class="st2" points="910.5,103.3 909.1,107 907,103.7 903.1,103.6 905.6,100.5 904.5,96.7 908.2,98.2 911.5,96 911.2,99.9 
		914.3,102.4 	"/>
	<path class="st4" d="M1115.5,159.9c0.6,0.1,1.2-0.1,1.5-0.5l2.5,0.5l-2.6,2.3c-0.3,0.3-0.4,0.8-0.1,1.1c0.3,0.3,0.8,0.4,1.2,0.1
		l3.5-3.1l2.4,0.5l0.5,0.1l-3.8,3.4c-0.2,0.2-0.3,0.6-0.2,0.9c0.1,0.3,0.4,0.5,0.7,0.6l4.7,0.5l-1.8,2l-4.6-0.5
		c-0.4,0-0.8,0.3-0.9,0.8c0,0.2,0,0.4,0.2,0.6h6.8l1.8-2l0.4,2h1.7l-0.7-3.5l0.3-0.4l2-2.2l0.9,2.8l0.2,0.8l-1.8,2.4h2l0.4-0.5
		l0.2,0.5h1.7l-0.4-1.1l3.4,1.1h2.5c0.1-0.2,0.1-0.4,0-0.6l-2.1-4.7l2.7,0.6l1.9,4.3c0.2,0.4,0.7,0.6,1.1,0.4
		c0.4-0.2,0.6-0.7,0.4-1.1l-1.4-3.2l2.5,0.5c0.2,0.5,0.6,1,1.2,1.1c0.9,0.2,1.7-0.4,1.9-1.3s-0.4-1.7-1.3-1.9
		c-0.6-0.1-1.2,0.1-1.5,0.5l-2.5-0.5l2.6-2.3c0.3-0.3,0.4-0.8,0.1-1.1c-0.3-0.3-0.8-0.4-1.2-0.1l-3.5,3.1l-2.6-0.6l3.7-3.3
		c0.2-0.2,0.3-0.6,0.2-0.9c-0.1-0.3-0.4-0.5-0.7-0.6l-5.2-0.5l2-2.2l4.7,0.5c0.4,0,0.9-0.3,0.9-0.7c0-0.4-0.3-0.9-0.7-0.9l-3.5-0.4
		l1.7-1.9c0.6,0.1,1.2,0,1.6-0.5c0.6-0.7,0.6-1.7-0.1-2.3c-0.7-0.6-1.7-0.6-2.3,0.1c-0.4,0.4-0.5,1-0.4,1.5l-1.8,1.9l-0.7-3.4
		c-0.1-0.4-0.5-0.7-0.9-0.6c-0.4,0.1-0.8,0.5-0.7,0.9l0.9,4.5l-1.8,2l-1-4.6c-0.1-0.3-0.3-0.6-0.6-0.6c-0.3-0.1-0.6,0.1-0.8,0.3
		l-3,4.2l-0.9-2.9l2.7-3.8c0.3-0.4,0.2-0.9-0.2-1.1c-0.4-0.3-0.9-0.2-1.1,0.2l-2,2.8l-0.8-2.4c0.4-0.4,0.5-1,0.4-1.6
		c-0.3-0.9-1.2-1.3-2.1-1c-0.9,0.3-1.3,1.2-1,2.1c0.2,0.6,0.7,1,1.2,1.1l0.8,2.4l-3.3-1.1c-0.4-0.1-0.9,0.1-1,0.5
		c-0.1,0.4,0.1,0.9,0.5,1l4.4,1.5l0.9,2.8l-4.7-1.6c-0.3-0.1-0.6,0-0.9,0.2c-0.2,0.2-0.3,0.6-0.1,0.9l2,4.5l-1.4-0.3l-1.4-0.3
		l-1.9-4.3c-0.2-0.4-0.7-0.6-1.1-0.4c-0.4,0.2-0.6,0.7-0.4,1.1l1.4,3.2l-2.5-0.5c-0.2-0.5-0.6-1-1.2-1.1c-0.9-0.2-1.7,0.4-1.9,1.3
		C1114,158.8,1114.6,159.7,1115.5,159.9z M1133.6,166.1l-1.1-3.4l2.8,0.6l0.7,0.1l1.8,4.1L1133.6,166.1z M1134.7,158.9l0.3-0.4
		l4.6,0.5l-3.2,2.9l-0.8-0.2l-2.9-0.6L1134.7,158.9z M1133.2,153.2l0.8,4l-0.5,0.6l-1.9,2.1l-0.9-2.6l-0.1-0.4L1133.2,153.2z
		 M1129,157.2l1.1,3.3l-3.4-0.7l-1.8-3.9L1129,157.2z M1126.4,161.4l3.2,0.7l-1.9,2.1l-0.5,0.6l-4.1-0.4L1126.4,161.4z"/>
	<path class="st3" d="M1117.3,112.7c0.2,2.1-1.4,3.9-3.4,4.1c-2.1,0.2-3.9-1.4-4.1-3.4c-0.2-2.1,1.4-3.9,3.4-4.1
		C1115.3,109.1,1117.1,110.6,1117.3,112.7z"/>
	<path class="st2" d="M895.1,47.6l2.9,1.7l-2.8,1.2c-0.4,0.2-0.5,0.6-0.4,0.9c0.2,0.4,0.6,0.5,0.9,0.4l3.7-1.6l1.2,0.7l1.3,0.8
		l-4.8,2.1c-0.4,0.2-0.5,0.6-0.4,0.9c0.2,0.4,0.6,0.5,0.9,0.4l5.7-2.5l2.1,1.2l-3.9,1.7c-0.3,0.1-0.4,0.4-0.4,0.6
		c0,0.3,0.2,0.5,0.4,0.6l3.9,1.8l-2.1,1.2l-5.7-2.6c-0.4-0.2-0.8,0-0.9,0.4c-0.2,0.4,0,0.8,0.3,0.9l4.7,2.2l-0.3,0.2l-2.3,1.3
		l-3.7-1.7c-0.4-0.2-0.8,0-0.9,0.4c-0.2,0.4,0,0.8,0.3,0.9l2.7,1.2l-2.9,1.7c-0.3,0.2-0.5,0.6-0.3,1c0.2,0.3,0.6,0.5,1,0.3l2.9-1.7
		l-0.4,3c0,0.4,0.2,0.7,0.6,0.8c0.4,0,0.7-0.2,0.8-0.6l0.5-4l2.6-1.5l-0.6,5.2c0,0.4,0.2,0.7,0.6,0.8c0.4,0,0.7-0.2,0.8-0.6l0.7-6.2
		l2.2-1.2l-0.5,4.4c0,0.3,0.1,0.5,0.3,0.7c0.2,0.1,0.5,0.1,0.8,0l3.4-2.5l0,2.3l-5.1,3.6c-0.3,0.2-0.4,0.7-0.2,1
		c0.2,0.3,0.7,0.4,1,0.2l4.2-3l0,3l-3.3,2.3c-0.3,0.2-0.4,0.7-0.2,1c0.2,0.3,0.7,0.4,1,0.2l2.4-1.8l0,3.4c0,0.4,0.3,0.7,0.7,0.7
		s0.7-0.3,0.7-0.7l0-3.4l2.4,1.8c0.3,0.2,0.7,0.2,1-0.1c0.2-0.3,0.2-0.8-0.1-1l-3.2-2.4l0-3l4.2,3.1c0.3,0.2,0.7,0.2,1-0.1
		c0.2-0.3,0.2-0.8-0.1-1l-5-3.7l0-2.4l3.5,2.6c0.2,0.2,0.5,0.2,0.8,0c0.2-0.1,0.4-0.4,0.4-0.7l-0.4-4.3l1.9,1.1l0.6,6.2
		c0,0.4,0.4,0.7,0.8,0.6c0.4,0,0.7-0.4,0.6-0.8l-0.5-5.2l0.8,0.5l1.7,1l0.4,4c0,0.4,0.4,0.7,0.8,0.6c0.4,0,0.7-0.4,0.6-0.8l-0.3-3
		l2.9,1.7c0.3,0.2,0.8,0.1,1-0.2c0.2-0.3,0.1-0.8-0.2-1l-2.9-1.7L927,62c0.4-0.2,0.5-0.6,0.4-0.9c-0.2-0.4-0.6-0.5-0.9-0.4l-3.7,1.6
		l-2.6-1.5l4.8-2.1c0.4-0.2,0.5-0.6,0.4-0.9c-0.2-0.4-0.6-0.5-0.9-0.4l-5.7,2.5l-2-1.2l4.1-1.8c0.3-0.1,0.4-0.4,0.4-0.6
		c0-0.3-0.2-0.5-0.4-0.6l-4-1.8l2-1.1l5.7,2.6c0.4,0.2,0.8,0,0.9-0.4c0.2-0.4,0-0.8-0.3-0.9l-4.7-2.1l0.3-0.2l2.3-1.3l3.7,1.7
		c0.4,0.2,0.8,0,0.9-0.4s0-0.8-0.3-0.9l-2.7-1.2l2.9-1.7c0.3-0.2,0.5-0.6,0.3-1c-0.2-0.3-0.6-0.5-1-0.3l-2.9,1.7l0.3-3
		c0-0.4-0.2-0.7-0.6-0.8c-0.4,0-0.7,0.2-0.8,0.6l-0.5,4l-2.6,1.5l0.6-5.2c0-0.4-0.2-0.7-0.6-0.8c-0.4,0-0.7,0.2-0.8,0.6l-0.7,6.2
		l-1.9,1.1l0.5-4.3c0-0.3-0.1-0.5-0.3-0.7c-0.2-0.1-0.5-0.1-0.8,0l-3.6,2.6l0-2.4l5-3.6c0.3-0.2,0.3-0.7,0.1-1
		c-0.2-0.3-0.6-0.4-1-0.2l-4.2,3l0-3l3.2-2.3c0.3-0.2,0.3-0.7,0.1-1c-0.2-0.3-0.6-0.4-1-0.2l-2.4,1.8l0-3.4c0-0.4-0.3-0.7-0.7-0.7
		c-0.4,0-0.7,0.3-0.7,0.7l0,3.4l-2.4-1.8c-0.3-0.2-0.8-0.2-1,0.1c-0.2,0.3-0.2,0.8,0.1,1l3.2,2.4l0,3l-4.2-3.1
		c-0.3-0.2-0.8-0.2-1,0.1c-0.2,0.3-0.2,0.8,0.1,1l5,3.7l0,2.3l-3.4-2.5c-0.2-0.2-0.5-0.2-0.8,0c-0.2,0.1-0.4,0.4-0.4,0.7l0.4,4.4
		l-2.1-1.3l-0.6-6.2c0-0.4-0.4-0.7-0.8-0.6c-0.4,0-0.7,0.4-0.6,0.8l0.5,5.2l-2.6-1.5l-0.4-4c0-0.4-0.4-0.7-0.8-0.6
		c-0.4,0-0.7,0.4-0.6,0.8l0.3,3l-2.9-1.7c-0.3-0.2-0.8-0.1-1,0.2C894.6,47,894.7,47.4,895.1,47.6z M903.7,56.2l3.4-1.5l2.1,1.3l0,0
		l0.5,0.3l-0.5,0.3v0l-2.1,1.2L903.7,56.2z M907.4,62.7l0.4-3.8l2.1-1.2h0l0.5-0.3l0,0.5l0,2.6L907.4,62.7z M914.9,62.8l-3.1-2.3
		l0-2.5l0-0.5l2.7,1.6L914.9,62.8z M918.7,56.3l-3.5,1.5l-2.2-1.3l0,0l-0.5-0.3l2.7-1.5L918.7,56.3z M915,49.8l-0.4,3.7l-2.7,1.5
		l0-0.5l0-2.5L915,49.8z M907.5,49.7l2.9,2.2l0,2.6l0,0.6l-2.5-1.5L907.5,49.7z"/>
	<polygon class="st3" points="877.7,26 880.2,21.8 882,26.3 886.8,27.4 883.1,30.6 883.5,35.5 879.3,32.9 874.8,34.9 876,30.1 
		872.7,26.4 	"/>
	<polygon class="st2" points="696.6,114.6 691.8,119.4 690.9,112.7 684.9,109.6 691,106.6 692.1,99.9 696.8,104.9 703.5,103.8 
		700.2,109.8 703.3,115.8 	"/>
	<path class="st3" d="M495.4,49.4l-2-1.6l2.2-0.6c0.3-0.1,0.4-0.4,0.4-0.6c-0.1-0.3-0.4-0.5-0.6-0.4l-2.9,0.8l-0.8-0.7l-0.9-0.7
		l3.8-1c0.3-0.1,0.4-0.4,0.4-0.6c-0.1-0.3-0.4-0.5-0.6-0.4l-4.5,1.2l-1.4-1.1l3.1-0.8c0.2-0.1,0.4-0.2,0.4-0.4
		c0-0.2-0.1-0.4-0.2-0.5l-2.7-1.7l1.7-0.7l3.9,2.5c0.2,0.2,0.6,0.1,0.7-0.2c0.2-0.2,0.1-0.6-0.2-0.7l-3.3-2.1L492,39l1.8-0.7
		l2.5,1.6c0.2,0.2,0.6,0.1,0.7-0.2c0.2-0.2,0.1-0.6-0.2-0.7l-1.9-1.2l2.3-0.9c0.3-0.1,0.4-0.4,0.3-0.7c-0.1-0.3-0.4-0.4-0.7-0.3
		l-2.3,0.9l0.6-2.2c0.1-0.3-0.1-0.6-0.4-0.6c-0.3-0.1-0.6,0.1-0.6,0.4l-0.8,2.9l-2.1,0.8l1-3.8c0.1-0.3-0.1-0.6-0.4-0.6
		c-0.3-0.1-0.6,0.1-0.6,0.4l-1.2,4.5l-1.7,0.7l0.9-3.2c0.1-0.2,0-0.4-0.2-0.5c-0.2-0.1-0.4-0.2-0.6-0.1l-2.8,1.5l0.3-1.7l4.1-2.1
		c0.3-0.1,0.4-0.5,0.2-0.7c-0.1-0.3-0.4-0.4-0.7-0.2l-3.5,1.8l0.3-2.2l2.7-1.4c0.3-0.1,0.4-0.5,0.2-0.7c-0.1-0.3-0.4-0.4-0.7-0.2
		l-2,1l0.4-2.5c0-0.3-0.2-0.6-0.5-0.6c-0.3,0-0.6,0.1-0.6,0.4l-0.4,2.5l-1.6-1.6c-0.2-0.2-0.5-0.2-0.7,0c-0.2,0.2-0.2,0.5,0,0.7
		l2.1,2.1l-0.3,2.2l-2.7-2.7c-0.2-0.2-0.5-0.2-0.7,0c-0.2,0.2-0.2,0.5,0,0.7l3.3,3.3l-0.3,1.8l-2.3-2.3c-0.1-0.1-0.4-0.2-0.6-0.1
		c-0.2,0.1-0.3,0.3-0.3,0.5l-0.1,3.2l-1.3-1l0.2-4.7c0-0.3-0.2-0.5-0.5-0.5c-0.3,0-0.5,0.2-0.5,0.5l-0.2,3.9l-0.6-0.5l-1.2-0.9
		l0.1-3c0-0.3-0.2-0.5-0.5-0.5c-0.3,0-0.5,0.2-0.5,0.5l-0.1,2.2l-2-1.6c-0.2-0.2-0.6-0.1-0.7,0.1c-0.2,0.2-0.1,0.6,0.1,0.7l2,1.6
		l-2.2,0.6c-0.3,0.1-0.4,0.4-0.4,0.6c0.1,0.3,0.4,0.4,0.6,0.4l2.9-0.8l1.7,1.4l-3.8,1c-0.3,0.1-0.4,0.4-0.4,0.6
		c0.1,0.3,0.4,0.4,0.6,0.4l4.5-1.2l1.3,1.1l-3.2,0.9c-0.2,0.1-0.4,0.2-0.4,0.4c0,0.2,0.1,0.4,0.2,0.5l2.8,1.8l-1.6,0.6l-3.9-2.5
		c-0.2-0.2-0.6-0.1-0.7,0.2c-0.2,0.2-0.1,0.6,0.2,0.7l3.3,2.1l-0.3,0.1l-1.8,0.7l-2.5-1.6c-0.2-0.2-0.6-0.1-0.7,0.2
		s-0.1,0.6,0.2,0.7l1.9,1.2l-2.3,0.9c-0.3,0.1-0.4,0.4-0.3,0.7c0.1,0.3,0.4,0.4,0.7,0.3l2.3-0.9l-0.6,2.2c-0.1,0.3,0.1,0.6,0.4,0.6
		c0.3,0.1,0.6-0.1,0.6-0.4l0.8-2.9l2.1-0.8l-1,3.8c-0.1,0.3,0.1,0.6,0.4,0.6c0.3,0.1,0.6-0.1,0.6-0.4l1.2-4.5l1.6-0.6l-0.8,3.1
		c-0.1,0.2,0,0.4,0.2,0.5c0.2,0.1,0.4,0.2,0.6,0.1l2.9-1.5l-0.3,1.8l-4.1,2.1c-0.3,0.1-0.3,0.5-0.2,0.7c0.1,0.3,0.4,0.4,0.7,0.2
		l3.4-1.8l-0.3,2.2l-2.7,1.4c-0.3,0.1-0.3,0.5-0.2,0.7c0.1,0.3,0.4,0.4,0.7,0.2l2-1l-0.4,2.5c0,0.3,0.2,0.6,0.5,0.6
		c0.3,0,0.6-0.1,0.6-0.4l0.4-2.5l1.6,1.6c0.2,0.2,0.5,0.2,0.7,0c0.2-0.2,0.2-0.5,0-0.7l-2.1-2.1l0.3-2.2l2.8,2.8
		c0.2,0.2,0.5,0.2,0.7,0c0.2-0.2,0.2-0.5,0-0.7l-3.3-3.3l0.3-1.7l2.2,2.2c0.1,0.1,0.4,0.2,0.6,0.1c0.2-0.1,0.3-0.3,0.3-0.5l0.1-3.3
		l1.5,1.2l-0.2,4.7c0,0.3,0.2,0.5,0.5,0.5c0.3,0,0.5-0.2,0.5-0.5l0.2-3.9l1.7,1.4l-0.1,3c0,0.3,0.2,0.5,0.5,0.5
		c0.3,0,0.5-0.2,0.5-0.5l0.1-2.3l2,1.6c0.2,0.2,0.6,0.1,0.7-0.1C495.7,50,495.7,49.6,495.4,49.4z M490,42.2l-2.7,0.7l-1.4-1.2l0,0
		l-0.3-0.3l0.4-0.1v0l1.7-0.7L490,42.2z M487.9,36.9l-0.7,2.8l-1.7,0.6l0,0l-0.4,0.2l0.1-0.4l0.3-1.9L487.9,36.9z M482.4,36.1l2,2
		l-0.3,1.8l-0.1,0.4l-1.8-1.5L482.4,36.1z M478.8,40.5l2.8-0.8l1.5,1.2l0,0l0.3,0.3l-2.2,0.8L478.8,40.5z M480.9,45.7l0.7-2.7
		l2.2-0.8l-0.1,0.4l-0.3,1.8L480.9,45.7z M486.4,46.6l-1.9-1.9l0.3-1.9l0.1-0.4l1.7,1.4L486.4,46.6z"/>
	<path class="st1" d="M553.9,163c-0.1-2.1,1.4-3.9,3.5-4c2.1-0.1,3.9,1.4,4,3.5c0.1,2.1-1.4,3.9-3.5,4
		C555.9,166.7,554.1,165.1,553.9,163z"/>
	<path class="st3" d="M1193.7,138.9c-0.4-0.1-0.8,0-1,0.2l-1.6-0.5l1.8-1.3c0.2-0.2,0.3-0.5,0.1-0.7c-0.2-0.2-0.5-0.3-0.7-0.1
		l-2.5,1.8l-1.8-0.6l2.6-1.9c0.2-0.1,0.3-0.3,0.2-0.5c0-0.2-0.2-0.4-0.4-0.4l-3.1-0.7l0.7-0.6l0.7-0.6l3,0.7
		c0.3,0.1,0.6-0.1,0.6-0.4c0.1-0.3-0.1-0.6-0.4-0.6l-2.2-0.5l1.2-1.1c0.3,0.1,0.7,0.1,1-0.2c0.4-0.4,0.5-1.1,0.1-1.5
		c-0.4-0.4-1.1-0.5-1.5-0.1c-0.3,0.3-0.4,0.6-0.3,1l-1.2,1.1l-0.2-2.3c0-0.3-0.3-0.5-0.6-0.5c-0.3,0-0.5,0.3-0.5,0.6l0.3,3l-1.2,1.1
		l-0.3,0.2l-0.3-3.3c0-0.2-0.2-0.4-0.4-0.5c-0.2-0.1-0.4,0-0.6,0.1l-2.1,2.3l-0.3-1.7l2-2.2c0.2-0.2,0.2-0.5-0.1-0.7
		c-0.2-0.2-0.5-0.2-0.7,0l-1.5,1.7l-0.3-1.7c0.2-0.2,0.4-0.6,0.3-1c-0.1-0.6-0.7-0.9-1.3-0.8c-0.6,0.1-0.9,0.7-0.8,1.3
		c0.1,0.4,0.4,0.7,0.7,0.8l0.3,1.6l-2.1-0.9c-0.3-0.1-0.6,0-0.7,0.3c-0.1,0.3,0,0.6,0.3,0.7l2.8,1.3l0.4,1.9l-3.1-1.4
		c-0.2-0.1-0.4-0.1-0.6,0.1c-0.2,0.1-0.2,0.4-0.2,0.6l1,3.1l-1.7-0.6l-0.9-2.9c-0.1-0.3-0.4-0.4-0.7-0.3c-0.3,0.1-0.4,0.4-0.3,0.7
		l0.7,2.2l-1.6-0.5c-0.1-0.4-0.3-0.7-0.7-0.8c-0.6-0.2-1.2,0.1-1.3,0.7c-0.2,0.6,0.1,1.2,0.7,1.3c0.4,0.1,0.8,0,1-0.2l1.6,0.5
		l-1.8,1.3c-0.2,0.2-0.3,0.5-0.1,0.7c0.2,0.2,0.5,0.3,0.7,0.1l2.5-1.8l1.7,0.6l-2.7,1.9c-0.2,0.1-0.3,0.3-0.2,0.5
		c0,0.2,0.2,0.4,0.4,0.4l3.2,0.7l-1.4,1.2l-3-0.7c-0.3-0.1-0.6,0.1-0.6,0.4c-0.1,0.3,0.1,0.6,0.4,0.6l2.2,0.5l-1.2,1.1
		c-0.3-0.1-0.7-0.1-1,0.2c-0.4,0.4-0.5,1.1-0.1,1.5c0.4,0.4,1.1,0.5,1.5,0.1c0.3-0.3,0.4-0.6,0.3-1l1.2-1.1l0.2,2.3
		c0,0.3,0.3,0.5,0.6,0.5c0.3,0,0.5-0.3,0.5-0.6l-0.3-3l1.3-1.2l0.3,3.2c0,0.2,0.2,0.4,0.4,0.5c0.2,0.1,0.4,0,0.6-0.1l2.3-2.5
		l0.4,1.9l-2.1,2.2c-0.2,0.2-0.2,0.6,0,0.7c0.2,0.2,0.6,0.2,0.8,0l1.5-1.7l0.3,1.6c-0.3,0.2-0.4,0.6-0.4,1c0.1,0.6,0.7,0.9,1.3,0.8
		c0.6-0.1,0.9-0.7,0.8-1.3c-0.1-0.4-0.3-0.6-0.6-0.8l-0.3-1.7l2,1c0.3,0.1,0.6,0,0.7-0.3c0.1-0.3,0-0.6-0.2-0.7l-2.7-1.3l-0.3-1.7
		l2.8,1.3c0.2,0.1,0.4,0.1,0.6-0.1c0.2-0.1,0.2-0.4,0.2-0.6l-1-3.2l1.9,0.6l0.9,2.9c0.1,0.3,0.4,0.4,0.7,0.3
		c0.3-0.1,0.4-0.4,0.3-0.7l-0.7-2.2l1.6,0.5c0.1,0.4,0.3,0.7,0.7,0.8c0.6,0.2,1.2-0.1,1.3-0.7
		C1194.6,139.7,1194.3,139.1,1193.7,138.9z M1189.1,135.5l-2.3,1.6l-2.1-0.7l1.7-1.5L1189.1,135.5z M1185.6,134.2l-1.6,1.4l-0.4-1.8
		l-0.1-0.5l1.8-2L1185.6,134.2z M1182.5,133.7l0.1,0.3l0.4,1.9l-1.8-0.6l-0.5-0.2l-0.8-2.7L1182.5,133.7z M1180.4,136.1l2.2,0.7
		l-1.4,1.3l-0.3,0.3l-2.8-0.6L1180.4,136.1z M1181.5,139.2l0.4-0.3l1.4-1.3l0.4,1.9l0.1,0.3l-2,2.2L1181.5,139.2z M1184.9,139.8
		l-0.1-0.5l-0.4-1.8l1.7,0.6l0.3,0.1l0.9,2.8L1184.9,139.8z"/>
	<polygon class="st2" points="529.7,70.1 529.9,76.5 524.7,72.7 518.7,74.8 520.6,68.7 516.7,63.6 523.2,63.7 526.8,58.4 
		528.8,64.5 534.9,66.3 	"/>
	<path class="st1" d="M373.8,74.6c-0.1-2.1,1.4-3.9,3.5-4c2.1-0.1,3.9,1.4,4,3.5c0.1,2.1-1.4,3.9-3.5,4
		C375.8,78.2,374,76.6,373.8,74.6z"/>
	<path class="st2" d="M989,143.6c-0.1-2.1,1.4-3.9,3.5-4c2.1-0.1,3.9,1.4,4,3.5c0.1,2.1-1.4,3.9-3.5,4
		C990.9,147.3,989.1,145.7,989,143.6z"/>
	<path class="st0" d="M129.5,165.7l4.6,0.9l0.3,2.6h1.3l-0.4-3.2c0-0.3-0.2-0.5-0.4-0.5c0,0,0,0-0.1,0l-3.7-0.7l3-2.2
		c0.2-0.2,0.3-0.5,0.2-0.7l-1.2-3.5l3.4,1.5c0.3,0.1,0.6,0,0.7-0.2l2.5-2.8l0.4,3.7c0,0.3,0.2,0.5,0.5,0.6l3.7,0.7l-3,2.2
		c-0.2,0.2-0.3,0.5-0.2,0.7l1.2,3.5l-3.4-1.5c-0.3-0.1-0.6,0-0.7,0.2l-2,2.3h1.7l1-1.1l2.6,1.1h2.6c0,0,0,0,0,0l-1.6-4.5l3.8-2.8
		c0.2-0.2,0.3-0.4,0.2-0.7c-0.1-0.2-0.3-0.4-0.5-0.5l-4.6-0.9l-0.6-4.7c0-0.3-0.2-0.5-0.4-0.5c-0.2-0.1-0.5,0-0.7,0.2l-3.1,3.6
		l-4.3-1.9c-0.2-0.1-0.5-0.1-0.7,0.1c-0.2,0.2-0.3,0.4-0.2,0.7l1.6,4.5l-3.8,2.8c-0.2,0.2-0.3,0.4-0.2,0.7
		C129,165.5,129.2,165.6,129.5,165.7z"/>
	<path class="st1" d="M206.7,168.7l1.4,0.5h5.5l2.5-3.4c0.3-0.4,0.2-0.9-0.2-1.2c-0.4-0.3-0.9-0.2-1.2,0.2l-2.2,3l-0.8-2.6
		c0.4-0.4,0.6-1.1,0.4-1.7c-0.3-0.9-1.3-1.4-2.2-1.2c-0.9,0.3-1.4,1.3-1.2,2.2c0.2,0.6,0.7,1,1.3,1.2l0.8,2.6l-3.5-1.2
		c-0.5-0.2-0.9,0.1-1.1,0.5C206,168,206.2,168.5,206.7,168.7z"/>
	<path class="st0" d="M204.1,87.9l3.8,4.2l-5,0.6c-0.7,0.1-1.1,0.7-1,1.3c0.1,0.7,0.6,1.1,1.3,1.1l6.7-0.8l3.4,3.7l-8.7,1
		c-0.7,0.1-1.1,0.7-1,1.3c0.1,0.7,0.6,1.1,1.3,1.1l10.4-1.2l6.3,6.8c-0.2,0.4-0.4,0.8-0.6,1.2c-0.2,0.5-0.2,1-0.2,1.5l-9,2l-7.9-6.9
		c-0.5-0.4-1.2-0.4-1.7,0.1c-0.4,0.5-0.4,1.2,0.1,1.7l6.6,5.8l-4.9,1.1l-5.1-4.5c-0.5-0.4-1.2-0.4-1.7,0.1c-0.4,0.5-0.4,1.2,0.1,1.7
		l3.8,3.3l-5.5,1.2c-0.6,0.1-1,0.8-0.9,1.4c0.1,0.6,0.8,1,1.4,0.9l5.5-1.2l-2,4.6c-0.3,0.6,0,1.3,0.6,1.5c0.6,0.3,1.3,0,1.6-0.6
		l2.7-6.2l4.9-1.1l-3.5,8c-0.3,0.6,0,1.3,0.6,1.5c0.6,0.3,1.3,0,1.6-0.6l4.2-9.6l8.9-2.1c0.4,0.8,1.8,1.7,1.7,1.9l-2.8,8.9l-9.8,3.4
		c-0.6,0.2-0.8,0.9-0.6,1.5c0.2,0.6,0.7,0.9,1.4,0.7l8.2-2.9l-1.5,4.8l-6.2,2.2c-0.6,0.2-0.8,0.9-0.6,1.5c0.2,0.6,0.7,0.9,1.4,0.7
		l4.7-1.7l-1.7,5.4c-0.2,0.6,0.1,1.3,0.8,1.5c0.6,0.2,1.3-0.2,1.5-0.8l1.7-5.4l3.2,4.1c0.4,0.5,1.2,0.7,1.8,0.3
		c0.5-0.4,0.5-1.2,0.1-1.7l-4.2-5.5l1.5-4.8l5.4,7.1c0.4,0.5,1.2,0.7,1.8,0.3c0.5-0.4,0.5-1.2,0.1-1.7l-6.4-8.5l2.8-9
		c1.2,0.1,2-0.1,2.7-0.5l6.5,6.9l-2,10.3c-0.1,0.6,0.3,1.3,1,1.4c0.6,0.1,1.3-0.3,1.4-0.9l1.7-8.6l1.1,1.2l2.3,2.5l-1.3,6.7
		c-0.1,0.6,0.3,1.2,1,1.4c0.6,0.1,1.3-0.3,1.4-0.9l1-5l3.8,4.2c0.4,0.5,1.2,0.5,1.7,0.1c0.5-0.4,0.5-1.2,0.1-1.7l-3.8-4.2l5.1-0.6
		c0.7-0.1,1.1-0.7,1-1.3c-0.1-0.7-0.7-1.1-1.3-1l-6.8,0.8l-3.4-3.7l8.7-1c0.7-0.1,1.1-0.7,1-1.3c-0.1-0.7-0.7-1.1-1.3-1l-10.4,1.2
		l-6.4-6.9c0.3-0.4,0.5-0.8,0.6-1.3c0.1-0.4,0.2-0.9,0.2-1.3l9.1-2.1l7.9,6.9c0.5,0.4,1.2,0.3,1.7-0.1c0.4-0.5,0.4-1.2-0.1-1.7
		l-6.6-5.8l4.9-1.1l5.1,4.5c0.5,0.4,1.2,0.3,1.7-0.1c0.4-0.5,0.4-1.2-0.1-1.7l-3.8-3.3l5.5-1.2c0.6-0.1,1-0.8,0.9-1.4
		c-0.1-0.6-0.8-1-1.4-0.9l-5.5,1.2l2-4.7c0.3-0.6,0-1.3-0.6-1.6c-0.6-0.3-1.3,0-1.6,0.6l-2.7,6.3l-4.9,1.1l3.5-8.1
		c0.3-0.6,0-1.3-0.6-1.6c-0.6-0.3-1.3,0-1.6,0.6l-4.2,9.7l-9.3,2c-0.4-0.8-1-1.5-2-2.1l2.8-8.9l10.2-3.3c0.6-0.2,1-0.9,0.8-1.5
		c-0.2-0.6-1-1-1.7-0.8l-8.4,2.8l1.5-4.8l6.6-2.1c0.6-0.2,1-0.9,0.8-1.5c-0.2-0.6-1-1-1.7-0.8L234,86l1.7-5.4
		c0.2-0.6-0.1-1.3-0.8-1.5c-0.6-0.2-1.3,0.2-1.5,0.8l-1.7,5.4l-2.8-4c-0.4-0.5-1-0.6-1.6-0.2s-0.8,1.1-0.4,1.6l3.9,5.4l-1.5,4.8
		l-5.1-7c-0.4-0.5-1-0.6-1.6-0.2c-0.5,0.4-0.8,1.1-0.4,1.6l6.1,8.4l-2.8,8.8c-0.1,0.2-1.8,0.2-2.6,0.7l-6.2-6.8l2.1-10.3
		c0.1-0.6-0.3-1.3-0.9-1.4c-0.6-0.1-1.2,0.3-1.4,0.9l-1.7,8.6l-0.4-0.4l-3-3.2L213,86c0.1-0.6-0.3-1.3-0.9-1.4
		c-0.6-0.1-1.3,0.3-1.4,0.9l-1,5l-3.8-4.2c-0.4-0.5-1.2-0.5-1.7-0.1C203.7,86.7,203.7,87.4,204.1,87.9z"/>
	<path class="st6" d="M19.6,24.5c0.2,0.6,0,1.3-0.5,1.7l-9.1,8l4.8,11.1c0.3,0.6,0.1,1.3-0.3,1.8c-0.4,0.5-1.1,0.6-1.7,0.4L1.4,43.5
		l-7.2,9.7c-0.4,0.5-1,0.8-1.7,0.6c-0.6-0.1-1.1-0.6-1.2-1.3l-2.3-11.9l-12-1.3c-0.6-0.1-1.2-0.5-1.4-1.1s0-1.3,0.5-1.7l9.1-8
		l-4.8-11.1c-0.3-0.6-0.1-1.3,0.3-1.8c0.4-0.5,1.1-0.6,1.7-0.4l11.4,3.9l7.2-9.7c0.4-0.5,1-0.8,1.7-0.6C3.2,9,3.7,9.5,3.8,10.1
		L6.2,22l12,1.3C18.8,23.4,19.4,23.8,19.6,24.5z M6.4,34.2c-0.2-0.6,0-1.3,0.5-1.7l7.2-6.3l-9.5-1.1c-0.7-0.1-1.3-0.6-1.4-1.3
		l-1.9-9.4l-5.7,7.7c-0.4,0.6-1.2,0.8-1.8,0.6l-9.1-3.1l3.8,8.8c0.3,0.7,0.1,1.4-0.4,1.9l-7.2,6.3l9.5,1.1c0.7,0.1,1.3,0.6,1.4,1.3
		l1.9,9.4l5.7-7.7c0.4-0.6,1.2-0.8,1.8-0.6l9.1,3.1l-3.8-8.8C6.5,34.3,6.5,34.2,6.4,34.2z"/>
	<path class="st2" d="M216.5,65.6c-0.4-0.5-1-0.7-1.5-0.6l-1.6-2l3.6-0.2c0.5,0,0.8-0.4,0.8-0.9c0-0.5-0.4-0.8-0.9-0.8l-4.8,0.2
		l-1.9-2.3l5.1-0.2c0.3,0,0.6-0.2,0.7-0.5c0.1-0.3,0-0.7-0.2-0.9l-3.6-3.6l1.5-0.2l1.5-0.2l3.4,3.4c0.3,0.3,0.9,0.3,1.2,0
		c0.3-0.3,0.3-0.8,0-1.2l-2.5-2.5l2.6-0.4c0.4,0.5,0.9,0.7,1.6,0.6c0.9-0.1,1.5-1,1.4-1.9c-0.1-0.9-1-1.5-1.9-1.4
		c-0.6,0.1-1.1,0.5-1.3,1l-2.6,0.4l1.6-3.2c0.2-0.4,0.1-0.9-0.4-1.1c-0.4-0.2-0.9-0.1-1.1,0.4l-2.2,4.2l-2.5,0.4l-0.5,0.1l2.4-4.6
		c0.2-0.3,0.1-0.6-0.1-0.9c-0.2-0.3-0.5-0.4-0.9-0.3l-4.7,1.3l1-2.6l4.6-1.2c0.4-0.1,0.7-0.6,0.5-1c-0.1-0.4-0.5-0.7-1-0.6l-3.4,0.9
		l1-2.5c0.5-0.1,1-0.5,1.2-1c0.3-0.9-0.1-1.8-1-2.2c-0.9-0.3-1.8,0.1-2.2,1c-0.2,0.6-0.1,1.2,0.3,1.7l-0.9,2.4l-1.9-3
		c-0.2-0.4-0.8-0.5-1.2-0.3c-0.4,0.2-0.5,0.8-0.2,1.2l2.6,4l-1.1,2.8l-2.9-4.5c-0.2-0.3-0.5-0.4-0.8-0.4c-0.3,0.1-0.6,0.3-0.7,0.6
		l-1.3,4.9l-1.7-2.1l1.2-4.6c0.1-0.4-0.2-0.9-0.6-1c-0.4-0.1-0.9,0.1-1,0.6l-0.9,3.4l-1.6-2c0.2-0.5,0.1-1.2-0.2-1.6
		c-0.6-0.7-1.6-0.8-2.3-0.3c-0.7,0.6-0.8,1.6-0.3,2.3c0.4,0.5,1,0.7,1.5,0.6l1.6,2l-3.6,0.2c-0.5,0-0.8,0.4-0.8,0.9
		c0,0.5,0.4,0.8,0.9,0.8l4.8-0.2l1.8,2.2l-5.2,0.2c-0.3,0-0.6,0.2-0.7,0.5c-0.1,0.3,0,0.7,0.2,0.9l3.7,3.7l-2.8,0.4l-3.4-3.4
		c-0.3-0.3-0.9-0.3-1.2,0c-0.3,0.3-0.3,0.8,0,1.2l2.5,2.5l-2.6,0.4c-0.4-0.4-0.9-0.7-1.5-0.6c-0.9,0.1-1.5,1-1.4,1.9
		c0.1,0.9,1,1.5,1.9,1.4c0.6-0.1,1.1-0.5,1.3-1l2.6-0.4l-1.6,3.2c-0.2,0.4,0,0.9,0.4,1.1c0.4,0.2,0.9,0.1,1.1-0.4l2.2-4.3L198,56
		l-2.3,4.5c-0.2,0.3-0.1,0.6,0.1,0.9c0.2,0.3,0.5,0.4,0.9,0.3l5.2-1.4l-1.1,2.8l-4.6,1.2c-0.4,0.1-0.7,0.6-0.6,1
		c0.1,0.4,0.6,0.7,1,0.6l3.5-0.9l-0.9,2.4c-0.6,0.1-1.1,0.5-1.4,1c-0.3,0.9,0.1,1.8,1,2.2c0.9,0.3,1.8-0.1,2.2-1
		c0.2-0.5,0.1-1.1-0.2-1.5l1-2.5l1.9,3c0.2,0.4,0.7,0.5,1.1,0.2c0.4-0.2,0.5-0.7,0.3-1.1l-2.5-4l1-2.6l2.6,4.1
		c0.2,0.3,0.5,0.4,0.8,0.4c0.3-0.1,0.6-0.3,0.7-0.6l1.4-5.1l1.9,2.4l-1.3,4.6c-0.1,0.4,0.1,0.9,0.6,1c0.4,0.1,0.9-0.1,1-0.6L212,64
		l1.6,2c-0.2,0.5-0.1,1.2,0.2,1.7c0.6,0.7,1.6,0.8,2.3,0.3C216.9,67.4,217.1,66.3,216.5,65.6z M213.2,57.2l-4.4,0.2l-2.2-2.8
		l3.5-0.5L213.2,57.2z M209.8,52.5l-3.3,0.5l1.1-2.7l0.3-0.8l4-1.1L209.8,52.5z M206.1,49.2l-0.2,0.5l-1.1,2.8l-1.9-2.3l-0.5-0.6
		l1.1-4.2L206.1,49.2z M201.2,50.6l2.3,2.9l-2.9,0.5l-0.7,0.1l-3.2-3.2L201.2,50.6z M200,55.7l0.8-0.1l3-0.5l-1.1,2.8l-0.2,0.5
		l-4.5,1.2L200,55.7z M204,59.3l0.3-0.8l1.1-2.7l1.8,2.2l0.3,0.4l-1.2,4.4L204,59.3z"/>
	<path class="st1" d="M92.6,69.7c-0.2-2.1,1.3-3.9,3.4-4.2c2.1-0.2,3.9,1.3,4.2,3.4c0.2,2.1-1.3,3.9-3.4,4.2
		C94.7,73.3,92.8,71.8,92.6,69.7z"/>
	<path class="st1" d="M92.3,162.6c-0.2-2.1,1.4-3.9,3.5-4.1c2.1-0.2,3.9,1.4,4.1,3.5c0.2,2.1-1.4,3.9-3.5,4.1
		C94.3,166.2,92.4,164.7,92.3,162.6z"/>
	<path class="st4" d="M61.4,169.2h7.5c0.1-0.4,0.1-0.7,0-1.1c-0.3-2.1-2.2-3.5-4.3-3.2C62.6,165.1,61.1,167,61.4,169.2
		C61.4,169.1,61.4,169.1,61.4,169.2z"/>
	<path class="st5" d="M160.8,165.5c0.4-0.2,0.7-0.6,0.8-1l1.8-0.7l-0.6,2.6c-0.1,0.3,0.1,0.7,0.5,0.8c0.3,0.1,0.7-0.1,0.8-0.5
		l0.9-3.5l1.9-0.8l-0.9,3.7c-0.1,0.2,0,0.5,0.2,0.6c0.2,0.2,0.5,0.2,0.7,0.1l3.5-1.9l-0.3,2.3l-3.2,1.7c-0.1,0.1-0.2,0.2-0.2,0.3
		h2.4l0.8-0.4l-0.1,0.4h1.3l0-0.3l0.3,0.3h1.8l-1.8-1.8l0.3-2l2.6,2.5c0.2,0.2,0.4,0.2,0.7,0.1c0.2-0.1,0.4-0.3,0.4-0.6l0.1-3.9
		l1.8,1.4l-0.1,3.6c0,0.3,0.3,0.6,0.6,0.6c0.3,0,0.6-0.3,0.6-0.6l0.1-2.7l1.5,1.2c-0.1,0.4,0.1,0.9,0.5,1.2c0.5,0.4,1.3,0.3,1.8-0.2
		c0.4-0.5,0.3-1.3-0.2-1.8c-0.4-0.3-0.8-0.3-1.2-0.2l-1.5-1.2l2.6-0.7c0.3-0.1,0.5-0.4,0.4-0.8s-0.4-0.5-0.8-0.4l-3.4,1l-1.8-1.4
		l3.6-1c0.2-0.1,0.4-0.3,0.4-0.5c0-0.2-0.1-0.5-0.3-0.6l-3.2-2l1-0.4l1-0.4l3,1.9c0.3,0.2,0.7,0.1,0.9-0.2c0.2-0.3,0.1-0.7-0.2-0.9
		l-2.3-1.4l1.8-0.7c0.3,0.3,0.8,0.4,1.2,0.2c0.6-0.3,0.9-1,0.7-1.6c-0.3-0.6-1-0.9-1.6-0.7c-0.4,0.2-0.7,0.6-0.8,1l-1.8,0.7l0.6-2.6
		c0.1-0.3-0.1-0.7-0.5-0.8c-0.3-0.1-0.7,0.1-0.8,0.5l-0.9,3.5l-1.8,0.7l-0.4,0.2l1-3.8c0.1-0.2,0-0.5-0.2-0.6
		c-0.2-0.2-0.5-0.2-0.7-0.1l-3.2,1.7l0.3-2l3.1-1.7c0.3-0.2,0.4-0.5,0.2-0.9c-0.2-0.3-0.5-0.4-0.8-0.3l-2.3,1.3l0.3-2
		c0.4-0.2,0.6-0.5,0.7-0.9c0.1-0.7-0.4-1.3-1.1-1.4c-0.7-0.1-1.3,0.4-1.4,1.1c-0.1,0.5,0.1,0.9,0.5,1.2l-0.3,1.9l-1.9-1.9
		c-0.2-0.2-0.6-0.2-0.9,0c-0.2,0.2-0.2,0.6,0,0.9l2.6,2.5l-0.3,2.3l-2.9-2.8c-0.2-0.2-0.4-0.2-0.7-0.1c-0.2,0.1-0.4,0.3-0.4,0.6
		l-0.1,3.8l-1.6-1.3l0.1-3.6c0-0.3-0.3-0.6-0.6-0.6c-0.3,0-0.6,0.3-0.6,0.6l-0.1,2.7l-1.5-1.2c0.1-0.4-0.1-0.9-0.5-1.2
		c-0.5-0.4-1.3-0.3-1.8,0.2c-0.4,0.5-0.3,1.3,0.2,1.8c0.4,0.3,0.8,0.3,1.2,0.2l1.5,1.2l-2.6,0.7c-0.3,0.1-0.5,0.4-0.4,0.8
		s0.4,0.5,0.8,0.4l3.4-1l1.7,1.3l-3.8,1.1c-0.2,0.1-0.4,0.3-0.4,0.5c0,0.2,0.1,0.5,0.3,0.6l3.3,2.1l-2,0.8l-3-1.9
		c-0.3-0.2-0.7-0.1-0.9,0.2c-0.2,0.3-0.1,0.7,0.2,0.9l2.3,1.4l-1.8,0.7c-0.3-0.3-0.8-0.3-1.2-0.2c-0.6,0.3-0.9,1-0.7,1.6
		S160.2,165.8,160.8,165.5z M178.1,160.7l-3.2,0.9l-2.1-1.6l2.5-1L178.1,160.7z M172.7,156.6l0.1-0.6l2.8-1.5l-0.8,3.3l-2.3,0.9
		L172.7,156.6z M171.8,163.2l0.3-2.2l1.7,1.3l0.3,0.2L174,166l-2.2-2.2L171.8,163.2z M170.5,163l-0.1,0.4l-3.1,1.7l0.8-3.2l0.6-0.2
		l2.1-0.9L170.5,163z M169,153.6l2.5,2.4l-0.1,0.4l-0.3,2.2l-1.8-1.4l-0.5-0.4L169,153.6z M164.9,158.9l3.3-0.9l2.2,1.7l-2.1,0.8
		l-0.5,0.2L164.9,158.9z"/>
	<path class="st3" d="M309.1,88.1c0.3,0.1,0.6,0.4,0.7,0.7l1,6.6l6.6,1.1c0.4,0.1,0.6,0.3,0.7,0.7c0.1,0.3,0,0.7-0.3,0.9l-5.2,4.1
		l2.4,6.2c0.1,0.3,0,0.7-0.2,1c-0.3,0.3-0.6,0.3-1,0.2l-6.2-2.5l-4.2,5.2c-0.2,0.3-0.6,0.4-0.9,0.3c-0.3-0.1-0.6-0.4-0.7-0.7l-1-6.6
		l-6.6-1.1c-0.4-0.1-0.6-0.3-0.7-0.7c-0.1-0.3,0-0.7,0.3-0.9l5.2-4.1l-2.4-6.2c-0.1-0.3,0-0.7,0.2-1c0.3-0.3,0.6-0.3,1-0.2l6.2,2.5
		l4.2-5.2C308.4,88.1,308.7,88,309.1,88.1z M309.7,97.1c-0.3-0.1-0.6-0.4-0.7-0.7l-0.8-5.2l-3.3,4.1c-0.2,0.3-0.7,0.4-1,0.3
		l-4.9-1.9l1.9,4.9c0.1,0.4,0,0.8-0.3,1l-4.1,3.3l5.2,0.8c0.4,0.1,0.7,0.4,0.7,0.8l0.8,5.2l3.3-4.1c0.2-0.3,0.7-0.4,1-0.3l4.9,1.9
		l-1.9-4.9c-0.1-0.4,0-0.8,0.3-1L315,98L309.7,97.1C309.7,97.1,309.7,97.1,309.7,97.1z"/>
	<path class="st1" d="M308.3,65.6c-0.2-1.3,0.7-2.6,2-2.8c1.3-0.2,2.6,0.7,2.8,2c0.2,1.3-0.7,2.6-2,2.8
		C309.8,67.9,308.5,67,308.3,65.6z"/>
	<g>
		<polygon class="st3" points="132.5,94.4 132.6,95 132.6,95.2 132.7,95.7 132.7,95.9 135.2,113.4 153.4,110.8 154.8,110.6 
			152.1,91.7 		"/>
		<polygon class="st3" points="175.2,89.7 175.2,89.6 175.1,89 175.1,89 175,88.4 155.7,91.2 158.4,110.1 159.2,110 159.2,110 
			159.8,109.9 177.7,107.4 175.2,89.8 		"/>
		<path class="st3" d="M130.2,77.9l1.6,11.1l0.1,0.7l0.1,1l19.6-2.8l-2.1-15c-0.1-1,0.6-1.9,1.6-2.1l0,0c1-0.1,1.9,0.6,2.1,1.6
			l2.1,15l19.3-2.7l-0.2-1.1l-0.1-0.7l-1.7-12l0,0l-0.1-0.4l1.4-0.2l-0.8-5.7l-1.4,0.2l-16.5,2.3c0,0,0,0,0,0
			c5.9-2.9,17-3.3,12.9-10.5c-0.9-1.6-3.5-3.2-6.9-2.7c-2,0.3-4.4,1.3-6.8,3.5c-3,2.7-3.6,6.3-3.7,9.1c-0.9-3.6-2.3-8.2-7.4-11
			c-2.8-1.5-5.4-1.9-7.7-1.6c-5.2,0.7-8.9,5.2-8.9,9c0.1,9.9,12.4,2.3,19.5,5.3c0,0,0,0.1-0.1,0.1l-16.9,2.4l-1.4,0.2l0.8,5.7
			l1.4-0.2L130.2,77.9z M155.4,60.7c2.3-2.1,4-3,5.2-3.1c1.2-0.2,2,0.3,2.6,0.7c0.1,0,0.1,0.1,0.2,0.1c2.5,3.6-7.2,4-11.2,8.2
			c-0.1,0-0.2,0-0.3,0C152.6,64.5,153.4,62.6,155.4,60.7z M132.4,61.6c0,0,1.3-3.3,4.6-3.8c1.5-0.2,3.3,0.2,5.6,1.6
			c3.6,2.3,5.2,4.9,6.4,7.5c0,0,0,0,0,0c-0.1,0-0.2,0-0.3,0.1C142.8,61.7,131,68.9,132.4,61.6z"/>
	</g>
	<g>
		<path class="st2" d="M63.8,101.3c-1.6-2-3.4-4.8-5.1-8c2.8,1.1,5.9-0.3,2.5-4.7c-1.7-2.2-3.6-5.6-5.3-9.1c2,0.7,4-0.4,1.6-3.8
			c-3.8-5.4-8.5-20-8.5-20c-0.6-2.4-3.4-2.3-4.3-0.4c0,0-7.6,14.3-11.8,18.2c-2.3,2.2-1,3.9,0.8,4.1c-2.4,3.4-4.8,6.4-6.7,8
			c-3.6,3.1-0.9,5.3,2.1,5.2c-2.3,2.9-4.5,5.4-6.3,6.9c-6.8,5.5,5.2,8.6,7.3,2.8c-2.3,6.2,5.3,6.4,7.2,0c-2.6,8.2,5.4,7.4,6.1-0.2
			c-0.7,7.6,7.1,9.4,6.4,0.9c0.6,7.2,8.2,8.3,7.1,1C57.9,108.4,70.2,109.1,63.8,101.3z"/>
		<path class="st2" d="M43.3,102.2c-0.4,4-2.8,6.1-4.6,6c-0.5,2.8-0.8,5.4,0,5.7c1,0.4,3.6,0.8,5.8,0.6c1.5-0.2,1.9-2.9,1.9-5.9
			C44.7,108.2,43,105.9,43.3,102.2z"/>
	</g>
	<g>
		<path class="st2" d="M274.8,169.2c0.4-3.5,0.5-6.5,0.2-8c-0.7-4.4-14.7-2.8-16.8-2.5l0,0c0,0-0.1,0-0.1,0c-0.1,0-0.1,0-0.1,0l0,0
			c-2.1,0.4-16,2.9-15.3,7.3c0.1,0.8,0.4,1.9,0.9,3.2H274.8z"/>
	</g>
	<path class="st4" d="M307.5,165.9l0.4,2.9c-0.3,0.1-0.5,0.2-0.6,0.4h2.9l1.7-1.3l3.1,0.9c0.2,0.1,0.4-0.1,0.5-0.2
		c0.1-0.2,0-0.4-0.2-0.5l-2.6-0.8l1.2-0.9l2,0.6c0.2,0.1,0.4-0.1,0.5-0.2c0.1-0.2,0-0.4-0.2-0.5l-1.5-0.5l1.4-1
		c0.2-0.1,0.2-0.3,0.1-0.5c-0.1-0.2-0.3-0.2-0.5-0.1l-1.4,1l0-1.6c0-0.2-0.2-0.4-0.4-0.4c-0.2,0-0.4,0.2-0.4,0.4l0,2.1l-1.2,0.9
		l0-2.7c0-0.2-0.2-0.4-0.4-0.4c-0.2,0-0.4,0.2-0.4,0.4l0.1,3.2l-2.2,1.7c-0.2-0.2-0.7-0.3-0.7-0.3l-0.3-2.8l2.3-2.2
		c0.1-0.1,0.1-0.4,0-0.5c-0.1-0.1-0.3-0.2-0.5,0l-1.9,1.8l-0.2-1.5l1.5-1.4c0.1-0.1,0.1-0.4,0-0.5c-0.1-0.1-0.3-0.2-0.5,0l-1.1,1.1
		l-0.2-1.7c0-0.2-0.2-0.3-0.4-0.3c-0.2,0-0.3,0.2-0.3,0.4l0.2,1.7l-1.4-0.7c-0.2-0.1-0.4,0-0.5,0.1c-0.1,0.2,0,0.4,0.2,0.5l1.9,1
		l0.2,1.5l-2.4-1.3c-0.2-0.1-0.4,0-0.5,0.1c-0.1,0.2,0,0.4,0.2,0.5L307.5,165.9z"/>
	<path class="st4" d="M301,167.5l-1.3,0.8c-0.2,0.1-0.2,0.3-0.1,0.5s0.3,0.2,0.5,0.1l1.8-1.1l1.4,0.6l-1.2,0.7h1.4l0.6-0.4l0.8,0.4
		h2l-2.5-1l-0.8-3.1c0-0.2-0.3-0.3-0.5-0.3c-0.2,0-0.3,0.2-0.3,0.4l0.6,2.6l-0.5-0.2l-1-0.4l-0.5-2c0-0.2-0.2-0.3-0.4-0.3
		s-0.3,0.2-0.3,0.4l0.4,1.5l-1.6-0.7c-0.2-0.1-0.4,0-0.5,0.2c-0.1,0.2,0,0.4,0.2,0.5L301,167.5z"/>
	<path class="st1" d="M234.2,57.7c-0.2-1.3,0.7-2.6,2-2.8s2.6,0.7,2.8,2c0.2,1.3-0.7,2.6-2,2.8C235.7,60,234.4,59.1,234.2,57.7z"/>
	<path class="st4" d="M8.6,159.9c0.6,0.1,1.2-0.1,1.5-0.5l2.5,0.5l-2.6,2.3c-0.3,0.3-0.4,0.8-0.1,1.1c0.3,0.3,0.8,0.4,1.2,0.1
		l3.5-3.1l2.4,0.5l0.5,0.1l-3.8,3.4c-0.2,0.2-0.3,0.6-0.2,0.9c0.1,0.3,0.4,0.5,0.7,0.6l4.7,0.5l-1.8,2l-4.6-0.5
		c-0.4,0-0.8,0.3-0.9,0.8c0,0.2,0,0.4,0.2,0.6h6.8l1.8-2l0.4,2h1.7l-0.7-3.5l0.3-0.4l2-2.2L25,166l0.2,0.8l-1.8,2.4h2l0.4-0.5
		l0.2,0.5h1.7l-0.4-1.1l3.4,1.1h2.5c0.1-0.2,0.1-0.4,0-0.6l-2.1-4.7l2.7,0.6l1.9,4.3c0.2,0.4,0.7,0.6,1.1,0.4
		c0.4-0.2,0.6-0.7,0.4-1.1l-1.4-3.2l2.5,0.5c0.2,0.5,0.6,1,1.2,1.1c0.9,0.2,1.7-0.4,1.9-1.3c0.2-0.9-0.4-1.7-1.3-1.9
		c-0.6-0.1-1.2,0.1-1.5,0.5l-2.5-0.5l2.6-2.3c0.3-0.3,0.4-0.8,0.1-1.1c-0.3-0.3-0.8-0.4-1.2-0.1l-3.5,3.1l-2.6-0.6l3.7-3.3
		c0.2-0.2,0.3-0.6,0.2-0.9c-0.1-0.3-0.4-0.5-0.7-0.6l-5.2-0.5l2-2.2l4.7,0.5c0.4,0,0.9-0.3,0.9-0.7c0-0.4-0.3-0.9-0.7-0.9l-3.5-0.4
		l1.7-1.9c0.6,0.1,1.2,0,1.6-0.5c0.6-0.7,0.6-1.7-0.1-2.3c-0.7-0.6-1.7-0.6-2.3,0.1c-0.4,0.4-0.5,1-0.4,1.5l-1.8,1.9l-0.7-3.4
		c-0.1-0.4-0.5-0.7-0.9-0.6c-0.4,0.1-0.8,0.5-0.7,0.9l0.9,4.5l-1.8,2l-1-4.6c-0.1-0.3-0.3-0.6-0.6-0.6c-0.3-0.1-0.6,0.1-0.8,0.3
		l-3,4.2l-0.9-2.9l2.7-3.8c0.3-0.4,0.2-0.9-0.2-1.1c-0.4-0.3-0.9-0.2-1.1,0.2l-2,2.8l-0.8-2.4c0.4-0.4,0.5-1,0.4-1.6
		c-0.3-0.9-1.2-1.3-2.1-1c-0.9,0.3-1.3,1.2-1,2.1c0.2,0.6,0.7,1,1.2,1.1l0.8,2.4l-3.3-1.1c-0.4-0.1-0.9,0.1-1,0.5
		c-0.1,0.4,0.1,0.9,0.5,1l4.4,1.5l0.9,2.8l-4.7-1.6c-0.3-0.1-0.6,0-0.9,0.2c-0.2,0.2-0.3,0.6-0.1,0.9l2,4.5l-1.4-0.3l-1.4-0.3
		l-1.9-4.3c-0.2-0.4-0.7-0.6-1.1-0.4c-0.4,0.2-0.6,0.7-0.4,1.1l1.4,3.2l-2.5-0.5c-0.2-0.5-0.6-1-1.2-1.1c-0.9-0.2-1.7,0.4-1.9,1.3
		C7.2,158.8,7.7,159.7,8.6,159.9z M26.7,166.1l-1.1-3.4l2.8,0.6l0.7,0.1l1.8,4.1L26.7,166.1z M27.9,158.9l0.3-0.4l4.6,0.5l-3.2,2.9
		l-0.8-0.2l-2.9-0.6L27.9,158.9z M26.3,153.2l0.8,4l-0.5,0.6l-1.9,2.1l-0.9-2.6l-0.1-0.4L26.3,153.2z M22.1,157.2l1.1,3.3l-3.4-0.7
		l-1.8-3.9L22.1,157.2z M19.6,161.4l3.2,0.7l-1.9,2.1l-0.5,0.6l-4.1-0.4L19.6,161.4z"/>
	<path class="st3" d="M10.5,112.7c0.2,2.1-1.4,3.9-3.4,4.1c-2.1,0.2-3.9-1.4-4.1-3.4c-0.2-2.1,1.4-3.9,3.4-4.1
		C8.5,109.1,10.3,110.6,10.5,112.7z"/>
	<path class="st3" d="M86.9,138.9c-0.4-0.1-0.8,0-1,0.2l-1.6-0.5l1.8-1.3c0.2-0.2,0.3-0.5,0.1-0.7c-0.2-0.2-0.5-0.3-0.7-0.1
		l-2.5,1.8l-1.8-0.6l2.6-1.9c0.2-0.1,0.3-0.3,0.2-0.5c0-0.2-0.2-0.4-0.4-0.4l-3.1-0.7l0.7-0.6l0.7-0.6l3,0.7
		c0.3,0.1,0.6-0.1,0.6-0.4c0.1-0.3-0.1-0.6-0.4-0.6l-2.2-0.5l1.2-1.1c0.3,0.1,0.7,0.1,1-0.2c0.4-0.4,0.5-1.1,0.1-1.5
		c-0.4-0.4-1.1-0.5-1.5-0.1c-0.3,0.3-0.4,0.6-0.3,1l-1.2,1.1l-0.2-2.3c0-0.3-0.3-0.5-0.6-0.5c-0.3,0-0.5,0.3-0.5,0.6l0.3,3l-1.2,1.1
		l-0.3,0.2l-0.3-3.3c0-0.2-0.2-0.4-0.4-0.5c-0.2-0.1-0.4,0-0.6,0.1l-2.1,2.3l-0.3-1.7l2-2.2c0.2-0.2,0.2-0.5-0.1-0.7
		c-0.2-0.2-0.5-0.2-0.7,0l-1.5,1.7l-0.3-1.7c0.2-0.2,0.4-0.6,0.3-1c-0.1-0.6-0.7-0.9-1.3-0.8c-0.6,0.1-0.9,0.7-0.8,1.3
		c0.1,0.4,0.4,0.7,0.7,0.8l0.3,1.6l-2.1-0.9c-0.3-0.1-0.6,0-0.7,0.3c-0.1,0.3,0,0.6,0.3,0.7l2.8,1.3l0.4,1.9l-3.1-1.4
		c-0.2-0.1-0.4-0.1-0.6,0.1c-0.2,0.1-0.2,0.4-0.2,0.6l1,3.1l-1.7-0.6l-0.9-2.9c-0.1-0.3-0.4-0.4-0.7-0.3c-0.3,0.1-0.4,0.4-0.3,0.7
		l0.7,2.2l-1.6-0.5c-0.1-0.4-0.3-0.7-0.7-0.8c-0.6-0.2-1.2,0.1-1.3,0.7c-0.2,0.6,0.1,1.2,0.7,1.3c0.4,0.1,0.8,0,1-0.2l1.6,0.5
		l-1.8,1.3c-0.2,0.2-0.3,0.5-0.1,0.7c0.2,0.2,0.5,0.3,0.7,0.1l2.5-1.8l1.7,0.6l-2.7,1.9c-0.2,0.1-0.3,0.3-0.2,0.5
		c0,0.2,0.2,0.4,0.4,0.4l3.2,0.7l-1.4,1.2l-3-0.7c-0.3-0.1-0.6,0.1-0.6,0.4c-0.1,0.3,0.1,0.6,0.4,0.6l2.2,0.5l-1.2,1.1
		c-0.3-0.1-0.7-0.1-1,0.2c-0.4,0.4-0.5,1.1-0.1,1.5c0.4,0.4,1.1,0.5,1.5,0.1c0.3-0.3,0.4-0.6,0.3-1l1.2-1.1l0.2,2.3
		c0,0.3,0.3,0.5,0.6,0.5c0.3,0,0.5-0.3,0.5-0.6l-0.3-3l1.3-1.2l0.3,3.2c0,0.2,0.2,0.4,0.4,0.5c0.2,0.1,0.4,0,0.6-0.1l2.3-2.5
		l0.4,1.9l-2.1,2.2c-0.2,0.2-0.2,0.6,0,0.7c0.2,0.2,0.6,0.2,0.8,0l1.5-1.7l0.3,1.6c-0.3,0.2-0.4,0.6-0.4,1c0.1,0.6,0.7,0.9,1.3,0.8
		c0.6-0.1,0.9-0.7,0.8-1.3c-0.1-0.4-0.3-0.6-0.6-0.8l-0.3-1.7l2,1c0.3,0.1,0.6,0,0.7-0.3c0.1-0.3,0-0.6-0.2-0.7l-2.7-1.3l-0.3-1.7
		l2.8,1.3c0.2,0.1,0.4,0.1,0.6-0.1c0.2-0.1,0.2-0.4,0.2-0.6l-1-3.2l1.9,0.6l0.9,2.9c0.1,0.3,0.4,0.4,0.7,0.3
		c0.3-0.1,0.4-0.4,0.3-0.7l-0.7-2.2l1.6,0.5c0.1,0.4,0.3,0.7,0.7,0.8c0.6,0.2,1.2-0.1,1.3-0.7C87.7,139.7,87.4,139.1,86.9,138.9z
		 M82.3,135.5l-2.3,1.6l-2.1-0.7l1.7-1.5L82.3,135.5z M78.8,134.2l-1.6,1.4l-0.4-1.8l-0.1-0.5l1.8-2L78.8,134.2z M75.7,133.7
		l0.1,0.3l0.4,1.9l-1.8-0.6l-0.5-0.2l-0.8-2.7L75.7,133.7z M73.5,136.1l2.2,0.7l-1.4,1.3l-0.3,0.3l-2.8-0.6L73.5,136.1z M74.7,139.2
		l0.4-0.3l1.4-1.3l0.4,1.9l0.1,0.3l-2,2.2L74.7,139.2z M78.1,139.8l-0.1-0.5l-0.4-1.8l1.7,0.6l0.3,0.1l0.9,2.8L78.1,139.8z"/>
</g>
</svg>
