<?xml version="1.0" encoding="utf-8"?>
<!-- Generator: Adobe Illustrator 25.0.1, SVG Export Plug-In . SVG Version: 6.00 Build 0)  -->
<svg version="1.1" id="Livello_1" xmlns="http://www.w3.org/2000/svg" xmlns:xlink="http://www.w3.org/1999/xlink" x="0px" y="0px"
	 viewBox="0 0 1400 166" style="enable-background:new 0 0 1400 166;" xml:space="preserve">
<style type="text/css">
	.st0{fill:#D8B289;}
	.st1{fill:#E6D0BC;}
	.st2{fill:#BF986B;}
	.st3{fill:#D6291C;}
	.st4{fill:#969595;}
	.st5{fill:#B12827;}
	.st6{fill:#054631;}
</style>
<path class="st0" d="M47.3,45.6l-3.7-4.1l4.9-0.6c0.6-0.1,1.1-0.6,1-1.3c-0.1-0.6-0.6-1.1-1.3-1l-6.6,0.8l-3.3-3.6l8.5-1
	c0.6-0.1,1.1-0.6,1-1.3c-0.1-0.6-0.6-1.1-1.3-1l-10.1,1.2l-6.1-6.6c0.2-0.4,0.4-0.8,0.6-1.2c0.1-0.5,0.2-0.9,0.2-1.4l8.8-2l7.7,6.7
	c0.5,0.4,1.2,0.4,1.6-0.1c0.4-0.5,0.4-1.2-0.1-1.6l-6.4-5.6l4.8-1.1l5,4.4c0.5,0.4,1.2,0.4,1.6-0.1c0.4-0.5,0.4-1.2-0.1-1.6
	l-3.7-3.2l5.4-1.2c0.6-0.1,1-0.8,0.9-1.4c-0.1-0.6-0.8-1-1.4-0.9L49.7,18l2-4.5c0.3-0.6,0-1.3-0.6-1.5c-0.6-0.3-1.3,0-1.5,0.6
	l-2.6,6.1l-4.8,1.1l3.4-7.8c0.3-0.6,0-1.3-0.6-1.5c-0.6-0.3-1.3,0-1.5,0.6l-4.1,9.4l-8.6,2c-0.4-0.8-1.7-1.7-1.7-1.9l2.7-8.7
	l9.5-3.3c0.6-0.2,0.8-0.9,0.6-1.5c-0.2-0.6-0.7-0.9-1.3-0.7L32.6,9l1.5-4.7l6.1-2.2C40.8,2,41,1.3,40.8,0.7
	c-0.2-0.6-0.7-0.9-1.3-0.7l-4.5,1.6l1.6-5.3c0.2-0.6-0.1-1.2-0.7-1.4c-0.6-0.2-1.2,0.2-1.4,0.8L32.8,1l-3.1-4
	c-0.4-0.5-1.2-0.6-1.7-0.3c-0.5,0.4-0.5,1.1-0.1,1.7l4.1,5.4l-1.5,4.7l-5.3-6.9c-0.4-0.5-1.2-0.6-1.7-0.3C23,1.6,23,2.3,23.4,2.9
	l6.2,8.2l-2.7,8.7c-1.1-0.1-1.9,0.1-2.6,0.5l-6.3-6.8l1.9-10c0.1-0.6-0.3-1.2-1-1.3c-0.6-0.1-1.2,0.3-1.4,0.9l-1.7,8.4l-1.1-1.2
	l-2.2-2.4l1.3-6.5C14,0.8,13.5,0.2,12.9,0c-0.6-0.1-1.2,0.3-1.3,0.9l-0.9,4.8L6.9,1.7C6.5,1.2,5.7,1.2,5.3,1.6
	C4.8,2.1,4.8,2.8,5.2,3.3l3.7,4.1L4,7.9C3.4,8,2.9,8.5,3,9.2c0.1,0.6,0.6,1.1,1.3,1l6.6-0.8l3.3,3.6l-8.5,1c-0.6,0.1-1.1,0.6-1,1.3
	c0.1,0.6,0.6,1.1,1.3,1l10.2-1.2l6.2,6.7c-0.3,0.4-0.5,0.8-0.6,1.2c-0.1,0.4-0.2,0.8-0.2,1.2l-8.9,2l-7.7-6.7
	c-0.5-0.4-1.2-0.3-1.6,0.1c-0.4,0.5-0.4,1.2,0.1,1.6l6.4,5.6L5.1,28l-5-4.3c-0.5-0.4-1.2-0.3-1.6,0.1c-0.4,0.5-0.4,1.2,0.1,1.6
	l3.7,3.2l-5.4,1.2c-0.6,0.1-1,0.8-0.9,1.4c0.1,0.6,0.8,1,1.4,0.9l5.4-1.2l-2,4.5c-0.3,0.6,0,1.3,0.6,1.5c0.6,0.3,1.3,0,1.5-0.6
	l2.6-6.1l4.8-1.1L6.9,37c-0.3,0.6,0,1.3,0.6,1.5c0.6,0.3,1.3,0,1.5-0.6l4.1-9.4l9.1-1.9c0.4,0.8,0.9,1.4,1.9,2l-2.7,8.6l-9.9,3.2
	c-0.6,0.2-1,0.8-0.8,1.4c0.2,0.6,1,1,1.6,0.8l8.2-2.7l-1.5,4.7l-6.5,2.1c-0.6,0.2-1,0.8-0.8,1.4c0.2,0.6,1,1,1.6,0.8l4.8-1.6
	l-1.6,5.3c-0.2,0.6,0.1,1.2,0.7,1.4c0.6,0.2,1.2-0.2,1.4-0.8l1.6-5.3l2.8,3.9c0.4,0.5,1,0.6,1.5,0.2c0.5-0.4,0.8-1.1,0.4-1.6
	l-3.8-5.3l1.5-4.7l4.9,6.8c0.4,0.5,1,0.6,1.5,0.2c0.5-0.4,0.8-1.1,0.4-1.6l-6-8.2l2.7-8.6c0.1-0.2,1.7-0.2,2.5-0.7l6,6.6l-2,10
	c-0.1,0.6,0.3,1.2,0.9,1.3s1.2-0.3,1.3-0.9l1.7-8.4l0.4,0.4L40,41l-1.3,6.5c-0.1,0.6,0.3,1.2,0.9,1.3c0.6,0.1,1.2-0.3,1.4-0.9l1-4.8
	l3.7,4.1c0.4,0.5,1.2,0.5,1.6,0.1C47.7,46.8,47.8,46,47.3,45.6z"/>
<polygon class="st2" points="1291.7,36.9 1290.4,46.2 1283.9,39.6 1274.7,41.2 1278.9,32.9 1274.5,24.7 1283.7,26.2 1290.1,19.5 
	1291.6,28.7 1300,32.7 "/>
<path class="st2" d="M601.6,9.3L591,4.4L590.1,0l7.5,3.4c0.5,0.2,1,0.1,1.4-0.2c0.4-0.3,0.5-0.9,0.4-1.4l-1.1-3.3h-2.8l0.4,1.3
	l-2.8-1.3h-7.3l-3.7,4.1l-0.4-4.1h-2.7l0.7,7.3c0,0.5,0.4,1,0.9,1.1c0.5,0.2,1,0,1.4-0.4l5.4-5.9l0.9,4.2l-7.9,8.6
	c-0.5,0.5-0.4,1.4,0.1,1.9c0.5,0.5,1.4,0.5,1.9-0.1l6.6-7.2l1.1,5.5l-5.1,5.6c-0.5,0.5-0.4,1.4,0.1,1.9c0.5,0.5,1.4,0.5,1.9-0.1
	l3.8-4.2l1.3,6.2c0.1,0.7,0.9,1.2,1.6,1c0.7-0.1,1.2-0.9,1.1-1.6l-1.3-6.2l5.1,2.4c0.7,0.3,1.4,0,1.7-0.6c0.3-0.7,0.1-1.5-0.6-1.8
	l-6.8-3.2l-1.1-5.5l8.8,4.1c0.7,0.3,1.4,0,1.7-0.6C602.5,10.4,602.3,9.6,601.6,9.3z"/>
<path class="st3" d="M795.5,48.8c0.6,0.6,1.5,0.8,2.2,0.5l2.6,2.5l-4.9,0.9c-0.6,0.1-1,0.7-0.9,1.4c0.1,0.6,0.7,1.1,1.3,0.9l6.6-1.2
	l3,2.9l-7,1.2c-0.5,0.1-0.8,0.4-0.9,0.9c-0.1,0.4,0.1,0.9,0.4,1.2l5.6,4.3l-2,0.6l-2,0.6l-5.3-4.1c-0.5-0.4-1.2-0.3-1.6,0.2
	c-0.4,0.5-0.3,1.2,0.2,1.6l3.9,3l-3.5,1c-0.6-0.6-1.4-0.8-2.3-0.6c-1.2,0.4-1.9,1.7-1.6,2.9c0.4,1.2,1.7,1.9,2.9,1.6
	c0.8-0.2,1.4-0.9,1.6-1.7l3.5-1l-1.7,4.7c-0.2,0.6,0.1,1.3,0.7,1.5c0.6,0.2,1.3-0.1,1.5-0.7l2.3-6.3l3.4-1l0.7-0.2l-2.5,6.9
	c-0.2,0.4,0,0.9,0.3,1.2c0.3,0.3,0.8,0.4,1.3,0.2l6.3-2.6l-0.9,3.7l-6.1,2.6c-0.6,0.2-0.8,0.9-0.6,1.5c0.2,0.6,0.9,0.9,1.5,0.6
	l4.5-1.9l-0.9,3.6c-0.7,0.3-1.3,0.9-1.4,1.6c-0.3,1.3,0.5,2.5,1.7,2.8c1.3,0.3,2.5-0.5,2.8-1.7c0.2-0.9-0.1-1.7-0.7-2.3l0.9-3.5
	l3.2,3.8c0.4,0.5,1.2,0.6,1.7,0.1c0.5-0.4,0.5-1.2,0.1-1.6l-4.3-5.1l1-4.1l4.8,5.7c0.3,0.4,0.8,0.5,1.2,0.4c0.4-0.1,0.8-0.5,0.8-1
	l0.9-7l2.8,2.7l-0.9,6.6c-0.1,0.6,0.4,1.2,1,1.3c0.6,0.1,1.2-0.4,1.3-1l0.7-4.9l2.6,2.5c-0.2,0.8,0,1.6,0.6,2.2
	c0.9,0.9,2.4,0.9,3.3-0.1c0.9-0.9,0.9-2.4-0.1-3.3c-0.6-0.6-1.5-0.8-2.3-0.5l-2.6-2.5l4.9-0.9c0.6-0.1,1.1-0.7,0.9-1.4
	c-0.1-0.6-0.7-1.1-1.4-0.9l-6.6,1.2l-2.9-2.8l7.2-1.3c0.5-0.1,0.8-0.4,0.9-0.9c0.1-0.4-0.1-0.9-0.4-1.2l-5.8-4.5l3.8-1.1l5.3,4.1
	c0.5,0.4,1.2,0.3,1.6-0.2c0.4-0.5,0.3-1.2-0.2-1.6l-3.9-3l3.5-1c0.6,0.6,1.4,0.8,2.3,0.6c1.2-0.4,1.9-1.7,1.6-2.9
	c-0.4-1.2-1.7-1.9-2.9-1.6c-0.8,0.2-1.4,0.9-1.6,1.7l-3.5,1l1.7-4.7c0.2-0.6-0.1-1.3-0.7-1.5c-0.6-0.2-1.3,0.1-1.5,0.7l-2.3,6.3
	l-3.7,1.1l2.4-6.7c0.2-0.4,0-0.9-0.3-1.2c-0.3-0.3-0.8-0.4-1.3-0.2l-6.9,2.9l1-4.1l6.2-2.5c0.6-0.2,0.9-0.9,0.6-1.5
	c-0.2-0.6-0.9-0.9-1.5-0.6l-4.6,1.9l0.9-3.5c0.8-0.2,1.5-0.8,1.7-1.7c0.3-1.3-0.5-2.5-1.7-2.8c-1.3-0.3-2.5,0.5-2.8,1.7
	c-0.2,0.8,0,1.5,0.5,2.1l-0.9,3.6l-3.1-3.8c-0.4-0.5-1.1-0.5-1.6-0.1c-0.5,0.4-0.6,1.1-0.2,1.6l4.3,5.1l-0.9,3.7l-4.4-5.2
	c-0.3-0.4-0.8-0.5-1.2-0.4c-0.4,0.1-0.8,0.5-0.8,1l-1,7.3l-3.1-3l0.9-6.6c0.1-0.6-0.4-1.2-1-1.3c-0.6-0.1-1.2,0.4-1.3,1l-0.7,4.9
	l-2.6-2.5c0.2-0.8,0-1.6-0.6-2.2c-0.9-0.9-2.4-0.9-3.3,0.1C794.5,46.4,794.6,47.9,795.5,48.8z M801.5,59.8l6-1.1l3.6,3.4l-4.8,1.4
	L801.5,59.8z M807.2,65.8l4.5-1.3l-1,3.9l-0.3,1.1l-5.4,2.2L807.2,65.8z M812.9,69.7l0.2-0.7l1-4.1l3,2.9l0.8,0.8l-0.8,6.1
	L812.9,69.7z M819.4,66.8l-3.7-3.6l4-1.2l1-0.3l5.1,3.9L819.4,66.8z M820.1,59.6l-1.1,0.3l-4,1.2l1-4.1l0.2-0.7l6.1-2.5L820.1,59.6z
	 M813.9,55.3l-0.3,1.1l-1,4l-2.9-2.7l-0.5-0.5l0.8-6.3L813.9,55.3z"/>
<path class="st2" d="M640.3,138.3c-0.1-0.3,0-0.6,0.2-0.9l4.5-4l-2.4-5.5c-0.1-0.3-0.1-0.6,0.1-0.9c0.2-0.2,0.6-0.3,0.9-0.2l5.7,1.9
	l3.6-4.8c0.2-0.3,0.5-0.4,0.8-0.3c0.3,0.1,0.6,0.3,0.6,0.6l1.2,5.9l6,0.7c0.3,0,0.6,0.3,0.7,0.6s0,0.6-0.2,0.9l-4.5,4l2.4,5.5
	c0.1,0.3,0.1,0.6-0.1,0.9s-0.6,0.3-0.9,0.2l-5.7-1.9l-3.6,4.8c-0.2,0.3-0.5,0.4-0.8,0.3c-0.3-0.1-0.6-0.3-0.6-0.6l-1.2-5.9l-6-0.7
	C640.7,138.9,640.4,138.6,640.3,138.3z M646.8,133.5c0.1,0.3,0,0.6-0.2,0.9l-3.6,3.1l4.7,0.5c0.4,0,0.6,0.3,0.7,0.6l0.9,4.7l2.8-3.8
	c0.2-0.3,0.6-0.4,0.9-0.3l4.5,1.5l-1.9-4.4c-0.1-0.3-0.1-0.7,0.2-0.9l3.6-3.1l-4.7-0.5c-0.4,0-0.6-0.3-0.7-0.6l-0.9-4.7l-2.8,3.8
	c-0.2,0.3-0.6,0.4-0.9,0.3l-4.5-1.5L646.8,133.5C646.8,133.4,646.8,133.5,646.8,133.5z"/>
<path class="st1" d="M460.7,47l-5.5-0.8l2.6-2c0.5-0.4,0.6-1.1,0.2-1.7c-0.4-0.5-1.1-0.6-1.7-0.2l-4.5,3.4l-6.1-0.9l3.8-4.9l5.8-0.8
	c0.6-0.1,1.1-0.7,1-1.3c-0.1-0.6-0.7-1.1-1.3-1l-3.5,0.4l3.4-4.4c0.4-0.5,0.3-1.3-0.2-1.7c-0.5-0.4-1.3-0.3-1.7,0.2l-3.4,4.4
	l-0.4-3.3c-0.1-0.6-0.7-1.1-1.3-1c-0.6,0.1-1.1,0.7-1,1.3l0.6,5.7l-3.9,4.9l-2.3-5.7l2.4-5.5c0.3-0.6,0-1.3-0.6-1.6
	c-0.6-0.3-1.4,0.1-1.6,0.7l-1.5,3.3l-2.1-5.1c-0.2-0.6-0.8-0.9-1.4-0.7c-0.6,0.2-0.8,0.9-0.6,1.5l2.1,5.1l-3-1.3
	c-0.6-0.3-1.3,0-1.5,0.6c-0.3,0.6,0,1.3,0.6,1.6l5.2,2.2l2.3,5.6l-6-0.9l-3.5-4.6c-0.4-0.5-1.1-0.6-1.7-0.2
	c-0.5,0.4-0.6,1.1-0.2,1.6l2.1,2.7l-5.5-0.8c-0.6-0.1-1.2,0.4-1.3,1c-0.1,0.6,0.4,1.3,1,1.3l5.5,0.8l-2.7,2.1
	c-0.5,0.4-0.6,1.2-0.2,1.7c0.4,0.5,1.1,0.6,1.7,0.2l4.6-3.5l6.1,0.9l-3.8,4.9l-5.8,0.8c-0.6,0.1-1,0.7-1,1.4c0.1,0.6,0.6,1.1,1.3,1
	l3.4-0.5l-3.4,4.4c-0.4,0.5-0.3,1.3,0.2,1.7c0.5,0.4,1.3,0.3,1.7-0.2l3.4-4.4l0.5,3.3c0.1,0.6,0.7,1.1,1.4,1c0.6-0.1,1.1-0.7,1-1.3
	l-0.8-5.7l3.7-4.8l2.3,5.7l-2.2,5.4c-0.3,0.6,0.1,1.3,0.7,1.5c0.6,0.3,1.2,0,1.5-0.6l1.3-3.2l2.1,5.1c0.2,0.6,0.8,0.9,1.4,0.7
	c0.6-0.2,0.8-0.9,0.6-1.5l-2.1-5.1l3.2,1.2c0.6,0.3,1.4-0.1,1.6-0.7c0.3-0.6-0.2-1.2-0.8-1.5l-5.4-2.2l-2.3-5.7l6.3,0.8l3.6,4.7
	c0.4,0.5,1.2,0.6,1.7,0.2c0.5-0.4,0.6-1.1,0.3-1.7l-2.1-2.8l5.5,0.8c0.6,0.1,1.2-0.4,1.3-1C461.8,47.7,461.4,47.1,460.7,47z"/>
<polygon class="st0" points="868.8,52.5 859.2,60.5 858.7,48 848.1,41.4 859.8,37 862.9,24.9 870.6,34.7 883.1,33.9 876.1,44.3 
	880.8,55.9 "/>
<path class="st3" d="M644,50.6c-0.6-0.3-0.9-0.9-0.9-1.5l0.5-11.7l-11-4c-0.6-0.2-1-0.8-1-1.4c0-0.6,0.3-1.2,0.8-1.5l10.4-5.4
	l-2.1-11.5c-0.1-0.6,0.2-1.2,0.7-1.6c0.5-0.3,1.2-0.4,1.7,0l9.9,6.3l9-7.6c0.5-0.4,1.2-0.5,1.7-0.2c0.6,0.3,0.9,0.9,0.9,1.5
	l-0.5,11.7l11,4c0.6,0.2,1,0.8,1,1.4c0,0.6-0.3,1.2-0.8,1.5L664.9,36l2.1,11.5c0.1,0.6-0.2,1.2-0.7,1.6c-0.5,0.3-1.2,0.4-1.7,0
	l-9.9-6.3l-9,7.6C645.2,50.8,644.5,50.9,644,50.6z M645.9,34.9c0.6,0.3,0.9,0.9,0.9,1.5l-0.4,9.3l7.1-6c0.5-0.4,1.3-0.5,1.9-0.1
	l7.9,5l-1.6-9.2c-0.1-0.7,0.2-1.4,0.8-1.7l8.2-4.3l-8.7-3.2c-0.6-0.2-1.1-0.9-1-1.6l0.4-9.3l-7.1,6c-0.5,0.4-1.3,0.5-1.9,0.1l-7.9-5
	l1.6,9.2c0.1,0.7-0.2,1.4-0.8,1.7l-8.2,4.3l8.7,3.2C645.8,34.9,645.8,34.9,645.9,34.9z"/>
<path class="st3" d="M454,114.9c-0.4,0.1-0.9,0-1.1-0.4l-5.1-6.3l-7.6,3c-0.4,0.2-0.9,0.1-1.2-0.2c-0.3-0.3-0.4-0.8-0.3-1.2l2.9-7.6
	l-6.4-5.1c-0.3-0.3-0.5-0.7-0.4-1.1c0.1-0.4,0.5-0.7,0.9-0.8l8-1.3l1.2-8.1c0.1-0.4,0.4-0.8,0.8-0.9c0.4-0.1,0.9,0,1.1,0.4l5.1,6.3
	l7.6-3c0.4-0.2,0.9-0.1,1.2,0.2c0.3,0.3,0.4,0.8,0.3,1.2l-2.9,7.6l6.4,5.1c0.3,0.3,0.5,0.7,0.4,1.1c-0.1,0.4-0.5,0.7-0.9,0.8l-8,1.3
	l-1.2,8.1C454.8,114.4,454.5,114.8,454,114.9z M447.8,105.8c0.4-0.1,0.9,0,1.1,0.4l4.1,5l1-6.4c0.1-0.5,0.4-0.8,0.9-0.9l6.4-1
	l-5.1-4c-0.4-0.3-0.5-0.8-0.3-1.3l2.3-6l-6,2.4c-0.4,0.2-1,0-1.3-0.3l-4.1-5l-1,6.4c-0.1,0.5-0.4,0.8-0.9,0.9l-6.4,1l5.1,4
	c0.4,0.3,0.5,0.8,0.3,1.3l-2.3,6l6-2.4C447.7,105.8,447.8,105.8,447.8,105.8z"/>
<path class="st1" d="M323.7,27.6c0.1,2-1.4,3.8-3.4,3.9c-2,0.1-3.8-1.4-3.9-3.4c-0.1-2,1.4-3.8,3.4-3.9
	C321.8,24,323.5,25.5,323.7,27.6z"/>
<path class="st2" d="M1054.8,83.4c0.1,2-1.4,3.8-3.4,3.9c-2,0.1-3.8-1.4-3.9-3.4c-0.1-2,1.4-3.8,3.4-3.9
	C1052.9,79.8,1054.7,81.3,1054.8,83.4z"/>
<path class="st4" d="M1008.7,37.4c0.1,2-1.4,3.8-3.4,3.9c-2,0.1-3.8-1.4-3.9-3.4s1.4-3.8,3.4-3.9
	C1006.8,33.8,1008.6,35.3,1008.7,37.4z"/>
<path class="st4" d="M264.7,96.4c0.1,2-1.4,3.8-3.4,3.9c-2,0.1-3.8-1.4-3.9-3.4c-0.1-2,1.4-3.8,3.4-3.9
	C262.8,92.8,264.6,94.3,264.7,96.4z"/>
<path class="st1" d="M573.8,101.3c0.2,2-1.2,3.8-3.3,4.1c-2,0.2-3.8-1.2-4.1-3.3c-0.2-2,1.2-3.8,3.3-4.1
	C571.7,97.8,573.6,99.3,573.8,101.3z"/>
<path class="st0" d="M325.7,103.8c-0.3,0.2-0.7,0.1-1-0.1l-5.2-3.9l-5.3,3.7c-0.3,0.2-0.7,0.2-1,0c-0.3-0.2-0.5-0.5-0.4-0.9l0.8-6.4
	l-5.9-2.7c-0.3-0.1-0.5-0.5-0.5-0.8c0-0.3,0.2-0.7,0.5-0.8l6-2.5l-0.6-6.5c0-0.3,0.1-0.7,0.5-0.8c0.3-0.2,0.7-0.1,1,0.1l5.2,3.9
	l5.3-3.7c0.3-0.2,0.7-0.2,1,0c0.3,0.2,0.5,0.5,0.4,0.9l-0.8,6.4l5.9,2.7c0.3,0.1,0.5,0.5,0.5,0.8c0,0.3-0.2,0.7-0.5,0.8l-6,2.5
	l0.6,6.5C326.2,103.3,326,103.6,325.7,103.8z M319.2,97.9c0.3-0.2,0.7-0.1,1,0.1l4.1,3.1l-0.5-5.1c0-0.4,0.2-0.7,0.5-0.9l4.8-2
	l-4.7-2.2c-0.3-0.2-0.5-0.5-0.5-0.9l0.7-5.1l-4.2,3c-0.3,0.2-0.7,0.2-1,0l-4.1-3.1l0.5,5.1c0,0.4-0.2,0.7-0.5,0.9l-4.8,2l4.7,2.2
	c0.3,0.2,0.5,0.5,0.5,0.9l-0.7,5.1L319.2,97.9C319.2,98,319.2,98,319.2,97.9z"/>
<path class="st1" d="M605.8,55.4c0.1,2-1.4,3.8-3.4,3.9c-2,0.1-3.8-1.4-3.9-3.4c-0.1-2,1.4-3.8,3.4-3.9
	C603.9,51.8,605.6,53.4,605.8,55.4z"/>
<path class="st5" d="M151.7,2.1c-0.4,0.2-0.7,0.5-0.7,1l-1.8,0.7l0.6-2.5c0.1-0.3-0.1-0.7-0.4-0.7c-0.3-0.1-0.7,0.1-0.7,0.4
	l-0.8,3.4l-1.9,0.8l0.9-3.6c0.1-0.2,0-0.5-0.2-0.6c-0.2-0.1-0.4-0.2-0.7-0.1l-3.4,1.9l0.3-2.2l3.1-1.6c0.1-0.1,0.2-0.2,0.2-0.3h-2.3
	L143-1l0.1-0.4h-1.3l0,0.2l-0.2-0.2h-1.7l1.8,1.7l-0.3,2l-2.5-2.5c-0.2-0.2-0.4-0.2-0.7-0.1c-0.2,0.1-0.4,0.3-0.4,0.5L137.6,4
	l-1.8-1.4l0.1-3.5c0-0.3-0.3-0.6-0.6-0.6c-0.3,0-0.6,0.2-0.6,0.6l-0.1,2.6l-1.5-1.2c0.1-0.4-0.1-0.9-0.5-1.1
	c-0.5-0.4-1.3-0.3-1.7,0.2c-0.4,0.5-0.3,1.3,0.2,1.7c0.4,0.3,0.8,0.3,1.2,0.2l1.5,1.2l-2.5,0.7c-0.3,0.1-0.5,0.4-0.4,0.7
	s0.4,0.5,0.7,0.4l3.3-1l1.7,1.3l-3.5,1c-0.2,0.1-0.4,0.3-0.4,0.5c0,0.2,0.1,0.5,0.3,0.6l3.1,1.9l-1,0.4l-1,0.4l-3-1.8
	c-0.3-0.2-0.7-0.1-0.8,0.2c-0.2,0.3-0.1,0.7,0.2,0.8l2.2,1.4l-1.8,0.7c-0.3-0.3-0.8-0.3-1.2-0.2c-0.6,0.3-0.9,1-0.7,1.6
	c0.3,0.6,1,0.9,1.6,0.7c0.4-0.2,0.7-0.5,0.7-0.9l1.8-0.7l-0.6,2.5c-0.1,0.3,0.1,0.7,0.4,0.7s0.7-0.1,0.7-0.4l0.8-3.4l1.7-0.7
	l0.4-0.1l-0.9,3.7c-0.1,0.2,0,0.5,0.2,0.6c0.2,0.1,0.4,0.2,0.7,0.1l3.1-1.7l-0.3,2l-3,1.7c-0.3,0.2-0.4,0.5-0.2,0.8
	c0.2,0.3,0.5,0.4,0.8,0.2l2.2-1.2l-0.3,1.9c-0.3,0.2-0.6,0.5-0.7,0.9c-0.1,0.7,0.4,1.3,1,1.4c0.7,0.1,1.3-0.4,1.4-1
	c0.1-0.5-0.1-0.9-0.5-1.1l0.3-1.9l1.9,1.8c0.2,0.2,0.6,0.2,0.9,0c0.2-0.2,0.2-0.6,0-0.9l-2.5-2.4l0.3-2.2l2.8,2.7
	c0.2,0.2,0.4,0.2,0.7,0.1c0.2-0.1,0.4-0.3,0.4-0.5l0.1-3.7l1.6,1.2l-0.1,3.5c0,0.3,0.3,0.6,0.6,0.6c0.3,0,0.6-0.2,0.6-0.6l0.1-2.6
	l1.5,1.2c-0.1,0.4,0.1,0.8,0.5,1.1c0.5,0.4,1.3,0.3,1.7-0.2c0.4-0.5,0.3-1.3-0.2-1.7c-0.4-0.3-0.8-0.3-1.2-0.2l-1.5-1.2l2.5-0.7
	c0.3-0.1,0.5-0.4,0.4-0.8c-0.1-0.3-0.4-0.5-0.8-0.4l-3.3,1l-1.6-1.3l3.7-1c0.2-0.1,0.4-0.3,0.4-0.5c0-0.2-0.1-0.5-0.3-0.6l-3.2-2
	l1.9-0.8l3,1.8c0.3,0.2,0.7,0.1,0.8-0.2c0.2-0.3,0.1-0.7-0.2-0.8l-2.2-1.4l1.8-0.7c0.3,0.3,0.8,0.3,1.2,0.2c0.6-0.3,0.9-1,0.7-1.6
	S152.3,1.8,151.7,2.1z M134.9,6.8l3.1-0.9l2,1.6l-2.4,1L134.9,6.8z M140.1,10.7l-0.1,0.6l-2.7,1.4l0.8-3.2l2.2-0.9L140.1,10.7z
	 M141,4.4l-0.3,2.1l-1.6-1.3L138.8,5l0.1-3.3l2.2,2.1L141,4.4z M142.3,4.5l0.1-0.4l3-1.6l-0.8,3.1L144,5.9l-2,0.8L142.3,4.5z
	 M143.8,13.7l-2.5-2.4l0.1-0.4l0.3-2.2l1.7,1.3l0.5,0.4L143.8,13.7z M147.8,8.5l-3.2,0.9l-2.1-1.6l2-0.8l0.5-0.2L147.8,8.5z"/>
<path class="st3" d="M16.4,134.8c-0.5-0.1-0.9-0.6-1-1.1l-1.5-9.9l-9.8-1.6c-0.5-0.1-1-0.5-1.1-1c-0.1-0.5,0-1.1,0.5-1.4l7.8-6.2
	l-3.5-9.3c-0.2-0.5-0.1-1.1,0.3-1.4c0.4-0.4,0.9-0.5,1.4-0.3l9.3,3.7l6.3-7.7c0.3-0.4,0.9-0.6,1.4-0.4c0.5,0.1,0.9,0.6,1,1.1
	l1.5,9.9l9.9,1.6c0.5,0.1,1,0.5,1.1,1c0.1,0.5,0,1.1-0.5,1.4l-7.8,6.2l3.5,9.3c0.2,0.5,0.1,1.1-0.3,1.4c-0.4,0.4-0.9,0.5-1.4,0.3
	l-9.3-3.7l-6.3,7.7C17.4,134.8,16.9,134.9,16.4,134.8z M15.5,121.4c0.5,0.1,0.9,0.6,1,1.1l1.2,7.8l5-6.1c0.4-0.5,1-0.6,1.5-0.4
	l7.4,2.9l-2.8-7.4c-0.2-0.5,0-1.2,0.4-1.5l6.2-4.9l-7.8-1.3c-0.6-0.1-1-0.6-1.1-1.1l-1.2-7.8l-5,6.1c-0.4,0.5-1,0.6-1.5,0.4
	l-7.4-2.9l2.8,7.4c0.2,0.5,0,1.2-0.4,1.5l-6.2,4.9l7.8,1.3C15.4,121.3,15.4,121.3,15.5,121.4z"/>
<g>
	<g>
		<path class="st3" d="M910.3-1.4h-2.7l10,27.9c0.7,2-0.3,4.1-2.3,4.8c-2,0.7-4.1-0.3-4.8-2.3L899.7-1.4h-2.7l11.2,31.2
			c1.2,3.2,4.7,4.9,8,3.8c3.2-1.2,4.9-4.7,3.8-8L910.3-1.4z"/>
	</g>
	<polygon class="st3" points="902.1,1.7 904.1,7 909.5,7.4 907.6,2.1 	"/>
	<polygon class="st3" points="905.6,11.2 907.5,16.5 913,17 911.1,11.7 	"/>
	<polygon class="st3" points="908.9,20.4 910.8,25.7 916.3,26.2 914.4,20.9 	"/>
</g>
<g>
	<polygon class="st3" points="693.7,130.4 693.8,130.8 693.9,131 694,131.3 694,131.4 698,144.1 711.2,139.9 712.2,139.6 
		707.8,125.9 	"/>
	<polygon class="st3" points="724.6,121.6 724.7,121.6 724.5,121.1 724.5,121.1 724.4,120.7 710.5,125.1 714.8,138.8 715.4,138.6 
		715.4,138.6 715.8,138.5 728.7,134.4 724.7,121.7 	"/>
	<path class="st3" d="M689.9,118.5l2.5,8l0.2,0.5l0.2,0.8l14.1-4.5l-3.4-10.8c-0.2-0.7,0.2-1.5,0.9-1.7l0,0c0.7-0.2,1.5,0.2,1.7,0.9
		l3.4,10.8l13.9-4.4l-0.2-0.8l-0.2-0.5l-2.7-8.7l0,0l-0.1-0.3l1-0.3l-1.3-4.1l-1,0.3l-11.9,3.8c0,0,0,0,0,0c4-2.9,12.1-4.5,8.3-9.3
		c-0.9-1.1-3-2-5.5-1.2c-1.5,0.5-3.1,1.5-4.6,3.5c-1.9,2.4-1.9,5.1-1.6,7.2c-1.1-2.5-2.7-5.8-6.8-7.2c-2.2-0.8-4.2-0.7-5.9-0.2
		c-3.8,1.2-5.9,4.9-5.4,7.8c1.3,7.3,9.4,0.1,15.1,1.5c0,0,0,0.1,0,0.1l-12.2,3.9l-1,0.3l1.3,4.1l1-0.3L689.9,118.5z M706.5,102.7
		c1.5-1.9,2.6-2.7,3.5-3c0.9-0.3,1.5-0.1,2,0.2c0,0,0.1,0,0.1,0.1c2.3,2.3-4.9,3.9-7.3,7.4c-0.1,0-0.1,0-0.2,0
		C704.9,105.8,705.2,104.3,706.5,102.7z M689.6,106.2c0,0,0.6-2.6,2.9-3.4c1-0.3,2.5-0.3,4.3,0.5c2.9,1.3,4.5,3,5.7,4.8c0,0,0,0,0,0
		c-0.1,0-0.2,0.1-0.2,0.1C697.3,105,689.5,111.7,689.6,106.2z"/>
</g>
<g>
	<path class="st3" d="M519.9,0.3l-19.6,1.1c-0.3,0-0.5-0.1-0.7-0.3l-2-2.5h-3.9l3.4,4.4c0.8,1,2,1.6,3.3,1.5l14.9-0.8L507,16
		c-0.7,1-0.9,2.4-0.4,3.6l5.4,13.9l-14.3-4.2c-0.6-0.2-1.2-0.2-1.8-0.1c-0.6,0.1-1.2,0.4-1.7,0.8l-11.6,9.4l-0.4-14.9
		c0-1.3-0.7-2.4-1.8-3.1l-12.5-8.1l14.1-5c1.2-0.4,2.1-1.4,2.4-2.6l1.9-7h-3.2l-1.7,6.3c-0.1,0.2-0.2,0.4-0.5,0.5L462.3,12
		c-0.6,0.2-0.7,1-0.2,1.4L478.6,24c0.2,0.1,0.3,0.4,0.4,0.6l0.6,19.6c0,0.6,0.8,1,1.3,0.6L496,32.4c0.2-0.2,0.5-0.2,0.7-0.1
		l18.8,5.5c0.6,0.2,1.2-0.4,0.9-1l-7.1-18.3c-0.1-0.2-0.1-0.5,0.1-0.7l11.1-16.2C520.9,1,520.5,0.3,519.9,0.3z"/>
	<path class="st3" d="M509.3,7.1l-8.7,0.5c-2.3,0.1-4.5-0.9-5.9-2.7l-4.9-6.3h-0.6l-2.1,7.8c-0.6,2.2-2.2,4-4.4,4.8l-8.2,2.9
		l7.3,4.7c1.9,1.2,3.1,3.3,3.2,5.6l0.3,8.7l6.7-5.5c0.9-0.7,1.9-1.2,3-1.4c1.1-0.2,2.3-0.2,3.3,0.1l8.3,2.4l-3.1-8.1
		c-0.8-2.1-0.6-4.5,0.7-6.4L509.3,7.1z"/>
</g>
<g>
	<path class="st2" d="M782.3,12.2c0,0-2.6-0.7-5.7-1.8c0,0.1,0,0.1-0.1,0.2c-0.9,3.2,1,6.5,4.1,7.4c3.2,0.9,6.5-1,7.4-4.1
		c0-0.1,0-0.1,0-0.2C784.9,12.9,782.3,12.2,782.3,12.2z"/>
	<path class="st2" d="M801.6-1.4h-38.9C762.5,2.2,783.5,8,783.5,8s25.9,7.3,22.5,1.2C803.7,5.2,802.3,1.7,801.6-1.4z"/>
</g>
<g>
	<path class="st2" d="M259.8,50.9c-0.8-0.6-1.7-1.6-2.6-2.7c1.2,0.2,2.3-0.6,0.6-2c-0.8-0.7-1.8-1.9-2.8-3.1
		c0.8,0.1,1.5-0.5,0.3-1.6c-1.9-1.8-4.9-7-4.9-7c-0.4-0.9-1.5-0.6-1.7,0.2c0,0-1.8,6.1-3.1,8c-0.7,1.1-0.1,1.6,0.6,1.5
		c-0.7,1.5-1.3,2.9-1.9,3.7c-1.1,1.5,0.1,2.1,1.2,1.8c-0.6,1.3-1.3,2.5-1.9,3.2c-2.2,2.7,2.7,2.9,3.1,0.5c-0.4,2.6,2.6,2,2.8-0.6
		c-0.3,3.4,2.7,2.4,2.3-0.6c0.4,3,3.5,3,2.5-0.2c0.8,2.7,3.9,2.5,2.8-0.2C258.1,54.1,262.9,53.4,259.8,50.9z"/>
	<path class="st2" d="M251.9,52.9c0.2,1.6-0.6,2.6-1.3,2.7c0,1.1,0.1,2.2,0.5,2.2c0.4,0.1,1.5,0,2.3-0.3c0.6-0.2,0.5-1.3,0.2-2.4
		C252.9,55.1,252.1,54.4,251.9,52.9z"/>
</g>
<g>
	<path class="st0" d="M389.5,94.4c0,0-2.6-0.5-5.8-1.3c0,0.1,0,0.1,0,0.2c-0.6,3.2,1.5,6.4,4.8,7c3.2,0.6,6.4-1.5,7-4.8
		c0-0.1,0-0.1,0-0.2C392.1,94.9,389.5,94.4,389.5,94.4z"/>
	<path class="st0" d="M412.8,89.4c-11.7-17.2-4.4-26.1-6-31.7c-1-3.4-4.1-5.2-6.4-6.1l0.4-2.3c0.3-1.5-0.7-3-2.3-3.3
		c-1.5-0.3-3,0.7-3.3,2.3l-0.4,2.3c-2.5,0-6,0.5-8.2,3.3c-3.5,4.6,0.1,15.6-17.1,27.4c-5.8,3.9,20.7,8.9,20.7,8.9
		S416.7,95.2,412.8,89.4z"/>
</g>
<g>
	<path class="st4" d="M101,66.2c0,0-2.3,0.8-5.2,1.7c0,0,0,0.1,0,0.1c1,2.9,4.2,4.3,7.1,3.3c2.9-1,4.3-4.2,3.3-7.1
		c0,0,0-0.1-0.1-0.1C103.3,65.4,101,66.2,101,66.2z"/>
	<path class="st4" d="M117,51.4c-17.4-8.1-15.7-18.5-19.6-22.2c-2.4-2.3-5.7-2.2-7.9-1.8l-0.8-2.1c-0.5-1.3-2-2-3.3-1.5
		c-1.3,0.5-2,2-1.5,3.3l0.8,2.1c-2,1.1-4.5,3.2-4.9,6.5c-0.6,5.3,7.4,12.3-0.7,29.7c-2.7,5.8,20.5-2.7,20.5-2.7S122.9,54.1,117,51.4
		z"/>
</g>
<g>
	<g>
		<path class="st4" d="M616.7,93c3.1,1,5.3,2.9,6.5,5.6c2.4,5.3-0.4,11.7-0.8,12.4c-0.8,1.7-2.8,2.6-4.5,2c-0.1,0-0.3-0.1-0.4-0.2
			c-1.9-0.9-2.8-2.9-1.9-4.7c0.6-1.3,1.5-4.5,0.7-6.3c-0.2-0.5-0.6-1-1.9-1.4c-1-0.3-2.5-0.6-3.5-0.1c-0.9,0.5-1.3,1.5-1.4,1.7
			l0,0.1l0,0l-11.2,34.8c-0.6,2-2.7,3.1-4.7,2.4c-2-0.6-3.1-2.7-2.4-4.7l11.2-35c0.2-0.8,1.4-4.2,4.9-6.1
			C609.1,92.4,612.2,91.5,616.7,93 M617.4,90.6c-5.3-1.7-9.1-0.6-11.4,0.7c-4.3,2.3-5.8,6.4-6.1,7.6l-11.2,34.9
			c-1.1,3.3,0.8,6.8,4,7.9c3.3,1.1,6.8-0.8,7.9-4l11.1-34.6c0-0.1,0.1-0.2,0.1-0.3c0-0.1,0.1-0.2,0.1-0.2c0.2,0,0.7,0,1.6,0.3
			c0.2,0.1,0.3,0.1,0.4,0.2c0.2,0.7-0.1,2.8-0.7,4.1c-0.7,1.5-0.7,3.2-0.1,4.7c0.6,1.4,1.8,2.6,3.2,3.3c0.2,0.1,0.5,0.2,0.7,0.3
			c3,1,6.3-0.5,7.6-3.3c0.6-1.3,3.5-8.3,0.8-14.5C623.9,94.2,621.2,91.8,617.4,90.6L617.4,90.6z"/>
	</g>
	<path class="st4" d="M617.7,104.8c-0.2,1.5-0.7,2.9-1,3.6l5.4-0.3c0.4-1.2,0.7-2.7,0.7-4.4L617.7,104.8z"/>
	<path class="st4" d="M622,98.9c-0.5-1.2-1.3-2.2-2.2-3l-3.5,3.9c0.5,0.4,0.8,0.8,1,1.3c0.3,0.7,0.4,1.4,0.4,2.2l4.5-3.8
		C622.2,99.4,622.1,99.1,622,98.9z"/>
	<path class="st4" d="M614.4,98.9l-0.5-5.5c-1.8-0.3-3.3-0.1-4.5,0.3l1.2,5.1C611.7,98.5,612.9,98.5,614.4,98.9z"/>
	<path class="st4" d="M608.2,101.5C608.2,101.5,608.2,101.4,608.2,101.5l-3.9-3.6c-0.5,0.9-0.8,1.7-0.9,1.9l-1.1,3.3l4.1,3.7
		L608.2,101.5C608.2,101.5,608.2,101.5,608.2,101.5z"/>
	<polygon class="st4" points="601,107.7 599.2,113.1 603.3,116.8 605,111.4 	"/>
	<polygon class="st4" points="597.9,117.4 596.1,122.8 600.2,126.5 601.9,121.1 	"/>
	<polygon class="st4" points="594.9,126.7 593.2,132.1 597.2,135.8 598.9,130.4 	"/>
</g>
<path class="st4" d="M561.7,58.5c-1.2,0.3-2.4,0.9-2.7,0.7c-0.3-0.2-0.2-0.8-0.2-0.8c0.3-2.1-1-7-4.1-9.3c-3.1-2.3-3.4-2.8-3.5-3.4
	c-0.1-0.6,1-1.1,1.7-1.5c0.7-0.4,0.7-1.3,0.6-1.5c0-0.2,0-0.4,0.2-0.9c0.1-0.5-1.1-0.3-1.7-0.2c-0.6,0.1-1.2,0.2-1.8,0
	c-0.5-0.2-1.9-0.4-2.5-0.3c-0.6,0.1-1.2-0.1-1.8-0.6c-0.6-0.5-0.1-1.5,0.1-2c0.2-0.6,0.6-1,1-1.2c0.4-0.2,1-0.6,0-1.3
	c-1-0.7-1.9,0.5-2.1,0.9c-0.2,0.5-0.5,2-0.6,2.4c-0.2,0.4-0.3-0.5-0.3-1.1c-0.1-0.6,0.1-1,0.3-1.6c0.2-0.5,0.4-1.8-0.7-1.8
	c-1.1,0-0.8,2-0.6,2.6c0.2,0.6,0.1,1.1-0.2,0.9c-0.3-0.2-1.6-1.8-1.6-1.8c-0.4-0.8-0.6-2.1-0.6-2.1c0-0.6-0.3-1.6,0.4-1.6
	c0.6,0,0.6-0.8,0.5-1.4c-0.1-0.5-1.1-0.8-1.8,0.5c-0.7,1.4-0.3,3.4,0.1,4.3c0.4,0.9-0.2,0.8-0.7,0.4c-0.5-0.4-1.1-1.8-1.3-2.6
	c-0.2-0.8,0-1.5,0-1.5c0.1-0.7,0-0.9-0.5-1.2c-0.2-0.1-1-0.2-1,1c-0.1,1.2,0.9,3.4,1.3,4.5c0.4,1.1-0.5,0.5-1.5-0.1
	c-1-0.6-0.9-0.8-1-1.3c-0.1-0.4-0.9-2.1-1.1-2.6c-0.2-0.5,0.1-0.7,0.1-1.4c0-0.8-1.4-0.8-1.5,0.4c-0.1,1.2,0.8,2.9,1.5,4.1
	c0.7,1.2,0.3,0.8-0.4,0.6c-0.7-0.2-2-1.6-2.3-2.4c-0.4-0.8-0.5-2.1-0.7-2.9c-0.2-0.8-1-0.7-1.3,0c-0.2,0.8,0.4,2.4,1.4,4.1
	c1,1.7,1.6,2.1,3.5,2.9c1.8,0.9,0.9,0.9-0.5,1.3c-1.4,0.4-1.8-0.1-2.2-0.6c-0.4-0.4-1.5,0.3-1,1.3c0.5,1,2.3,0.7,2.9,0.6
	c0.7-0.1,0.4,0.6,0.7,1.2c0.3,0.6,1.1,1.1,2.5,1.6s1.6,1.1,0.6,1.7c-0.9,0.6-2.1,0.3-2.8,0.1c-0.8-0.2-0.7-0.6-0.8-1.3
	c-0.1-0.7-1-1.5-1.7-0.6c-0.7,0.9,0.2,1.8,1,2.2c0.8,0.3,1.8,1.1,1.1,1.5c-0.7,0.5-1.5,0.3-2.4,0.1c-0.9-0.3-1-0.6-1.1-1.1
	c-0.1-0.5-0.5-0.8-1.1-0.7c-0.6,0.1-1,0.9-0.7,1.5c0.3,0.6,1.6,1.7,3.6,2c2,0.3,3.2-0.4,3.8-1.1c0.5-0.7,1.3-1.1,1.7-0.8
	c0.3,0.3,0.1,0.8-1,1.1c-1,0.3-0.4,2.2,0.9,1.9c1.3-0.3,2.4-4.1,2.5-4.8c0.1-0.7,0.7-1.7,1.9-2.4c1.2-0.7,1.9,0,1.9,0
	c1,0.9-0.9,1.1-0.7,1.8c0.2,0.6,1,0.2,1.3,0.7c0.3,0.4-0.4,1.2,0.1,1.5c0.5,0.3,1-0.4,1.1-0.7c0.1-0.4,0.5-0.5,0.8-0.1
	c0.3,0.3,1.6,2.9,2.6,4.7c1,1.9,1.5,5.1,0.4,5.9c-1.1,0.8-2.7,0.8-4.9-0.2c-2.2-1-5.5-1.2-5.5-1.2c-1.1-1.8-3.1-1.7-2.9,0
	c0.3,1.7,1.3,2.4,1.3,2.4s0,1.2-0.8,2.7c-0.8,1.5-2.7,2.1-3.7,2.4c-1,0.3-2.6,1.7-3.7,2.8c-1.1,1.1-3.3,2.6-5,3.9
	c-1.8,1.2-1.5,2.8-1,3c0.5,0.2,1.2,0,1.6-0.6c0.5-0.5,1.5-1.3,1.9-1.7c0.4-0.4,2.4-2.2,3.3-3c0.9-0.8,1.2-0.9,1.5-0.8
	c0.3,0.2-0.1,0.8-1.8,2.5c-1.7,1.7-2.1,2-2.6,1.8c-0.5-0.2-1.6,2-1.3,2.9c0.3,0.9,1.2,0.5,2.3-0.4c1.1-0.9,4-4.6,5.7-6.4
	c1.6-1.7,1.6-1.4,4-1.5c2.4-0.2,3.1-0.9,4-1.6c0.9-0.8,3.4,0.2,5,1c1.6,0.8,3,0.6,3.9,0.1c0.9-0.5,2.1-0.4,4.2,0
	c2.1,0.4,3.9-1.6,4.4-2c0.5-0.4,0.4,0.4-0.2,1.1c-0.6,0.7-1.4,0.4-2,1.1c-0.7,0.7-0.4,2.7,0.4,2.7c0.8,0,2-2.1,2.5-2.7
	c0.4-0.5,0,0.5-0.4,1.7c-0.4,1.2-0.3,1.8,0.2,2c0.5,0.2,1-0.8,1.4-1.7c0.4-1,2.2-5,2.8-7C564.9,58.4,562.9,58.2,561.7,58.5z
	 M538.7,43.3c-1.4,0.1-1.9-0.5-2.5-1c-0.6-0.5-1.3-1.2-0.4-1.4c0,0,0.5-0.2,0.9-0.6c0.3-0.4,1-0.5,1,0.1c0.1,0.6,0.2,1.1,1,1.3
	c0.8,0.2,1.3,0.3,1.4,0.7C540.2,42.8,540.1,43.2,538.7,43.3z M542.6,41.4c-0.8,0-1.8-0.3-1.8-0.3s-1.3-0.3-1.2-1.2
	c0.1-0.9,0.3-1,1.3-0.5c1,0.6,1.2,0.6,1.9,0.9C543.3,40.7,543.8,41.4,542.6,41.4z"/>
<path class="st4" d="M971.8,57.3l-0.1-2.4c0-0.5-0.6-0.8-1.3-0.9l0-0.3c0-0.4-0.3-0.6-0.7-0.6l-0.3,0c-0.1-1.4-0.4-3.9-1.4-4.8
	c-0.6-0.5-1.4-0.5-1.9,0.1c-0.9,1-1,3.5-0.9,4.9l-0.3,0c-0.4,0-0.6,0.3-0.6,0.7l0,0.3c-0.7,0.1-1.2,0.5-1.2,1l0.1,2.4
	c-6.6,2.2-11.2,8.6-10.9,15.8c0.4,8.8,7.8,15.6,16.6,15.2c8.8-0.4,15.6-7.8,15.2-16.6C983.7,64.8,978.6,58.9,971.8,57.3z
	 M966.6,48.9c0.3-0.3,0.6-0.3,0.9,0c0.7,0.7,1.1,2.9,1.2,4.3l-2.8,0.1C965.9,51.9,966,49.7,966.6,48.9z M965.3,79.6l-3.7-2.3l-4,1.8
	l1-4.2l-2.9-3.2l4.3-0.4l2.2-3.8l1.7,4l4.2,0.9l-3.3,2.8L965.3,79.6z M967.8,65l-1.4,1.1l0-1.8l-1.5-1l1.7-0.5l0.5-1.7l1,1.5l1.8,0
	l-1.1,1.4l0.6,1.7L967.8,65z M974.1,82.3l-0.2,2l-1.5-1.4l-2,0.5l0.8-1.9l-1-1.7l2,0.2l1.3-1.5l0.4,2l1.9,0.8L974.1,82.3z
	 M978.4,74.2l-2.9-1.3l-2.8,1.6l0.4-3.2l-2.4-2.1l3.1-0.6l1.3-2.9l1.6,2.8l3.2,0.3l-2.2,2.3L978.4,74.2z"/>
<path class="st4" d="M1043.6,8.6c-1.2-1.7-3.1-3.8-4.3-4.3c-1.3-0.5-3.6-1.8-4.4-3.8c-0.3-0.7-0.4-1.3-0.5-1.9h-34.8
	c0.6,2.6,1.4,5.3,1.7,6.2c0.4,1.4,0.8,2.7,1.5,2.5c0.7-0.1,1-1,0.7-2.6c-0.3-1.6-0.7-3-0.2-2.3c0.5,0.8,1.7,3.8,2.7,4
	c1.1,0.2,1.8-2.4,1-3.5c-0.7-1.1-1.8-0.8-2.4-1.9c-0.7-1.1-0.7-2.1-0.1-1.5c0.6,0.6,2.7,3.5,5.5,3.4c2.8-0.1,4.4,0,5.5,0.8
	c1.1,0.8,2.9,1.4,5.2,0.6c2.2-0.8,5.8-1.6,6.8-0.4c1,1.2,1.7,2.2,4.9,2.9c3.2,0.7,3.2,0.2,5,2.7c1.8,2.6,5,8,6.3,9.4
	c1.3,1.4,2.5,2.1,3,1c0.5-1.2-0.5-4.2-1.1-4.1c-0.7,0.1-1.2-0.3-3.1-2.9c-1.9-2.6-2.4-3.5-1.9-3.6c0.4-0.2,0.8,0.1,1.8,1.3
	c1,1.2,3.4,3.9,3.8,4.5c0.5,0.6,1.6,1.7,2.1,2.5c0.5,0.8,1.3,1.3,2,1.1c0.8-0.2,1.4-2.2-0.7-4.1C1047.4,12.6,1044.8,10.3,1043.6,8.6
	z"/>
<path class="st2" d="M977.5,5.7L974,5.3l2.2-2.4c0.3-0.3,0.3-0.8-0.1-1.1c-0.3-0.3-0.8-0.3-1.1,0.1l-2.9,3.2L969,4.8l3.7-4.1
	c0.3-0.3,0.3-0.8-0.1-1.1c-0.3-0.3-0.8-0.3-1.1,0.1l-4.5,4.9L961.3,4c0-0.3-0.1-0.6-0.2-0.9c-0.1-0.3-0.3-0.5-0.4-0.7l2.8-3.8h-1.9
	l-2.3,3c-0.5-0.2-1.1-0.3-1.8-0.2l-1.3-2.9h-1.6l1.5,3.4c0.1,0.1-0.8,0.8-1,1.4l-5.7-0.7L947-1.4h-1.7l2.3,3.9l-0.4,0l-2.8-0.3
	l-2.1-3.6H941c-0.1,0.2-0.1,0.4,0,0.6l1.6,2.8l-3.6-0.4c-0.4,0-0.8,0.3-0.8,0.7c0,0.4,0.3,0.8,0.7,0.8l3.6,0.4l-2.2,2.4
	c-0.3,0.3-0.3,0.8,0.1,1c0.3,0.3,0.8,0.3,1.1,0l2.9-3.2l3.1,0.3l-3.7,4.1c-0.3,0.3-0.3,0.8,0.1,1c0.3,0.3,0.8,0.3,1.1,0l4.5-4.9
	l5.8,0.6c0,0.3,0.1,0.6,0.2,0.8c0.1,0.3,0.3,0.6,0.5,0.8l-3.5,4.7l-6.6,0c-0.4,0-0.7,0.3-0.7,0.8c0,0.4,0.3,0.7,0.7,0.7l5.5,0
	l-1.9,2.6l-4.3,0c-0.4,0-0.7,0.3-0.7,0.8c0,0.4,0.3,0.7,0.7,0.7l3.2,0l-2.1,2.9c-0.2,0.3-0.2,0.8,0.2,1c0.3,0.2,0.8,0.2,1-0.2
	l2.1-2.9l1,3c0.1,0.4,0.5,0.6,0.9,0.5c0.4-0.1,0.6-0.5,0.5-0.9l-1.3-4.1l1.9-2.6l1.7,5.3c0.1,0.4,0.5,0.6,0.9,0.5s0.6-0.5,0.5-0.9
	l-2-6.3l3.4-4.7c0.5,0.2,1.6,0.1,1.6,0.2l2.4,5.4l-3.2,5.7c-0.2,0.4,0,0.8,0.3,1c0.4,0.2,0.7,0.1,0.9-0.2l2.7-4.8l1.3,2.9l-2,3.7
	c-0.2,0.4,0,0.8,0.3,1c0.4,0.2,0.7,0.1,0.9-0.2l1.5-2.7l1.4,3.3c0.2,0.4,0.6,0.6,1,0.4c0.4-0.2,0.5-0.6,0.4-1l-1.4-3.3l3.2,0.6
	c0.4,0.1,0.9-0.2,0.9-0.6c0.1-0.4-0.3-0.8-0.7-0.9l-4.3-0.9L963,14l5.5,1.1c0.4,0.1,0.9-0.2,0.9-0.6c0.1-0.4-0.3-0.8-0.7-0.9
	l-6.6-1.4l-2.4-5.4c0.6-0.4,0.9-0.9,1.1-1.4l6,0.6l3.3,5.7c0.2,0.4,0.7,0.5,1,0.2c0.4-0.2,0.5-0.7,0.3-1l-2.8-4.8l1,0.1l2.1,0.2
	l2.1,3.7c0.2,0.4,0.7,0.5,1,0.3c0.4-0.2,0.5-0.6,0.3-1l-1.6-2.8l3.6,0.4c0.4,0,0.8-0.3,0.8-0.7S977.9,5.8,977.5,5.7z"/>
<path class="st1" d="M938.5,58.2c0.3,1.7-0.9,3.3-2.6,3.6c-1.7,0.3-3.3-0.9-3.6-2.6c-0.3-1.7,0.9-3.3,2.6-3.6
	C936.6,55.4,938.2,56.5,938.5,58.2z"/>
<path class="st1" d="M654.2,78.1c0.2,1.3-0.7,2.5-2,2.8s-2.5-0.7-2.8-2c-0.2-1.3,0.7-2.5,2-2.8C652.7,75.9,653.9,76.8,654.2,78.1z"
	/>
<path class="st2" d="M704.9,60.7l-1.8-1.1l1.8-0.7c0.2-0.1,0.3-0.4,0.2-0.6c-0.1-0.2-0.4-0.3-0.6-0.3l-2.4,1l-0.8-0.5l-0.8-0.5
	l3.1-1.3c0.2-0.1,0.3-0.4,0.2-0.6c-0.1-0.2-0.4-0.3-0.6-0.3l-3.7,1.5l-1.3-0.8l2.5-1c0.2-0.1,0.3-0.2,0.3-0.4s-0.1-0.3-0.3-0.4
	l-2.5-1.2l1.4-0.7l3.6,1.7c0.2,0.1,0.5,0,0.6-0.2c0.1-0.2,0-0.5-0.2-0.6l-3-1.4l0.2-0.1l1.5-0.8l2.3,1.1c0.2,0.1,0.5,0,0.6-0.2
	c0.1-0.2,0-0.5-0.2-0.6l-1.7-0.8l1.9-1c0.2-0.1,0.3-0.4,0.2-0.6c-0.1-0.2-0.4-0.3-0.6-0.2l-1.9,1l0.3-1.9c0-0.2-0.1-0.5-0.4-0.5
	c-0.2,0-0.5,0.1-0.5,0.4l-0.4,2.6l-1.7,0.9l0.5-3.3c0-0.2-0.1-0.5-0.4-0.5c-0.2,0-0.5,0.1-0.5,0.4l-0.5,4l-1.4,0.8l0.4-2.8
	c0-0.2-0.1-0.4-0.2-0.4c-0.2-0.1-0.3-0.1-0.5,0l-2.2,1.5l0-1.5l3.3-2.3c0.2-0.1,0.3-0.4,0.1-0.6c-0.1-0.2-0.4-0.3-0.6-0.1l-2.8,1.9
	l0.1-1.9l2.1-1.5c0.2-0.1,0.3-0.4,0.1-0.6c-0.1-0.2-0.4-0.3-0.6-0.1l-1.6,1.1l0.1-2.2c0-0.2-0.2-0.5-0.5-0.5c-0.2,0-0.5,0.2-0.5,0.4
	l-0.1,2.2l-1.5-1.2c-0.2-0.2-0.5-0.1-0.6,0.1c-0.2,0.2-0.1,0.5,0.1,0.6l2,1.6l-0.1,1.9l-2.6-2c-0.2-0.2-0.5-0.1-0.6,0.1
	s-0.1,0.5,0.1,0.6l3.1,2.4l0,1.5l-2.2-1.7c-0.1-0.1-0.3-0.1-0.5,0c-0.2,0.1-0.3,0.3-0.2,0.4l0.2,2.7l-1.2-0.7l-0.3-4
	c0-0.2-0.2-0.4-0.5-0.4c-0.2,0-0.4,0.2-0.4,0.5l0.3,3.3l-0.5-0.3l-1.1-0.7l-0.2-2.6c0-0.2-0.2-0.4-0.5-0.4c-0.2,0-0.4,0.2-0.4,0.5
	l0.2,1.9l-1.8-1.1c-0.2-0.1-0.5-0.1-0.6,0.1c-0.1,0.2-0.1,0.5,0.1,0.6l1.8,1.1l-1.8,0.7c-0.2,0.1-0.3,0.4-0.2,0.6
	c0.1,0.2,0.4,0.3,0.6,0.2l2.4-1l1.6,1l-3.1,1.3c-0.2,0.1-0.3,0.4-0.2,0.6c0.1,0.2,0.4,0.3,0.6,0.2l3.7-1.5l1.3,0.8l-2.6,1.1
	c-0.2,0.1-0.3,0.2-0.3,0.4c0,0.2,0.1,0.3,0.3,0.4l2.6,1.2l-1.3,0.7l-3.6-1.7c-0.2-0.1-0.5,0-0.6,0.2c-0.1,0.2,0,0.5,0.2,0.6l3,1.4
	l-0.2,0.1l-1.5,0.8l-2.3-1.1c-0.2-0.1-0.5,0-0.6,0.2c-0.1,0.2,0,0.5,0.2,0.6l1.7,0.8l-1.9,1c-0.2,0.1-0.3,0.4-0.2,0.6
	c0.1,0.2,0.4,0.3,0.6,0.2l1.9-1l-0.3,1.9c0,0.2,0.1,0.5,0.4,0.5c0.2,0,0.5-0.1,0.5-0.4l0.3-2.6l1.7-0.9l-0.4,3.3
	c0,0.2,0.1,0.5,0.4,0.5c0.2,0,0.5-0.1,0.5-0.4l0.5-4l1.3-0.7l-0.4,2.7c0,0.2,0.1,0.4,0.2,0.4c0.2,0.1,0.3,0.1,0.5,0l2.3-1.6l0,1.5
	l-3.3,2.3c-0.2,0.1-0.2,0.4-0.1,0.6c0.1,0.2,0.4,0.3,0.6,0.1l2.7-1.9l-0.1,1.9l-2.1,1.5c-0.2,0.1-0.2,0.4-0.1,0.6
	c0.1,0.2,0.4,0.3,0.6,0.1l1.6-1.1l-0.1,2.2c0,0.2,0.2,0.5,0.5,0.5c0.2,0,0.5-0.2,0.5-0.4l0.1-2.2l1.5,1.2c0.2,0.2,0.5,0.1,0.6-0.1
	c0.2-0.2,0.1-0.5-0.1-0.6l-2.1-1.6l0.1-1.9l2.6,2c0.2,0.2,0.5,0.1,0.6-0.1c0.2-0.2,0.1-0.5-0.1-0.6l-3.2-2.4l0-1.5l2.1,1.7
	c0.1,0.1,0.3,0.1,0.5,0c0.2-0.1,0.3-0.3,0.2-0.4l-0.2-2.8l1.4,0.8l0.3,4c0,0.2,0.2,0.4,0.5,0.4c0.2,0,0.4-0.2,0.4-0.5l-0.3-3.3
	l1.6,1l0.2,2.6c0,0.2,0.2,0.4,0.5,0.4c0.2,0,0.4-0.2,0.4-0.5l-0.1-1.9l1.8,1.1c0.2,0.1,0.5,0.1,0.6-0.1
	C705.2,61.1,705.1,60.8,704.9,60.7z M699.5,55.1l-2.2,0.9l-1.3-0.8l0,0l-0.3-0.2l0.3-0.2l0,0l1.4-0.7L699.5,55.1z M697.2,50.8
	l-0.3,2.4l-1.3,0.7h0l-0.3,0.2l0-0.4l0-1.7L697.2,50.8z M692.4,50.7l1.9,1.5l0,1.6l0,0.3l-1.7-1L692.4,50.7z M689.8,54.8l2.3-0.9
	l1.4,0.9l0,0l0.3,0.2l-1.8,0.9L689.8,54.8z M692.1,59l0.3-2.4l1.7-0.9l0,0.3l0,1.6L692.1,59z M696.9,59.2l-1.9-1.4l0-1.7l0-0.4
	l1.6,1L696.9,59.2z"/>
<path class="st3" d="M343.2,26.7c0.4,0.3,0.8,0.3,1.2,0.2l1.5,1.2l-2.5,0.7c-0.3,0.1-0.5,0.4-0.4,0.7c0.1,0.3,0.4,0.5,0.7,0.4l3.3-1
	l1.7,1.3l-3.5,1c-0.2,0.1-0.4,0.3-0.4,0.5c0,0.2,0.1,0.5,0.3,0.6l3.1,1.9l-1,0.4l-1,0.4l-3-1.8c-0.3-0.2-0.7-0.1-0.8,0.2
	c-0.2,0.3-0.1,0.7,0.2,0.8l2.2,1.4l-1.8,0.7c-0.3-0.3-0.8-0.3-1.2-0.2c-0.6,0.3-0.9,1-0.7,1.6c0.3,0.6,1,0.9,1.6,0.7
	c0.4-0.2,0.7-0.5,0.7-0.9l1.8-0.7l-0.6,2.5c-0.1,0.3,0.1,0.7,0.4,0.7c0.3,0.1,0.7-0.1,0.7-0.4l0.8-3.4l1.7-0.7l0.4-0.1l-0.9,3.7
	c-0.1,0.2,0,0.5,0.2,0.6c0.2,0.1,0.4,0.2,0.7,0.1l3.1-1.7l-0.3,2l-3,1.6c-0.3,0.2-0.4,0.5-0.2,0.8c0.2,0.3,0.5,0.4,0.8,0.2l2.2-1.2
	l-0.3,1.9c-0.3,0.2-0.6,0.5-0.7,0.9c-0.1,0.7,0.4,1.3,1,1.4c0.7,0.1,1.3-0.4,1.4-1c0.1-0.5-0.1-0.9-0.5-1.1l0.3-1.9l1.9,1.8
	c0.2,0.2,0.6,0.2,0.9,0c0.2-0.2,0.2-0.6,0-0.9l-2.5-2.4l0.3-2.2l2.8,2.7c0.2,0.2,0.4,0.2,0.7,0.1c0.2-0.1,0.4-0.3,0.4-0.5l0.1-3.7
	l1.6,1.2l-0.1,3.5c0,0.3,0.3,0.6,0.6,0.6c0.3,0,0.6-0.2,0.6-0.6l0.1-2.6l1.5,1.2c-0.1,0.4,0.1,0.8,0.5,1.1c0.5,0.4,1.3,0.3,1.7-0.2
	c0.4-0.5,0.3-1.3-0.2-1.7c-0.4-0.3-0.8-0.3-1.2-0.2l-1.5-1.2l2.5-0.7c0.3-0.1,0.5-0.4,0.4-0.8c-0.1-0.3-0.4-0.5-0.8-0.4l-3.3,1
	l-1.6-1.3l3.7-1c0.2-0.1,0.4-0.3,0.4-0.5c0-0.2-0.1-0.5-0.3-0.6l-3.2-2l1.9-0.8l3,1.8c0.3,0.2,0.7,0.1,0.8-0.2
	c0.2-0.3,0.1-0.7-0.2-0.8l-2.2-1.4l1.8-0.7c0.3,0.3,0.8,0.3,1.2,0.2c0.6-0.3,0.9-1,0.7-1.6c-0.3-0.6-1-0.9-1.6-0.7
	c-0.4,0.2-0.7,0.5-0.7,1l-1.8,0.7l0.6-2.5c0.1-0.3-0.1-0.7-0.4-0.7c-0.3-0.1-0.7,0.1-0.7,0.4l-0.8,3.4l-1.9,0.8l0.9-3.6
	c0.1-0.2,0-0.5-0.2-0.6c-0.2-0.1-0.5-0.2-0.7-0.1l-3.4,1.9l0.3-2.2l3.1-1.6c0.3-0.2,0.4-0.5,0.3-0.8c-0.2-0.3-0.5-0.4-0.8-0.2
	l-2.3,1.2l0.3-1.9c0.4-0.2,0.7-0.5,0.8-1c0.1-0.7-0.4-1.3-1-1.4c-0.7-0.1-1.3,0.4-1.4,1c-0.1,0.4,0.1,0.8,0.4,1.1l-0.3,1.9l-1.8-1.8
	c-0.2-0.2-0.6-0.2-0.8,0c-0.2,0.2-0.3,0.6,0,0.9l2.5,2.4l-0.3,2l-2.5-2.5c-0.2-0.2-0.4-0.2-0.7-0.1c-0.2,0.1-0.4,0.3-0.4,0.5
	l-0.1,3.8l-1.8-1.4l0.1-3.5c0-0.3-0.3-0.6-0.6-0.6c-0.3,0-0.6,0.2-0.6,0.6l-0.1,2.6l-1.5-1.2c0.1-0.4-0.1-0.9-0.5-1.1
	c-0.5-0.4-1.3-0.3-1.7,0.2C342.6,25.5,342.6,26.2,343.2,26.7z M346.9,32.1l3.1-0.9l2,1.6l-2.4,1L346.9,32.1z M350.1,34.8l2.2-0.9
	l-0.3,2.1l-0.1,0.6l-2.7,1.4L350.1,34.8z M353.3,36.6l0.1-0.4l0.3-2.2l1.7,1.3l0.5,0.4l-0.1,3.2L353.3,36.6z M356.5,34.7l-2.1-1.6
	l2-0.8l0.5-0.2l2.8,1.7L356.5,34.7z M356.5,30.9l-0.5,0.2l-2,0.8l0.3-2.2l0.1-0.4l3-1.6L356.5,30.9z M353.1,29.1l-0.1,0.6l-0.3,2.1
	l-1.6-1.3l-0.3-0.2l0.1-3.3L353.1,29.1z"/>
<polygon class="st2" points="499.2,62.6 500.5,59 502.5,62.2 506.4,62.4 503.9,65.3 505,69 501.4,67.6 498.2,69.7 498.5,65.9 
	495.5,63.5 "/>
<path class="st4" d="M299.8,7.6c-0.6-0.1-1.1,0.1-1.5,0.5l-2.4-0.5l2.5-2.3c0.3-0.3,0.4-0.8,0.1-1.1c-0.3-0.3-0.8-0.4-1.1-0.1
	l-3.4,3l-2.4-0.5L291,6.5l3.7-3.3c0.2-0.2,0.3-0.5,0.2-0.8c-0.1-0.3-0.4-0.5-0.7-0.5l-4.6-0.5l1.7-1.9l4.5,0.4
	c0.4,0,0.8-0.3,0.8-0.7c0-0.2,0-0.4-0.2-0.6H290l-1.7,1.9l-0.4-1.9h-1.6l0.7,3.4l-0.3,0.4l-1.9,2.1l-0.9-2.7l-0.2-0.7l1.7-2.4h-2
	L283-0.9l-0.2-0.5h-1.7l0.4,1.1l-3.3-1.1h-2.4c-0.1,0.2-0.1,0.4,0,0.6l2,4.5l-2.7-0.6L273.4-1c-0.2-0.4-0.6-0.6-1-0.4
	c-0.4,0.2-0.6,0.6-0.4,1l1.4,3.1l-2.4-0.5c-0.2-0.5-0.6-0.9-1.2-1.1c-0.9-0.2-1.7,0.4-1.9,1.2s0.4,1.7,1.2,1.9
	c0.6,0.1,1.1-0.1,1.5-0.5l2.4,0.5l-2.5,2.3c-0.3,0.3-0.4,0.8-0.1,1.1c0.3,0.3,0.8,0.4,1.1,0.1l3.4-3l2.6,0.5l-3.6,3.2
	c-0.2,0.2-0.3,0.5-0.2,0.8c0.1,0.3,0.4,0.5,0.7,0.5l5.1,0.5l-1.9,2.2l-4.5-0.5c-0.4,0-0.8,0.3-0.9,0.7c0,0.4,0.3,0.8,0.7,0.9
	l3.4,0.4l-1.6,1.8c-0.5-0.1-1.1,0-1.6,0.5c-0.6,0.7-0.5,1.7,0.1,2.2c0.7,0.6,1.7,0.5,2.2-0.1c0.4-0.4,0.5-0.9,0.4-1.4l1.7-1.9
	l0.7,3.3c0.1,0.4,0.5,0.7,0.9,0.6c0.4-0.1,0.7-0.5,0.6-0.9l-0.9-4.4l1.7-1.9l0.9,4.5c0.1,0.3,0.3,0.5,0.6,0.6
	c0.3,0.1,0.6-0.1,0.8-0.3l2.9-4l0.9,2.8l-2.7,3.7c-0.3,0.4-0.2,0.8,0.2,1.1c0.4,0.3,0.8,0.2,1.1-0.2l2-2.7l0.8,2.4
	c-0.4,0.4-0.5,1-0.3,1.6c0.3,0.8,1.2,1.3,2,1c0.8-0.3,1.3-1.2,1-2c-0.2-0.6-0.6-0.9-1.2-1.1l-0.8-2.4l3.2,1.1c0.4,0.1,0.9-0.1,1-0.5
	c0.1-0.4-0.1-0.9-0.5-1l-4.3-1.4l-0.9-2.7l4.6,1.5c0.3,0.1,0.6,0,0.8-0.2c0.2-0.2,0.3-0.6,0.1-0.9l-2-4.4l1.4,0.3l1.4,0.3l1.9,4.2
	c0.2,0.4,0.6,0.6,1,0.4c0.4-0.2,0.6-0.6,0.4-1l-1.4-3.1l2.4,0.5c0.2,0.5,0.6,0.9,1.2,1.1c0.9,0.2,1.7-0.4,1.9-1.2
	C301.2,8.6,300.6,7.8,299.8,7.6z M282.1,1.5l1.1,3.3l-2.8-0.6l-0.7-0.1l-1.8-4L282.1,1.5z M281,8.5l-0.3,0.4l-4.4-0.5l3.1-2.8
	l0.8,0.2l2.8,0.6L281,8.5z M282.5,14.1l-0.8-3.9l0.5-0.6l1.9-2.1l0.8,2.6l0.1,0.4L282.5,14.1z M286.6,10.2l-1-3.2l3.3,0.7l1.7,3.8
	L286.6,10.2z M289.1,6.1L286,5.4l1.8-2.1l0.5-0.6l4,0.4L289.1,6.1z"/>
<path class="st3" d="M294.3,53.8c-0.2-2,1.3-3.8,3.4-4c2-0.2,3.8,1.3,4,3.4c0.2,2-1.3,3.8-3.4,4C296.2,57.3,294.5,55.8,294.3,53.8z"
	/>
<path class="st2" d="M514.2,116.8l-2.8-1.7l2.7-1.2c0.3-0.2,0.5-0.5,0.4-0.9c-0.2-0.3-0.5-0.5-0.9-0.4l-3.6,1.6l-1.2-0.7l-1.3-0.8
	l4.6-2c0.3-0.2,0.5-0.5,0.4-0.9c-0.2-0.3-0.5-0.5-0.9-0.4l-5.6,2.4l-2-1.2l3.8-1.6c0.2-0.1,0.4-0.4,0.4-0.6c0-0.3-0.2-0.5-0.4-0.6
	l-3.8-1.7l2-1.2l5.5,2.5c0.3,0.2,0.7,0,0.9-0.3c0.2-0.3,0-0.7-0.3-0.9l-4.6-2.1l0.3-0.2l2.2-1.3l3.6,1.6c0.3,0.2,0.7,0,0.9-0.3
	c0.2-0.3,0-0.7-0.3-0.9l-2.7-1.2l2.8-1.6c0.3-0.2,0.4-0.6,0.3-0.9c-0.2-0.3-0.6-0.4-0.9-0.3l-2.8,1.6l0.3-2.9c0-0.4-0.2-0.7-0.6-0.8
	c-0.4,0-0.7,0.2-0.8,0.6l-0.5,3.9l-2.5,1.4l0.6-5c0-0.4-0.2-0.7-0.6-0.8c-0.4,0-0.7,0.2-0.8,0.6l-0.7,6l-2.1,1.2l0.5-4.3
	c0-0.3-0.1-0.5-0.3-0.7c-0.2-0.1-0.5-0.1-0.7,0l-3.4,2.4l0-2.2l4.9-3.5c0.3-0.2,0.4-0.6,0.2-1c-0.2-0.3-0.6-0.4-0.9-0.2l-4.1,2.9
	l0-2.9l3.2-2.3c0.3-0.2,0.4-0.6,0.2-1c-0.2-0.3-0.6-0.4-0.9-0.2l-2.4,1.7l0-3.3c0-0.4-0.3-0.7-0.7-0.7s-0.7,0.3-0.7,0.7l0,3.3
	l-2.3-1.7c-0.3-0.2-0.7-0.2-0.9,0.1c-0.2,0.3-0.2,0.7,0.1,1l3.1,2.3l0,2.9l-4-3c-0.3-0.2-0.7-0.2-0.9,0.1c-0.2,0.3-0.2,0.7,0.1,1
	l4.9,3.6l0,2.3l-3.4-2.5c-0.2-0.2-0.5-0.2-0.7,0c-0.2,0.1-0.4,0.4-0.3,0.7l0.4,4.1l-1.9-1.1l-0.6-6c0-0.4-0.4-0.6-0.8-0.6
	c-0.4,0-0.6,0.4-0.6,0.7l0.5,5l-0.8-0.5l-1.7-1l-0.4-3.9c0-0.4-0.4-0.6-0.8-0.6c-0.4,0-0.6,0.4-0.6,0.7l0.3,2.9l-2.8-1.7
	c-0.3-0.2-0.7-0.1-0.9,0.2c-0.2,0.3-0.1,0.7,0.2,0.9l2.8,1.7l-2.7,1.2c-0.3,0.2-0.5,0.6-0.4,0.9c0.2,0.3,0.6,0.5,0.9,0.4l3.6-1.6
	l2.5,1.5l-4.7,2c-0.3,0.2-0.5,0.6-0.4,0.9c0.2,0.3,0.6,0.5,0.9,0.4l5.6-2.4l1.9,1.1l-4,1.7c-0.2,0.1-0.4,0.4-0.4,0.6
	c0,0.3,0.2,0.5,0.4,0.6l3.9,1.8l-1.9,1.1l-5.5-2.5c-0.3-0.2-0.7,0-0.9,0.4c-0.2,0.3,0,0.7,0.3,0.9l4.6,2.1l-0.3,0.2l-2.2,1.3
	l-3.6-1.6c-0.3-0.2-0.7,0-0.9,0.4c-0.2,0.3,0,0.7,0.3,0.9l2.7,1.2l-2.8,1.6c-0.3,0.2-0.4,0.6-0.3,0.9c0.2,0.3,0.6,0.4,0.9,0.3
	l2.8-1.6L486,119c0,0.4,0.2,0.7,0.6,0.8c0.4,0,0.7-0.2,0.8-0.6l0.4-3.9l2.5-1.4l-0.6,5c0,0.4,0.2,0.7,0.6,0.8c0.4,0,0.7-0.2,0.8-0.6
	l0.7-6l1.9-1.1l-0.5,4.1c0,0.3,0.1,0.5,0.3,0.7c0.2,0.1,0.5,0.1,0.7,0l3.5-2.5l0,2.3l-4.9,3.5c-0.3,0.2-0.3,0.6-0.1,1
	c0.2,0.3,0.6,0.4,0.9,0.2l4.1-2.9l0,2.9l-3.2,2.3c-0.3,0.2-0.3,0.6-0.1,1c0.2,0.3,0.6,0.4,0.9,0.2l2.3-1.7l0,3.3
	c0,0.4,0.3,0.7,0.7,0.7c0.4,0,0.7-0.3,0.7-0.7l0-3.3l2.4,1.7c0.3,0.2,0.7,0.2,1-0.1c0.2-0.3,0.2-0.7-0.1-1l-3.2-2.3l0-2.9l4.1,3
	c0.3,0.2,0.7,0.2,1-0.1c0.2-0.3,0.2-0.7-0.1-1l-4.9-3.6l0-2.2l3.3,2.5c0.2,0.2,0.5,0.2,0.7,0c0.2-0.1,0.4-0.4,0.3-0.7l-0.4-4.3
	l2.1,1.2l0.6,6c0,0.4,0.4,0.6,0.8,0.6c0.4,0,0.7-0.4,0.6-0.7l-0.5-5l2.5,1.5l0.4,3.9c0,0.4,0.4,0.6,0.8,0.6c0.4,0,0.7-0.4,0.6-0.7
	l-0.3-2.9l2.8,1.7c0.3,0.2,0.7,0.1,0.9-0.2C514.6,117.4,514.5,117,514.2,116.8z M505.8,108.5l-3.3,1.4l-2.1-1.2l0,0l-0.5-0.3
	l0.4-0.3v0l2.1-1.2L505.8,108.5z M502.2,102.1l-0.4,3.7l-2,1.1h0l-0.5,0.3l0-0.5l0-2.5L502.2,102.1z M494.9,102l3,2.2l0,2.4l0,0.5
	l-2.6-1.5L494.9,102z M491.1,108.3l3.5-1.5l2.1,1.3l0,0l0.5,0.3l-2.6,1.5L491.1,108.3z M494.7,114.7l0.4-3.6l2.6-1.5l0,0.5l0,2.4
	L494.7,114.7z M502.1,114.8l-2.9-2.1l0-2.5l0-0.5l2.5,1.5L502.1,114.8z"/>
<polygon class="st3" points="531.1,137.8 528.7,141.9 526.9,137.5 522.2,136.4 525.9,133.3 525.4,128.6 529.5,131.1 533.9,129.2 
	532.7,133.9 535.9,137.5 "/>
<polygon class="st2" points="747.1,61 754,54.2 755.3,63.8 763.9,68.2 755.1,72.4 753.6,81.9 746.9,74.9 737.3,76.4 742,67.9 
	737.6,59.2 "/>
<path class="st1" d="M829.5,117.4c0.1,2-1.4,3.8-3.4,3.9c-2,0.1-3.8-1.4-3.9-3.4c-0.1-2,1.4-3.8,3.4-3.9
	C827.6,113.8,829.3,115.3,829.5,117.4z"/>
<path class="st1" d="M212.5,84.4c0.1,2-1.4,3.8-3.4,3.9c-2,0.1-3.8-1.4-3.9-3.4c-0.1-2,1.4-3.8,3.4-3.9
	C210.6,80.8,212.3,82.3,212.5,84.4z"/>
<path class="st2" d="M884,81.5l3.3,2.7l-3.7,1c-0.5,0.1-0.8,0.6-0.6,1.1c0.1,0.5,0.6,0.8,1.1,0.6l4.9-1.3l1.4,1.2l1.5,1.2l-6.4,1.7
	c-0.5,0.1-0.8,0.6-0.6,1.1c0.1,0.5,0.6,0.8,1.1,0.6l7.6-2.1l2.4,1.9l-5.2,1.4c-0.3,0.1-0.6,0.4-0.7,0.7c-0.1,0.4,0.1,0.7,0.4,0.9
	l4.6,2.9l-2.9,1.1l-6.7-4.3c-0.4-0.3-1-0.1-1.2,0.3c-0.3,0.4-0.1,1,0.3,1.2l5.6,3.6l-0.4,0.2l-3.1,1.2l-4.3-2.8
	c-0.4-0.3-1-0.1-1.2,0.3c-0.3,0.4-0.1,1,0.3,1.2l3.2,2.1l-4,1.5c-0.5,0.2-0.7,0.7-0.5,1.2c0.2,0.5,0.7,0.7,1.2,0.5l4-1.5l-1,3.7
	c-0.1,0.5,0.2,1,0.6,1.1c0.5,0.1,1-0.1,1.1-0.6l1.3-5l3.5-1.4l-1.7,6.4c-0.1,0.5,0.2,1,0.6,1.1c0.5,0.1,1-0.1,1.1-0.6l2-7.7l2.9-1.1
	l-1.4,5.4c-0.1,0.3,0,0.7,0.3,0.9c0.3,0.2,0.7,0.3,1,0.1l4.8-2.5l-0.4,2.9l-7,3.6c-0.4,0.2-0.6,0.8-0.4,1.2s0.8,0.6,1.2,0.4l5.9-3
	l-0.6,3.7l-4.6,2.4c-0.4,0.2-0.6,0.8-0.4,1.2c0.2,0.4,0.8,0.6,1.2,0.4l3.4-1.8l-0.7,4.2c-0.1,0.5,0.3,1,0.8,1c0.5,0.1,1-0.3,1.1-0.7
	l0.7-4.2l2.7,2.7c0.4,0.3,0.9,0.3,1.2,0c0.3-0.4,0.4-0.9,0-1.3l-3.6-3.6l0.6-3.7l4.7,4.7c0.4,0.3,0.9,0.3,1.2,0
	c0.3-0.4,0.4-0.9,0-1.3l-5.6-5.6l0.5-3l3.9,3.9c0.3,0.2,0.6,0.3,1,0.2c0.3-0.1,0.6-0.4,0.6-0.8l0.2-5.4l2.2,1.8l-0.4,7.9
	c0,0.5,0.4,0.9,0.9,0.9c0.5,0,0.9-0.3,0.9-0.8l0.3-6.6l1,0.8l2,1.6l-0.2,5.1c0,0.5,0.4,0.9,0.9,0.9c0.5,0,0.9-0.3,0.9-0.8l0.2-3.8
	l3.3,2.7c0.4,0.3,0.9,0.2,1.3-0.1c0.3-0.4,0.2-0.9-0.1-1.3l-3.3-2.7l3.7-1c0.5-0.1,0.8-0.6,0.6-1.1c-0.1-0.5-0.6-0.8-1.1-0.6l-5,1.4
	l-3-2.4l6.4-1.7c0.5-0.1,0.8-0.6,0.6-1.1c-0.1-0.5-0.6-0.8-1.1-0.6l-7.7,2.1l-2.3-1.8l5.4-1.5c0.3-0.1,0.6-0.4,0.7-0.7
	c0.1-0.4-0.1-0.7-0.4-0.9l-4.7-3l2.7-1.1l6.7,4.3c0.4,0.3,1,0.1,1.2-0.3c0.3-0.4,0.2-1-0.3-1.2l-5.6-3.6l0.4-0.2l3.1-1.2l4.3,2.8
	c0.4,0.3,1,0.1,1.2-0.3c0.3-0.4,0.2-1-0.3-1.2l-3.2-2l4-1.5c0.5-0.2,0.7-0.7,0.5-1.2c-0.2-0.5-0.7-0.7-1.2-0.5l-4,1.5l1-3.7
	c0.1-0.5-0.2-1-0.6-1.1c-0.5-0.1-1,0.2-1.1,0.6l-1.3,5l-3.5,1.4l1.7-6.4c0.1-0.5-0.2-1-0.6-1.1c-0.5-0.1-1,0.2-1.1,0.6l-2,7.7
	l-2.6,1l1.4-5.3c0.1-0.3,0-0.7-0.3-0.9c-0.3-0.2-0.7-0.3-1-0.1l-4.9,2.6l0.5-3l7-3.6c0.4-0.2,0.6-0.8,0.3-1.2
	c-0.2-0.4-0.7-0.6-1.2-0.4l-5.8,3l0.6-3.7l4.5-2.4c0.4-0.2,0.6-0.8,0.3-1.2c-0.2-0.4-0.7-0.6-1.2-0.4l-3.3,1.8l0.7-4.2
	c0.1-0.5-0.3-1-0.8-1c-0.5-0.1-1,0.3-1.1,0.7l-0.7,4.2l-2.7-2.7c-0.4-0.3-0.9-0.3-1.3,0c-0.3,0.4-0.3,0.9,0,1.3l3.6,3.6l-0.6,3.7
	l-4.7-4.7c-0.4-0.3-0.9-0.3-1.3,0c-0.3,0.4-0.3,0.9,0,1.3l5.6,5.6l-0.4,2.9l-3.8-3.8c-0.3-0.3-0.6-0.3-1-0.2
	c-0.3,0.1-0.6,0.4-0.6,0.8l-0.3,5.6l-2.5-2l0.4-7.9c0-0.5-0.4-0.9-0.9-0.9c-0.5,0-0.9,0.4-0.9,0.8l-0.3,6.6l-3-2.4l0.2-5.1
	c0-0.5-0.4-0.9-0.9-0.9c-0.5,0-0.9,0.4-0.9,0.8l-0.2,3.8l-3.3-2.7c-0.4-0.3-0.9-0.2-1.3,0.1C883.5,80.6,883.6,81.2,884,81.5z
	 M893.3,93.8l4.5-1.2l2.4,2l0,0l0.5,0.4l-0.6,0.2v0l-2.9,1.1L893.3,93.8z M896.7,102.7L898,98l2.8-1.1l0,0l0.7-0.3l-0.1,0.7
	l-0.5,3.2L896.7,102.7z M906.2,104.2l-3.4-3.4l0.5-3.1l0.1-0.6l3.1,2.5L906.2,104.2z M912.1,96.7l-4.7,1.3l-2.5-2l0,0l-0.5-0.4
	l3.7-1.4L912.1,96.7z M908.7,87.8l-1.2,4.6l-3.7,1.4l0.1-0.6l0.5-3.1L908.7,87.8z M899.2,86.4l3.3,3.3l-0.5,3.2l-0.1,0.7l-2.9-2.3
	L899.2,86.4z"/>
<path class="st3" d="M179.2,31.5c0.6,0.2,1.3,0.1,1.7-0.4l2.7,0.9l-3.1,2.2c-0.4,0.3-0.5,0.8-0.2,1.2c0.3,0.4,0.8,0.5,1.2,0.2l4.2-3
	l3,1l-4.4,3.1c-0.3,0.2-0.4,0.6-0.4,0.9c0.1,0.3,0.3,0.6,0.7,0.7l5.3,1.2l-1.2,1.1l-1.2,1.1l-5-1.1c-0.5-0.1-1,0.2-1.1,0.7
	c-0.1,0.5,0.2,1,0.7,1.1l3.7,0.8l-2.1,1.9c-0.6-0.2-1.3-0.1-1.8,0.3c-0.7,0.7-0.8,1.8-0.2,2.5c0.7,0.7,1.8,0.8,2.5,0.2
	c0.5-0.4,0.7-1.1,0.6-1.7l2.1-1.9l0.4,3.8c0,0.5,0.5,0.8,1,0.8c0.5,0,0.9-0.5,0.8-1l-0.5-5.1l2.1-1.8l0.4-0.4l0.5,5.6
	c0,0.4,0.3,0.7,0.6,0.8c0.3,0.1,0.7,0,0.9-0.2l3.5-3.9l0.6,2.9l-3.4,3.8c-0.3,0.4-0.3,0.9,0.1,1.3c0.4,0.3,0.9,0.3,1.2,0l2.5-2.8
	l0.6,2.8c-0.4,0.4-0.6,1-0.5,1.6c0.2,1,1.1,1.6,2.1,1.4c1-0.2,1.6-1.1,1.4-2.1c-0.1-0.7-0.6-1.2-1.2-1.3l-0.6-2.7l3.5,1.6
	c0.5,0.2,1,0,1.2-0.4c0.2-0.5,0-1-0.5-1.2l-4.7-2.1l-0.7-3.2l5.2,2.4c0.3,0.1,0.7,0.1,1-0.1c0.3-0.2,0.4-0.6,0.3-0.9l-1.7-5.2
	l2.8,0.9l1.6,4.9c0.1,0.5,0.7,0.7,1.1,0.6c0.5-0.1,0.7-0.6,0.6-1.1l-1.2-3.6l2.7,0.9c0.1,0.6,0.6,1.1,1.2,1.3c0.9,0.3,2-0.2,2.3-1.1
	c0.3-0.9-0.2-2-1.1-2.3c-0.6-0.2-1.3,0-1.7,0.4l-2.7-0.9l3.1-2.2c0.4-0.3,0.5-0.8,0.2-1.2c-0.3-0.4-0.8-0.5-1.2-0.2l-4.2,3l-2.9-1
	l4.6-3.3c0.3-0.2,0.4-0.6,0.4-0.9c-0.1-0.3-0.3-0.6-0.7-0.7l-5.5-1.2l2.3-2l5,1.1c0.5,0.1,1-0.2,1.1-0.7c0.1-0.5-0.2-1-0.7-1.1
	l-3.7-0.8l2.1-1.9c0.6,0.2,1.3,0.1,1.8-0.4c0.7-0.7,0.8-1.8,0.2-2.5c-0.7-0.7-1.8-0.8-2.5-0.2c-0.5,0.4-0.7,1.1-0.6,1.7l-2.1,1.9
	l-0.4-3.8c0-0.5-0.5-0.9-1-0.8c-0.5,0-0.9,0.5-0.8,1l0.5,5.1l-2.2,2L201,24c0-0.4-0.3-0.7-0.6-0.8c-0.3-0.1-0.7,0-0.9,0.2l-3.9,4.3
	l-0.7-3.2l3.5-3.8c0.3-0.4,0.3-0.9,0-1.3c-0.4-0.3-0.9-0.3-1.3,0.1l-2.6,2.8l-0.6-2.7c0.5-0.4,0.8-1.1,0.6-1.7
	c-0.2-1-1.1-1.6-2.1-1.4c-1,0.2-1.6,1.1-1.4,2.1c0.1,0.6,0.5,1.1,1,1.3l0.6,2.8l-3.4-1.6c-0.5-0.2-0.9,0-1.2,0.4
	c-0.2,0.5-0.1,1,0.4,1.2l4.6,2.1l0.6,2.9l-4.7-2.2c-0.3-0.1-0.7-0.1-1,0.1c-0.3,0.2-0.4,0.6-0.3,0.9l1.7,5.4l-3.2-1.1l-1.5-4.9
	c-0.1-0.5-0.7-0.7-1.1-0.6c-0.5,0.1-0.7,0.6-0.6,1.1l1.2,3.7l-2.7-0.9c-0.1-0.6-0.6-1.1-1.2-1.4c-0.9-0.3-2,0.2-2.3,1.1
	C177.7,30.2,178.2,31.2,179.2,31.5z M187,37.2l3.9-2.7l3.6,1.2l-2.9,2.5L187,37.2z M192.9,39.5l2.7-2.4l0.6,3.1l0.2,0.9l-3,3.3
	L192.9,39.5z M198.1,40.4l-0.1-0.5l-0.6-3.1l3.1,1l0.8,0.3l1.4,4.5L198.1,40.4z M201.7,36.2L198,35l2.4-2.1l0.6-0.5l4.8,1
	L201.7,36.2z M199.8,30.9l-0.7,0.6l-2.4,2.1l-0.6-3.2L196,30l3.4-3.7L199.8,30.9z M194.1,30l0.2,0.9l0.6,3.1l-2.9-1l-0.5-0.2
	l-1.5-4.7L194.1,30z"/>
<polygon class="st2" points="1119.5,17.8 1119.3,11.5 1124.3,15.2 1130.2,13.1 1128.3,19 1132.1,24 1125.8,24 1122.3,29.1 
	1120.4,23.2 1114.4,21.4 "/>
<polygon class="st2" points="149.5,73.8 149.3,67.5 154.3,71.2 160.2,69.1 158.3,75 162.1,80 155.8,80 152.3,85.1 150.4,79.2 
	144.4,77.4 "/>
<path class="st2" d="M422.8,23.4c0.1,2-1.4,3.8-3.4,3.9c-2,0.1-3.8-1.4-3.9-3.4c-0.1-2,1.4-3.8,3.4-3.9
	C420.9,19.8,422.7,21.4,422.8,23.4z"/>
<path class="st4" d="M1183.6,78.7l-3-3.3l4-0.4c0.5-0.1,0.9-0.5,0.8-1c-0.1-0.5-0.5-0.9-1-0.8l-5.3,0.6l-2.7-2.9l6.9-0.8
	c0.5-0.1,0.9-0.5,0.8-1s-0.5-0.9-1-0.8l-8.2,0.9l-4.9-5.4c0.2-0.3,0.3-0.6,0.5-1c0.1-0.4,0.2-0.8,0.2-1.1l7.1-1.6l6.2,5.5
	c0.4,0.3,1,0.3,1.3-0.1c0.3-0.4,0.3-1-0.1-1.3l-5.2-4.6l3.9-0.9l4,3.5c0.4,0.3,1,0.3,1.3-0.1c0.3-0.4,0.3-1-0.1-1.3l-3-2.6l4.4-1
	c0.5-0.1,0.8-0.6,0.7-1.1c-0.1-0.5-0.6-0.8-1.1-0.7l-4.4,1l1.6-3.7c0.2-0.5,0-1-0.5-1.2c-0.5-0.2-1,0-1.2,0.5l-2.1,4.9l-3.9,0.9
	l2.7-6.3c0.2-0.5,0-1-0.5-1.2c-0.5-0.2-1,0-1.2,0.5l-3.3,7.6l-7,1.7c-0.3-0.6-1.4-1.4-1.3-1.5l2.2-7l7.7-2.7
	c0.5-0.2,0.7-0.7,0.5-1.2c-0.2-0.5-0.6-0.7-1.1-0.5l-6.4,2.3l1.2-3.8l4.9-1.8c0.5-0.2,0.7-0.7,0.5-1.2c-0.2-0.5-0.6-0.7-1.1-0.5
	l-3.7,1.3l1.3-4.3c0.2-0.5-0.1-1-0.6-1.2c-0.5-0.2-1,0.1-1.2,0.6l-1.3,4.3l-2.5-3.3c-0.3-0.4-1-0.5-1.4-0.2
	c-0.4,0.3-0.4,0.9-0.1,1.3l3.3,4.3l-1.2,3.8l-4.3-5.6c-0.3-0.4-1-0.5-1.4-0.2c-0.4,0.3-0.4,0.9-0.1,1.3l5.1,6.7l-2.2,7.1
	c-0.9-0.1-1.5,0.1-2.1,0.4l-5.1-5.5l1.6-8.1c0.1-0.5-0.3-1-0.8-1.1c-0.5-0.1-1,0.2-1.1,0.7l-1.3,6.8l-0.9-1l-1.8-1.9l1-5.2
	c0.1-0.5-0.2-1-0.8-1.1c-0.5-0.1-1,0.2-1.1,0.7l-0.8,3.9l-3-3.3c-0.3-0.4-0.9-0.4-1.3-0.1c-0.4,0.3-0.4,0.9-0.1,1.3l3,3.3l-4,0.5
	c-0.5,0.1-0.9,0.5-0.8,1c0.1,0.5,0.5,0.9,1,0.8l5.3-0.6l2.7,2.9l-6.9,0.8c-0.5,0.1-0.9,0.5-0.8,1c0.1,0.5,0.5,0.9,1,0.8l8.2-1l5,5.4
	c-0.2,0.3-0.4,0.6-0.5,1c-0.1,0.3-0.2,0.7-0.2,1l-7.2,1.6l-6.2-5.4c-0.4-0.3-1-0.3-1.3,0.1c-0.3,0.4-0.3,1,0.1,1.3l5.2,4.5l-3.9,0.9
	l-4-3.5c-0.4-0.3-1-0.3-1.3,0.1c-0.3,0.4-0.3,1,0.1,1.3l3,2.6l-4.4,1c-0.5,0.1-0.8,0.6-0.7,1.1c0.1,0.5,0.6,0.8,1.1,0.7l4.4-1
	l-1.6,3.7c-0.2,0.5,0,1,0.5,1.2c0.5,0.2,1,0,1.2-0.5l2.1-4.9l3.9-0.9l-2.7,6.4c-0.2,0.5,0,1,0.5,1.2c0.5,0.2,1,0,1.2-0.5l3.3-7.6
	l7.4-1.5c0.3,0.6,0.8,1.2,1.6,1.6l-2.2,7l-8,2.6c-0.5,0.2-0.8,0.7-0.6,1.2c0.2,0.5,0.8,0.8,1.3,0.6l6.6-2.2l-1.2,3.8l-5.2,1.7
	c-0.5,0.2-0.8,0.7-0.6,1.2c0.2,0.5,0.8,0.8,1.3,0.6l3.9-1.3l-1.3,4.3c-0.2,0.5,0.1,1,0.6,1.2c0.5,0.2,1-0.1,1.2-0.6l1.3-4.3l2.2,3.2
	c0.3,0.4,0.8,0.5,1.2,0.2c0.4-0.3,0.6-0.9,0.3-1.3l-3.1-4.3l1.2-3.8l4,5.5c0.3,0.4,0.8,0.5,1.2,0.2c0.4-0.3,0.6-0.9,0.3-1.3
	l-4.8-6.6l2.2-6.9c0.1-0.2,1.4-0.2,2.1-0.5l4.9,5.3l-1.7,8.1c-0.1,0.5,0.2,1,0.7,1.1s1-0.2,1.1-0.7l1.3-6.8l0.3,0.4l2.4,2.6l-1,5.2
	c-0.1,0.5,0.2,1,0.7,1.1c0.5,0.1,1-0.2,1.1-0.7l0.8-3.9l3,3.3c0.3,0.4,0.9,0.4,1.3,0.1C1183.9,79.7,1184,79.1,1183.6,78.7z"/>
<path class="st1" d="M1400.4,27.6c0.1,2-1.4,3.8-3.4,3.9c-2,0.1-3.8-1.4-3.9-3.4s1.4-3.8,3.4-3.9C1398.5,24,1400.2,25.5,1400.4,27.6
	z"/>
<path class="st1" d="M1294.8,95.3c0.2,2-1.2,3.8-3.3,4.1c-2,0.2-3.8-1.2-4.1-3.3c-0.2-2,1.2-3.8,3.3-4.1
	C1292.8,91.8,1294.6,93.3,1294.8,95.3z"/>
<path class="st0" d="M1400.1,112.8l-1.5-1.2c-0.4-0.3-1-0.4-1.4-0.1c0,0-0.1,0-0.1,0.1l-6.2,4.4l1-7.5c0.1-0.6-0.2-1.1-0.7-1.3
	l-6.9-3.2l7-2.9c0.5-0.2,0.8-0.7,0.8-1.3l-0.7-7.6l6,4.6c0.4,0.3,1.1,0.4,1.5,0l1.2-0.9v-3.2l-1.9,1.4l-7.6-5.8
	c-0.4-0.3-1-0.4-1.4-0.1c-0.4,0.2-0.7,0.7-0.7,1.2l0.8,9.6l-8.9,3.7c-0.5,0.2-0.8,0.7-0.8,1.2c0,0.5,0.3,1,0.7,1.2l8.7,4l-1.2,9.5
	c-0.1,0.5,0.2,1,0.6,1.3c0.4,0.3,1,0.2,1.4,0l7.9-5.5l2.3,1.8V112.8z"/>
<path class="st5" d="M1228.4,2.1c-0.4,0.2-0.7,0.5-0.7,1l-1.8,0.7l0.6-2.5c0.1-0.3-0.1-0.7-0.4-0.7c-0.3-0.1-0.7,0.1-0.7,0.4
	l-0.8,3.4l-1.9,0.8l0.9-3.6c0.1-0.2,0-0.5-0.2-0.6c-0.2-0.1-0.4-0.2-0.7-0.1l-3.4,1.9l0.3-2.2l3.1-1.6c0.1-0.1,0.2-0.2,0.2-0.3h-2.3
	l-0.8,0.4l0.1-0.4h-1.3l0,0.2l-0.2-0.2h-1.7l1.8,1.7l-0.3,2l-2.5-2.5c-0.2-0.2-0.4-0.2-0.7-0.1s-0.4,0.3-0.4,0.5l-0.1,3.8l-1.8-1.4
	l0.1-3.5c0-0.3-0.3-0.6-0.6-0.6c-0.3,0-0.6,0.2-0.6,0.6l-0.1,2.6l-1.5-1.2c0.1-0.4-0.1-0.9-0.5-1.1c-0.5-0.4-1.3-0.3-1.7,0.2
	c-0.4,0.5-0.3,1.3,0.2,1.7c0.4,0.3,0.8,0.3,1.2,0.2l1.5,1.2l-2.5,0.7c-0.3,0.1-0.5,0.4-0.4,0.7c0.1,0.3,0.4,0.5,0.7,0.4l3.3-1
	l1.7,1.3l-3.5,1c-0.2,0.1-0.4,0.3-0.4,0.5c0,0.2,0.1,0.5,0.3,0.6L1213,9l-1,0.4l-1,0.4l-3-1.8c-0.3-0.2-0.7-0.1-0.8,0.2
	c-0.2,0.3-0.1,0.7,0.2,0.8l2.2,1.4l-1.8,0.7c-0.3-0.3-0.8-0.3-1.2-0.2c-0.6,0.3-0.9,1-0.7,1.6c0.3,0.6,1,0.9,1.6,0.7
	c0.4-0.2,0.7-0.5,0.7-0.9l1.8-0.7l-0.6,2.5c-0.1,0.3,0.1,0.7,0.4,0.7c0.3,0.1,0.7-0.1,0.7-0.4l0.8-3.4l1.7-0.7l0.4-0.1l-0.9,3.7
	c-0.1,0.2,0,0.5,0.2,0.6c0.2,0.1,0.4,0.2,0.7,0.1l3.1-1.7l-0.3,2l-3,1.7c-0.3,0.2-0.4,0.5-0.2,0.8c0.2,0.3,0.5,0.4,0.8,0.2l2.2-1.2
	l-0.3,1.9c-0.3,0.2-0.6,0.5-0.7,0.9c-0.1,0.7,0.4,1.3,1,1.4c0.7,0.1,1.3-0.4,1.4-1c0.1-0.5-0.1-0.9-0.5-1.1l0.3-1.9l1.9,1.8
	c0.2,0.2,0.6,0.2,0.9,0c0.2-0.2,0.2-0.6,0-0.9l-2.5-2.4l0.3-2.2l2.8,2.7c0.2,0.2,0.4,0.2,0.7,0.1c0.2-0.1,0.4-0.3,0.4-0.5l0.1-3.7
	l1.6,1.2l-0.1,3.5c0,0.3,0.3,0.6,0.6,0.6c0.3,0,0.6-0.2,0.6-0.6l0.1-2.6l1.5,1.2c-0.1,0.4,0.1,0.8,0.5,1.1c0.5,0.4,1.3,0.3,1.7-0.2
	c0.4-0.5,0.3-1.3-0.2-1.7c-0.4-0.3-0.8-0.3-1.2-0.2l-1.5-1.2l2.5-0.7c0.3-0.1,0.5-0.4,0.4-0.8c-0.1-0.3-0.4-0.5-0.8-0.4l-3.3,1
	l-1.6-1.3l3.7-1c0.2-0.1,0.4-0.3,0.4-0.5c0-0.2-0.1-0.5-0.3-0.6l-3.2-2l1.9-0.8l3,1.8c0.3,0.2,0.7,0.1,0.8-0.2
	c0.2-0.3,0.1-0.7-0.2-0.8l-2.2-1.4l1.8-0.7c0.3,0.3,0.8,0.3,1.2,0.2c0.6-0.3,0.9-1,0.7-1.6S1229,1.8,1228.4,2.1z M1211.6,6.8
	l3.1-0.9l2,1.6l-2.4,1L1211.6,6.8z M1216.8,10.7l-0.1,0.6l-2.7,1.4l0.8-3.2l2.2-0.9L1216.8,10.7z M1217.7,4.4l-0.3,2.1l-1.6-1.3
	l-0.3-0.2l0.1-3.3l2.2,2.1L1217.7,4.4z M1219,4.5l0.1-0.4l3-1.6l-0.8,3.1l-0.5,0.2l-2,0.8L1219,4.5z M1220.5,13.7l-2.5-2.4l0.1-0.4
	l0.3-2.2l1.7,1.3l0.5,0.4L1220.5,13.7z M1224.5,8.5l-3.2,0.9l-2.1-1.6l2-0.8l0.5-0.2L1224.5,8.5z"/>
<path class="st3" d="M1084.3,69.4c-0.3-0.1-0.6-0.4-0.6-0.7l-1-6.4l-6.4-1c-0.3-0.1-0.6-0.3-0.7-0.6c-0.1-0.3,0-0.7,0.3-0.9l5.1-4
	l-2.3-6.1c-0.1-0.3,0-0.7,0.2-0.9c0.2-0.2,0.6-0.3,0.9-0.2l6,2.4l4.1-5c0.2-0.3,0.6-0.4,0.9-0.3c0.3,0.1,0.6,0.4,0.6,0.7l1,6.4
	l6.4,1c0.3,0.1,0.6,0.3,0.7,0.6c0.1,0.3,0,0.7-0.3,0.9l-5.1,4l2.3,6.1c0.1,0.3,0,0.7-0.2,0.9c-0.2,0.2-0.6,0.3-0.9,0.2l-6-2.4
	l-4.1,5C1085,69.3,1084.6,69.5,1084.3,69.4z M1083.7,60.6c0.3,0.1,0.6,0.4,0.6,0.7l0.8,5.1l3.3-4c0.2-0.3,0.6-0.4,1-0.3l4.8,1.9
	l-1.8-4.8c-0.1-0.4,0-0.8,0.3-1l4-3.2l-5.1-0.8c-0.4-0.1-0.7-0.4-0.7-0.7l-0.8-5.1l-3.3,4c-0.2,0.3-0.6,0.4-1,0.3l-4.8-1.9l1.8,4.8
	c0.1,0.4,0,0.8-0.3,1l-4,3.2L1083.7,60.6C1083.6,60.6,1083.7,60.6,1083.7,60.6z"/>
<g>
	<polygon class="st3" points="1228.8,65.3 1228.5,65.5 1228.5,65.6 1228.3,65.8 1228.2,65.8 1220.4,72.9 1227.7,80.9 1228.2,81.5 
		1236.6,74 	"/>
	<polygon class="st3" points="1245.3,84.6 1245.3,84.6 1245.5,84.3 1245.5,84.3 1245.8,84.1 1238.1,75.6 1229.7,83.1 1230,83.5 
		1230,83.5 1230.3,83.8 1237.4,91.7 1245.2,84.7 	"/>
	<path class="st3" d="M1236.1,58.7l-4.9,4.5l-0.3,0.3l-0.5,0.4l7.8,8.7l6.6-6c0.4-0.4,1.1-0.4,1.5,0.1l0,0c0.4,0.4,0.4,1.1-0.1,1.5
		l-6.6,6l7.7,8.5l0.5-0.4l0.3-0.3l5.3-4.8l0,0l0.2-0.2l0.6,0.6l2.5-2.3l-0.6-0.6l-6.6-7.3c0,0,0,0,0,0c3.4,1.9,7.2,7.2,9.4,2.9
		c0.5-1,0.4-2.8-0.9-4.3c-0.8-0.9-2.1-1.7-4-2.2c-2.3-0.6-4.3,0.3-5.7,1.2c1.5-1.6,3.3-3.9,2.9-7.3c-0.2-1.9-0.9-3.3-1.8-4.3
		c-2.1-2.3-5.5-2.6-7.4-1.4c-4.8,3.3,3,6.8,3.9,11.3c0,0-0.1,0-0.1,0l-6.7-7.5l-0.6-0.6l-2.5,2.3l0.6,0.6L1236.1,58.7z M1252.9,65.4
		c1.8,0.4,2.8,1,3.3,1.5c0.5,0.5,0.5,1.1,0.5,1.5c0,0,0,0.1,0,0.1c-0.9,2.4-4.4-2.2-7.7-2.8c0,0-0.1-0.1-0.1-0.1
		C1250.1,65.2,1251.3,65,1252.9,65.4z M1244.9,54.4c0,0,2.1-0.4,3.4,1c0.6,0.6,1,1.7,1,3.3c0,2.5-0.7,4.2-1.6,5.6c0,0,0,0,0,0
		c0,0-0.1-0.1-0.1-0.1C1248.2,59.5,1240.9,56.1,1244.9,54.4z"/>
</g>
<g>
	<path class="st1" d="M1357.5,81.7c-1.1-2.2-2.2-5.3-3.2-8.6c2.5,1.6,5.7,1,3.3-3.9c-1.2-2.4-2.3-6-3.2-9.7c1.7,1,3.9,0.4,2.3-3.3
		c-2.5-5.9-4.1-20.7-4.1-20.7c-0.1-2.4-2.8-2.9-4-1.2c0,0-10.2,12-14.9,14.9c-2.7,1.7-1.7,3.5-0.1,4.1c-3,2.7-5.9,5.1-8,6.3
		c-4.1,2.2-1.9,4.9,0.9,5.3c-2.8,2.3-5.4,4.2-7.4,5.3c-7.5,3.9,3.2,9.2,6.4,4.1c-3.4,5.4,3.7,7.1,6.8,1.5c-4.2,7.3,3.7,8.1,5.8,1
		c-2.2,7.1,4.9,10.4,5.9,2.1c-0.9,7,6.2,9.5,6.5,2.4C1350.4,87.3,1362,90.4,1357.5,81.7z"/>
	<path class="st1" d="M1337.8,78.4c-1.1,3.7-3.9,5.3-5.6,4.8c-1.1,2.6-1.8,5-1.1,5.4c0.9,0.5,3.3,1.5,5.4,1.7
		c1.5,0.2,2.4-2.4,2.9-5.2C1337.8,84.4,1336.7,81.9,1337.8,78.4z"/>
</g>
<path class="st1" d="M1117.1,87.9c0.2,1.3-0.7,2.5-2,2.8s-2.5-0.7-2.8-2c-0.2-1.3,0.7-2.5,2-2.8
	C1115.6,85.8,1116.8,86.6,1117.1,87.9z"/>
<path class="st4" d="M1376.5,7.6c-0.6-0.1-1.1,0.1-1.5,0.5l-2.4-0.5l2.5-2.3c0.3-0.3,0.4-0.8,0.1-1.1c-0.3-0.3-0.8-0.4-1.1-0.1
	l-3.4,3l-2.4-0.5l-0.5-0.1l3.7-3.3c0.2-0.2,0.3-0.5,0.2-0.8c-0.1-0.3-0.4-0.5-0.7-0.5l-4.6-0.5l1.7-1.9l4.5,0.4
	c0.4,0,0.8-0.3,0.8-0.7c0-0.2,0-0.4-0.2-0.6h-6.6l-1.7,1.9l-0.4-1.9h-1.6l0.7,3.4l-0.3,0.4l-1.9,2.1l-0.9-2.7l-0.2-0.7l1.7-2.4h-2
	l-0.4,0.5l-0.2-0.5h-1.7l0.4,1.1l-3.3-1.1h-2.4c-0.1,0.2-0.1,0.4,0,0.6l2,4.5l-2.7-0.6l-1.9-4.2c-0.2-0.4-0.6-0.6-1-0.4
	c-0.4,0.2-0.6,0.6-0.4,1l1.4,3.1l-2.4-0.5c-0.2-0.5-0.6-0.9-1.2-1.1c-0.9-0.2-1.7,0.4-1.9,1.2s0.4,1.7,1.2,1.9
	c0.6,0.1,1.1-0.1,1.5-0.5l2.4,0.5l-2.5,2.3c-0.3,0.3-0.4,0.8-0.1,1.1c0.3,0.3,0.8,0.4,1.1,0.1l3.4-3l2.6,0.5l-3.6,3.2
	c-0.2,0.2-0.3,0.5-0.2,0.8c0.1,0.3,0.4,0.5,0.7,0.5l5.1,0.5l-1.9,2.2l-4.5-0.5c-0.4,0-0.8,0.3-0.9,0.7c0,0.4,0.3,0.8,0.7,0.9
	l3.4,0.4l-1.6,1.8c-0.5-0.1-1.1,0-1.6,0.5c-0.6,0.7-0.5,1.7,0.1,2.2c0.7,0.6,1.7,0.5,2.2-0.1c0.4-0.4,0.5-0.9,0.4-1.4l1.7-1.9
	l0.7,3.3c0.1,0.4,0.5,0.7,0.9,0.6c0.4-0.1,0.7-0.5,0.6-0.9l-0.9-4.4l1.7-1.9l0.9,4.5c0.1,0.3,0.3,0.5,0.6,0.6
	c0.3,0.1,0.6-0.1,0.8-0.3l2.9-4l0.9,2.8l-2.7,3.7c-0.3,0.4-0.2,0.8,0.2,1.1c0.4,0.3,0.8,0.2,1.1-0.2l2-2.7l0.8,2.4
	c-0.4,0.4-0.5,1-0.3,1.6c0.3,0.8,1.2,1.3,2,1c0.8-0.3,1.3-1.2,1-2c-0.2-0.6-0.6-0.9-1.2-1.1l-0.8-2.4l3.2,1.1c0.4,0.1,0.9-0.1,1-0.5
	c0.1-0.4-0.1-0.9-0.5-1l-4.3-1.4l-0.9-2.7l4.6,1.5c0.3,0.1,0.6,0,0.8-0.2c0.2-0.2,0.3-0.6,0.1-0.9l-2-4.4l1.4,0.3l1.4,0.3l1.9,4.2
	c0.2,0.4,0.6,0.6,1,0.4c0.4-0.2,0.6-0.6,0.4-1l-1.4-3.1l2.4,0.5c0.2,0.5,0.6,0.9,1.2,1.1c0.9,0.2,1.7-0.4,1.9-1.2
	C1377.9,8.6,1377.3,7.8,1376.5,7.6z M1358.9,1.5l1.1,3.3l-2.8-0.6l-0.7-0.1l-1.8-4L1358.9,1.5z M1357.7,8.5l-0.3,0.4l-4.4-0.5
	l3.1-2.8l0.8,0.2l2.8,0.6L1357.7,8.5z M1359.3,14.1l-0.8-3.9l0.5-0.6l1.9-2.1l0.8,2.6l0.1,0.4L1359.3,14.1z M1363.3,10.2l-1-3.2
	l3.3,0.7l1.7,3.8L1363.3,10.2z M1365.8,6.1l-3.1-0.7l1.8-2.1l0.5-0.6l4,0.4L1365.8,6.1z"/>
<path class="st3" d="M1374.7,53.5c-0.2-2,1.3-3.8,3.4-4c2-0.2,3.8,1.3,4,3.4c0.2,2-1.3,3.8-3.4,4C1376.6,57,1374.8,55.5,1374.7,53.5
	z"/>
<path class="st2" d="M1028.8,41.1c0.4,0.1,0.7,0,1-0.2l1.5,0.5l-1.8,1.3c-0.2,0.2-0.3,0.5-0.1,0.7c0.2,0.2,0.5,0.3,0.7,0.1l2.4-1.7
	l1.8,0.6l-2.6,1.8c-0.2,0.1-0.2,0.3-0.2,0.5c0,0.2,0.2,0.4,0.4,0.4l3.1,0.7l-0.7,0.6l-0.7,0.6l-2.9-0.6c-0.3-0.1-0.6,0.1-0.6,0.4
	c-0.1,0.3,0.1,0.6,0.4,0.6l2.2,0.5l-1.2,1.1c-0.3-0.1-0.7-0.1-1,0.2c-0.4,0.4-0.5,1-0.1,1.5c0.4,0.4,1,0.5,1.5,0.1
	c0.3-0.3,0.4-0.6,0.3-1l1.2-1.1l0.2,2.2c0,0.3,0.3,0.5,0.6,0.5c0.3,0,0.5-0.3,0.5-0.6l-0.3-2.9l1.2-1l0.2-0.2l0.3,3.2
	c0,0.2,0.2,0.4,0.3,0.4c0.2,0.1,0.4,0,0.5-0.1l2-2.2l0.3,1.7l-2,2.2c-0.2,0.2-0.1,0.5,0.1,0.7c0.2,0.2,0.5,0.2,0.7,0l1.5-1.6
	l0.3,1.6c-0.2,0.2-0.3,0.6-0.3,0.9c0.1,0.6,0.7,0.9,1.2,0.8c0.6-0.1,0.9-0.7,0.8-1.2c-0.1-0.4-0.4-0.7-0.7-0.8l-0.3-1.6l2,0.9
	c0.3,0.1,0.6,0,0.7-0.3c0.1-0.3,0-0.6-0.3-0.7l-2.7-1.2l-0.4-1.8l3,1.4c0.2,0.1,0.4,0.1,0.6-0.1c0.2-0.1,0.2-0.3,0.1-0.5l-1-3
	l1.6,0.5l0.9,2.8c0.1,0.3,0.4,0.4,0.6,0.3c0.3-0.1,0.4-0.4,0.3-0.6l-0.7-2.1l1.5,0.5c0.1,0.3,0.3,0.7,0.7,0.8
	c0.5,0.2,1.1-0.1,1.3-0.7c0.2-0.5-0.1-1.1-0.7-1.3c-0.4-0.1-0.7,0-1,0.2l-1.5-0.5l1.8-1.3c0.2-0.2,0.3-0.5,0.1-0.7
	c-0.2-0.2-0.5-0.3-0.7-0.1l-2.4,1.7l-1.7-0.6l2.6-1.9c0.2-0.1,0.2-0.3,0.2-0.5c0-0.2-0.2-0.4-0.4-0.4l-3.2-0.7l1.3-1.2l2.9,0.6
	c0.3,0.1,0.5-0.1,0.6-0.4c0.1-0.3-0.1-0.6-0.4-0.6l-2.2-0.5l1.2-1.1c0.3,0.1,0.7,0.1,1-0.2c0.4-0.4,0.5-1,0.1-1.5
	c-0.4-0.4-1-0.5-1.5-0.1c-0.3,0.3-0.4,0.6-0.3,1l-1.2,1.1l-0.2-2.2c0-0.3-0.3-0.5-0.6-0.5c-0.3,0-0.5,0.3-0.5,0.6l0.3,2.9l-1.3,1.1
	l-0.3-3.1c0-0.2-0.2-0.4-0.3-0.4c-0.2-0.1-0.4,0-0.5,0.1l-2.2,2.5l-0.4-1.8l2-2.2c0.2-0.2,0.2-0.5,0-0.7c-0.2-0.2-0.5-0.2-0.7,0
	l-1.5,1.6l-0.3-1.6c0.3-0.2,0.4-0.6,0.4-1c-0.1-0.6-0.7-0.9-1.2-0.8c-0.6,0.1-0.9,0.7-0.8,1.2c0.1,0.3,0.3,0.6,0.6,0.7l0.3,1.6
	l-2-0.9c-0.3-0.1-0.5,0-0.7,0.3c-0.1,0.3,0,0.6,0.2,0.7l2.7,1.2l0.3,1.7l-2.7-1.3c-0.2-0.1-0.4-0.1-0.6,0.1
	c-0.2,0.1-0.2,0.3-0.1,0.5l1,3.1l-1.8-0.6l-0.9-2.8c-0.1-0.3-0.4-0.4-0.6-0.3c-0.3,0.1-0.4,0.4-0.3,0.6l0.7,2.1l-1.5-0.5
	c-0.1-0.4-0.3-0.7-0.7-0.8c-0.5-0.2-1.1,0.1-1.3,0.7C1028,40.4,1028.3,41,1028.8,41.1z M1033.3,44.4l2.2-1.6l2.1,0.7L1036,45
	L1033.3,44.4z M1036.7,45.7l1.5-1.4l0.4,1.8l0.1,0.5l-1.7,1.9L1036.7,45.7z M1039.7,46.2l-0.1-0.3l-0.4-1.8l1.8,0.6l0.5,0.2l0.8,2.6
	L1039.7,46.2z M1041.8,43.9l-2.2-0.7l1.4-1.2l0.3-0.3l2.8,0.6L1041.8,43.9z M1040.7,40.8l-0.4,0.3l-1.4,1.2l-0.4-1.8l-0.1-0.3l2-2.1
	L1040.7,40.8z M1037.4,40.3l0.1,0.5l0.4,1.8l-1.7-0.6l-0.3-0.1l-0.9-2.7L1037.4,40.3z"/>
<path class="st1" d="M77.8,103.1c0.4,0.1,0.7,0,1-0.2l1.5,0.5l-1.8,1.3c-0.2,0.2-0.3,0.5-0.1,0.7c0.2,0.2,0.5,0.3,0.7,0.1l2.4-1.7
	l1.8,0.6l-2.6,1.8c-0.2,0.1-0.2,0.3-0.2,0.5c0,0.2,0.2,0.4,0.4,0.4l3.1,0.7l-0.7,0.6l-0.7,0.6l-2.9-0.6c-0.3-0.1-0.6,0.1-0.6,0.4
	c-0.1,0.3,0.1,0.6,0.4,0.6l2.2,0.5l-1.2,1.1c-0.3-0.1-0.7-0.1-1,0.2c-0.4,0.4-0.5,1-0.1,1.5c0.4,0.4,1,0.5,1.5,0.1
	c0.3-0.3,0.4-0.6,0.3-1l1.2-1.1l0.2,2.2c0,0.3,0.3,0.5,0.6,0.5c0.3,0,0.5-0.3,0.5-0.6l-0.3-2.9l1.2-1l0.2-0.2l0.3,3.2
	c0,0.2,0.2,0.4,0.3,0.4c0.2,0.1,0.4,0,0.5-0.1l2-2.2l0.3,1.7l-2,2.2c-0.2,0.2-0.1,0.5,0.1,0.7c0.2,0.2,0.5,0.2,0.7,0l1.5-1.6
	l0.3,1.6c-0.2,0.2-0.3,0.6-0.3,0.9c0.1,0.6,0.7,0.9,1.2,0.8c0.6-0.1,0.9-0.7,0.8-1.2c-0.1-0.4-0.4-0.7-0.7-0.8l-0.3-1.6l2,0.9
	c0.3,0.1,0.6,0,0.7-0.3c0.1-0.3,0-0.6-0.3-0.7l-2.7-1.2l-0.4-1.8l3,1.4c0.2,0.1,0.4,0.1,0.6-0.1c0.2-0.1,0.2-0.3,0.1-0.5l-1-3
	l1.6,0.5l0.9,2.8c0.1,0.3,0.4,0.4,0.6,0.3c0.3-0.1,0.4-0.4,0.3-0.6l-0.7-2.1l1.5,0.5c0.1,0.3,0.3,0.7,0.7,0.8
	c0.5,0.2,1.1-0.1,1.3-0.7c0.2-0.5-0.1-1.1-0.7-1.3c-0.4-0.1-0.7,0-1,0.2l-1.5-0.5l1.8-1.3c0.2-0.2,0.3-0.5,0.1-0.7
	c-0.2-0.2-0.5-0.3-0.7-0.1l-2.4,1.7l-1.7-0.6l2.6-1.9c0.2-0.1,0.2-0.3,0.2-0.5c0-0.2-0.2-0.4-0.4-0.4l-3.2-0.7l1.3-1.2l2.9,0.6
	c0.3,0.1,0.5-0.1,0.6-0.4c0.1-0.3-0.1-0.6-0.4-0.6l-2.2-0.5l1.2-1.1c0.3,0.1,0.7,0.1,1-0.2c0.4-0.4,0.5-1,0.1-1.5
	c-0.4-0.4-1-0.5-1.5-0.1c-0.3,0.3-0.4,0.6-0.3,1l-1.2,1.1l-0.2-2.2c0-0.3-0.3-0.5-0.6-0.5c-0.3,0-0.5,0.3-0.5,0.6l0.3,2.9l-1.3,1.1
	l-0.3-3.1c0-0.2-0.2-0.4-0.3-0.4c-0.2-0.1-0.4,0-0.5,0.1l-2.2,2.5l-0.4-1.8l2-2.2c0.2-0.2,0.2-0.5,0-0.7c-0.2-0.2-0.5-0.2-0.7,0
	l-1.5,1.6l-0.3-1.6c0.3-0.2,0.4-0.6,0.4-1c-0.1-0.6-0.7-0.9-1.2-0.8c-0.6,0.1-0.9,0.7-0.8,1.2c0.1,0.3,0.3,0.6,0.6,0.7l0.3,1.6
	l-2-0.9c-0.3-0.1-0.5,0-0.7,0.3c-0.1,0.3,0,0.6,0.2,0.7l2.7,1.2l0.3,1.7l-2.7-1.3c-0.2-0.1-0.4-0.1-0.6,0.1
	c-0.2,0.1-0.2,0.3-0.1,0.5l1,3.1l-1.8-0.6l-0.9-2.8c-0.1-0.3-0.4-0.4-0.6-0.3c-0.3,0.1-0.4,0.4-0.3,0.6l0.7,2.1l-1.5-0.5
	c-0.1-0.4-0.3-0.7-0.7-0.8c-0.5-0.2-1.1,0.1-1.3,0.7C77,102.4,77.3,103,77.8,103.1z M82.3,106.4l2.2-1.6l2.1,0.7L85,107L82.3,106.4z
	 M85.7,107.7l1.5-1.4l0.4,1.8l0.1,0.5l-1.7,1.9L85.7,107.7z M88.7,108.2l-0.1-0.3l-0.4-1.8l1.8,0.6l0.5,0.2l0.8,2.6L88.7,108.2z
	 M90.8,105.9l-2.2-0.7l1.4-1.2l0.3-0.3l2.8,0.6L90.8,105.9z M89.7,102.8l-0.4,0.3l-1.4,1.2l-0.4-1.8l-0.1-0.3l2-2.1L89.7,102.8z
	 M86.4,102.3l0.1,0.5l0.4,1.8l-1.7-0.6l-0.3-0.1l-0.9-2.7L86.4,102.3z"/>
</svg>
